M48
;GenerationSoftware,Autodesk,EAGLE,9.6.1*%
;CreationDate,2024-03-25T20:09:30Z*%
FMAT,2
ICI,OFF
METRIC,TZ,000.000
T2C0.350
T1C1.016
%
G90
M71
T1
X22860Y11481
X22860Y14021
X22860Y16561
X22860Y19101
X22860Y21641
X22860Y24181
X22860Y26721
X22860Y29261
X22860Y31801
X22860Y34341
X-22860Y11481
X-22860Y14021
X-22860Y16561
X-22860Y19101
X-22860Y21641
X-22860Y24181
X-22860Y26721
X-22860Y29261
X-22860Y31801
X-22860Y34341
T2
X-16637Y36830
X-21717Y38221
M30