G04 EAGLE Gerber RS-274X export*
G75*
%MOMM*%
%FSLAX34Y34*%
%LPD*%
%INBottom Copper*%
%IPPOS*%
%AMOC8*
5,1,8,0,0,1.08239X$1,22.5*%
G01*
%ADD10C,1.000000*%
%ADD11C,1.524000*%
%ADD12R,1.200000X0.550000*%
%ADD13R,1.000000X1.100000*%
%ADD14R,1.600000X2.700000*%
%ADD15R,2.700000X1.600000*%
%ADD16R,1.100000X1.000000*%
%ADD17C,0.406400*%
%ADD18C,0.750000*%
%ADD19C,0.203200*%

G36*
X408Y410495D02*
X408Y410495D01*
X494Y410518D01*
X582Y410532D01*
X612Y410548D01*
X646Y410557D01*
X715Y410597D01*
X1351Y410501D01*
X1384Y410501D01*
X1465Y410492D01*
X2105Y410492D01*
X2167Y410456D01*
X2239Y410404D01*
X2272Y410394D01*
X2302Y410376D01*
X2464Y410333D01*
X4641Y410005D01*
X4676Y410005D01*
X4710Y409998D01*
X4798Y410007D01*
X4887Y410008D01*
X4920Y410019D01*
X4954Y410023D01*
X5028Y410052D01*
X5643Y409862D01*
X5676Y409858D01*
X5754Y409837D01*
X6388Y409742D01*
X6443Y409696D01*
X6507Y409634D01*
X6538Y409619D01*
X6565Y409597D01*
X6719Y409531D01*
X8823Y408882D01*
X8857Y408877D01*
X8890Y408864D01*
X8979Y408860D01*
X9067Y408848D01*
X9101Y408854D01*
X9135Y408853D01*
X9213Y408871D01*
X9793Y408591D01*
X9824Y408582D01*
X9899Y408550D01*
X10510Y408361D01*
X10559Y408308D01*
X10612Y408237D01*
X10641Y408218D01*
X10664Y408192D01*
X10807Y408103D01*
X12791Y407148D01*
X12824Y407138D01*
X12854Y407121D01*
X12941Y407103D01*
X13027Y407078D01*
X13061Y407079D01*
X13095Y407073D01*
X13174Y407079D01*
X13706Y406716D01*
X13736Y406702D01*
X13805Y406659D01*
X14382Y406381D01*
X14421Y406322D01*
X14464Y406244D01*
X14489Y406220D01*
X14509Y406191D01*
X14636Y406082D01*
X16455Y404842D01*
X16487Y404827D01*
X16514Y404806D01*
X16598Y404775D01*
X16678Y404738D01*
X16713Y404734D01*
X16745Y404722D01*
X16825Y404716D01*
X17296Y404279D01*
X17324Y404260D01*
X17385Y404208D01*
X17914Y403847D01*
X17945Y403782D01*
X17975Y403699D01*
X17997Y403671D01*
X18012Y403640D01*
X18121Y403513D01*
X19736Y402015D01*
X19764Y401996D01*
X19788Y401971D01*
X19866Y401929D01*
X19941Y401879D01*
X19974Y401871D01*
X20004Y401854D01*
X20082Y401837D01*
X20483Y401333D01*
X20508Y401311D01*
X20561Y401250D01*
X21030Y400814D01*
X21051Y400746D01*
X21068Y400658D01*
X21073Y400651D01*
X21074Y400646D01*
X21087Y400624D01*
X21095Y400595D01*
X21185Y400453D01*
X22558Y398732D01*
X22584Y398709D01*
X22603Y398680D01*
X22674Y398626D01*
X22740Y398567D01*
X22772Y398553D01*
X22800Y398532D01*
X22874Y398503D01*
X23195Y397946D01*
X23216Y397920D01*
X23260Y397852D01*
X23659Y397351D01*
X23669Y397280D01*
X23673Y397191D01*
X23686Y397159D01*
X23691Y397125D01*
X23758Y396971D01*
X24859Y395064D01*
X24881Y395037D01*
X24896Y395006D01*
X24959Y394942D01*
X25015Y394874D01*
X25044Y394855D01*
X25069Y394831D01*
X25138Y394791D01*
X25373Y394192D01*
X25389Y394164D01*
X25422Y394089D01*
X25742Y393535D01*
X25742Y393463D01*
X25733Y393375D01*
X25740Y393341D01*
X25740Y393306D01*
X25784Y393144D01*
X26588Y391094D01*
X26606Y391065D01*
X26616Y391032D01*
X26669Y390959D01*
X26714Y390883D01*
X26740Y390860D01*
X26761Y390832D01*
X26823Y390783D01*
X26966Y390155D01*
X26978Y390125D01*
X27000Y390047D01*
X27233Y389451D01*
X27222Y389380D01*
X27200Y389294D01*
X27203Y389259D01*
X27197Y389225D01*
X27216Y389058D01*
X27706Y386911D01*
X27719Y386879D01*
X27725Y386845D01*
X27766Y386766D01*
X27799Y386684D01*
X27822Y386657D01*
X27838Y386627D01*
X27892Y386569D01*
X27940Y385927D01*
X27948Y385895D01*
X27957Y385814D01*
X28099Y385190D01*
X28078Y385121D01*
X28043Y385040D01*
X28041Y385005D01*
X28030Y384972D01*
X28024Y384804D01*
X28180Y382725D01*
X28195Y382664D01*
X28200Y382601D01*
X28223Y382545D01*
X28238Y382486D01*
X28263Y382446D01*
X28263Y381647D01*
X28266Y381626D01*
X28265Y381590D01*
X28313Y380943D01*
X28340Y380832D01*
X28364Y380720D01*
X28369Y380713D01*
X28371Y380704D01*
X28432Y380607D01*
X28491Y380509D01*
X28497Y380503D01*
X28502Y380496D01*
X28591Y380424D01*
X28678Y380349D01*
X28686Y380346D01*
X28693Y380340D01*
X28799Y380300D01*
X28906Y380257D01*
X28916Y380256D01*
X28923Y380254D01*
X28946Y380253D01*
X29072Y380239D01*
X85923Y380239D01*
X115050Y330306D01*
X115122Y330219D01*
X115192Y330130D01*
X115200Y330124D01*
X115207Y330116D01*
X115303Y330056D01*
X115397Y329994D01*
X115407Y329992D01*
X115416Y329986D01*
X115526Y329960D01*
X115635Y329932D01*
X115645Y329932D01*
X115655Y329930D01*
X115768Y329940D01*
X115880Y329948D01*
X115892Y329952D01*
X115900Y329953D01*
X115923Y329963D01*
X116039Y330004D01*
X116764Y330354D01*
X116782Y330366D01*
X116815Y330380D01*
X117497Y330775D01*
X117507Y330774D01*
X117568Y330788D01*
X117631Y330792D01*
X117714Y330822D01*
X117747Y330829D01*
X117762Y330839D01*
X117789Y330848D01*
X119664Y331752D01*
X119692Y331772D01*
X119724Y331785D01*
X119792Y331842D01*
X119865Y331893D01*
X119886Y331921D01*
X119912Y331944D01*
X119957Y332009D01*
X120572Y332200D01*
X120601Y332214D01*
X120677Y332241D01*
X121254Y332519D01*
X121326Y332513D01*
X121413Y332498D01*
X121448Y332503D01*
X121482Y332500D01*
X121647Y332532D01*
X123746Y333181D01*
X123777Y333196D01*
X123811Y333204D01*
X123887Y333251D01*
X123967Y333291D01*
X123991Y333315D01*
X124021Y333333D01*
X124074Y333392D01*
X124711Y333488D01*
X124742Y333498D01*
X124822Y333513D01*
X125434Y333703D01*
X125503Y333686D01*
X125588Y333658D01*
X125623Y333658D01*
X125656Y333650D01*
X125824Y333656D01*
X127997Y333985D01*
X128030Y333996D01*
X128064Y333999D01*
X128146Y334034D01*
X128231Y334061D01*
X128259Y334082D01*
X128291Y334095D01*
X128352Y334145D01*
X128996Y334145D01*
X129029Y334151D01*
X129110Y334154D01*
X129743Y334250D01*
X129809Y334223D01*
X129888Y334182D01*
X129923Y334177D01*
X129955Y334164D01*
X130122Y334146D01*
X132319Y334147D01*
X132354Y334153D01*
X132388Y334150D01*
X132474Y334173D01*
X132562Y334187D01*
X132593Y334203D01*
X132626Y334212D01*
X132695Y334252D01*
X133331Y334156D01*
X133364Y334157D01*
X133445Y334148D01*
X134085Y334148D01*
X134147Y334112D01*
X134219Y334060D01*
X134253Y334050D01*
X134282Y334032D01*
X134444Y333989D01*
X136618Y333663D01*
X136653Y333663D01*
X136686Y333656D01*
X136775Y333665D01*
X136864Y333666D01*
X136897Y333678D01*
X136931Y333681D01*
X137005Y333710D01*
X137620Y333521D01*
X137653Y333517D01*
X137731Y333496D01*
X138364Y333401D01*
X138420Y333356D01*
X138484Y333294D01*
X138515Y333279D01*
X138542Y333257D01*
X138696Y333190D01*
X140796Y332544D01*
X140830Y332539D01*
X140863Y332526D01*
X140952Y332522D01*
X141040Y332510D01*
X141074Y332517D01*
X141108Y332515D01*
X141186Y332533D01*
X141766Y332254D01*
X141798Y332245D01*
X141872Y332212D01*
X142484Y332024D01*
X142532Y331971D01*
X142586Y331900D01*
X142615Y331881D01*
X142638Y331855D01*
X142780Y331766D01*
X144761Y330814D01*
X144794Y330804D01*
X144824Y330787D01*
X144912Y330770D01*
X144997Y330744D01*
X145031Y330746D01*
X145065Y330739D01*
X145145Y330745D01*
X145677Y330383D01*
X145707Y330369D01*
X145775Y330326D01*
X146352Y330049D01*
X146392Y329989D01*
X146435Y329911D01*
X146460Y329887D01*
X146480Y329859D01*
X146607Y329749D01*
X148424Y328513D01*
X148455Y328498D01*
X148482Y328476D01*
X148566Y328446D01*
X148647Y328409D01*
X148681Y328405D01*
X148714Y328393D01*
X148793Y328387D01*
X149265Y327950D01*
X149293Y327932D01*
X149354Y327879D01*
X149883Y327519D01*
X149914Y327454D01*
X149944Y327370D01*
X149966Y327343D01*
X149981Y327312D01*
X150090Y327185D01*
X151702Y325691D01*
X151731Y325672D01*
X151755Y325647D01*
X151833Y325604D01*
X151907Y325555D01*
X151941Y325546D01*
X151971Y325530D01*
X152049Y325512D01*
X152450Y325009D01*
X152475Y324987D01*
X152528Y324926D01*
X152998Y324491D01*
X153018Y324422D01*
X153036Y324335D01*
X153053Y324305D01*
X153063Y324272D01*
X153153Y324130D01*
X154524Y322412D01*
X154550Y322389D01*
X154569Y322361D01*
X154641Y322307D01*
X154707Y322248D01*
X154738Y322234D01*
X154766Y322213D01*
X154840Y322184D01*
X155162Y321627D01*
X155183Y321601D01*
X155226Y321533D01*
X155626Y321032D01*
X155636Y320961D01*
X155641Y320873D01*
X155653Y320840D01*
X155658Y320806D01*
X155726Y320652D01*
X156826Y318750D01*
X156848Y318723D01*
X156863Y318692D01*
X156925Y318628D01*
X156981Y318560D01*
X157011Y318541D01*
X157035Y318516D01*
X157104Y318477D01*
X157339Y317878D01*
X157356Y317850D01*
X157389Y317775D01*
X157709Y317221D01*
X157709Y317149D01*
X157700Y317061D01*
X157708Y317027D01*
X157708Y316992D01*
X157751Y316830D01*
X158555Y314785D01*
X158573Y314755D01*
X158584Y314722D01*
X158636Y314650D01*
X158681Y314574D01*
X158708Y314551D01*
X158728Y314523D01*
X158790Y314474D01*
X158934Y313846D01*
X158946Y313816D01*
X158967Y313738D01*
X159202Y313142D01*
X159190Y313071D01*
X159168Y312985D01*
X159171Y312950D01*
X159166Y312916D01*
X159185Y312749D01*
X159675Y310607D01*
X159688Y310575D01*
X159694Y310541D01*
X159734Y310462D01*
X159768Y310379D01*
X159791Y310353D01*
X159807Y310322D01*
X159861Y310264D01*
X159909Y309622D01*
X159917Y309590D01*
X159926Y309510D01*
X160069Y308885D01*
X160047Y308817D01*
X160013Y308735D01*
X160010Y308701D01*
X160000Y308668D01*
X159994Y308500D01*
X160160Y306309D01*
X160168Y306275D01*
X160168Y306240D01*
X160197Y306156D01*
X160218Y306069D01*
X160236Y306040D01*
X160247Y306007D01*
X160292Y305942D01*
X160244Y305300D01*
X160247Y305267D01*
X160244Y305186D01*
X160293Y304548D01*
X160261Y304483D01*
X160215Y304407D01*
X160207Y304374D01*
X160192Y304342D01*
X160161Y304178D01*
X159998Y301986D01*
X160001Y301951D01*
X159996Y301917D01*
X160012Y301829D01*
X160020Y301741D01*
X160034Y301709D01*
X160040Y301675D01*
X160074Y301604D01*
X159931Y300976D01*
X159929Y300943D01*
X159915Y300863D01*
X159867Y300225D01*
X159826Y300166D01*
X159769Y300098D01*
X159756Y300066D01*
X159737Y300037D01*
X159682Y299879D01*
X159194Y297736D01*
X159192Y297701D01*
X159182Y297668D01*
X159184Y297579D01*
X159179Y297490D01*
X159188Y297457D01*
X159189Y297422D01*
X159212Y297346D01*
X158978Y296747D01*
X158971Y296715D01*
X158944Y296638D01*
X158817Y296079D01*
X158810Y295974D01*
X158799Y295871D01*
X158803Y295852D01*
X158802Y295833D01*
X158829Y295732D01*
X158851Y295630D01*
X158861Y295614D01*
X158866Y295596D01*
X158924Y295509D01*
X158977Y295419D01*
X158992Y295407D01*
X159002Y295391D01*
X159085Y295327D01*
X159164Y295259D01*
X159182Y295252D01*
X159196Y295241D01*
X159295Y295206D01*
X159392Y295167D01*
X159415Y295165D01*
X159429Y295160D01*
X159461Y295160D01*
X159559Y295149D01*
X211626Y295149D01*
X211740Y295168D01*
X211857Y295185D01*
X211862Y295187D01*
X211868Y295188D01*
X211971Y295243D01*
X212076Y295296D01*
X212080Y295301D01*
X212086Y295304D01*
X212166Y295388D01*
X212248Y295472D01*
X212252Y295478D01*
X212255Y295482D01*
X212263Y295499D01*
X212329Y295619D01*
X213227Y297788D01*
X215800Y300361D01*
X219161Y301753D01*
X238039Y301753D01*
X241400Y300361D01*
X243973Y297788D01*
X245365Y294427D01*
X245365Y290789D01*
X243973Y287428D01*
X241400Y284855D01*
X238039Y283463D01*
X219161Y283463D01*
X215800Y284855D01*
X213227Y287428D01*
X212329Y289597D01*
X212267Y289697D01*
X212207Y289797D01*
X212203Y289801D01*
X212199Y289806D01*
X212109Y289881D01*
X212020Y289957D01*
X212015Y289959D01*
X212010Y289963D01*
X211901Y290005D01*
X211792Y290049D01*
X211785Y290050D01*
X211780Y290051D01*
X211762Y290052D01*
X211626Y290067D01*
X156420Y290067D01*
X156358Y290057D01*
X156295Y290057D01*
X156237Y290037D01*
X156177Y290028D01*
X156122Y289998D01*
X156062Y289978D01*
X156014Y289941D01*
X155960Y289912D01*
X155916Y289867D01*
X155866Y289829D01*
X155832Y289778D01*
X155790Y289734D01*
X155764Y289677D01*
X155729Y289625D01*
X155712Y289566D01*
X155687Y289511D01*
X155685Y289499D01*
X155246Y288947D01*
X155230Y288918D01*
X155182Y288853D01*
X154862Y288298D01*
X154800Y288263D01*
X154719Y288226D01*
X154693Y288203D01*
X154663Y288186D01*
X154545Y288067D01*
X153176Y286348D01*
X153159Y286317D01*
X153135Y286292D01*
X153099Y286211D01*
X153056Y286133D01*
X153049Y286099D01*
X153035Y286067D01*
X153023Y285989D01*
X152552Y285551D01*
X152531Y285525D01*
X152474Y285467D01*
X152076Y284966D01*
X152009Y284941D01*
X151923Y284917D01*
X151894Y284897D01*
X151862Y284885D01*
X151727Y284785D01*
X150117Y283289D01*
X150096Y283261D01*
X150069Y283240D01*
X150021Y283165D01*
X149966Y283095D01*
X149955Y283062D01*
X149936Y283033D01*
X149913Y282957D01*
X149381Y282594D01*
X149358Y282571D01*
X149292Y282523D01*
X148823Y282087D01*
X148753Y282072D01*
X148665Y282061D01*
X148634Y282045D01*
X148600Y282038D01*
X148452Y281959D01*
X146733Y280786D01*
X146688Y280743D01*
X146636Y280707D01*
X146599Y280658D01*
X146555Y280616D01*
X146533Y280575D01*
X145842Y280175D01*
X145825Y280162D01*
X145794Y280145D01*
X145319Y279821D01*
X145235Y279740D01*
X145150Y279662D01*
X145146Y279656D01*
X145141Y279651D01*
X145087Y279548D01*
X145031Y279447D01*
X145030Y279440D01*
X145026Y279433D01*
X145008Y279318D01*
X144987Y279205D01*
X144988Y279198D01*
X144987Y279190D01*
X145006Y279076D01*
X145023Y278962D01*
X145026Y278953D01*
X145027Y278948D01*
X145037Y278930D01*
X145091Y278808D01*
X174374Y228608D01*
X165305Y212857D01*
X165296Y212830D01*
X165279Y212806D01*
X165265Y212736D01*
X165242Y212668D01*
X165245Y212639D01*
X165239Y212611D01*
X165246Y212576D01*
X145999Y178824D01*
X145993Y178808D01*
X145983Y178793D01*
X145950Y178693D01*
X145913Y178594D01*
X145913Y178576D01*
X145907Y178559D01*
X145909Y178453D01*
X145906Y178348D01*
X145911Y178331D01*
X145911Y178313D01*
X145946Y178214D01*
X145977Y178112D01*
X145987Y178098D01*
X145993Y178081D01*
X146058Y177998D01*
X146119Y177912D01*
X146133Y177901D01*
X146144Y177887D01*
X146279Y177788D01*
X146524Y177647D01*
X146528Y177638D01*
X146571Y177592D01*
X146606Y177539D01*
X146673Y177482D01*
X146695Y177458D01*
X146711Y177449D01*
X146733Y177430D01*
X148452Y176257D01*
X148483Y176242D01*
X148510Y176220D01*
X148594Y176190D01*
X148675Y176153D01*
X148709Y176149D01*
X148742Y176137D01*
X148821Y176131D01*
X149292Y175693D01*
X149320Y175675D01*
X149381Y175622D01*
X149942Y175240D01*
X150007Y175209D01*
X150068Y175170D01*
X150118Y175157D01*
X150164Y175136D01*
X150236Y175128D01*
X150307Y175110D01*
X150358Y175114D01*
X150409Y175108D01*
X150480Y175123D01*
X150552Y175129D01*
X150599Y175149D01*
X150649Y175160D01*
X150712Y175197D01*
X150778Y175225D01*
X150833Y175269D01*
X150861Y175286D01*
X150876Y175304D01*
X150909Y175330D01*
X212569Y236990D01*
X212636Y237084D01*
X212707Y237179D01*
X212709Y237185D01*
X212712Y237190D01*
X212747Y237301D01*
X212783Y237413D01*
X212783Y237419D01*
X212785Y237425D01*
X212782Y237542D01*
X212781Y237658D01*
X212779Y237666D01*
X212778Y237671D01*
X212772Y237688D01*
X212734Y237820D01*
X211835Y239989D01*
X211835Y243627D01*
X213227Y246988D01*
X215800Y249561D01*
X219161Y250953D01*
X238039Y250953D01*
X241400Y249561D01*
X243973Y246988D01*
X245365Y243627D01*
X245365Y239989D01*
X243973Y236628D01*
X241400Y234055D01*
X238039Y232663D01*
X219161Y232663D01*
X216992Y233562D01*
X216878Y233589D01*
X216764Y233617D01*
X216758Y233617D01*
X216752Y233618D01*
X216636Y233607D01*
X216519Y233598D01*
X216514Y233596D01*
X216507Y233595D01*
X216400Y233547D01*
X216293Y233502D01*
X216287Y233497D01*
X216283Y233495D01*
X216269Y233482D01*
X216162Y233397D01*
X154303Y171538D01*
X154256Y171473D01*
X154241Y171457D01*
X154236Y171446D01*
X154181Y171379D01*
X154173Y171357D01*
X154159Y171338D01*
X154130Y171242D01*
X154095Y171149D01*
X154094Y171125D01*
X154087Y171103D01*
X154089Y171003D01*
X154086Y170903D01*
X154093Y170880D01*
X154093Y170857D01*
X154128Y170763D01*
X154156Y170667D01*
X154172Y170642D01*
X154178Y170626D01*
X154198Y170600D01*
X154246Y170525D01*
X154545Y170149D01*
X154571Y170126D01*
X154590Y170097D01*
X154661Y170044D01*
X154727Y169984D01*
X154759Y169970D01*
X154787Y169949D01*
X154861Y169920D01*
X155182Y169363D01*
X155203Y169337D01*
X155246Y169269D01*
X155645Y168768D01*
X155655Y168697D01*
X155659Y168608D01*
X155672Y168576D01*
X155677Y168541D01*
X155708Y168471D01*
X155709Y168465D01*
X155714Y168457D01*
X155744Y168388D01*
X156842Y166484D01*
X156864Y166457D01*
X156879Y166426D01*
X156941Y166362D01*
X156998Y166293D01*
X157027Y166275D01*
X157051Y166250D01*
X157120Y166211D01*
X157355Y165611D01*
X157372Y165583D01*
X157404Y165509D01*
X157724Y164954D01*
X157723Y164882D01*
X157714Y164794D01*
X157722Y164760D01*
X157722Y164725D01*
X157765Y164563D01*
X158567Y162517D01*
X158585Y162487D01*
X158595Y162454D01*
X158647Y162382D01*
X158693Y162306D01*
X158719Y162283D01*
X158739Y162255D01*
X158801Y162205D01*
X158944Y161578D01*
X158957Y161547D01*
X158978Y161469D01*
X159211Y160873D01*
X159200Y160802D01*
X159178Y160716D01*
X159180Y160681D01*
X159175Y160647D01*
X159194Y160480D01*
X159682Y158337D01*
X159695Y158305D01*
X159700Y158271D01*
X159741Y158192D01*
X159774Y158110D01*
X159797Y158083D01*
X159813Y158053D01*
X159867Y157994D01*
X159915Y157353D01*
X159922Y157321D01*
X159931Y157240D01*
X160074Y156616D01*
X160052Y156547D01*
X160017Y156465D01*
X160015Y156431D01*
X160004Y156398D01*
X159998Y156230D01*
X160161Y154039D01*
X160169Y154005D01*
X160169Y153970D01*
X160198Y153886D01*
X160218Y153799D01*
X160237Y153770D01*
X160248Y153737D01*
X160293Y153672D01*
X160244Y153030D01*
X160247Y152997D01*
X160244Y152916D01*
X160292Y152277D01*
X160260Y152213D01*
X160214Y152137D01*
X160206Y152103D01*
X160191Y152072D01*
X160160Y151907D01*
X159994Y149716D01*
X159997Y149681D01*
X159992Y149647D01*
X160008Y149560D01*
X160015Y149471D01*
X160029Y149439D01*
X160035Y149405D01*
X160070Y149334D01*
X159926Y148706D01*
X159924Y148673D01*
X159909Y148594D01*
X159861Y147955D01*
X159820Y147896D01*
X159806Y147879D01*
X159786Y147858D01*
X159783Y147852D01*
X159763Y147828D01*
X159750Y147796D01*
X159730Y147767D01*
X159691Y147654D01*
X159682Y147635D01*
X159681Y147626D01*
X159675Y147609D01*
X159185Y145467D01*
X159183Y145432D01*
X159173Y145399D01*
X159175Y145310D01*
X159169Y145221D01*
X159178Y145188D01*
X159179Y145153D01*
X159203Y145077D01*
X158967Y144478D01*
X158960Y144446D01*
X158934Y144370D01*
X158791Y143745D01*
X158742Y143693D01*
X158675Y143634D01*
X158657Y143604D01*
X158634Y143579D01*
X158555Y143431D01*
X157751Y141385D01*
X157744Y141352D01*
X157729Y141320D01*
X157718Y141232D01*
X157700Y141145D01*
X157703Y141111D01*
X157699Y141076D01*
X157711Y140998D01*
X157389Y140441D01*
X157377Y140410D01*
X157339Y140338D01*
X157105Y139742D01*
X157049Y139698D01*
X156974Y139650D01*
X156952Y139623D01*
X156925Y139601D01*
X156841Y139487D01*
X156838Y139484D01*
X156837Y139482D01*
X156826Y139466D01*
X155726Y137564D01*
X155713Y137531D01*
X155694Y137502D01*
X155670Y137417D01*
X155638Y137333D01*
X155637Y137299D01*
X155628Y137265D01*
X155628Y137186D01*
X155226Y136683D01*
X155210Y136654D01*
X155162Y136589D01*
X154842Y136035D01*
X154779Y136000D01*
X154698Y135963D01*
X154673Y135939D01*
X154643Y135922D01*
X154524Y135804D01*
X153153Y134086D01*
X153136Y134056D01*
X153112Y134030D01*
X153076Y133949D01*
X153032Y133872D01*
X153026Y133838D01*
X153012Y133806D01*
X153000Y133727D01*
X152528Y133290D01*
X152508Y133264D01*
X152450Y133207D01*
X152051Y132706D01*
X151984Y132681D01*
X151898Y132657D01*
X151870Y132637D01*
X151837Y132625D01*
X151702Y132525D01*
X150090Y131031D01*
X150069Y131004D01*
X150042Y130982D01*
X149994Y130907D01*
X149939Y130837D01*
X149928Y130804D01*
X149909Y130775D01*
X149886Y130699D01*
X149354Y130337D01*
X149330Y130314D01*
X149265Y130266D01*
X148795Y129831D01*
X148725Y129815D01*
X148637Y129804D01*
X148606Y129789D01*
X148572Y129782D01*
X148424Y129703D01*
X146607Y128467D01*
X146582Y128443D01*
X146552Y128425D01*
X146493Y128358D01*
X146429Y128297D01*
X146413Y128266D01*
X146390Y128240D01*
X146355Y128169D01*
X145775Y127890D01*
X145748Y127871D01*
X145677Y127833D01*
X145147Y127473D01*
X145076Y127468D01*
X144987Y127470D01*
X144954Y127460D01*
X144919Y127458D01*
X144761Y127402D01*
X142780Y126450D01*
X142752Y126430D01*
X142720Y126417D01*
X142652Y126360D01*
X142579Y126309D01*
X142558Y126281D01*
X142532Y126259D01*
X142487Y126193D01*
X141872Y126004D01*
X141842Y125989D01*
X141766Y125962D01*
X141189Y125685D01*
X141117Y125691D01*
X141030Y125706D01*
X140995Y125701D01*
X140961Y125704D01*
X140796Y125672D01*
X138696Y125026D01*
X138665Y125011D01*
X138631Y125003D01*
X138555Y124956D01*
X138475Y124917D01*
X138451Y124892D01*
X138421Y124874D01*
X138367Y124816D01*
X137731Y124720D01*
X137699Y124710D01*
X137620Y124695D01*
X137008Y124506D01*
X136938Y124523D01*
X136854Y124551D01*
X136819Y124551D01*
X136785Y124559D01*
X136618Y124553D01*
X134444Y124227D01*
X134411Y124216D01*
X134377Y124213D01*
X134295Y124179D01*
X134210Y124151D01*
X134182Y124131D01*
X134150Y124117D01*
X134088Y124068D01*
X133445Y124068D01*
X133412Y124063D01*
X133331Y124060D01*
X132698Y123965D01*
X132632Y123991D01*
X132552Y124032D01*
X132518Y124037D01*
X132486Y124050D01*
X132319Y124069D01*
X130122Y124070D01*
X130087Y124065D01*
X130053Y124067D01*
X129967Y124045D01*
X129879Y124031D01*
X129848Y124014D01*
X129815Y124006D01*
X129746Y123966D01*
X129110Y124062D01*
X129077Y124062D01*
X128996Y124071D01*
X128356Y124071D01*
X128294Y124108D01*
X128222Y124160D01*
X128189Y124170D01*
X128159Y124187D01*
X127997Y124231D01*
X125824Y124560D01*
X125789Y124559D01*
X125755Y124567D01*
X125667Y124558D01*
X125578Y124557D01*
X125545Y124545D01*
X125511Y124542D01*
X125437Y124513D01*
X124822Y124703D01*
X124789Y124707D01*
X124711Y124728D01*
X124078Y124824D01*
X124022Y124869D01*
X123958Y124931D01*
X123927Y124946D01*
X123900Y124968D01*
X123746Y125035D01*
X121647Y125684D01*
X121613Y125689D01*
X121580Y125701D01*
X121491Y125706D01*
X121403Y125718D01*
X121369Y125711D01*
X121335Y125713D01*
X121257Y125695D01*
X120677Y125975D01*
X120646Y125984D01*
X120572Y126016D01*
X119960Y126206D01*
X119911Y126259D01*
X119858Y126330D01*
X119829Y126349D01*
X119806Y126375D01*
X119664Y126464D01*
X117789Y127368D01*
X117729Y127386D01*
X117672Y127413D01*
X117612Y127420D01*
X117554Y127437D01*
X117492Y127435D01*
X117424Y127456D01*
X117329Y127492D01*
X117307Y127493D01*
X117286Y127500D01*
X117185Y127498D01*
X117083Y127502D01*
X117062Y127495D01*
X117040Y127495D01*
X116945Y127461D01*
X116847Y127432D01*
X116829Y127419D01*
X116808Y127412D01*
X116729Y127349D01*
X116646Y127291D01*
X116633Y127273D01*
X116615Y127259D01*
X116517Y127123D01*
X97434Y93660D01*
X97237Y93790D01*
X97179Y93811D01*
X97124Y93840D01*
X97098Y93841D01*
X97074Y93849D01*
X97013Y93843D01*
X96951Y93844D01*
X96927Y93834D01*
X96902Y93831D01*
X96850Y93798D01*
X96793Y93771D01*
X96775Y93750D01*
X96756Y93738D01*
X96737Y93706D01*
X96698Y93662D01*
X87046Y76898D01*
X87039Y76874D01*
X87025Y76855D01*
X87007Y76766D01*
X86997Y76732D01*
X86998Y76723D01*
X86996Y76713D01*
X86978Y75323D01*
X86969Y75307D01*
X86930Y75202D01*
X86887Y75097D01*
X86886Y75084D01*
X86883Y75077D01*
X86882Y75052D01*
X86869Y74930D01*
X86869Y66804D01*
X86742Y56901D01*
X86742Y56899D01*
X86742Y56896D01*
X86742Y56642D01*
X86753Y56592D01*
X86755Y56541D01*
X86773Y56509D01*
X86781Y56473D01*
X86814Y56434D01*
X86838Y56389D01*
X86868Y56368D01*
X86869Y56367D01*
X86869Y8890D01*
X86884Y8800D01*
X86891Y8709D01*
X86903Y8679D01*
X86909Y8647D01*
X86928Y8611D01*
X86930Y8603D01*
X86951Y8566D01*
X86987Y8483D01*
X87013Y8451D01*
X87024Y8430D01*
X87045Y8410D01*
X87056Y8392D01*
X87069Y8380D01*
X87092Y8352D01*
X94712Y732D01*
X94786Y679D01*
X94855Y619D01*
X94885Y607D01*
X94911Y588D01*
X94998Y561D01*
X95083Y527D01*
X95124Y523D01*
X95147Y516D01*
X95179Y517D01*
X95250Y509D01*
X226124Y509D01*
X226204Y522D01*
X226286Y526D01*
X226325Y542D01*
X226366Y549D01*
X226439Y587D01*
X226515Y617D01*
X226559Y650D01*
X226584Y664D01*
X226604Y685D01*
X226649Y719D01*
X253255Y26058D01*
X253316Y26138D01*
X253381Y26215D01*
X253390Y26236D01*
X253403Y26254D01*
X253435Y26350D01*
X253473Y26443D01*
X253476Y26471D01*
X253481Y26488D01*
X253481Y26521D01*
X253491Y26610D01*
X253491Y432949D01*
X253473Y433058D01*
X253459Y433167D01*
X253454Y433179D01*
X253452Y433192D01*
X253400Y433289D01*
X253352Y433388D01*
X253341Y433400D01*
X253336Y433409D01*
X253316Y433429D01*
X253241Y433514D01*
X226437Y457765D01*
X226376Y457804D01*
X226321Y457851D01*
X226273Y457870D01*
X226230Y457898D01*
X226160Y457916D01*
X226093Y457943D01*
X226023Y457951D01*
X225992Y457958D01*
X225968Y457957D01*
X225926Y457961D01*
X-228600Y457961D01*
X-228671Y457950D01*
X-228744Y457948D01*
X-228792Y457930D01*
X-228843Y457922D01*
X-228907Y457888D01*
X-228975Y457863D01*
X-229032Y457821D01*
X-229060Y457806D01*
X-229077Y457789D01*
X-229111Y457765D01*
X-255781Y433635D01*
X-255849Y433549D01*
X-255921Y433465D01*
X-255926Y433453D01*
X-255934Y433442D01*
X-255972Y433339D01*
X-256013Y433237D01*
X-256015Y433221D01*
X-256018Y433211D01*
X-256019Y433183D01*
X-256031Y433070D01*
X-256031Y26670D01*
X-256015Y26571D01*
X-256005Y26471D01*
X-255995Y26450D01*
X-255992Y26427D01*
X-255945Y26339D01*
X-255903Y26247D01*
X-255885Y26225D01*
X-255876Y26210D01*
X-255853Y26187D01*
X-255795Y26119D01*
X-229125Y719D01*
X-229057Y673D01*
X-228995Y619D01*
X-228956Y604D01*
X-228922Y580D01*
X-228843Y558D01*
X-228767Y527D01*
X-228712Y521D01*
X-228685Y514D01*
X-228656Y515D01*
X-228600Y509D01*
X-97790Y509D01*
X-97700Y524D01*
X-97609Y531D01*
X-97579Y543D01*
X-97547Y549D01*
X-97467Y591D01*
X-97383Y627D01*
X-97351Y653D01*
X-97330Y664D01*
X-97308Y687D01*
X-97252Y732D01*
X-88362Y9622D01*
X-88309Y9696D01*
X-88249Y9765D01*
X-88237Y9795D01*
X-88218Y9821D01*
X-88191Y9908D01*
X-88157Y9993D01*
X-88153Y10034D01*
X-88146Y10057D01*
X-88147Y10089D01*
X-88139Y10160D01*
X-88139Y76200D01*
X-88157Y76311D01*
X-88172Y76423D01*
X-88177Y76435D01*
X-88179Y76443D01*
X-88190Y76465D01*
X-88239Y76577D01*
X-91752Y82739D01*
X-98049Y93975D01*
X-98051Y93977D01*
X-98051Y93979D01*
X-98178Y94199D01*
X-98213Y94237D01*
X-98241Y94280D01*
X-98272Y94299D01*
X-98297Y94326D01*
X-98345Y94344D01*
X-98384Y94367D01*
X-117216Y127392D01*
X-117289Y127483D01*
X-117361Y127575D01*
X-117367Y127578D01*
X-117371Y127584D01*
X-117469Y127646D01*
X-117566Y127710D01*
X-117573Y127712D01*
X-117578Y127715D01*
X-117691Y127743D01*
X-117804Y127773D01*
X-117811Y127773D01*
X-117817Y127774D01*
X-117933Y127764D01*
X-118050Y127757D01*
X-118057Y127754D01*
X-118062Y127754D01*
X-118080Y127746D01*
X-118208Y127701D01*
X-118288Y127662D01*
X-118306Y127650D01*
X-118339Y127635D01*
X-119021Y127241D01*
X-119031Y127242D01*
X-119092Y127228D01*
X-119155Y127224D01*
X-119239Y127194D01*
X-119271Y127187D01*
X-119286Y127177D01*
X-119313Y127168D01*
X-121188Y126264D01*
X-121216Y126244D01*
X-121248Y126231D01*
X-121316Y126174D01*
X-121389Y126123D01*
X-121410Y126095D01*
X-121436Y126072D01*
X-121481Y126007D01*
X-122096Y125816D01*
X-122125Y125802D01*
X-122201Y125775D01*
X-122778Y125497D01*
X-122850Y125503D01*
X-122937Y125518D01*
X-122972Y125513D01*
X-123006Y125516D01*
X-123171Y125484D01*
X-125270Y124835D01*
X-125301Y124820D01*
X-125335Y124812D01*
X-125411Y124765D01*
X-125491Y124725D01*
X-125515Y124701D01*
X-125545Y124683D01*
X-125598Y124624D01*
X-126235Y124528D01*
X-126266Y124518D01*
X-126346Y124503D01*
X-126958Y124313D01*
X-127027Y124330D01*
X-127112Y124358D01*
X-127147Y124358D01*
X-127180Y124366D01*
X-127348Y124360D01*
X-129521Y124031D01*
X-129554Y124020D01*
X-129588Y124017D01*
X-129670Y123982D01*
X-129755Y123955D01*
X-129783Y123934D01*
X-129815Y123921D01*
X-129876Y123871D01*
X-130520Y123871D01*
X-130553Y123865D01*
X-130634Y123862D01*
X-131267Y123766D01*
X-131333Y123793D01*
X-131412Y123834D01*
X-131447Y123839D01*
X-131479Y123852D01*
X-131646Y123870D01*
X-133843Y123869D01*
X-133878Y123863D01*
X-133912Y123866D01*
X-133998Y123843D01*
X-134086Y123829D01*
X-134117Y123813D01*
X-134150Y123804D01*
X-134219Y123764D01*
X-134855Y123860D01*
X-134888Y123859D01*
X-134969Y123868D01*
X-135609Y123868D01*
X-135671Y123904D01*
X-135743Y123956D01*
X-135777Y123966D01*
X-135806Y123984D01*
X-135968Y124027D01*
X-138142Y124353D01*
X-138177Y124353D01*
X-138210Y124360D01*
X-138299Y124351D01*
X-138388Y124350D01*
X-138421Y124338D01*
X-138455Y124335D01*
X-138529Y124306D01*
X-139144Y124495D01*
X-139177Y124499D01*
X-139255Y124520D01*
X-139888Y124615D01*
X-139944Y124660D01*
X-140008Y124722D01*
X-140039Y124737D01*
X-140066Y124759D01*
X-140220Y124826D01*
X-142320Y125472D01*
X-142354Y125477D01*
X-142387Y125490D01*
X-142476Y125494D01*
X-142564Y125506D01*
X-142598Y125499D01*
X-142632Y125501D01*
X-142710Y125483D01*
X-143290Y125762D01*
X-143322Y125771D01*
X-143396Y125804D01*
X-144008Y125992D01*
X-144056Y126045D01*
X-144110Y126116D01*
X-144139Y126135D01*
X-144162Y126161D01*
X-144304Y126250D01*
X-146285Y127202D01*
X-146318Y127212D01*
X-146348Y127229D01*
X-146436Y127246D01*
X-146521Y127272D01*
X-146555Y127270D01*
X-146589Y127277D01*
X-146669Y127271D01*
X-147201Y127633D01*
X-147231Y127647D01*
X-147299Y127690D01*
X-147876Y127967D01*
X-147916Y128027D01*
X-147959Y128105D01*
X-147970Y128116D01*
X-147978Y128128D01*
X-147993Y128141D01*
X-148004Y128157D01*
X-148131Y128267D01*
X-149948Y129503D01*
X-149979Y129518D01*
X-150006Y129540D01*
X-150090Y129570D01*
X-150171Y129607D01*
X-150205Y129611D01*
X-150238Y129623D01*
X-150317Y129629D01*
X-150789Y130066D01*
X-150816Y130084D01*
X-150878Y130137D01*
X-151407Y130497D01*
X-151438Y130562D01*
X-151468Y130646D01*
X-151490Y130673D01*
X-151505Y130704D01*
X-151614Y130831D01*
X-153226Y132325D01*
X-153255Y132344D01*
X-153279Y132369D01*
X-153357Y132412D01*
X-153431Y132461D01*
X-153465Y132470D01*
X-153495Y132486D01*
X-153573Y132504D01*
X-153974Y133007D01*
X-153999Y133029D01*
X-154052Y133090D01*
X-154522Y133525D01*
X-154542Y133594D01*
X-154560Y133681D01*
X-154577Y133711D01*
X-154587Y133744D01*
X-154677Y133886D01*
X-156048Y135604D01*
X-156074Y135627D01*
X-156093Y135655D01*
X-156165Y135709D01*
X-156231Y135768D01*
X-156262Y135782D01*
X-156290Y135803D01*
X-156364Y135832D01*
X-156686Y136389D01*
X-156707Y136415D01*
X-156750Y136483D01*
X-157150Y136984D01*
X-157160Y137055D01*
X-157165Y137143D01*
X-157177Y137176D01*
X-157182Y137210D01*
X-157250Y137364D01*
X-158350Y139266D01*
X-158372Y139293D01*
X-158387Y139324D01*
X-158449Y139388D01*
X-158505Y139456D01*
X-158535Y139475D01*
X-158559Y139500D01*
X-158628Y139539D01*
X-158863Y140138D01*
X-158880Y140166D01*
X-158913Y140241D01*
X-159233Y140795D01*
X-159233Y140867D01*
X-159224Y140955D01*
X-159232Y140989D01*
X-159232Y141024D01*
X-159275Y141186D01*
X-160079Y143231D01*
X-160097Y143261D01*
X-160108Y143294D01*
X-160160Y143366D01*
X-160205Y143442D01*
X-160232Y143465D01*
X-160252Y143493D01*
X-160314Y143542D01*
X-160458Y144170D01*
X-160470Y144200D01*
X-160491Y144278D01*
X-160726Y144874D01*
X-160714Y144945D01*
X-160692Y145031D01*
X-160695Y145066D01*
X-160690Y145100D01*
X-160709Y145267D01*
X-161199Y147409D01*
X-161212Y147441D01*
X-161218Y147475D01*
X-161258Y147554D01*
X-161292Y147637D01*
X-161315Y147663D01*
X-161331Y147694D01*
X-161385Y147752D01*
X-161433Y148394D01*
X-161441Y148426D01*
X-161450Y148506D01*
X-161593Y149131D01*
X-161571Y149199D01*
X-161537Y149281D01*
X-161534Y149315D01*
X-161524Y149348D01*
X-161518Y149516D01*
X-161684Y151707D01*
X-161692Y151741D01*
X-161692Y151776D01*
X-161721Y151860D01*
X-161742Y151947D01*
X-161760Y151976D01*
X-161771Y152009D01*
X-161816Y152074D01*
X-161768Y152716D01*
X-161771Y152749D01*
X-161770Y152782D01*
X-161768Y152798D01*
X-161769Y152803D01*
X-161768Y152830D01*
X-161817Y153468D01*
X-161785Y153533D01*
X-161739Y153609D01*
X-161731Y153643D01*
X-161716Y153674D01*
X-161685Y153839D01*
X-161522Y156030D01*
X-161525Y156065D01*
X-161520Y156099D01*
X-161536Y156187D01*
X-161544Y156275D01*
X-161558Y156307D01*
X-161564Y156341D01*
X-161598Y156412D01*
X-161455Y157040D01*
X-161453Y157073D01*
X-161439Y157153D01*
X-161391Y157791D01*
X-161350Y157850D01*
X-161293Y157918D01*
X-161280Y157950D01*
X-161261Y157979D01*
X-161206Y158137D01*
X-160718Y160280D01*
X-160716Y160315D01*
X-160706Y160348D01*
X-160708Y160437D01*
X-160703Y160526D01*
X-160712Y160559D01*
X-160713Y160594D01*
X-160736Y160670D01*
X-160502Y161269D01*
X-160495Y161301D01*
X-160468Y161378D01*
X-160326Y162002D01*
X-160277Y162054D01*
X-160210Y162113D01*
X-160193Y162143D01*
X-160169Y162169D01*
X-160091Y162317D01*
X-159289Y164363D01*
X-159282Y164397D01*
X-159267Y164429D01*
X-159256Y164517D01*
X-159238Y164604D01*
X-159242Y164638D01*
X-159238Y164673D01*
X-159250Y164751D01*
X-158966Y165243D01*
X-158950Y165284D01*
X-158927Y165321D01*
X-158907Y165399D01*
X-158879Y165474D01*
X-158877Y165517D01*
X-158867Y165559D01*
X-158873Y165639D01*
X-158870Y165719D01*
X-158883Y165761D01*
X-158886Y165805D01*
X-158917Y165878D01*
X-158940Y165955D01*
X-158965Y165991D01*
X-158982Y166031D01*
X-159074Y166146D01*
X-159082Y166156D01*
X-159084Y166158D01*
X-159087Y166162D01*
X-181169Y188244D01*
X-181243Y188297D01*
X-181313Y188357D01*
X-181343Y188369D01*
X-181369Y188388D01*
X-181456Y188415D01*
X-181541Y188449D01*
X-181582Y188453D01*
X-181604Y188460D01*
X-181636Y188459D01*
X-181708Y188467D01*
X-211626Y188467D01*
X-211740Y188448D01*
X-211857Y188431D01*
X-211862Y188429D01*
X-211868Y188428D01*
X-211971Y188373D01*
X-212076Y188320D01*
X-212080Y188315D01*
X-212086Y188312D01*
X-212166Y188228D01*
X-212248Y188144D01*
X-212252Y188138D01*
X-212255Y188134D01*
X-212263Y188117D01*
X-212329Y187997D01*
X-213227Y185828D01*
X-215800Y183255D01*
X-219161Y181863D01*
X-238039Y181863D01*
X-241400Y183255D01*
X-243973Y185828D01*
X-245365Y189189D01*
X-245365Y192827D01*
X-243973Y196188D01*
X-241400Y198761D01*
X-238039Y200153D01*
X-219161Y200153D01*
X-215800Y198761D01*
X-213227Y196188D01*
X-212329Y194019D01*
X-212267Y193919D01*
X-212207Y193819D01*
X-212203Y193815D01*
X-212199Y193810D01*
X-212109Y193735D01*
X-212020Y193659D01*
X-212015Y193657D01*
X-212010Y193653D01*
X-211901Y193611D01*
X-211792Y193567D01*
X-211785Y193566D01*
X-211780Y193565D01*
X-211762Y193564D01*
X-211626Y193549D01*
X-179288Y193549D01*
X-177576Y191837D01*
X-156503Y170764D01*
X-156452Y170727D01*
X-156407Y170683D01*
X-156352Y170656D01*
X-156303Y170620D01*
X-156243Y170602D01*
X-156187Y170574D01*
X-156126Y170566D01*
X-156068Y170548D01*
X-156005Y170550D01*
X-155943Y170541D01*
X-155883Y170553D01*
X-155822Y170554D01*
X-155763Y170576D01*
X-155701Y170588D01*
X-155648Y170618D01*
X-155591Y170639D01*
X-155542Y170678D01*
X-155487Y170709D01*
X-155425Y170772D01*
X-155399Y170793D01*
X-155390Y170807D01*
X-155369Y170828D01*
X-154700Y171668D01*
X-154683Y171699D01*
X-154659Y171724D01*
X-154623Y171805D01*
X-154580Y171883D01*
X-154573Y171917D01*
X-154559Y171949D01*
X-154547Y172027D01*
X-154076Y172465D01*
X-154055Y172491D01*
X-153998Y172549D01*
X-153600Y173050D01*
X-153533Y173075D01*
X-153447Y173099D01*
X-153418Y173119D01*
X-153386Y173131D01*
X-153251Y173231D01*
X-151641Y174727D01*
X-151620Y174755D01*
X-151593Y174776D01*
X-151545Y174851D01*
X-151490Y174921D01*
X-151479Y174954D01*
X-151460Y174983D01*
X-151437Y175059D01*
X-150905Y175422D01*
X-150882Y175445D01*
X-150816Y175493D01*
X-150347Y175929D01*
X-150277Y175944D01*
X-150189Y175955D01*
X-150158Y175971D01*
X-150124Y175978D01*
X-149976Y176057D01*
X-148257Y177230D01*
X-148212Y177273D01*
X-148160Y177309D01*
X-148123Y177358D01*
X-148079Y177400D01*
X-148057Y177441D01*
X-147366Y177841D01*
X-147349Y177855D01*
X-147317Y177872D01*
X-146950Y178122D01*
X-146869Y178200D01*
X-146786Y178275D01*
X-146780Y178284D01*
X-146772Y178292D01*
X-146720Y178391D01*
X-146665Y178489D01*
X-146663Y178500D01*
X-146657Y178510D01*
X-146640Y178620D01*
X-146618Y178730D01*
X-146620Y178741D01*
X-146618Y178752D01*
X-146637Y178863D01*
X-146652Y178974D01*
X-146657Y178986D01*
X-146658Y178995D01*
X-146671Y179018D01*
X-146718Y179128D01*
X-175651Y229866D01*
X-146963Y279046D01*
X-146921Y279154D01*
X-146878Y279261D01*
X-146877Y279269D01*
X-146875Y279276D01*
X-146870Y279391D01*
X-146863Y279507D01*
X-146865Y279514D01*
X-146865Y279521D01*
X-146897Y279632D01*
X-146927Y279744D01*
X-146931Y279750D01*
X-146933Y279758D01*
X-146999Y279852D01*
X-147064Y279949D01*
X-147071Y279955D01*
X-147074Y279959D01*
X-147090Y279972D01*
X-147191Y280058D01*
X-147318Y280145D01*
X-147337Y280154D01*
X-147366Y280175D01*
X-148048Y280569D01*
X-148052Y280578D01*
X-148095Y280624D01*
X-148130Y280677D01*
X-148197Y280734D01*
X-148219Y280758D01*
X-148235Y280767D01*
X-148257Y280786D01*
X-149976Y281959D01*
X-150007Y281974D01*
X-150034Y281995D01*
X-150118Y282026D01*
X-150199Y282063D01*
X-150233Y282067D01*
X-150266Y282079D01*
X-150345Y282085D01*
X-150816Y282523D01*
X-150844Y282541D01*
X-150905Y282594D01*
X-151434Y282955D01*
X-151465Y283020D01*
X-151495Y283103D01*
X-151517Y283131D01*
X-151532Y283162D01*
X-151641Y283289D01*
X-153251Y284785D01*
X-153280Y284804D01*
X-153304Y284829D01*
X-153382Y284872D01*
X-153456Y284921D01*
X-153490Y284930D01*
X-153520Y284946D01*
X-153598Y284964D01*
X-153769Y285179D01*
X-153815Y285221D01*
X-153854Y285270D01*
X-153906Y285303D01*
X-153951Y285344D01*
X-154008Y285369D01*
X-154061Y285403D01*
X-154120Y285418D01*
X-154176Y285442D01*
X-154239Y285448D01*
X-154300Y285463D01*
X-154360Y285458D01*
X-154421Y285463D01*
X-154482Y285449D01*
X-154545Y285444D01*
X-154601Y285420D01*
X-154660Y285406D01*
X-154714Y285372D01*
X-154771Y285347D01*
X-154841Y285292D01*
X-154868Y285274D01*
X-154880Y285261D01*
X-154902Y285243D01*
X-200878Y239267D01*
X-211626Y239267D01*
X-211740Y239248D01*
X-211857Y239231D01*
X-211862Y239229D01*
X-211868Y239228D01*
X-211971Y239173D01*
X-212076Y239120D01*
X-212080Y239115D01*
X-212086Y239112D01*
X-212166Y239028D01*
X-212248Y238944D01*
X-212252Y238938D01*
X-212255Y238934D01*
X-212263Y238917D01*
X-212329Y238797D01*
X-213227Y236628D01*
X-215800Y234055D01*
X-219161Y232663D01*
X-238039Y232663D01*
X-241400Y234055D01*
X-243973Y236628D01*
X-245365Y239989D01*
X-245365Y243627D01*
X-243973Y246988D01*
X-241400Y249561D01*
X-238039Y250953D01*
X-219161Y250953D01*
X-215800Y249561D01*
X-213227Y246988D01*
X-212329Y244819D01*
X-212267Y244719D01*
X-212207Y244619D01*
X-212203Y244615D01*
X-212199Y244610D01*
X-212109Y244535D01*
X-212020Y244459D01*
X-212015Y244457D01*
X-212010Y244453D01*
X-211901Y244411D01*
X-211792Y244367D01*
X-211785Y244366D01*
X-211780Y244365D01*
X-211762Y244364D01*
X-211626Y244349D01*
X-203298Y244349D01*
X-203208Y244363D01*
X-203117Y244371D01*
X-203087Y244383D01*
X-203055Y244388D01*
X-202974Y244431D01*
X-202890Y244467D01*
X-202858Y244493D01*
X-202838Y244504D01*
X-202815Y244527D01*
X-202759Y244572D01*
X-157767Y289564D01*
X-157741Y289600D01*
X-157709Y289629D01*
X-157670Y289699D01*
X-157623Y289764D01*
X-157610Y289806D01*
X-157589Y289844D01*
X-157574Y289923D01*
X-157551Y289999D01*
X-157552Y290043D01*
X-157544Y290086D01*
X-157555Y290165D01*
X-157557Y290245D01*
X-157572Y290286D01*
X-157578Y290329D01*
X-157637Y290463D01*
X-157642Y290476D01*
X-157644Y290479D01*
X-157646Y290483D01*
X-158366Y291732D01*
X-158388Y291759D01*
X-158403Y291790D01*
X-158465Y291854D01*
X-158522Y291923D01*
X-158551Y291941D01*
X-158575Y291966D01*
X-158644Y292005D01*
X-158879Y292605D01*
X-158896Y292633D01*
X-158928Y292707D01*
X-159248Y293262D01*
X-159247Y293334D01*
X-159238Y293422D01*
X-159246Y293456D01*
X-159246Y293491D01*
X-159289Y293653D01*
X-160091Y295699D01*
X-160109Y295729D01*
X-160119Y295762D01*
X-160171Y295834D01*
X-160217Y295910D01*
X-160243Y295933D01*
X-160263Y295961D01*
X-160325Y296011D01*
X-160468Y296638D01*
X-160481Y296669D01*
X-160502Y296747D01*
X-160735Y297343D01*
X-160724Y297414D01*
X-160702Y297500D01*
X-160704Y297535D01*
X-160699Y297569D01*
X-160718Y297736D01*
X-161206Y299879D01*
X-161219Y299911D01*
X-161224Y299945D01*
X-161265Y300024D01*
X-161298Y300106D01*
X-161321Y300133D01*
X-161337Y300163D01*
X-161391Y300222D01*
X-161439Y300863D01*
X-161446Y300895D01*
X-161455Y300976D01*
X-161598Y301600D01*
X-161576Y301669D01*
X-161541Y301751D01*
X-161539Y301785D01*
X-161528Y301818D01*
X-161522Y301986D01*
X-161685Y304178D01*
X-161693Y304211D01*
X-161693Y304246D01*
X-161722Y304330D01*
X-161742Y304417D01*
X-161761Y304446D01*
X-161772Y304479D01*
X-161817Y304544D01*
X-161768Y305186D01*
X-161771Y305219D01*
X-161768Y305300D01*
X-161816Y305939D01*
X-161784Y306003D01*
X-161738Y306079D01*
X-161730Y306113D01*
X-161715Y306144D01*
X-161684Y306309D01*
X-161518Y308500D01*
X-161521Y308535D01*
X-161516Y308569D01*
X-161532Y308656D01*
X-161539Y308745D01*
X-161553Y308777D01*
X-161559Y308811D01*
X-161594Y308882D01*
X-161450Y309510D01*
X-161448Y309543D01*
X-161433Y309622D01*
X-161385Y310261D01*
X-161344Y310320D01*
X-161287Y310388D01*
X-161274Y310420D01*
X-161254Y310449D01*
X-161199Y310607D01*
X-160709Y312749D01*
X-160707Y312784D01*
X-160697Y312817D01*
X-160699Y312906D01*
X-160693Y312995D01*
X-160702Y313028D01*
X-160703Y313063D01*
X-160727Y313139D01*
X-160491Y313738D01*
X-160484Y313770D01*
X-160458Y313846D01*
X-160315Y314471D01*
X-160266Y314523D01*
X-160199Y314582D01*
X-160182Y314612D01*
X-160158Y314637D01*
X-160079Y314785D01*
X-159275Y316830D01*
X-159268Y316864D01*
X-159253Y316896D01*
X-159242Y316984D01*
X-159223Y317071D01*
X-159227Y317105D01*
X-159223Y317140D01*
X-159235Y317218D01*
X-158913Y317775D01*
X-158901Y317806D01*
X-158863Y317878D01*
X-158629Y318474D01*
X-158573Y318518D01*
X-158498Y318566D01*
X-158476Y318593D01*
X-158449Y318615D01*
X-158350Y318750D01*
X-157250Y320652D01*
X-157237Y320685D01*
X-157218Y320714D01*
X-157194Y320799D01*
X-157162Y320883D01*
X-157161Y320917D01*
X-157152Y320951D01*
X-157152Y321030D01*
X-156750Y321533D01*
X-156734Y321562D01*
X-156686Y321627D01*
X-156366Y322181D01*
X-156303Y322216D01*
X-156222Y322253D01*
X-156197Y322277D01*
X-156167Y322294D01*
X-156048Y322412D01*
X-154677Y324130D01*
X-154660Y324160D01*
X-154636Y324186D01*
X-154600Y324267D01*
X-154556Y324344D01*
X-154550Y324378D01*
X-154536Y324410D01*
X-154524Y324489D01*
X-154052Y324926D01*
X-154032Y324952D01*
X-153974Y325009D01*
X-153575Y325510D01*
X-153508Y325535D01*
X-153422Y325559D01*
X-153394Y325579D01*
X-153361Y325591D01*
X-153226Y325691D01*
X-151614Y327185D01*
X-151593Y327212D01*
X-151566Y327234D01*
X-151518Y327309D01*
X-151463Y327379D01*
X-151452Y327412D01*
X-151433Y327441D01*
X-151410Y327517D01*
X-150878Y327879D01*
X-150854Y327902D01*
X-150789Y327950D01*
X-150319Y328385D01*
X-150249Y328401D01*
X-150161Y328412D01*
X-150130Y328427D01*
X-150096Y328434D01*
X-149948Y328513D01*
X-148131Y329749D01*
X-148106Y329773D01*
X-148076Y329791D01*
X-148017Y329858D01*
X-147953Y329919D01*
X-147937Y329950D01*
X-147914Y329976D01*
X-147879Y330047D01*
X-147299Y330326D01*
X-147272Y330345D01*
X-147201Y330383D01*
X-146671Y330743D01*
X-146600Y330748D01*
X-146511Y330746D01*
X-146478Y330756D01*
X-146443Y330758D01*
X-146285Y330814D01*
X-144304Y331766D01*
X-144276Y331786D01*
X-144244Y331799D01*
X-144176Y331856D01*
X-144103Y331907D01*
X-144082Y331935D01*
X-144056Y331957D01*
X-144011Y332023D01*
X-143396Y332212D01*
X-143366Y332227D01*
X-143290Y332254D01*
X-142713Y332531D01*
X-142641Y332525D01*
X-142554Y332510D01*
X-142519Y332515D01*
X-142485Y332512D01*
X-142320Y332544D01*
X-140220Y333190D01*
X-140189Y333205D01*
X-140155Y333213D01*
X-140079Y333260D01*
X-139999Y333299D01*
X-139975Y333324D01*
X-139945Y333342D01*
X-139891Y333400D01*
X-139255Y333496D01*
X-139223Y333506D01*
X-139144Y333521D01*
X-138532Y333710D01*
X-138462Y333693D01*
X-138378Y333665D01*
X-138343Y333665D01*
X-138309Y333657D01*
X-138142Y333663D01*
X-135968Y333989D01*
X-135935Y334000D01*
X-135901Y334003D01*
X-135819Y334037D01*
X-135734Y334065D01*
X-135706Y334085D01*
X-135674Y334099D01*
X-135612Y334148D01*
X-134969Y334148D01*
X-134936Y334153D01*
X-134855Y334156D01*
X-134222Y334251D01*
X-134156Y334225D01*
X-134076Y334184D01*
X-134042Y334179D01*
X-134010Y334166D01*
X-133843Y334147D01*
X-131646Y334146D01*
X-131611Y334151D01*
X-131577Y334149D01*
X-131491Y334171D01*
X-131403Y334185D01*
X-131372Y334202D01*
X-131339Y334210D01*
X-131270Y334250D01*
X-130634Y334154D01*
X-130600Y334154D01*
X-130520Y334145D01*
X-129880Y334145D01*
X-129818Y334108D01*
X-129746Y334056D01*
X-129713Y334046D01*
X-129683Y334029D01*
X-129521Y333985D01*
X-127348Y333656D01*
X-127313Y333657D01*
X-127279Y333649D01*
X-127191Y333658D01*
X-127102Y333659D01*
X-127069Y333671D01*
X-127035Y333674D01*
X-126961Y333703D01*
X-126346Y333513D01*
X-126313Y333509D01*
X-126235Y333488D01*
X-125602Y333392D01*
X-125546Y333347D01*
X-125482Y333285D01*
X-125451Y333270D01*
X-125424Y333248D01*
X-125270Y333181D01*
X-123171Y332532D01*
X-123137Y332527D01*
X-123104Y332515D01*
X-123015Y332510D01*
X-122927Y332498D01*
X-122893Y332505D01*
X-122859Y332503D01*
X-122781Y332521D01*
X-122201Y332241D01*
X-122170Y332232D01*
X-122096Y332200D01*
X-121484Y332010D01*
X-121435Y331957D01*
X-121382Y331886D01*
X-121353Y331867D01*
X-121330Y331841D01*
X-121188Y331752D01*
X-119313Y330848D01*
X-119253Y330830D01*
X-119196Y330803D01*
X-119136Y330796D01*
X-119078Y330779D01*
X-119030Y330780D01*
X-118339Y330381D01*
X-118319Y330373D01*
X-118288Y330354D01*
X-117942Y330187D01*
X-117835Y330155D01*
X-117830Y330154D01*
X-117817Y330148D01*
X-117812Y330148D01*
X-117727Y330120D01*
X-117717Y330120D01*
X-117707Y330117D01*
X-117594Y330122D01*
X-117481Y330123D01*
X-117471Y330126D01*
X-117461Y330127D01*
X-117355Y330167D01*
X-117249Y330204D01*
X-117240Y330210D01*
X-117231Y330214D01*
X-117150Y330280D01*
X-117141Y330285D01*
X-117132Y330294D01*
X-117054Y330354D01*
X-117047Y330364D01*
X-117041Y330370D01*
X-117027Y330391D01*
X-116981Y330453D01*
X-116971Y330463D01*
X-116968Y330470D01*
X-116954Y330489D01*
X-87464Y381044D01*
X-69762Y381044D01*
X-69733Y381050D01*
X-69703Y381047D01*
X-69636Y381069D01*
X-69567Y381083D01*
X-69543Y381100D01*
X-69514Y381110D01*
X-69461Y381156D01*
X-69403Y381196D01*
X-69387Y381221D01*
X-69365Y381241D01*
X-69334Y381304D01*
X-69296Y381363D01*
X-69291Y381393D01*
X-69278Y381420D01*
X-69271Y381509D01*
X-30548Y381509D01*
X-30528Y381512D01*
X-30509Y381510D01*
X-30407Y381532D01*
X-30305Y381549D01*
X-30288Y381558D01*
X-30268Y381562D01*
X-30179Y381615D01*
X-30088Y381664D01*
X-30074Y381678D01*
X-30057Y381688D01*
X-29990Y381767D01*
X-29918Y381842D01*
X-29910Y381860D01*
X-29897Y381875D01*
X-29858Y381971D01*
X-29815Y382065D01*
X-29813Y382085D01*
X-29805Y382103D01*
X-29787Y382270D01*
X-29787Y382436D01*
X-29781Y382443D01*
X-29763Y382504D01*
X-29735Y382560D01*
X-29718Y382647D01*
X-29709Y382678D01*
X-29709Y382696D01*
X-29704Y382725D01*
X-29548Y384804D01*
X-29551Y384839D01*
X-29546Y384873D01*
X-29562Y384961D01*
X-29569Y385049D01*
X-29583Y385081D01*
X-29590Y385115D01*
X-29624Y385187D01*
X-29481Y385814D01*
X-29479Y385847D01*
X-29464Y385927D01*
X-29416Y386565D01*
X-29375Y386624D01*
X-29318Y386692D01*
X-29305Y386725D01*
X-29286Y386753D01*
X-29230Y386911D01*
X-28740Y389058D01*
X-28738Y389093D01*
X-28728Y389126D01*
X-28731Y389215D01*
X-28725Y389304D01*
X-28734Y389337D01*
X-28735Y389372D01*
X-28759Y389448D01*
X-28524Y390047D01*
X-28517Y390079D01*
X-28490Y390155D01*
X-28348Y390780D01*
X-28298Y390832D01*
X-28232Y390891D01*
X-28214Y390921D01*
X-28190Y390946D01*
X-28112Y391094D01*
X-27308Y393144D01*
X-27301Y393178D01*
X-27286Y393209D01*
X-27275Y393298D01*
X-27256Y393385D01*
X-27260Y393419D01*
X-27256Y393453D01*
X-27268Y393532D01*
X-26946Y394089D01*
X-26934Y394120D01*
X-26897Y394192D01*
X-26663Y394788D01*
X-26606Y394832D01*
X-26532Y394880D01*
X-26510Y394908D01*
X-26483Y394929D01*
X-26383Y395064D01*
X-25282Y396971D01*
X-25270Y397003D01*
X-25251Y397032D01*
X-25227Y397118D01*
X-25195Y397201D01*
X-25194Y397236D01*
X-25185Y397269D01*
X-25185Y397349D01*
X-24784Y397852D01*
X-24767Y397881D01*
X-24719Y397946D01*
X-24399Y398500D01*
X-24337Y398536D01*
X-24256Y398572D01*
X-24231Y398596D01*
X-24200Y398613D01*
X-24082Y398732D01*
X-22709Y400453D01*
X-22695Y400478D01*
X-22676Y400498D01*
X-22673Y400504D01*
X-22669Y400509D01*
X-22632Y400590D01*
X-22589Y400668D01*
X-22583Y400698D01*
X-22572Y400721D01*
X-22572Y400725D01*
X-22568Y400734D01*
X-22556Y400812D01*
X-22085Y401250D01*
X-22064Y401276D01*
X-22007Y401333D01*
X-21608Y401834D01*
X-21541Y401860D01*
X-21455Y401884D01*
X-21427Y401903D01*
X-21394Y401916D01*
X-21260Y402015D01*
X-20150Y403045D01*
X-20129Y403072D01*
X-20103Y403093D01*
X-20054Y403168D01*
X-20000Y403239D01*
X-19988Y403271D01*
X-19970Y403300D01*
X-19948Y403387D01*
X-19918Y403471D01*
X-19918Y403505D01*
X-19910Y403538D01*
X-19917Y403627D01*
X-19916Y403717D01*
X-19926Y403750D01*
X-19929Y403784D01*
X-19964Y403866D01*
X-19991Y403951D01*
X-20012Y403979D01*
X-20025Y404010D01*
X-20130Y404141D01*
X-24705Y408716D01*
X-24779Y408769D01*
X-24849Y408829D01*
X-24879Y408841D01*
X-24905Y408860D01*
X-24992Y408887D01*
X-25077Y408921D01*
X-25118Y408925D01*
X-25140Y408932D01*
X-25172Y408931D01*
X-25244Y408939D01*
X-100232Y408939D01*
X-100322Y408925D01*
X-100413Y408917D01*
X-100443Y408905D01*
X-100475Y408900D01*
X-100556Y408857D01*
X-100640Y408821D01*
X-100672Y408795D01*
X-100692Y408784D01*
X-100715Y408761D01*
X-100771Y408716D01*
X-128046Y381441D01*
X-128099Y381367D01*
X-128159Y381297D01*
X-128171Y381267D01*
X-128190Y381241D01*
X-128217Y381154D01*
X-128251Y381069D01*
X-128255Y381028D01*
X-128262Y381006D01*
X-128261Y380974D01*
X-128269Y380902D01*
X-128269Y363438D01*
X-201640Y290067D01*
X-211626Y290067D01*
X-211740Y290048D01*
X-211857Y290031D01*
X-211862Y290029D01*
X-211868Y290028D01*
X-211971Y289973D01*
X-212076Y289920D01*
X-212080Y289915D01*
X-212086Y289912D01*
X-212166Y289828D01*
X-212248Y289744D01*
X-212252Y289738D01*
X-212255Y289734D01*
X-212263Y289717D01*
X-212329Y289597D01*
X-213227Y287428D01*
X-215800Y284855D01*
X-219161Y283463D01*
X-238039Y283463D01*
X-241400Y284855D01*
X-243973Y287428D01*
X-245365Y290789D01*
X-245365Y294427D01*
X-243973Y297788D01*
X-241400Y300361D01*
X-238039Y301753D01*
X-219161Y301753D01*
X-215800Y300361D01*
X-213227Y297788D01*
X-212329Y295619D01*
X-212267Y295519D01*
X-212207Y295419D01*
X-212203Y295415D01*
X-212199Y295410D01*
X-212109Y295335D01*
X-212020Y295259D01*
X-212015Y295257D01*
X-212010Y295253D01*
X-211901Y295211D01*
X-211792Y295167D01*
X-211785Y295166D01*
X-211780Y295165D01*
X-211762Y295164D01*
X-211626Y295149D01*
X-204060Y295149D01*
X-203970Y295163D01*
X-203879Y295171D01*
X-203849Y295183D01*
X-203817Y295188D01*
X-203736Y295231D01*
X-203652Y295267D01*
X-203620Y295293D01*
X-203600Y295304D01*
X-203577Y295327D01*
X-203521Y295372D01*
X-157467Y341426D01*
X-157426Y341484D01*
X-157376Y341536D01*
X-157354Y341583D01*
X-157324Y341625D01*
X-157303Y341694D01*
X-157273Y341759D01*
X-157267Y341811D01*
X-157251Y341861D01*
X-157253Y341932D01*
X-157245Y342003D01*
X-157257Y342054D01*
X-157258Y342106D01*
X-157282Y342174D01*
X-157298Y342244D01*
X-157324Y342289D01*
X-157342Y342337D01*
X-157387Y342393D01*
X-157424Y342455D01*
X-157463Y342489D01*
X-157496Y342529D01*
X-157556Y342568D01*
X-157611Y342615D01*
X-157659Y342634D01*
X-157703Y342662D01*
X-157772Y342680D01*
X-157839Y342707D01*
X-157910Y342715D01*
X-157941Y342723D01*
X-157965Y342721D01*
X-158006Y342725D01*
X-166542Y342725D01*
X-167435Y343618D01*
X-167435Y354882D01*
X-166542Y355775D01*
X-165196Y355775D01*
X-165176Y355778D01*
X-165157Y355776D01*
X-165055Y355798D01*
X-164953Y355814D01*
X-164936Y355824D01*
X-164916Y355828D01*
X-164827Y355881D01*
X-164736Y355930D01*
X-164722Y355944D01*
X-164705Y355954D01*
X-164638Y356033D01*
X-164566Y356108D01*
X-164558Y356126D01*
X-164545Y356141D01*
X-164506Y356237D01*
X-164463Y356331D01*
X-164461Y356351D01*
X-164453Y356369D01*
X-164435Y356536D01*
X-164435Y362264D01*
X-164438Y362284D01*
X-164436Y362303D01*
X-164458Y362405D01*
X-164474Y362507D01*
X-164484Y362524D01*
X-164488Y362544D01*
X-164541Y362633D01*
X-164590Y362724D01*
X-164604Y362738D01*
X-164614Y362755D01*
X-164693Y362822D01*
X-164768Y362894D01*
X-164786Y362902D01*
X-164801Y362915D01*
X-164897Y362954D01*
X-164991Y362997D01*
X-165011Y362999D01*
X-165029Y363007D01*
X-165196Y363025D01*
X-168555Y363025D01*
X-171645Y366115D01*
X-171645Y370485D01*
X-168555Y373575D01*
X-165196Y373575D01*
X-165176Y373578D01*
X-165157Y373576D01*
X-165055Y373598D01*
X-164953Y373614D01*
X-164936Y373624D01*
X-164916Y373628D01*
X-164827Y373681D01*
X-164736Y373730D01*
X-164722Y373744D01*
X-164705Y373754D01*
X-164638Y373833D01*
X-164566Y373908D01*
X-164558Y373926D01*
X-164545Y373941D01*
X-164506Y374037D01*
X-164463Y374131D01*
X-164461Y374151D01*
X-164453Y374169D01*
X-164435Y374336D01*
X-164435Y382299D01*
X-164449Y382390D01*
X-164457Y382480D01*
X-164469Y382510D01*
X-164474Y382542D01*
X-164517Y382623D01*
X-164553Y382707D01*
X-164579Y382739D01*
X-164590Y382760D01*
X-164613Y382782D01*
X-164658Y382838D01*
X-166602Y384782D01*
X-166676Y384835D01*
X-166746Y384895D01*
X-166776Y384907D01*
X-166802Y384926D01*
X-166889Y384953D01*
X-166974Y384987D01*
X-167015Y384991D01*
X-167037Y384998D01*
X-167069Y384997D01*
X-167141Y385005D01*
X-172702Y385005D01*
X-173595Y385898D01*
X-173595Y392662D01*
X-172702Y393555D01*
X-159438Y393555D01*
X-158545Y392662D01*
X-158545Y387101D01*
X-158531Y387010D01*
X-158523Y386920D01*
X-158511Y386890D01*
X-158506Y386858D01*
X-158463Y386777D01*
X-158427Y386693D01*
X-158401Y386661D01*
X-158390Y386640D01*
X-158367Y386618D01*
X-158322Y386562D01*
X-155308Y383548D01*
X-155234Y383495D01*
X-155164Y383435D01*
X-155134Y383423D01*
X-155108Y383404D01*
X-155021Y383377D01*
X-154936Y383343D01*
X-154895Y383339D01*
X-154873Y383332D01*
X-154841Y383333D01*
X-154769Y383325D01*
X-146278Y383325D01*
X-145385Y382432D01*
X-145385Y355346D01*
X-145374Y355275D01*
X-145372Y355203D01*
X-145354Y355154D01*
X-145346Y355103D01*
X-145312Y355040D01*
X-145287Y354972D01*
X-145255Y354932D01*
X-145230Y354886D01*
X-145178Y354836D01*
X-145134Y354780D01*
X-145090Y354752D01*
X-145052Y354716D01*
X-144987Y354686D01*
X-144927Y354647D01*
X-144876Y354634D01*
X-144829Y354613D01*
X-144758Y354605D01*
X-144688Y354587D01*
X-144636Y354591D01*
X-144585Y354585D01*
X-144514Y354601D01*
X-144443Y354606D01*
X-144395Y354627D01*
X-144344Y354638D01*
X-144283Y354675D01*
X-144217Y354703D01*
X-144161Y354747D01*
X-144133Y354764D01*
X-144118Y354782D01*
X-144086Y354807D01*
X-133574Y365319D01*
X-133521Y365393D01*
X-133461Y365463D01*
X-133449Y365493D01*
X-133430Y365519D01*
X-133403Y365606D01*
X-133369Y365691D01*
X-133365Y365732D01*
X-133358Y365754D01*
X-133359Y365786D01*
X-133351Y365858D01*
X-133351Y383322D01*
X-102652Y414021D01*
X-22824Y414021D01*
X-15848Y407045D01*
X-15789Y407003D01*
X-15737Y406953D01*
X-15690Y406932D01*
X-15648Y406902D01*
X-15579Y406880D01*
X-15514Y406850D01*
X-15462Y406844D01*
X-15413Y406829D01*
X-15341Y406831D01*
X-15269Y406823D01*
X-15219Y406834D01*
X-15167Y406836D01*
X-15099Y406860D01*
X-15029Y406876D01*
X-14966Y406909D01*
X-14936Y406920D01*
X-14918Y406935D01*
X-14881Y406954D01*
X-14701Y407077D01*
X-14629Y407082D01*
X-14540Y407079D01*
X-14507Y407090D01*
X-14473Y407092D01*
X-14315Y407148D01*
X-12331Y408103D01*
X-12302Y408123D01*
X-12270Y408136D01*
X-12202Y408193D01*
X-12129Y408244D01*
X-12109Y408272D01*
X-12082Y408294D01*
X-12038Y408360D01*
X-11423Y408550D01*
X-11393Y408565D01*
X-11317Y408591D01*
X-10740Y408869D01*
X-10668Y408863D01*
X-10581Y408848D01*
X-10546Y408853D01*
X-10512Y408850D01*
X-10347Y408882D01*
X-8243Y409531D01*
X-8212Y409546D01*
X-8178Y409554D01*
X-8102Y409600D01*
X-8023Y409640D01*
X-7998Y409665D01*
X-7969Y409683D01*
X-7915Y409741D01*
X-7278Y409837D01*
X-7247Y409847D01*
X-7167Y409862D01*
X-6555Y410051D01*
X-6486Y410035D01*
X-6401Y410006D01*
X-6367Y410006D01*
X-6333Y409998D01*
X-6165Y410005D01*
X-3988Y410333D01*
X-3955Y410344D01*
X-3920Y410346D01*
X-3839Y410381D01*
X-3754Y410408D01*
X-3726Y410429D01*
X-3694Y410443D01*
X-3632Y410492D01*
X-2989Y410492D01*
X-2956Y410498D01*
X-2875Y410501D01*
X-2242Y410596D01*
X-2175Y410569D01*
X-2096Y410529D01*
X-2062Y410524D01*
X-2030Y410511D01*
X-1863Y410492D01*
X339Y410492D01*
X373Y410498D01*
X408Y410495D01*
G37*
G36*
X26265Y381049D02*
X26265Y381049D01*
X26292Y381047D01*
X26361Y381069D01*
X26433Y381083D01*
X26455Y381099D01*
X26481Y381107D01*
X26537Y381155D01*
X26597Y381196D01*
X26611Y381219D01*
X26632Y381237D01*
X26665Y381302D01*
X26704Y381363D01*
X26708Y381390D01*
X26720Y381415D01*
X26730Y381519D01*
X26737Y381560D01*
X26735Y381569D01*
X26736Y381580D01*
X26434Y385604D01*
X26426Y385635D01*
X26423Y385678D01*
X25525Y389612D01*
X25512Y389641D01*
X25503Y389684D01*
X24029Y393440D01*
X24012Y393467D01*
X23997Y393508D01*
X21979Y397002D01*
X21958Y397026D01*
X21937Y397064D01*
X19421Y400219D01*
X19396Y400239D01*
X19370Y400274D01*
X16412Y403018D01*
X16385Y403035D01*
X16353Y403065D01*
X13019Y405338D01*
X12990Y405351D01*
X12955Y405376D01*
X9319Y407126D01*
X9288Y407134D01*
X9249Y407154D01*
X5393Y408343D01*
X5362Y408346D01*
X5320Y408360D01*
X1330Y408961D01*
X1298Y408960D01*
X1256Y408967D01*
X-2780Y408967D01*
X-2811Y408960D01*
X-2854Y408961D01*
X-6844Y408360D01*
X-6874Y408349D01*
X-6917Y408343D01*
X-10773Y407154D01*
X-10801Y407138D01*
X-10843Y407126D01*
X-14479Y405376D01*
X-14504Y405356D01*
X-14543Y405338D01*
X-17877Y403065D01*
X-17900Y403042D01*
X-17936Y403018D01*
X-20894Y400274D01*
X-20913Y400248D01*
X-20945Y400219D01*
X-23461Y397064D01*
X-23475Y397036D01*
X-23503Y397002D01*
X-25521Y393508D01*
X-25531Y393477D01*
X-25553Y393440D01*
X-27027Y389684D01*
X-27033Y389652D01*
X-27049Y389612D01*
X-27947Y385678D01*
X-27948Y385646D01*
X-27958Y385604D01*
X-28260Y381580D01*
X-28256Y381553D01*
X-28261Y381526D01*
X-28244Y381456D01*
X-28235Y381383D01*
X-28221Y381359D01*
X-28215Y381333D01*
X-28172Y381274D01*
X-28135Y381211D01*
X-28113Y381195D01*
X-28097Y381173D01*
X-28034Y381136D01*
X-27976Y381092D01*
X-27949Y381085D01*
X-27926Y381071D01*
X-27822Y381054D01*
X-27783Y381044D01*
X-27773Y381046D01*
X-27762Y381044D01*
X26238Y381044D01*
X26265Y381049D01*
G37*
G36*
X-146234Y281386D02*
X-146234Y281386D01*
X-146161Y281387D01*
X-146136Y281397D01*
X-146109Y281400D01*
X-146046Y281436D01*
X-145979Y281465D01*
X-145960Y281484D01*
X-145936Y281497D01*
X-145869Y281579D01*
X-145841Y281608D01*
X-145837Y281617D01*
X-145830Y281626D01*
X-118830Y328326D01*
X-118821Y328351D01*
X-118805Y328374D01*
X-118790Y328445D01*
X-118767Y328514D01*
X-118769Y328541D01*
X-118763Y328568D01*
X-118776Y328640D01*
X-118782Y328712D01*
X-118794Y328737D01*
X-118799Y328763D01*
X-118840Y328824D01*
X-118873Y328889D01*
X-118894Y328906D01*
X-118909Y328929D01*
X-118995Y328990D01*
X-119027Y329016D01*
X-119036Y329018D01*
X-119045Y329025D01*
X-122676Y330776D01*
X-122707Y330784D01*
X-122745Y330804D01*
X-126597Y331994D01*
X-126629Y331997D01*
X-126670Y332011D01*
X-130655Y332614D01*
X-130687Y332613D01*
X-130730Y332620D01*
X-134761Y332622D01*
X-134792Y332616D01*
X-134835Y332617D01*
X-138822Y332018D01*
X-138852Y332007D01*
X-138895Y332002D01*
X-142748Y330816D01*
X-142776Y330801D01*
X-142817Y330789D01*
X-146450Y329042D01*
X-146475Y329023D01*
X-146515Y329005D01*
X-149847Y326736D01*
X-149869Y326713D01*
X-149905Y326689D01*
X-152862Y323949D01*
X-152880Y323923D01*
X-152913Y323894D01*
X-155428Y320744D01*
X-155443Y320716D01*
X-155470Y320683D01*
X-157488Y317193D01*
X-157498Y317163D01*
X-157520Y317126D01*
X-158157Y315505D01*
X-158943Y313508D01*
X-158995Y313374D01*
X-159001Y313342D01*
X-159017Y313303D01*
X-159917Y309373D01*
X-159917Y309341D01*
X-159928Y309299D01*
X-160232Y305279D01*
X-160228Y305248D01*
X-160232Y305205D01*
X-159933Y301185D01*
X-159924Y301154D01*
X-159922Y301111D01*
X-159027Y297180D01*
X-159014Y297151D01*
X-159005Y297109D01*
X-157535Y293356D01*
X-157517Y293329D01*
X-157502Y293288D01*
X-155489Y289796D01*
X-155468Y289772D01*
X-155447Y289734D01*
X-152935Y286581D01*
X-152911Y286561D01*
X-152885Y286526D01*
X-149931Y283783D01*
X-149904Y283766D01*
X-149873Y283736D01*
X-146544Y281463D01*
X-146518Y281453D01*
X-146497Y281435D01*
X-146428Y281414D01*
X-146360Y281386D01*
X-146333Y281386D01*
X-146307Y281378D01*
X-146234Y281386D01*
G37*
G36*
X144743Y281386D02*
X144743Y281386D01*
X144816Y281382D01*
X144841Y281392D01*
X144868Y281394D01*
X144964Y281438D01*
X145002Y281452D01*
X145009Y281458D01*
X145020Y281463D01*
X148349Y283736D01*
X148371Y283759D01*
X148407Y283783D01*
X151361Y286526D01*
X151379Y286552D01*
X151411Y286581D01*
X153923Y289734D01*
X153937Y289763D01*
X153965Y289796D01*
X155978Y293288D01*
X155988Y293318D01*
X156011Y293356D01*
X156919Y295675D01*
X157115Y296174D01*
X157310Y296673D01*
X157311Y296674D01*
X157481Y297109D01*
X157487Y297140D01*
X157503Y297180D01*
X158398Y301111D01*
X158398Y301143D01*
X158409Y301185D01*
X158708Y305205D01*
X158704Y305236D01*
X158708Y305279D01*
X158404Y309299D01*
X158395Y309330D01*
X158393Y309373D01*
X157493Y313303D01*
X157480Y313332D01*
X157471Y313374D01*
X155996Y317126D01*
X155979Y317152D01*
X155964Y317193D01*
X153946Y320683D01*
X153925Y320706D01*
X153904Y320744D01*
X151389Y323894D01*
X151364Y323915D01*
X151338Y323949D01*
X148381Y326689D01*
X148354Y326706D01*
X148323Y326736D01*
X144991Y329005D01*
X144961Y329017D01*
X144926Y329042D01*
X141293Y330789D01*
X141262Y330796D01*
X141224Y330816D01*
X137371Y332002D01*
X137339Y332005D01*
X137298Y332018D01*
X133311Y332617D01*
X133280Y332615D01*
X133237Y332622D01*
X129206Y332620D01*
X129175Y332613D01*
X129131Y332614D01*
X125146Y332011D01*
X125116Y332000D01*
X125073Y331994D01*
X121221Y330804D01*
X121194Y330789D01*
X121152Y330776D01*
X117521Y329025D01*
X117499Y329009D01*
X117474Y328999D01*
X117421Y328949D01*
X117363Y328905D01*
X117349Y328881D01*
X117330Y328863D01*
X117300Y328796D01*
X117264Y328732D01*
X117261Y328705D01*
X117250Y328680D01*
X117249Y328607D01*
X117240Y328535D01*
X117248Y328509D01*
X117248Y328482D01*
X117284Y328383D01*
X117296Y328344D01*
X117302Y328337D01*
X117306Y328326D01*
X144306Y281626D01*
X144324Y281605D01*
X144335Y281581D01*
X144389Y281531D01*
X144438Y281477D01*
X144462Y281465D01*
X144482Y281447D01*
X144551Y281423D01*
X144617Y281391D01*
X144644Y281390D01*
X144670Y281381D01*
X144743Y281386D01*
G37*
G36*
X-130730Y125396D02*
X-130730Y125396D01*
X-130699Y125403D01*
X-130655Y125402D01*
X-126670Y126005D01*
X-126640Y126016D01*
X-126597Y126022D01*
X-122745Y127212D01*
X-122718Y127227D01*
X-122676Y127240D01*
X-119045Y128991D01*
X-119023Y129007D01*
X-118998Y129017D01*
X-118945Y129067D01*
X-118887Y129111D01*
X-118873Y129135D01*
X-118854Y129153D01*
X-118824Y129220D01*
X-118788Y129284D01*
X-118785Y129311D01*
X-118774Y129336D01*
X-118773Y129409D01*
X-118764Y129481D01*
X-118772Y129507D01*
X-118772Y129535D01*
X-118808Y129633D01*
X-118820Y129672D01*
X-118826Y129680D01*
X-118830Y129690D01*
X-145830Y176390D01*
X-145848Y176411D01*
X-145859Y176435D01*
X-145913Y176485D01*
X-145962Y176539D01*
X-145986Y176551D01*
X-146006Y176569D01*
X-146075Y176593D01*
X-146141Y176625D01*
X-146168Y176626D01*
X-146194Y176635D01*
X-146267Y176630D01*
X-146340Y176634D01*
X-146365Y176624D01*
X-146392Y176622D01*
X-146488Y176578D01*
X-146526Y176564D01*
X-146533Y176558D01*
X-146544Y176553D01*
X-149873Y174280D01*
X-149895Y174257D01*
X-149931Y174233D01*
X-152885Y171490D01*
X-152903Y171464D01*
X-152935Y171435D01*
X-155447Y168282D01*
X-155461Y168253D01*
X-155489Y168220D01*
X-157502Y164728D01*
X-157512Y164698D01*
X-157535Y164660D01*
X-159005Y160907D01*
X-159011Y160876D01*
X-159027Y160836D01*
X-159922Y156905D01*
X-159922Y156873D01*
X-159933Y156831D01*
X-160232Y152811D01*
X-160228Y152780D01*
X-160232Y152737D01*
X-159928Y148717D01*
X-159919Y148686D01*
X-159917Y148643D01*
X-159017Y144713D01*
X-159004Y144684D01*
X-158995Y144642D01*
X-157520Y140891D01*
X-157503Y140864D01*
X-157488Y140823D01*
X-155470Y137333D01*
X-155449Y137310D01*
X-155428Y137272D01*
X-152913Y134122D01*
X-152888Y134101D01*
X-152862Y134067D01*
X-149905Y131327D01*
X-149878Y131310D01*
X-149847Y131280D01*
X-146515Y129012D01*
X-146485Y128999D01*
X-146450Y128974D01*
X-142817Y127227D01*
X-142786Y127220D01*
X-142748Y127200D01*
X-138895Y126014D01*
X-138863Y126011D01*
X-138822Y125998D01*
X-134835Y125399D01*
X-134804Y125401D01*
X-134761Y125394D01*
X-130730Y125396D01*
G37*
G36*
X133268Y125600D02*
X133268Y125600D01*
X133311Y125599D01*
X137298Y126198D01*
X137328Y126209D01*
X137371Y126214D01*
X141224Y127400D01*
X141252Y127415D01*
X141293Y127427D01*
X144926Y129174D01*
X144951Y129193D01*
X144991Y129212D01*
X148323Y131480D01*
X148345Y131503D01*
X148381Y131527D01*
X151338Y134267D01*
X151356Y134293D01*
X151389Y134322D01*
X153904Y137472D01*
X153919Y137500D01*
X153946Y137533D01*
X155964Y141023D01*
X155974Y141054D01*
X155996Y141091D01*
X157471Y144842D01*
X157477Y144874D01*
X157481Y144885D01*
X157482Y144885D01*
X157493Y144913D01*
X158393Y148843D01*
X158393Y148875D01*
X158404Y148917D01*
X158708Y152937D01*
X158704Y152968D01*
X158708Y153011D01*
X158409Y157031D01*
X158400Y157062D01*
X158398Y157105D01*
X157503Y161036D01*
X157490Y161065D01*
X157481Y161107D01*
X156011Y164860D01*
X155993Y164887D01*
X155978Y164928D01*
X153965Y168420D01*
X153944Y168444D01*
X153923Y168482D01*
X151411Y171635D01*
X151387Y171655D01*
X151361Y171690D01*
X148407Y174433D01*
X148380Y174450D01*
X148349Y174480D01*
X145020Y176753D01*
X144994Y176763D01*
X144973Y176781D01*
X144904Y176802D01*
X144836Y176830D01*
X144809Y176830D01*
X144783Y176838D01*
X144710Y176830D01*
X144637Y176830D01*
X144612Y176819D01*
X144585Y176816D01*
X144522Y176780D01*
X144455Y176751D01*
X144436Y176732D01*
X144412Y176719D01*
X144345Y176637D01*
X144317Y176608D01*
X144313Y176599D01*
X144306Y176590D01*
X117306Y129890D01*
X117297Y129865D01*
X117281Y129842D01*
X117266Y129771D01*
X117243Y129702D01*
X117245Y129675D01*
X117239Y129648D01*
X117252Y129576D01*
X117258Y129504D01*
X117270Y129479D01*
X117275Y129453D01*
X117316Y129392D01*
X117349Y129327D01*
X117370Y129310D01*
X117385Y129287D01*
X117471Y129226D01*
X117503Y129200D01*
X117512Y129198D01*
X117521Y129191D01*
X121152Y127440D01*
X121183Y127432D01*
X121221Y127412D01*
X125073Y126222D01*
X125105Y126219D01*
X125146Y126205D01*
X129131Y125602D01*
X129163Y125603D01*
X129206Y125596D01*
X133237Y125594D01*
X133268Y125600D01*
G37*
%LPC*%
G36*
X-231302Y372685D02*
X-231302Y372685D01*
X-232195Y373578D01*
X-232195Y390842D01*
X-231302Y391735D01*
X-203038Y391735D01*
X-202145Y390842D01*
X-202145Y386528D01*
X-202142Y386508D01*
X-202144Y386489D01*
X-202122Y386387D01*
X-202106Y386285D01*
X-202096Y386268D01*
X-202092Y386248D01*
X-202039Y386159D01*
X-201990Y386068D01*
X-201976Y386054D01*
X-201966Y386037D01*
X-201887Y385970D01*
X-201812Y385898D01*
X-201794Y385890D01*
X-201779Y385877D01*
X-201683Y385838D01*
X-201589Y385795D01*
X-201569Y385793D01*
X-201551Y385785D01*
X-201384Y385767D01*
X-200929Y385767D01*
X-200838Y385781D01*
X-200748Y385789D01*
X-200718Y385801D01*
X-200686Y385806D01*
X-200605Y385849D01*
X-200521Y385885D01*
X-200489Y385911D01*
X-200468Y385922D01*
X-200446Y385945D01*
X-200390Y385990D01*
X-199818Y386562D01*
X-199765Y386636D01*
X-199705Y386706D01*
X-199693Y386736D01*
X-199674Y386762D01*
X-199647Y386849D01*
X-199613Y386934D01*
X-199609Y386975D01*
X-199602Y386997D01*
X-199603Y387029D01*
X-199595Y387101D01*
X-199595Y392662D01*
X-198702Y393555D01*
X-185831Y393555D01*
X-185740Y393569D01*
X-185650Y393577D01*
X-185620Y393589D01*
X-185588Y393594D01*
X-185507Y393637D01*
X-185423Y393673D01*
X-185391Y393699D01*
X-185370Y393710D01*
X-185348Y393733D01*
X-185292Y393778D01*
X-184120Y394950D01*
X-184067Y395024D01*
X-184007Y395094D01*
X-183995Y395124D01*
X-183976Y395150D01*
X-183949Y395237D01*
X-183915Y395322D01*
X-183911Y395363D01*
X-183904Y395385D01*
X-183905Y395417D01*
X-183897Y395489D01*
X-183897Y403709D01*
X-183908Y403780D01*
X-183910Y403852D01*
X-183928Y403901D01*
X-183936Y403952D01*
X-183970Y404015D01*
X-183995Y404083D01*
X-184027Y404123D01*
X-184052Y404169D01*
X-184104Y404219D01*
X-184148Y404275D01*
X-184192Y404303D01*
X-184230Y404339D01*
X-184295Y404369D01*
X-184355Y404408D01*
X-184406Y404420D01*
X-184453Y404442D01*
X-184524Y404450D01*
X-184594Y404468D01*
X-184646Y404464D01*
X-184697Y404469D01*
X-184768Y404454D01*
X-184839Y404449D01*
X-184887Y404428D01*
X-184938Y404417D01*
X-184999Y404380D01*
X-185065Y404352D01*
X-185121Y404307D01*
X-185149Y404291D01*
X-185164Y404273D01*
X-185196Y404247D01*
X-185438Y404005D01*
X-198702Y404005D01*
X-199595Y404898D01*
X-199595Y411662D01*
X-198702Y412555D01*
X-185438Y412555D01*
X-184943Y412060D01*
X-184869Y412007D01*
X-184800Y411947D01*
X-184770Y411935D01*
X-184744Y411916D01*
X-184657Y411889D01*
X-184572Y411855D01*
X-184531Y411851D01*
X-184509Y411844D01*
X-184476Y411845D01*
X-184405Y411837D01*
X-180747Y411837D01*
X-176783Y407873D01*
X-176783Y392227D01*
X-183947Y385063D01*
X-185065Y385063D01*
X-185155Y385049D01*
X-185246Y385041D01*
X-185276Y385029D01*
X-185308Y385024D01*
X-185342Y385005D01*
X-190999Y385005D01*
X-191090Y384991D01*
X-191180Y384983D01*
X-191210Y384971D01*
X-191242Y384966D01*
X-191323Y384923D01*
X-191407Y384887D01*
X-191439Y384861D01*
X-191460Y384850D01*
X-191482Y384827D01*
X-191538Y384782D01*
X-195360Y380960D01*
X-197667Y378653D01*
X-201384Y378653D01*
X-201404Y378650D01*
X-201423Y378652D01*
X-201525Y378630D01*
X-201627Y378614D01*
X-201644Y378604D01*
X-201664Y378600D01*
X-201753Y378547D01*
X-201844Y378498D01*
X-201858Y378484D01*
X-201875Y378474D01*
X-201942Y378395D01*
X-202014Y378320D01*
X-202022Y378302D01*
X-202035Y378287D01*
X-202074Y378191D01*
X-202117Y378097D01*
X-202119Y378077D01*
X-202127Y378059D01*
X-202145Y377892D01*
X-202145Y373578D01*
X-203038Y372685D01*
X-231302Y372685D01*
G37*
%LPD*%
%LPC*%
G36*
X219161Y308863D02*
X219161Y308863D01*
X215800Y310255D01*
X213227Y312828D01*
X211835Y316189D01*
X211835Y319827D01*
X213227Y323188D01*
X215800Y325761D01*
X219161Y327153D01*
X238039Y327153D01*
X241400Y325761D01*
X243973Y323188D01*
X245365Y319827D01*
X245365Y316189D01*
X243973Y312828D01*
X241400Y310255D01*
X238039Y308863D01*
X219161Y308863D01*
G37*
%LPD*%
%LPC*%
G36*
X-238039Y308863D02*
X-238039Y308863D01*
X-241400Y310255D01*
X-243973Y312828D01*
X-245365Y316189D01*
X-245365Y319827D01*
X-243973Y323188D01*
X-241400Y325761D01*
X-238039Y327153D01*
X-219161Y327153D01*
X-215800Y325761D01*
X-213227Y323188D01*
X-211835Y319827D01*
X-211835Y316189D01*
X-213227Y312828D01*
X-215800Y310255D01*
X-219161Y308863D01*
X-238039Y308863D01*
G37*
%LPD*%
%LPC*%
G36*
X219161Y258063D02*
X219161Y258063D01*
X215800Y259455D01*
X213227Y262028D01*
X211835Y265389D01*
X211835Y269027D01*
X213227Y272388D01*
X215800Y274961D01*
X219161Y276353D01*
X238039Y276353D01*
X241400Y274961D01*
X243973Y272388D01*
X245365Y269027D01*
X245365Y265389D01*
X243973Y262028D01*
X241400Y259455D01*
X238039Y258063D01*
X219161Y258063D01*
G37*
%LPD*%
%LPC*%
G36*
X-238039Y258063D02*
X-238039Y258063D01*
X-241400Y259455D01*
X-243973Y262028D01*
X-245365Y265389D01*
X-245365Y269027D01*
X-243973Y272388D01*
X-241400Y274961D01*
X-238039Y276353D01*
X-219161Y276353D01*
X-215800Y274961D01*
X-213227Y272388D01*
X-211835Y269027D01*
X-211835Y265389D01*
X-213227Y262028D01*
X-215800Y259455D01*
X-219161Y258063D01*
X-238039Y258063D01*
G37*
%LPD*%
%LPC*%
G36*
X-238039Y207263D02*
X-238039Y207263D01*
X-241400Y208655D01*
X-243973Y211228D01*
X-245365Y214589D01*
X-245365Y218227D01*
X-243973Y221588D01*
X-241400Y224161D01*
X-238039Y225553D01*
X-219161Y225553D01*
X-215800Y224161D01*
X-213227Y221588D01*
X-211835Y218227D01*
X-211835Y214589D01*
X-213227Y211228D01*
X-215800Y208655D01*
X-219161Y207263D01*
X-238039Y207263D01*
G37*
%LPD*%
%LPC*%
G36*
X219161Y207263D02*
X219161Y207263D01*
X215800Y208655D01*
X213227Y211228D01*
X211835Y214589D01*
X211835Y218227D01*
X213227Y221588D01*
X215800Y224161D01*
X219161Y225553D01*
X238039Y225553D01*
X241400Y224161D01*
X243973Y221588D01*
X245365Y218227D01*
X245365Y214589D01*
X243973Y211228D01*
X241400Y208655D01*
X238039Y207263D01*
X219161Y207263D01*
G37*
%LPD*%
%LPC*%
G36*
X219161Y181863D02*
X219161Y181863D01*
X215800Y183255D01*
X213227Y185828D01*
X211835Y189189D01*
X211835Y192827D01*
X213227Y196188D01*
X215800Y198761D01*
X219161Y200153D01*
X238039Y200153D01*
X241400Y198761D01*
X243973Y196188D01*
X245365Y192827D01*
X245365Y189189D01*
X243973Y185828D01*
X241400Y183255D01*
X238039Y181863D01*
X219161Y181863D01*
G37*
%LPD*%
%LPC*%
G36*
X219161Y156463D02*
X219161Y156463D01*
X215800Y157855D01*
X213227Y160428D01*
X211835Y163789D01*
X211835Y167427D01*
X213227Y170788D01*
X215800Y173361D01*
X219161Y174753D01*
X238039Y174753D01*
X241400Y173361D01*
X243973Y170788D01*
X245365Y167427D01*
X245365Y163789D01*
X243973Y160428D01*
X241400Y157855D01*
X238039Y156463D01*
X219161Y156463D01*
G37*
%LPD*%
%LPC*%
G36*
X-238039Y156463D02*
X-238039Y156463D01*
X-241400Y157855D01*
X-243973Y160428D01*
X-245365Y163789D01*
X-245365Y167427D01*
X-243973Y170788D01*
X-241400Y173361D01*
X-238039Y174753D01*
X-219161Y174753D01*
X-215800Y173361D01*
X-213227Y170788D01*
X-211835Y167427D01*
X-211835Y163789D01*
X-213227Y160428D01*
X-215800Y157855D01*
X-219161Y156463D01*
X-238039Y156463D01*
G37*
%LPD*%
%LPC*%
G36*
X219161Y131063D02*
X219161Y131063D01*
X215800Y132455D01*
X213227Y135028D01*
X211835Y138389D01*
X211835Y142027D01*
X213227Y145388D01*
X215800Y147961D01*
X219161Y149353D01*
X238039Y149353D01*
X241400Y147961D01*
X243973Y145388D01*
X245365Y142027D01*
X245365Y138389D01*
X243973Y135028D01*
X241400Y132455D01*
X238039Y131063D01*
X219161Y131063D01*
G37*
%LPD*%
%LPC*%
G36*
X-238039Y131063D02*
X-238039Y131063D01*
X-241400Y132455D01*
X-243973Y135028D01*
X-245365Y138389D01*
X-245365Y142027D01*
X-243973Y145388D01*
X-241400Y147961D01*
X-238039Y149353D01*
X-219161Y149353D01*
X-215800Y147961D01*
X-213227Y145388D01*
X-211835Y142027D01*
X-211835Y138389D01*
X-213227Y135028D01*
X-215800Y132455D01*
X-219161Y131063D01*
X-238039Y131063D01*
G37*
%LPD*%
%LPC*%
G36*
X-158032Y403575D02*
X-158032Y403575D01*
X-158412Y403955D01*
X-158428Y403967D01*
X-158440Y403983D01*
X-158528Y404039D01*
X-158611Y404099D01*
X-158630Y404105D01*
X-158647Y404116D01*
X-158748Y404141D01*
X-158847Y404171D01*
X-158867Y404171D01*
X-158886Y404176D01*
X-158989Y404168D01*
X-159092Y404165D01*
X-159111Y404158D01*
X-159131Y404157D01*
X-159226Y404116D01*
X-159323Y404081D01*
X-159339Y404068D01*
X-159357Y404060D01*
X-159426Y404005D01*
X-172702Y404005D01*
X-173595Y404898D01*
X-173595Y411662D01*
X-172702Y412555D01*
X-159686Y412555D01*
X-159666Y412558D01*
X-159647Y412556D01*
X-159545Y412578D01*
X-159443Y412594D01*
X-159426Y412604D01*
X-159406Y412608D01*
X-159317Y412661D01*
X-159226Y412710D01*
X-159212Y412724D01*
X-159195Y412734D01*
X-159128Y412813D01*
X-159056Y412888D01*
X-159048Y412906D01*
X-159035Y412921D01*
X-158996Y413017D01*
X-158953Y413111D01*
X-158951Y413131D01*
X-158943Y413149D01*
X-158925Y413316D01*
X-158925Y416732D01*
X-158032Y417625D01*
X-146768Y417625D01*
X-145875Y416732D01*
X-145875Y404468D01*
X-146768Y403575D01*
X-158032Y403575D01*
G37*
%LPD*%
D10*
X91186Y388366D03*
X183134Y229108D03*
X97028Y74422D03*
X-97790Y73914D03*
X-184658Y229108D03*
X-92710Y388366D03*
X137160Y308610D03*
X137160Y149606D03*
X-138684Y149352D03*
X-138684Y308610D03*
X-762Y388366D03*
D11*
X220980Y114808D02*
X236220Y114808D01*
X236220Y140208D02*
X220980Y140208D01*
X220980Y165608D02*
X236220Y165608D01*
X236220Y191008D02*
X220980Y191008D01*
X220980Y216408D02*
X236220Y216408D01*
X236220Y241808D02*
X220980Y241808D01*
X220980Y267208D02*
X236220Y267208D01*
X236220Y292608D02*
X220980Y292608D01*
X220980Y318008D02*
X236220Y318008D01*
X236220Y343408D02*
X220980Y343408D01*
X-220980Y114808D02*
X-236220Y114808D01*
X-236220Y140208D02*
X-220980Y140208D01*
X-220980Y165608D02*
X-236220Y165608D01*
X-236220Y191008D02*
X-220980Y191008D01*
X-220980Y216408D02*
X-236220Y216408D01*
X-236220Y241808D02*
X-220980Y241808D01*
X-220980Y267208D02*
X-236220Y267208D01*
X-236220Y292608D02*
X-220980Y292608D01*
X-220980Y318008D02*
X-236220Y318008D01*
X-236220Y343408D02*
X-220980Y343408D01*
D12*
X-192070Y389280D03*
X-192070Y398780D03*
X-192070Y408280D03*
X-166070Y408280D03*
X-166070Y389280D03*
D13*
X-152400Y410600D03*
X-152400Y427600D03*
D14*
X-154910Y368300D03*
X-182910Y368300D03*
D15*
X-217170Y382210D03*
X-217170Y410210D03*
D16*
X-160410Y349250D03*
X-177410Y349250D03*
D17*
X-184658Y229108D02*
X-211582Y202184D01*
X-240849Y202184D01*
X-247650Y195383D01*
X-247650Y113030D01*
X-230378Y113030D01*
X-228600Y114808D01*
X-228600Y343408D02*
X-200660Y343408D01*
X-183252Y343408D01*
X-178240Y348420D01*
X-177410Y349250D01*
X-200660Y343408D02*
X-200660Y313690D01*
X-209550Y304800D02*
X-245110Y304800D01*
X-247650Y302260D01*
X-247650Y280670D01*
X-247650Y195383D01*
X-209550Y304800D02*
X-200660Y313690D01*
X-205740Y398780D02*
X-192070Y398780D01*
X-205740Y398780D02*
X-217170Y410210D01*
X-182910Y368300D02*
X-182910Y353090D01*
X-178240Y348420D01*
X-200406Y280670D02*
X-247650Y280670D01*
X99568Y76962D02*
X189484Y76962D01*
X99568Y76962D02*
X97028Y74422D01*
X227330Y114808D02*
X228600Y114808D01*
X227330Y114808D02*
X189484Y76962D01*
X183642Y388366D02*
X91186Y388366D01*
X183642Y388366D02*
X228600Y343408D01*
X183134Y230124D02*
X183134Y229108D01*
X183134Y230124D02*
X209550Y256540D01*
X215843Y256540D01*
X216351Y256032D01*
X247643Y256032D01*
X247448Y130608D01*
X237490Y120650D01*
X243332Y343408D02*
X228600Y343408D01*
X247643Y339097D02*
X247643Y256032D01*
X247643Y339097D02*
X243332Y343408D01*
X234442Y120650D02*
X228600Y114808D01*
X234442Y120650D02*
X237490Y120650D01*
X91186Y388366D02*
X51952Y427600D01*
X-152400Y427600D01*
X-199780Y427600D02*
X-217170Y410210D01*
X-199780Y427600D02*
X-152400Y427600D01*
X-217170Y410210D02*
X-237490Y410210D01*
X-247650Y400050D02*
X-247650Y343408D01*
X-247650Y302260D01*
X-247650Y400050D02*
X-237490Y410210D01*
X-228600Y343408D02*
X-247650Y343408D01*
X-166070Y389280D02*
X-154910Y378120D01*
X-154910Y368300D01*
X-160410Y362800D02*
X-160410Y349250D01*
X-160410Y362800D02*
X-154910Y368300D01*
D18*
X-166370Y368300D03*
D17*
X-154910Y368300D01*
X-192070Y389280D02*
X-199140Y382210D01*
X-217170Y382210D01*
X-192070Y408280D02*
X-182220Y408280D01*
X-180340Y406400D01*
X-180340Y393700D01*
X-185420Y388620D01*
X-191410Y388620D01*
X-192070Y389280D01*
D18*
X-217170Y382210D03*
D19*
X153162Y292608D02*
X228600Y292608D01*
X153162Y292608D02*
X137160Y308610D01*
X220980Y241808D02*
X228600Y241808D01*
X220980Y241808D02*
X137160Y157988D01*
X137160Y149606D01*
X-138684Y149352D02*
X-180340Y191008D01*
X-228600Y191008D01*
X-138684Y305054D02*
X-138684Y308610D01*
X-201930Y241808D02*
X-228600Y241808D01*
X-201930Y241808D02*
X-138684Y305054D01*
X-202692Y292608D02*
X-228600Y292608D01*
X-202692Y292608D02*
X-130810Y364490D01*
X-130810Y382270D01*
X-101600Y411480D01*
X-23876Y411480D01*
X-762Y388366D01*
D17*
X-154720Y408280D02*
X-166070Y408280D01*
X-154720Y408280D02*
X-152400Y410600D01*
M02*
