G04 EAGLE Gerber RS-274X export*
G75*
%MOMM*%
%FSLAX34Y34*%
%LPD*%
%INSilkscreen Top*%
%IPPOS*%
%AMOC8*
5,1,8,0,0,1.08239X$1,22.5*%
G01*
%ADD10C,0.101600*%
%ADD11C,0.152400*%
%ADD12R,0.302256X0.017781*%
%ADD13R,1.529081X0.017781*%
%ADD14R,0.017775X0.017781*%
%ADD15R,0.017781X0.017781*%
%ADD16R,0.355600X0.017781*%
%ADD17R,1.582419X0.017781*%
%ADD18R,0.017775X0.017775*%
%ADD19R,0.017781X0.017775*%
%ADD20R,0.391156X0.017775*%
%ADD21R,1.635756X0.017775*%
%ADD22R,0.426719X0.017781*%
%ADD23R,1.653538X0.017781*%
%ADD24R,0.444500X0.017775*%
%ADD25R,1.689100X0.017775*%
%ADD26R,0.462275X0.017781*%
%ADD27R,1.706875X0.017781*%
%ADD28R,0.480056X0.017781*%
%ADD29R,1.724656X0.017781*%
%ADD30R,0.497838X0.017775*%
%ADD31R,1.724656X0.017775*%
%ADD32R,0.497838X0.017781*%
%ADD33R,1.742438X0.017781*%
%ADD34R,0.515619X0.017775*%
%ADD35R,1.760219X0.017775*%
%ADD36R,0.533400X0.017781*%
%ADD37R,1.760219X0.017781*%
%ADD38R,1.778000X0.017781*%
%ADD39R,0.551175X0.017775*%
%ADD40R,1.778000X0.017775*%
%ADD41R,0.551175X0.017781*%
%ADD42R,1.795775X0.017781*%
%ADD43R,0.568956X0.017775*%
%ADD44R,1.813556X0.017775*%
%ADD45R,0.586738X0.017781*%
%ADD46R,1.813556X0.017781*%
%ADD47R,1.831338X0.017781*%
%ADD48R,0.604519X0.017775*%
%ADD49R,1.831338X0.017775*%
%ADD50R,0.604519X0.017781*%
%ADD51R,1.849119X0.017781*%
%ADD52R,0.622300X0.017775*%
%ADD53R,1.849119X0.017775*%
%ADD54R,0.622300X0.017781*%
%ADD55R,1.866900X0.017781*%
%ADD56R,0.640075X0.017781*%
%ADD57R,1.884675X0.017781*%
%ADD58R,0.657856X0.017775*%
%ADD59R,1.884675X0.017775*%
%ADD60R,0.657856X0.017781*%
%ADD61R,1.902456X0.017781*%
%ADD62R,0.675638X0.017775*%
%ADD63R,1.902456X0.017775*%
%ADD64R,0.675638X0.017781*%
%ADD65R,1.920238X0.017781*%
%ADD66R,0.693419X0.017781*%
%ADD67R,1.938019X0.017781*%
%ADD68R,0.693419X0.017775*%
%ADD69R,1.938019X0.017775*%
%ADD70R,0.711200X0.017781*%
%ADD71R,1.955800X0.017781*%
%ADD72R,0.728975X0.017775*%
%ADD73R,1.955800X0.017775*%
%ADD74R,0.728975X0.017781*%
%ADD75R,1.973575X0.017781*%
%ADD76R,0.746756X0.017781*%
%ADD77R,0.746756X0.017775*%
%ADD78R,1.991356X0.017775*%
%ADD79R,0.764538X0.017781*%
%ADD80R,2.009138X0.017781*%
%ADD81R,0.764538X0.017775*%
%ADD82R,2.009138X0.017775*%
%ADD83R,0.782319X0.017781*%
%ADD84R,2.026919X0.017781*%
%ADD85R,0.800100X0.017781*%
%ADD86R,0.800100X0.017775*%
%ADD87R,2.044700X0.017775*%
%ADD88R,0.817875X0.017781*%
%ADD89R,0.817875X0.017775*%
%ADD90R,0.835656X0.017781*%
%ADD91R,2.044700X0.017781*%
%ADD92R,0.853438X0.017781*%
%ADD93R,2.062481X0.017781*%
%ADD94R,0.853438X0.017775*%
%ADD95R,2.080256X0.017775*%
%ADD96R,0.871219X0.017781*%
%ADD97R,2.080256X0.017781*%
%ADD98R,0.871219X0.017775*%
%ADD99R,2.098038X0.017775*%
%ADD100R,0.035556X0.017781*%
%ADD101R,0.889000X0.017781*%
%ADD102R,0.942338X0.017781*%
%ADD103R,1.013456X0.017781*%
%ADD104R,0.906781X0.017781*%
%ADD105R,0.995681X0.017781*%
%ADD106R,0.906775X0.017775*%
%ADD107R,0.889000X0.017775*%
%ADD108R,0.977900X0.017775*%
%ADD109R,0.924556X0.017781*%
%ADD110R,0.960119X0.017781*%
%ADD111R,0.924556X0.017775*%
%ADD112R,0.977900X0.017781*%
%ADD113R,0.960119X0.017775*%
%ADD114R,0.835656X0.017775*%
%ADD115R,0.817881X0.017781*%
%ADD116R,0.817881X0.017775*%
%ADD117R,0.995675X0.017781*%
%ADD118R,1.013456X0.017775*%
%ADD119R,1.031238X0.017781*%
%ADD120R,1.031238X0.017775*%
%ADD121R,1.049019X0.017781*%
%ADD122R,1.066800X0.017775*%
%ADD123R,1.066800X0.017781*%
%ADD124R,1.084575X0.017775*%
%ADD125R,1.084575X0.017781*%
%ADD126R,1.102356X0.017781*%
%ADD127R,1.102356X0.017775*%
%ADD128R,1.120138X0.017781*%
%ADD129R,1.137919X0.017775*%
%ADD130R,1.120138X0.017775*%
%ADD131R,1.137919X0.017781*%
%ADD132R,1.155700X0.017781*%
%ADD133R,1.155700X0.017775*%
%ADD134R,1.173475X0.017781*%
%ADD135R,1.173475X0.017775*%
%ADD136R,1.191256X0.017781*%
%ADD137R,1.209037X0.017781*%
%ADD138R,1.209037X0.017775*%
%ADD139R,1.226819X0.017781*%
%ADD140R,1.226819X0.017775*%
%ADD141R,1.244600X0.017781*%
%ADD142R,1.262375X0.017775*%
%ADD143R,1.244600X0.017775*%
%ADD144R,1.280156X0.017781*%
%ADD145R,1.262375X0.017781*%
%ADD146R,1.280156X0.017775*%
%ADD147R,1.297937X0.017781*%
%ADD148R,1.315719X0.017775*%
%ADD149R,1.297937X0.017775*%
%ADD150R,1.333500X0.017781*%
%ADD151R,1.315719X0.017781*%
%ADD152R,1.333500X0.017775*%
%ADD153R,1.351275X0.017781*%
%ADD154R,1.369056X0.017775*%
%ADD155R,1.351275X0.017775*%
%ADD156R,1.369056X0.017781*%
%ADD157R,1.386838X0.017775*%
%ADD158R,1.404619X0.017781*%
%ADD159R,1.386838X0.017781*%
%ADD160R,1.422400X0.017775*%
%ADD161R,1.404619X0.017775*%
%ADD162R,1.422400X0.017781*%
%ADD163R,1.440175X0.017775*%
%ADD164R,1.440175X0.017781*%
%ADD165R,1.457956X0.017781*%
%ADD166R,1.475738X0.017775*%
%ADD167R,1.457956X0.017775*%
%ADD168R,1.475738X0.017781*%
%ADD169R,1.493519X0.017775*%
%ADD170R,1.493519X0.017781*%
%ADD171R,1.511300X0.017781*%
%ADD172R,1.511300X0.017775*%
%ADD173R,1.529075X0.017781*%
%ADD174R,1.546856X0.017775*%
%ADD175R,0.782319X0.017775*%
%ADD176R,1.529075X0.017775*%
%ADD177R,1.546856X0.017781*%
%ADD178R,1.564638X0.017781*%
%ADD179R,1.564638X0.017775*%
%ADD180R,1.582419X0.017775*%
%ADD181R,1.600200X0.017781*%
%ADD182R,1.600200X0.017775*%
%ADD183R,1.617975X0.017781*%
%ADD184R,1.617975X0.017775*%
%ADD185R,1.049019X0.017775*%
%ADD186R,0.995675X0.017775*%
%ADD187R,0.942338X0.017775*%
%ADD188R,0.906775X0.017781*%
%ADD189R,0.053338X0.017775*%
%ADD190R,2.098038X0.017781*%
%ADD191R,2.026919X0.017775*%
%ADD192R,1.991356X0.017781*%
%ADD193R,1.973581X0.017775*%
%ADD194R,1.973581X0.017781*%
%ADD195R,0.711200X0.017775*%
%ADD196R,1.920238X0.017775*%
%ADD197R,1.884681X0.017781*%
%ADD198R,1.866900X0.017775*%
%ADD199R,0.640075X0.017775*%
%ADD200R,0.586738X0.017775*%
%ADD201R,1.795781X0.017781*%
%ADD202R,0.568956X0.017781*%
%ADD203R,1.795781X0.017775*%
%ADD204R,0.533400X0.017775*%
%ADD205R,0.035563X0.017781*%
%ADD206R,0.071119X0.017781*%
%ADD207R,1.671319X0.017781*%
%ADD208R,0.515619X0.017781*%
%ADD209R,0.124456X0.017775*%
%ADD210R,1.617981X0.017775*%
%ADD211R,0.142238X0.017781*%
%ADD212R,0.177800X0.017775*%
%ADD213R,1.529081X0.017775*%
%ADD214R,0.480056X0.017775*%
%ADD215R,0.213356X0.017781*%
%ADD216R,0.444500X0.017781*%
%ADD217R,0.248919X0.017781*%
%ADD218R,0.088900X0.017781*%
%ADD219R,1.440181X0.017781*%
%ADD220R,0.373375X0.017781*%
%ADD221R,0.284481X0.017775*%
%ADD222R,0.320038X0.017775*%
%ADD223R,0.177800X0.017781*%
%ADD224R,1.351281X0.017781*%
%ADD225R,0.231138X0.017781*%
%ADD226R,0.213356X0.017775*%
%ADD227R,0.320038X0.017781*%
%ADD228R,0.266700X0.017781*%
%ADD229R,1.262381X0.017781*%
%ADD230R,0.284481X0.017781*%
%ADD231R,0.053338X0.017781*%


D10*
X91598Y413952D02*
X94256Y412090D01*
X94350Y412027D01*
X94446Y411967D01*
X94544Y411910D01*
X94644Y411857D01*
X94746Y411807D01*
X94850Y411761D01*
X94955Y411719D01*
X95061Y411680D01*
X95169Y411645D01*
X95278Y411614D01*
X95388Y411586D01*
X95499Y411563D01*
X95610Y411543D01*
X95722Y411527D01*
X95835Y411515D01*
X95948Y411507D01*
X96061Y411503D01*
X96175Y411503D01*
X96288Y411507D01*
X96401Y411515D01*
X96514Y411527D01*
X96626Y411543D01*
X96737Y411563D01*
X96848Y411586D01*
X96958Y411614D01*
X97067Y411645D01*
X97175Y411680D01*
X97281Y411719D01*
X97386Y411761D01*
X97490Y411807D01*
X97592Y411857D01*
X97692Y411910D01*
X97790Y411967D01*
X97886Y412027D01*
X97980Y412090D01*
X98071Y412157D01*
X98161Y412226D01*
X98248Y412299D01*
X98332Y412375D01*
X98413Y412454D01*
X98492Y412535D01*
X98568Y412619D01*
X98641Y412706D01*
X98710Y412796D01*
X98777Y412887D01*
X98840Y412981D01*
X98900Y413077D01*
X98957Y413175D01*
X99010Y413275D01*
X99060Y413377D01*
X99106Y413481D01*
X99148Y413586D01*
X99187Y413692D01*
X99222Y413800D01*
X99253Y413909D01*
X99281Y414019D01*
X99304Y414130D01*
X99324Y414241D01*
X99340Y414353D01*
X99352Y414466D01*
X99360Y414579D01*
X99364Y414692D01*
X99364Y414806D01*
X99360Y414919D01*
X99352Y415032D01*
X99340Y415145D01*
X99324Y415257D01*
X99304Y415368D01*
X99281Y415479D01*
X99253Y415589D01*
X99222Y415698D01*
X99187Y415806D01*
X99148Y415912D01*
X99106Y416017D01*
X99060Y416121D01*
X99010Y416223D01*
X98957Y416323D01*
X98900Y416421D01*
X98840Y416517D01*
X98777Y416611D01*
X98710Y416702D01*
X98641Y416792D01*
X98568Y416879D01*
X98492Y416963D01*
X98413Y417044D01*
X98332Y417123D01*
X98248Y417199D01*
X98161Y417272D01*
X98072Y417341D01*
X97980Y417408D01*
X101490Y421289D02*
X98299Y423523D01*
X101489Y421289D02*
X101570Y421229D01*
X101649Y421167D01*
X101726Y421101D01*
X101800Y421033D01*
X101871Y420962D01*
X101939Y420888D01*
X102005Y420811D01*
X102067Y420732D01*
X102127Y420651D01*
X102183Y420567D01*
X102236Y420482D01*
X102285Y420394D01*
X102331Y420305D01*
X102374Y420213D01*
X102413Y420120D01*
X102448Y420026D01*
X102480Y419931D01*
X102508Y419834D01*
X102532Y419736D01*
X102552Y419638D01*
X102569Y419538D01*
X102581Y419438D01*
X102590Y419338D01*
X102595Y419238D01*
X102596Y419137D01*
X102593Y419036D01*
X102586Y418936D01*
X102575Y418836D01*
X102561Y418736D01*
X102542Y418637D01*
X102520Y418539D01*
X102494Y418442D01*
X102464Y418345D01*
X102431Y418251D01*
X102394Y418157D01*
X102353Y418065D01*
X102308Y417974D01*
X102261Y417886D01*
X102209Y417799D01*
X102155Y417715D01*
X102097Y417632D01*
X102036Y417552D01*
X101972Y417474D01*
X101905Y417399D01*
X101836Y417326D01*
X101763Y417257D01*
X101688Y417190D01*
X101610Y417126D01*
X101530Y417065D01*
X101447Y417007D01*
X101363Y416953D01*
X101276Y416901D01*
X101188Y416854D01*
X101097Y416809D01*
X101005Y416768D01*
X100911Y416731D01*
X100817Y416698D01*
X100720Y416668D01*
X100623Y416642D01*
X100525Y416620D01*
X100426Y416601D01*
X100326Y416587D01*
X100226Y416576D01*
X100126Y416569D01*
X100025Y416566D01*
X99924Y416567D01*
X99824Y416572D01*
X99724Y416581D01*
X99624Y416593D01*
X99524Y416610D01*
X99426Y416630D01*
X99328Y416654D01*
X99231Y416682D01*
X99136Y416714D01*
X99042Y416749D01*
X98949Y416788D01*
X98857Y416831D01*
X98768Y416877D01*
X98680Y416926D01*
X98595Y416979D01*
X98511Y417035D01*
X96384Y418525D01*
X107130Y417339D02*
X103619Y405534D01*
X113511Y412872D01*
X110323Y400840D02*
X112982Y398978D01*
X113076Y398915D01*
X113172Y398855D01*
X113270Y398798D01*
X113370Y398745D01*
X113472Y398695D01*
X113576Y398649D01*
X113681Y398607D01*
X113787Y398568D01*
X113895Y398533D01*
X114004Y398502D01*
X114114Y398474D01*
X114225Y398451D01*
X114336Y398431D01*
X114448Y398415D01*
X114561Y398403D01*
X114674Y398395D01*
X114787Y398391D01*
X114901Y398391D01*
X115014Y398395D01*
X115127Y398403D01*
X115240Y398415D01*
X115352Y398431D01*
X115463Y398451D01*
X115574Y398474D01*
X115684Y398502D01*
X115793Y398533D01*
X115901Y398568D01*
X116007Y398607D01*
X116112Y398649D01*
X116216Y398695D01*
X116318Y398745D01*
X116418Y398798D01*
X116516Y398855D01*
X116612Y398915D01*
X116706Y398978D01*
X116797Y399045D01*
X116887Y399114D01*
X116974Y399187D01*
X117058Y399263D01*
X117139Y399342D01*
X117218Y399423D01*
X117294Y399507D01*
X117367Y399594D01*
X117436Y399684D01*
X117503Y399775D01*
X117566Y399869D01*
X117626Y399965D01*
X117683Y400063D01*
X117736Y400163D01*
X117786Y400265D01*
X117832Y400369D01*
X117874Y400474D01*
X117913Y400580D01*
X117948Y400688D01*
X117979Y400797D01*
X118007Y400907D01*
X118030Y401018D01*
X118050Y401129D01*
X118066Y401241D01*
X118078Y401354D01*
X118086Y401467D01*
X118090Y401580D01*
X118090Y401694D01*
X118086Y401807D01*
X118078Y401920D01*
X118066Y402033D01*
X118050Y402145D01*
X118030Y402256D01*
X118007Y402367D01*
X117979Y402477D01*
X117948Y402586D01*
X117913Y402694D01*
X117874Y402800D01*
X117832Y402905D01*
X117786Y403009D01*
X117736Y403111D01*
X117683Y403211D01*
X117626Y403309D01*
X117566Y403405D01*
X117503Y403499D01*
X117436Y403590D01*
X117367Y403680D01*
X117294Y403767D01*
X117218Y403851D01*
X117139Y403932D01*
X117058Y404011D01*
X116974Y404087D01*
X116887Y404160D01*
X116798Y404229D01*
X116706Y404296D01*
X120215Y408177D02*
X117025Y410411D01*
X120215Y408177D02*
X120296Y408117D01*
X120375Y408055D01*
X120452Y407989D01*
X120526Y407921D01*
X120597Y407850D01*
X120665Y407776D01*
X120731Y407699D01*
X120793Y407620D01*
X120853Y407539D01*
X120909Y407455D01*
X120962Y407370D01*
X121011Y407282D01*
X121057Y407193D01*
X121100Y407101D01*
X121139Y407008D01*
X121174Y406914D01*
X121206Y406819D01*
X121234Y406722D01*
X121258Y406624D01*
X121278Y406526D01*
X121295Y406426D01*
X121307Y406326D01*
X121316Y406226D01*
X121321Y406126D01*
X121322Y406025D01*
X121319Y405924D01*
X121312Y405824D01*
X121301Y405724D01*
X121287Y405624D01*
X121268Y405525D01*
X121246Y405427D01*
X121220Y405330D01*
X121190Y405233D01*
X121157Y405139D01*
X121120Y405045D01*
X121079Y404953D01*
X121034Y404862D01*
X120987Y404774D01*
X120935Y404687D01*
X120881Y404603D01*
X120823Y404520D01*
X120762Y404440D01*
X120698Y404362D01*
X120631Y404287D01*
X120562Y404214D01*
X120489Y404145D01*
X120414Y404078D01*
X120336Y404014D01*
X120256Y403953D01*
X120173Y403895D01*
X120089Y403841D01*
X120002Y403789D01*
X119914Y403742D01*
X119823Y403697D01*
X119731Y403656D01*
X119637Y403619D01*
X119543Y403586D01*
X119446Y403556D01*
X119349Y403530D01*
X119251Y403508D01*
X119152Y403489D01*
X119052Y403475D01*
X118952Y403464D01*
X118852Y403457D01*
X118751Y403454D01*
X118650Y403455D01*
X118550Y403460D01*
X118450Y403469D01*
X118350Y403481D01*
X118250Y403498D01*
X118152Y403518D01*
X118054Y403542D01*
X117957Y403570D01*
X117862Y403602D01*
X117768Y403637D01*
X117675Y403676D01*
X117583Y403719D01*
X117494Y403765D01*
X117406Y403814D01*
X117321Y403867D01*
X117237Y403923D01*
X115110Y405413D01*
X211092Y218530D02*
X211092Y215284D01*
X211092Y218530D02*
X211090Y218643D01*
X211084Y218756D01*
X211074Y218869D01*
X211060Y218982D01*
X211043Y219094D01*
X211021Y219205D01*
X210996Y219315D01*
X210966Y219425D01*
X210933Y219533D01*
X210896Y219640D01*
X210856Y219746D01*
X210811Y219850D01*
X210763Y219953D01*
X210712Y220054D01*
X210657Y220153D01*
X210599Y220250D01*
X210537Y220345D01*
X210472Y220438D01*
X210404Y220528D01*
X210333Y220616D01*
X210258Y220702D01*
X210181Y220785D01*
X210101Y220865D01*
X210018Y220942D01*
X209932Y221017D01*
X209844Y221088D01*
X209754Y221156D01*
X209661Y221221D01*
X209566Y221283D01*
X209469Y221341D01*
X209370Y221396D01*
X209269Y221447D01*
X209166Y221495D01*
X209062Y221540D01*
X208956Y221580D01*
X208849Y221617D01*
X208741Y221650D01*
X208631Y221680D01*
X208521Y221705D01*
X208410Y221727D01*
X208298Y221744D01*
X208185Y221758D01*
X208072Y221768D01*
X207959Y221774D01*
X207846Y221776D01*
X207733Y221774D01*
X207620Y221768D01*
X207507Y221758D01*
X207394Y221744D01*
X207282Y221727D01*
X207171Y221705D01*
X207061Y221680D01*
X206951Y221650D01*
X206843Y221617D01*
X206736Y221580D01*
X206630Y221540D01*
X206526Y221495D01*
X206423Y221447D01*
X206322Y221396D01*
X206223Y221341D01*
X206126Y221283D01*
X206031Y221221D01*
X205938Y221156D01*
X205848Y221088D01*
X205760Y221017D01*
X205674Y220942D01*
X205591Y220865D01*
X205511Y220785D01*
X205434Y220702D01*
X205359Y220616D01*
X205288Y220528D01*
X205220Y220438D01*
X205155Y220345D01*
X205093Y220250D01*
X205035Y220153D01*
X204980Y220054D01*
X204929Y219953D01*
X204881Y219850D01*
X204836Y219746D01*
X204796Y219640D01*
X204759Y219533D01*
X204726Y219425D01*
X204696Y219315D01*
X204671Y219205D01*
X204649Y219094D01*
X204632Y218982D01*
X204618Y218869D01*
X204608Y218756D01*
X204602Y218643D01*
X204600Y218530D01*
X199408Y219179D02*
X199408Y215284D01*
X199408Y219179D02*
X199410Y219280D01*
X199416Y219380D01*
X199426Y219480D01*
X199439Y219580D01*
X199457Y219679D01*
X199478Y219778D01*
X199503Y219875D01*
X199532Y219972D01*
X199565Y220067D01*
X199601Y220161D01*
X199641Y220253D01*
X199684Y220344D01*
X199731Y220433D01*
X199781Y220520D01*
X199835Y220606D01*
X199892Y220689D01*
X199952Y220769D01*
X200015Y220848D01*
X200082Y220924D01*
X200151Y220997D01*
X200223Y221067D01*
X200297Y221135D01*
X200374Y221200D01*
X200454Y221261D01*
X200536Y221320D01*
X200620Y221375D01*
X200706Y221427D01*
X200794Y221476D01*
X200884Y221521D01*
X200976Y221563D01*
X201069Y221601D01*
X201164Y221635D01*
X201259Y221666D01*
X201356Y221693D01*
X201454Y221716D01*
X201553Y221736D01*
X201653Y221751D01*
X201753Y221763D01*
X201853Y221771D01*
X201954Y221775D01*
X202054Y221775D01*
X202155Y221771D01*
X202255Y221763D01*
X202355Y221751D01*
X202455Y221736D01*
X202554Y221716D01*
X202652Y221693D01*
X202749Y221666D01*
X202844Y221635D01*
X202939Y221601D01*
X203032Y221563D01*
X203124Y221521D01*
X203214Y221476D01*
X203302Y221427D01*
X203388Y221375D01*
X203472Y221320D01*
X203554Y221261D01*
X203634Y221200D01*
X203711Y221135D01*
X203785Y221067D01*
X203857Y220997D01*
X203926Y220924D01*
X203993Y220848D01*
X204056Y220769D01*
X204116Y220689D01*
X204173Y220606D01*
X204227Y220520D01*
X204277Y220433D01*
X204324Y220344D01*
X204367Y220253D01*
X204407Y220161D01*
X204443Y220067D01*
X204476Y219972D01*
X204505Y219875D01*
X204530Y219778D01*
X204551Y219679D01*
X204569Y219580D01*
X204582Y219480D01*
X204592Y219380D01*
X204598Y219280D01*
X204600Y219179D01*
X204601Y219179D02*
X204601Y216583D01*
X199408Y226065D02*
X211092Y229960D01*
X199408Y233855D01*
X211092Y238144D02*
X211092Y241390D01*
X211090Y241503D01*
X211084Y241616D01*
X211074Y241729D01*
X211060Y241842D01*
X211043Y241954D01*
X211021Y242065D01*
X210996Y242175D01*
X210966Y242285D01*
X210933Y242393D01*
X210896Y242500D01*
X210856Y242606D01*
X210811Y242710D01*
X210763Y242813D01*
X210712Y242914D01*
X210657Y243013D01*
X210599Y243110D01*
X210537Y243205D01*
X210472Y243298D01*
X210404Y243388D01*
X210333Y243476D01*
X210258Y243562D01*
X210181Y243645D01*
X210101Y243725D01*
X210018Y243802D01*
X209932Y243877D01*
X209844Y243948D01*
X209754Y244016D01*
X209661Y244081D01*
X209566Y244143D01*
X209469Y244201D01*
X209370Y244256D01*
X209269Y244307D01*
X209166Y244355D01*
X209062Y244400D01*
X208956Y244440D01*
X208849Y244477D01*
X208741Y244510D01*
X208631Y244540D01*
X208521Y244565D01*
X208410Y244587D01*
X208298Y244604D01*
X208185Y244618D01*
X208072Y244628D01*
X207959Y244634D01*
X207846Y244636D01*
X207733Y244634D01*
X207620Y244628D01*
X207507Y244618D01*
X207394Y244604D01*
X207282Y244587D01*
X207171Y244565D01*
X207061Y244540D01*
X206951Y244510D01*
X206843Y244477D01*
X206736Y244440D01*
X206630Y244400D01*
X206526Y244355D01*
X206423Y244307D01*
X206322Y244256D01*
X206223Y244201D01*
X206126Y244143D01*
X206031Y244081D01*
X205938Y244016D01*
X205848Y243948D01*
X205760Y243877D01*
X205674Y243802D01*
X205591Y243725D01*
X205511Y243645D01*
X205434Y243562D01*
X205359Y243476D01*
X205288Y243388D01*
X205220Y243298D01*
X205155Y243205D01*
X205093Y243110D01*
X205035Y243013D01*
X204980Y242914D01*
X204929Y242813D01*
X204881Y242710D01*
X204836Y242606D01*
X204796Y242500D01*
X204759Y242393D01*
X204726Y242285D01*
X204696Y242175D01*
X204671Y242065D01*
X204649Y241954D01*
X204632Y241842D01*
X204618Y241729D01*
X204608Y241616D01*
X204602Y241503D01*
X204600Y241390D01*
X199408Y242039D02*
X199408Y238144D01*
X199408Y242039D02*
X199410Y242140D01*
X199416Y242240D01*
X199426Y242340D01*
X199439Y242440D01*
X199457Y242539D01*
X199478Y242638D01*
X199503Y242735D01*
X199532Y242832D01*
X199565Y242927D01*
X199601Y243021D01*
X199641Y243113D01*
X199684Y243204D01*
X199731Y243293D01*
X199781Y243380D01*
X199835Y243466D01*
X199892Y243549D01*
X199952Y243629D01*
X200015Y243708D01*
X200082Y243784D01*
X200151Y243857D01*
X200223Y243927D01*
X200297Y243995D01*
X200374Y244060D01*
X200454Y244121D01*
X200536Y244180D01*
X200620Y244235D01*
X200706Y244287D01*
X200794Y244336D01*
X200884Y244381D01*
X200976Y244423D01*
X201069Y244461D01*
X201164Y244495D01*
X201259Y244526D01*
X201356Y244553D01*
X201454Y244576D01*
X201553Y244596D01*
X201653Y244611D01*
X201753Y244623D01*
X201853Y244631D01*
X201954Y244635D01*
X202054Y244635D01*
X202155Y244631D01*
X202255Y244623D01*
X202355Y244611D01*
X202455Y244596D01*
X202554Y244576D01*
X202652Y244553D01*
X202749Y244526D01*
X202844Y244495D01*
X202939Y244461D01*
X203032Y244423D01*
X203124Y244381D01*
X203214Y244336D01*
X203302Y244287D01*
X203388Y244235D01*
X203472Y244180D01*
X203554Y244121D01*
X203634Y244060D01*
X203711Y243995D01*
X203785Y243927D01*
X203857Y243857D01*
X203926Y243784D01*
X203993Y243708D01*
X204056Y243629D01*
X204116Y243549D01*
X204173Y243466D01*
X204227Y243380D01*
X204277Y243293D01*
X204324Y243204D01*
X204367Y243113D01*
X204407Y243021D01*
X204443Y242927D01*
X204476Y242832D01*
X204505Y242735D01*
X204530Y242638D01*
X204551Y242539D01*
X204569Y242440D01*
X204582Y242340D01*
X204592Y242240D01*
X204598Y242140D01*
X204600Y242039D01*
X204601Y242039D02*
X204601Y239443D01*
X102228Y35349D02*
X99569Y33487D01*
X102228Y35348D02*
X102319Y35415D01*
X102409Y35484D01*
X102496Y35557D01*
X102580Y35633D01*
X102661Y35712D01*
X102740Y35793D01*
X102816Y35877D01*
X102889Y35964D01*
X102958Y36054D01*
X103025Y36145D01*
X103088Y36239D01*
X103148Y36335D01*
X103205Y36433D01*
X103258Y36533D01*
X103308Y36635D01*
X103354Y36739D01*
X103396Y36844D01*
X103435Y36950D01*
X103470Y37058D01*
X103501Y37167D01*
X103529Y37277D01*
X103552Y37388D01*
X103572Y37499D01*
X103588Y37611D01*
X103600Y37724D01*
X103608Y37837D01*
X103612Y37950D01*
X103612Y38064D01*
X103608Y38177D01*
X103600Y38290D01*
X103588Y38403D01*
X103572Y38515D01*
X103552Y38626D01*
X103529Y38737D01*
X103501Y38847D01*
X103470Y38956D01*
X103435Y39064D01*
X103396Y39170D01*
X103354Y39275D01*
X103308Y39379D01*
X103258Y39481D01*
X103205Y39581D01*
X103148Y39679D01*
X103088Y39775D01*
X103025Y39869D01*
X102958Y39960D01*
X102889Y40050D01*
X102816Y40137D01*
X102740Y40221D01*
X102661Y40302D01*
X102580Y40381D01*
X102496Y40457D01*
X102409Y40530D01*
X102320Y40599D01*
X102228Y40666D01*
X102134Y40729D01*
X102038Y40789D01*
X101940Y40846D01*
X101840Y40899D01*
X101738Y40949D01*
X101634Y40995D01*
X101529Y41037D01*
X101423Y41076D01*
X101315Y41111D01*
X101206Y41142D01*
X101096Y41170D01*
X100985Y41193D01*
X100874Y41213D01*
X100762Y41229D01*
X100649Y41241D01*
X100536Y41249D01*
X100423Y41253D01*
X100309Y41253D01*
X100196Y41249D01*
X100083Y41241D01*
X99970Y41229D01*
X99858Y41213D01*
X99747Y41193D01*
X99636Y41170D01*
X99526Y41142D01*
X99417Y41111D01*
X99309Y41076D01*
X99203Y41037D01*
X99098Y40995D01*
X98994Y40949D01*
X98892Y40899D01*
X98792Y40846D01*
X98694Y40789D01*
X98598Y40729D01*
X98504Y40666D01*
X96058Y45292D02*
X92868Y43058D01*
X96058Y45292D02*
X96142Y45348D01*
X96227Y45401D01*
X96315Y45450D01*
X96404Y45496D01*
X96496Y45539D01*
X96589Y45578D01*
X96683Y45613D01*
X96778Y45645D01*
X96875Y45673D01*
X96973Y45697D01*
X97071Y45717D01*
X97171Y45734D01*
X97271Y45746D01*
X97371Y45755D01*
X97472Y45760D01*
X97572Y45761D01*
X97673Y45758D01*
X97773Y45751D01*
X97873Y45740D01*
X97973Y45726D01*
X98072Y45707D01*
X98170Y45685D01*
X98267Y45659D01*
X98364Y45629D01*
X98459Y45596D01*
X98552Y45559D01*
X98644Y45518D01*
X98735Y45473D01*
X98823Y45426D01*
X98910Y45374D01*
X98994Y45320D01*
X99077Y45262D01*
X99157Y45201D01*
X99235Y45137D01*
X99310Y45070D01*
X99383Y45001D01*
X99452Y44928D01*
X99519Y44853D01*
X99583Y44775D01*
X99644Y44695D01*
X99702Y44612D01*
X99756Y44528D01*
X99808Y44441D01*
X99855Y44353D01*
X99900Y44262D01*
X99941Y44170D01*
X99978Y44076D01*
X100011Y43982D01*
X100041Y43885D01*
X100067Y43788D01*
X100089Y43690D01*
X100108Y43591D01*
X100122Y43491D01*
X100133Y43391D01*
X100140Y43291D01*
X100143Y43190D01*
X100142Y43090D01*
X100137Y42989D01*
X100128Y42889D01*
X100116Y42789D01*
X100099Y42689D01*
X100079Y42591D01*
X100055Y42493D01*
X100027Y42396D01*
X99995Y42301D01*
X99960Y42207D01*
X99921Y42114D01*
X99878Y42022D01*
X99832Y41933D01*
X99783Y41845D01*
X99730Y41760D01*
X99674Y41676D01*
X99614Y41595D01*
X99552Y41516D01*
X99486Y41439D01*
X99418Y41365D01*
X99347Y41294D01*
X99273Y41226D01*
X99196Y41160D01*
X99117Y41098D01*
X99036Y41038D01*
X96910Y39549D01*
X101699Y49242D02*
X111591Y41904D01*
X108079Y53709D01*
X118295Y46599D02*
X120954Y48460D01*
X121045Y48527D01*
X121135Y48596D01*
X121222Y48669D01*
X121306Y48745D01*
X121387Y48824D01*
X121466Y48905D01*
X121542Y48989D01*
X121615Y49076D01*
X121684Y49166D01*
X121751Y49257D01*
X121814Y49351D01*
X121874Y49447D01*
X121931Y49545D01*
X121984Y49645D01*
X122034Y49747D01*
X122080Y49851D01*
X122122Y49956D01*
X122161Y50062D01*
X122196Y50170D01*
X122227Y50279D01*
X122255Y50389D01*
X122278Y50500D01*
X122298Y50611D01*
X122314Y50723D01*
X122326Y50836D01*
X122334Y50949D01*
X122338Y51062D01*
X122338Y51176D01*
X122334Y51289D01*
X122326Y51402D01*
X122314Y51515D01*
X122298Y51627D01*
X122278Y51738D01*
X122255Y51849D01*
X122227Y51959D01*
X122196Y52068D01*
X122161Y52176D01*
X122122Y52282D01*
X122080Y52387D01*
X122034Y52491D01*
X121984Y52593D01*
X121931Y52693D01*
X121874Y52791D01*
X121814Y52887D01*
X121751Y52981D01*
X121684Y53072D01*
X121615Y53162D01*
X121542Y53249D01*
X121466Y53333D01*
X121387Y53414D01*
X121306Y53493D01*
X121222Y53569D01*
X121135Y53642D01*
X121046Y53711D01*
X120954Y53778D01*
X120860Y53841D01*
X120764Y53901D01*
X120666Y53958D01*
X120566Y54011D01*
X120464Y54061D01*
X120360Y54107D01*
X120255Y54149D01*
X120149Y54188D01*
X120041Y54223D01*
X119932Y54254D01*
X119822Y54282D01*
X119711Y54305D01*
X119600Y54325D01*
X119488Y54341D01*
X119375Y54353D01*
X119262Y54361D01*
X119149Y54365D01*
X119035Y54365D01*
X118922Y54361D01*
X118809Y54353D01*
X118696Y54341D01*
X118584Y54325D01*
X118473Y54305D01*
X118362Y54282D01*
X118252Y54254D01*
X118143Y54223D01*
X118035Y54188D01*
X117929Y54149D01*
X117824Y54107D01*
X117720Y54061D01*
X117618Y54011D01*
X117518Y53958D01*
X117420Y53901D01*
X117324Y53841D01*
X117230Y53778D01*
X114784Y58404D02*
X111593Y56170D01*
X114784Y58404D02*
X114868Y58460D01*
X114953Y58513D01*
X115041Y58562D01*
X115130Y58608D01*
X115222Y58651D01*
X115315Y58690D01*
X115409Y58725D01*
X115504Y58757D01*
X115601Y58785D01*
X115699Y58809D01*
X115797Y58829D01*
X115897Y58846D01*
X115997Y58858D01*
X116097Y58867D01*
X116198Y58872D01*
X116298Y58873D01*
X116399Y58870D01*
X116499Y58863D01*
X116599Y58852D01*
X116699Y58838D01*
X116798Y58819D01*
X116896Y58797D01*
X116993Y58771D01*
X117090Y58741D01*
X117185Y58708D01*
X117278Y58671D01*
X117370Y58630D01*
X117461Y58585D01*
X117549Y58538D01*
X117636Y58486D01*
X117720Y58432D01*
X117803Y58374D01*
X117883Y58313D01*
X117961Y58249D01*
X118036Y58182D01*
X118109Y58113D01*
X118178Y58040D01*
X118245Y57965D01*
X118309Y57887D01*
X118370Y57807D01*
X118428Y57724D01*
X118482Y57640D01*
X118534Y57553D01*
X118581Y57465D01*
X118626Y57374D01*
X118667Y57282D01*
X118704Y57188D01*
X118737Y57094D01*
X118767Y56997D01*
X118793Y56900D01*
X118815Y56802D01*
X118834Y56703D01*
X118848Y56603D01*
X118859Y56503D01*
X118866Y56403D01*
X118869Y56302D01*
X118868Y56202D01*
X118863Y56101D01*
X118854Y56001D01*
X118842Y55901D01*
X118825Y55801D01*
X118805Y55703D01*
X118781Y55605D01*
X118753Y55508D01*
X118721Y55413D01*
X118686Y55319D01*
X118647Y55226D01*
X118604Y55134D01*
X118558Y55045D01*
X118509Y54957D01*
X118456Y54872D01*
X118400Y54788D01*
X118340Y54707D01*
X118278Y54628D01*
X118212Y54551D01*
X118144Y54477D01*
X118073Y54406D01*
X117999Y54338D01*
X117922Y54272D01*
X117843Y54210D01*
X117762Y54150D01*
X115635Y52661D01*
X-121244Y47190D02*
X-123902Y49052D01*
X-121244Y47190D02*
X-121150Y47127D01*
X-121054Y47067D01*
X-120956Y47010D01*
X-120856Y46957D01*
X-120754Y46907D01*
X-120650Y46861D01*
X-120545Y46819D01*
X-120439Y46780D01*
X-120331Y46745D01*
X-120222Y46714D01*
X-120112Y46686D01*
X-120001Y46663D01*
X-119890Y46643D01*
X-119778Y46627D01*
X-119665Y46615D01*
X-119552Y46607D01*
X-119439Y46603D01*
X-119325Y46603D01*
X-119212Y46607D01*
X-119099Y46615D01*
X-118986Y46627D01*
X-118874Y46643D01*
X-118763Y46663D01*
X-118652Y46686D01*
X-118542Y46714D01*
X-118433Y46745D01*
X-118325Y46780D01*
X-118219Y46819D01*
X-118114Y46861D01*
X-118010Y46907D01*
X-117908Y46957D01*
X-117808Y47010D01*
X-117710Y47067D01*
X-117614Y47127D01*
X-117520Y47190D01*
X-117429Y47257D01*
X-117339Y47326D01*
X-117252Y47399D01*
X-117168Y47475D01*
X-117087Y47554D01*
X-117008Y47635D01*
X-116932Y47719D01*
X-116859Y47806D01*
X-116790Y47896D01*
X-116723Y47987D01*
X-116660Y48081D01*
X-116600Y48177D01*
X-116543Y48275D01*
X-116490Y48375D01*
X-116440Y48477D01*
X-116394Y48581D01*
X-116352Y48686D01*
X-116313Y48792D01*
X-116278Y48900D01*
X-116247Y49009D01*
X-116219Y49119D01*
X-116196Y49230D01*
X-116176Y49341D01*
X-116160Y49453D01*
X-116148Y49566D01*
X-116140Y49679D01*
X-116136Y49792D01*
X-116136Y49906D01*
X-116140Y50019D01*
X-116148Y50132D01*
X-116160Y50245D01*
X-116176Y50357D01*
X-116196Y50468D01*
X-116219Y50579D01*
X-116247Y50689D01*
X-116278Y50798D01*
X-116313Y50906D01*
X-116352Y51012D01*
X-116394Y51117D01*
X-116440Y51221D01*
X-116490Y51323D01*
X-116543Y51423D01*
X-116600Y51521D01*
X-116660Y51617D01*
X-116723Y51711D01*
X-116790Y51802D01*
X-116859Y51892D01*
X-116932Y51979D01*
X-117008Y52063D01*
X-117087Y52144D01*
X-117168Y52223D01*
X-117252Y52299D01*
X-117339Y52372D01*
X-117428Y52441D01*
X-117520Y52508D01*
X-114010Y56389D02*
X-117201Y58623D01*
X-114011Y56389D02*
X-113930Y56329D01*
X-113851Y56267D01*
X-113774Y56201D01*
X-113700Y56133D01*
X-113629Y56062D01*
X-113561Y55988D01*
X-113495Y55911D01*
X-113433Y55832D01*
X-113373Y55751D01*
X-113317Y55667D01*
X-113264Y55582D01*
X-113215Y55494D01*
X-113169Y55405D01*
X-113126Y55313D01*
X-113087Y55220D01*
X-113052Y55126D01*
X-113020Y55031D01*
X-112992Y54934D01*
X-112968Y54836D01*
X-112948Y54738D01*
X-112931Y54638D01*
X-112919Y54538D01*
X-112910Y54438D01*
X-112905Y54337D01*
X-112904Y54237D01*
X-112907Y54136D01*
X-112914Y54036D01*
X-112925Y53936D01*
X-112939Y53836D01*
X-112958Y53737D01*
X-112980Y53639D01*
X-113006Y53542D01*
X-113036Y53445D01*
X-113069Y53351D01*
X-113106Y53257D01*
X-113147Y53165D01*
X-113192Y53074D01*
X-113239Y52986D01*
X-113291Y52899D01*
X-113345Y52815D01*
X-113403Y52732D01*
X-113464Y52652D01*
X-113528Y52574D01*
X-113595Y52499D01*
X-113664Y52426D01*
X-113737Y52357D01*
X-113812Y52290D01*
X-113890Y52226D01*
X-113970Y52165D01*
X-114053Y52107D01*
X-114137Y52053D01*
X-114224Y52001D01*
X-114312Y51954D01*
X-114403Y51909D01*
X-114495Y51868D01*
X-114588Y51831D01*
X-114683Y51798D01*
X-114780Y51768D01*
X-114877Y51742D01*
X-114975Y51720D01*
X-115074Y51701D01*
X-115174Y51687D01*
X-115274Y51676D01*
X-115374Y51669D01*
X-115475Y51666D01*
X-115575Y51667D01*
X-115676Y51672D01*
X-115776Y51681D01*
X-115876Y51693D01*
X-115976Y51710D01*
X-116074Y51730D01*
X-116172Y51754D01*
X-116269Y51782D01*
X-116364Y51814D01*
X-116458Y51849D01*
X-116551Y51888D01*
X-116643Y51931D01*
X-116732Y51977D01*
X-116820Y52026D01*
X-116905Y52079D01*
X-116989Y52135D01*
X-119116Y53625D01*
X-108369Y52439D02*
X-111881Y40634D01*
X-101989Y47972D01*
X-105176Y35940D02*
X-102518Y34078D01*
X-102424Y34015D01*
X-102328Y33955D01*
X-102230Y33898D01*
X-102130Y33845D01*
X-102028Y33795D01*
X-101924Y33749D01*
X-101819Y33707D01*
X-101713Y33668D01*
X-101605Y33633D01*
X-101496Y33602D01*
X-101386Y33574D01*
X-101275Y33551D01*
X-101164Y33531D01*
X-101052Y33515D01*
X-100939Y33503D01*
X-100826Y33495D01*
X-100713Y33491D01*
X-100599Y33491D01*
X-100486Y33495D01*
X-100373Y33503D01*
X-100260Y33515D01*
X-100148Y33531D01*
X-100037Y33551D01*
X-99926Y33574D01*
X-99816Y33602D01*
X-99707Y33633D01*
X-99599Y33668D01*
X-99493Y33707D01*
X-99388Y33749D01*
X-99284Y33795D01*
X-99182Y33845D01*
X-99082Y33898D01*
X-98984Y33955D01*
X-98888Y34015D01*
X-98794Y34078D01*
X-98703Y34145D01*
X-98613Y34214D01*
X-98526Y34287D01*
X-98442Y34363D01*
X-98361Y34442D01*
X-98282Y34523D01*
X-98206Y34607D01*
X-98133Y34694D01*
X-98064Y34784D01*
X-97997Y34875D01*
X-97934Y34969D01*
X-97874Y35065D01*
X-97817Y35163D01*
X-97764Y35263D01*
X-97714Y35365D01*
X-97668Y35469D01*
X-97626Y35574D01*
X-97587Y35680D01*
X-97552Y35788D01*
X-97521Y35897D01*
X-97493Y36007D01*
X-97470Y36118D01*
X-97450Y36229D01*
X-97434Y36341D01*
X-97422Y36454D01*
X-97414Y36567D01*
X-97410Y36680D01*
X-97410Y36794D01*
X-97414Y36907D01*
X-97422Y37020D01*
X-97434Y37133D01*
X-97450Y37245D01*
X-97470Y37356D01*
X-97493Y37467D01*
X-97521Y37577D01*
X-97552Y37686D01*
X-97587Y37794D01*
X-97626Y37900D01*
X-97668Y38005D01*
X-97714Y38109D01*
X-97764Y38211D01*
X-97817Y38311D01*
X-97874Y38409D01*
X-97934Y38505D01*
X-97997Y38599D01*
X-98064Y38690D01*
X-98133Y38780D01*
X-98206Y38867D01*
X-98282Y38951D01*
X-98361Y39032D01*
X-98442Y39111D01*
X-98526Y39187D01*
X-98613Y39260D01*
X-98702Y39329D01*
X-98794Y39396D01*
X-95284Y43277D02*
X-98475Y45511D01*
X-95285Y43277D02*
X-95204Y43217D01*
X-95125Y43155D01*
X-95048Y43089D01*
X-94974Y43021D01*
X-94903Y42950D01*
X-94835Y42876D01*
X-94769Y42799D01*
X-94707Y42720D01*
X-94647Y42639D01*
X-94591Y42555D01*
X-94538Y42470D01*
X-94489Y42382D01*
X-94443Y42293D01*
X-94400Y42201D01*
X-94361Y42108D01*
X-94326Y42014D01*
X-94294Y41919D01*
X-94266Y41822D01*
X-94242Y41724D01*
X-94222Y41626D01*
X-94205Y41526D01*
X-94193Y41426D01*
X-94184Y41326D01*
X-94179Y41225D01*
X-94178Y41125D01*
X-94181Y41024D01*
X-94188Y40924D01*
X-94199Y40824D01*
X-94213Y40724D01*
X-94232Y40625D01*
X-94254Y40527D01*
X-94280Y40430D01*
X-94310Y40333D01*
X-94343Y40239D01*
X-94380Y40145D01*
X-94421Y40053D01*
X-94466Y39962D01*
X-94513Y39874D01*
X-94565Y39787D01*
X-94619Y39703D01*
X-94677Y39620D01*
X-94738Y39540D01*
X-94802Y39462D01*
X-94869Y39387D01*
X-94938Y39314D01*
X-95011Y39245D01*
X-95086Y39178D01*
X-95164Y39114D01*
X-95244Y39053D01*
X-95327Y38995D01*
X-95411Y38941D01*
X-95498Y38889D01*
X-95586Y38842D01*
X-95677Y38797D01*
X-95769Y38756D01*
X-95862Y38719D01*
X-95957Y38686D01*
X-96054Y38656D01*
X-96151Y38630D01*
X-96249Y38608D01*
X-96348Y38589D01*
X-96448Y38575D01*
X-96548Y38564D01*
X-96648Y38557D01*
X-96749Y38554D01*
X-96849Y38555D01*
X-96950Y38560D01*
X-97050Y38569D01*
X-97150Y38581D01*
X-97250Y38598D01*
X-97348Y38618D01*
X-97446Y38642D01*
X-97543Y38670D01*
X-97638Y38702D01*
X-97732Y38737D01*
X-97825Y38776D01*
X-97917Y38819D01*
X-98006Y38865D01*
X-98094Y38914D01*
X-98179Y38967D01*
X-98263Y39023D01*
X-100390Y40513D01*
X-199118Y214814D02*
X-199118Y218060D01*
X-199120Y218173D01*
X-199126Y218286D01*
X-199136Y218399D01*
X-199150Y218512D01*
X-199167Y218624D01*
X-199189Y218735D01*
X-199214Y218845D01*
X-199244Y218955D01*
X-199277Y219063D01*
X-199314Y219170D01*
X-199354Y219276D01*
X-199399Y219380D01*
X-199447Y219483D01*
X-199498Y219584D01*
X-199553Y219683D01*
X-199611Y219780D01*
X-199673Y219875D01*
X-199738Y219968D01*
X-199806Y220058D01*
X-199877Y220146D01*
X-199952Y220232D01*
X-200029Y220315D01*
X-200109Y220395D01*
X-200192Y220472D01*
X-200278Y220547D01*
X-200366Y220618D01*
X-200456Y220686D01*
X-200549Y220751D01*
X-200644Y220813D01*
X-200741Y220871D01*
X-200840Y220926D01*
X-200941Y220977D01*
X-201044Y221025D01*
X-201148Y221070D01*
X-201254Y221110D01*
X-201361Y221147D01*
X-201469Y221180D01*
X-201579Y221210D01*
X-201689Y221235D01*
X-201800Y221257D01*
X-201912Y221274D01*
X-202025Y221288D01*
X-202138Y221298D01*
X-202251Y221304D01*
X-202364Y221306D01*
X-202477Y221304D01*
X-202590Y221298D01*
X-202703Y221288D01*
X-202816Y221274D01*
X-202928Y221257D01*
X-203039Y221235D01*
X-203149Y221210D01*
X-203259Y221180D01*
X-203367Y221147D01*
X-203474Y221110D01*
X-203580Y221070D01*
X-203684Y221025D01*
X-203787Y220977D01*
X-203888Y220926D01*
X-203987Y220871D01*
X-204084Y220813D01*
X-204179Y220751D01*
X-204272Y220686D01*
X-204362Y220618D01*
X-204450Y220547D01*
X-204536Y220472D01*
X-204619Y220395D01*
X-204699Y220315D01*
X-204776Y220232D01*
X-204851Y220146D01*
X-204922Y220058D01*
X-204990Y219968D01*
X-205055Y219875D01*
X-205117Y219780D01*
X-205175Y219683D01*
X-205230Y219584D01*
X-205281Y219483D01*
X-205329Y219380D01*
X-205374Y219276D01*
X-205414Y219170D01*
X-205451Y219063D01*
X-205484Y218955D01*
X-205514Y218845D01*
X-205539Y218735D01*
X-205561Y218624D01*
X-205578Y218512D01*
X-205592Y218399D01*
X-205602Y218286D01*
X-205608Y218173D01*
X-205610Y218060D01*
X-210802Y218709D02*
X-210802Y214814D01*
X-210802Y218709D02*
X-210800Y218810D01*
X-210794Y218910D01*
X-210784Y219010D01*
X-210771Y219110D01*
X-210753Y219209D01*
X-210732Y219308D01*
X-210707Y219405D01*
X-210678Y219502D01*
X-210645Y219597D01*
X-210609Y219691D01*
X-210569Y219783D01*
X-210526Y219874D01*
X-210479Y219963D01*
X-210429Y220050D01*
X-210375Y220136D01*
X-210318Y220219D01*
X-210258Y220299D01*
X-210195Y220378D01*
X-210128Y220454D01*
X-210059Y220527D01*
X-209987Y220597D01*
X-209913Y220665D01*
X-209836Y220730D01*
X-209756Y220791D01*
X-209674Y220850D01*
X-209590Y220905D01*
X-209504Y220957D01*
X-209416Y221006D01*
X-209326Y221051D01*
X-209234Y221093D01*
X-209141Y221131D01*
X-209046Y221165D01*
X-208951Y221196D01*
X-208854Y221223D01*
X-208756Y221246D01*
X-208657Y221266D01*
X-208557Y221281D01*
X-208457Y221293D01*
X-208357Y221301D01*
X-208256Y221305D01*
X-208156Y221305D01*
X-208055Y221301D01*
X-207955Y221293D01*
X-207855Y221281D01*
X-207755Y221266D01*
X-207656Y221246D01*
X-207558Y221223D01*
X-207461Y221196D01*
X-207366Y221165D01*
X-207271Y221131D01*
X-207178Y221093D01*
X-207086Y221051D01*
X-206996Y221006D01*
X-206908Y220957D01*
X-206822Y220905D01*
X-206738Y220850D01*
X-206656Y220791D01*
X-206576Y220730D01*
X-206499Y220665D01*
X-206425Y220597D01*
X-206353Y220527D01*
X-206284Y220454D01*
X-206217Y220378D01*
X-206154Y220299D01*
X-206094Y220219D01*
X-206037Y220136D01*
X-205983Y220050D01*
X-205933Y219963D01*
X-205886Y219874D01*
X-205843Y219783D01*
X-205803Y219691D01*
X-205767Y219597D01*
X-205734Y219502D01*
X-205705Y219405D01*
X-205680Y219308D01*
X-205659Y219209D01*
X-205641Y219110D01*
X-205628Y219010D01*
X-205618Y218910D01*
X-205612Y218810D01*
X-205610Y218709D01*
X-205609Y218709D02*
X-205609Y216113D01*
X-210802Y225595D02*
X-199118Y229490D01*
X-210802Y233385D01*
X-199118Y237674D02*
X-199118Y240920D01*
X-199120Y241033D01*
X-199126Y241146D01*
X-199136Y241259D01*
X-199150Y241372D01*
X-199167Y241484D01*
X-199189Y241595D01*
X-199214Y241705D01*
X-199244Y241815D01*
X-199277Y241923D01*
X-199314Y242030D01*
X-199354Y242136D01*
X-199399Y242240D01*
X-199447Y242343D01*
X-199498Y242444D01*
X-199553Y242543D01*
X-199611Y242640D01*
X-199673Y242735D01*
X-199738Y242828D01*
X-199806Y242918D01*
X-199877Y243006D01*
X-199952Y243092D01*
X-200029Y243175D01*
X-200109Y243255D01*
X-200192Y243332D01*
X-200278Y243407D01*
X-200366Y243478D01*
X-200456Y243546D01*
X-200549Y243611D01*
X-200644Y243673D01*
X-200741Y243731D01*
X-200840Y243786D01*
X-200941Y243837D01*
X-201044Y243885D01*
X-201148Y243930D01*
X-201254Y243970D01*
X-201361Y244007D01*
X-201469Y244040D01*
X-201579Y244070D01*
X-201689Y244095D01*
X-201800Y244117D01*
X-201912Y244134D01*
X-202025Y244148D01*
X-202138Y244158D01*
X-202251Y244164D01*
X-202364Y244166D01*
X-202477Y244164D01*
X-202590Y244158D01*
X-202703Y244148D01*
X-202816Y244134D01*
X-202928Y244117D01*
X-203039Y244095D01*
X-203149Y244070D01*
X-203259Y244040D01*
X-203367Y244007D01*
X-203474Y243970D01*
X-203580Y243930D01*
X-203684Y243885D01*
X-203787Y243837D01*
X-203888Y243786D01*
X-203987Y243731D01*
X-204084Y243673D01*
X-204179Y243611D01*
X-204272Y243546D01*
X-204362Y243478D01*
X-204450Y243407D01*
X-204536Y243332D01*
X-204619Y243255D01*
X-204699Y243175D01*
X-204776Y243092D01*
X-204851Y243006D01*
X-204922Y242918D01*
X-204990Y242828D01*
X-205055Y242735D01*
X-205117Y242640D01*
X-205175Y242543D01*
X-205230Y242444D01*
X-205281Y242343D01*
X-205329Y242240D01*
X-205374Y242136D01*
X-205414Y242030D01*
X-205451Y241923D01*
X-205484Y241815D01*
X-205514Y241705D01*
X-205539Y241595D01*
X-205561Y241484D01*
X-205578Y241372D01*
X-205592Y241259D01*
X-205602Y241146D01*
X-205608Y241033D01*
X-205610Y240920D01*
X-210802Y241569D02*
X-210802Y237674D01*
X-210802Y241569D02*
X-210800Y241670D01*
X-210794Y241770D01*
X-210784Y241870D01*
X-210771Y241970D01*
X-210753Y242069D01*
X-210732Y242168D01*
X-210707Y242265D01*
X-210678Y242362D01*
X-210645Y242457D01*
X-210609Y242551D01*
X-210569Y242643D01*
X-210526Y242734D01*
X-210479Y242823D01*
X-210429Y242910D01*
X-210375Y242996D01*
X-210318Y243079D01*
X-210258Y243159D01*
X-210195Y243238D01*
X-210128Y243314D01*
X-210059Y243387D01*
X-209987Y243457D01*
X-209913Y243525D01*
X-209836Y243590D01*
X-209756Y243651D01*
X-209674Y243710D01*
X-209590Y243765D01*
X-209504Y243817D01*
X-209416Y243866D01*
X-209326Y243911D01*
X-209234Y243953D01*
X-209141Y243991D01*
X-209046Y244025D01*
X-208951Y244056D01*
X-208854Y244083D01*
X-208756Y244106D01*
X-208657Y244126D01*
X-208557Y244141D01*
X-208457Y244153D01*
X-208357Y244161D01*
X-208256Y244165D01*
X-208156Y244165D01*
X-208055Y244161D01*
X-207955Y244153D01*
X-207855Y244141D01*
X-207755Y244126D01*
X-207656Y244106D01*
X-207558Y244083D01*
X-207461Y244056D01*
X-207366Y244025D01*
X-207271Y243991D01*
X-207178Y243953D01*
X-207086Y243911D01*
X-206996Y243866D01*
X-206908Y243817D01*
X-206822Y243765D01*
X-206738Y243710D01*
X-206656Y243651D01*
X-206576Y243590D01*
X-206499Y243525D01*
X-206425Y243457D01*
X-206353Y243387D01*
X-206284Y243314D01*
X-206217Y243238D01*
X-206154Y243159D01*
X-206094Y243079D01*
X-206037Y242996D01*
X-205983Y242910D01*
X-205933Y242823D01*
X-205886Y242734D01*
X-205843Y242643D01*
X-205803Y242551D01*
X-205767Y242457D01*
X-205734Y242362D01*
X-205705Y242265D01*
X-205680Y242168D01*
X-205659Y242069D01*
X-205641Y241970D01*
X-205628Y241870D01*
X-205618Y241770D01*
X-205612Y241670D01*
X-205610Y241569D01*
X-205609Y241569D02*
X-205609Y238973D01*
X-119741Y397117D02*
X-117082Y398979D01*
X-117082Y398978D02*
X-116991Y399045D01*
X-116901Y399114D01*
X-116814Y399187D01*
X-116730Y399263D01*
X-116649Y399342D01*
X-116570Y399423D01*
X-116494Y399507D01*
X-116421Y399594D01*
X-116352Y399683D01*
X-116285Y399775D01*
X-116222Y399869D01*
X-116162Y399965D01*
X-116105Y400063D01*
X-116052Y400163D01*
X-116002Y400265D01*
X-115956Y400369D01*
X-115914Y400474D01*
X-115875Y400580D01*
X-115840Y400688D01*
X-115809Y400797D01*
X-115781Y400907D01*
X-115758Y401018D01*
X-115738Y401129D01*
X-115722Y401241D01*
X-115710Y401354D01*
X-115702Y401467D01*
X-115698Y401580D01*
X-115698Y401694D01*
X-115702Y401807D01*
X-115710Y401920D01*
X-115722Y402033D01*
X-115738Y402145D01*
X-115758Y402256D01*
X-115781Y402367D01*
X-115809Y402477D01*
X-115840Y402586D01*
X-115875Y402694D01*
X-115914Y402800D01*
X-115956Y402905D01*
X-116002Y403009D01*
X-116052Y403111D01*
X-116105Y403211D01*
X-116162Y403309D01*
X-116222Y403405D01*
X-116285Y403499D01*
X-116352Y403590D01*
X-116421Y403680D01*
X-116494Y403767D01*
X-116570Y403851D01*
X-116649Y403932D01*
X-116730Y404011D01*
X-116814Y404087D01*
X-116901Y404160D01*
X-116991Y404229D01*
X-117082Y404296D01*
X-117176Y404359D01*
X-117272Y404419D01*
X-117370Y404476D01*
X-117470Y404529D01*
X-117572Y404579D01*
X-117676Y404625D01*
X-117781Y404667D01*
X-117887Y404706D01*
X-117995Y404741D01*
X-118104Y404772D01*
X-118214Y404800D01*
X-118325Y404823D01*
X-118436Y404843D01*
X-118548Y404859D01*
X-118661Y404871D01*
X-118774Y404879D01*
X-118887Y404883D01*
X-119001Y404883D01*
X-119114Y404879D01*
X-119227Y404871D01*
X-119340Y404859D01*
X-119452Y404843D01*
X-119563Y404823D01*
X-119674Y404800D01*
X-119784Y404772D01*
X-119893Y404741D01*
X-120001Y404706D01*
X-120107Y404667D01*
X-120212Y404625D01*
X-120316Y404579D01*
X-120418Y404529D01*
X-120518Y404476D01*
X-120616Y404419D01*
X-120712Y404359D01*
X-120806Y404296D01*
X-123252Y408922D02*
X-126442Y406688D01*
X-123252Y408922D02*
X-123168Y408978D01*
X-123083Y409031D01*
X-122995Y409080D01*
X-122906Y409126D01*
X-122814Y409169D01*
X-122721Y409208D01*
X-122627Y409243D01*
X-122532Y409275D01*
X-122435Y409303D01*
X-122337Y409327D01*
X-122239Y409347D01*
X-122139Y409364D01*
X-122039Y409376D01*
X-121939Y409385D01*
X-121839Y409390D01*
X-121738Y409391D01*
X-121637Y409388D01*
X-121537Y409381D01*
X-121437Y409370D01*
X-121337Y409356D01*
X-121238Y409337D01*
X-121140Y409315D01*
X-121043Y409289D01*
X-120946Y409259D01*
X-120852Y409226D01*
X-120758Y409189D01*
X-120666Y409148D01*
X-120575Y409103D01*
X-120487Y409056D01*
X-120400Y409004D01*
X-120316Y408950D01*
X-120233Y408892D01*
X-120153Y408831D01*
X-120075Y408767D01*
X-120000Y408700D01*
X-119927Y408631D01*
X-119858Y408558D01*
X-119791Y408483D01*
X-119727Y408405D01*
X-119666Y408325D01*
X-119608Y408242D01*
X-119554Y408158D01*
X-119502Y408071D01*
X-119455Y407983D01*
X-119410Y407892D01*
X-119369Y407800D01*
X-119332Y407706D01*
X-119299Y407612D01*
X-119269Y407515D01*
X-119243Y407418D01*
X-119221Y407320D01*
X-119202Y407221D01*
X-119188Y407121D01*
X-119177Y407021D01*
X-119170Y406921D01*
X-119167Y406820D01*
X-119168Y406719D01*
X-119173Y406619D01*
X-119182Y406519D01*
X-119194Y406419D01*
X-119211Y406319D01*
X-119231Y406221D01*
X-119255Y406123D01*
X-119283Y406026D01*
X-119315Y405931D01*
X-119350Y405837D01*
X-119389Y405744D01*
X-119432Y405652D01*
X-119478Y405563D01*
X-119527Y405475D01*
X-119580Y405390D01*
X-119636Y405306D01*
X-119696Y405225D01*
X-119758Y405146D01*
X-119824Y405069D01*
X-119892Y404995D01*
X-119963Y404924D01*
X-120037Y404856D01*
X-120114Y404790D01*
X-120193Y404728D01*
X-120274Y404668D01*
X-120273Y404668D02*
X-122400Y403179D01*
X-117611Y412872D02*
X-107719Y405534D01*
X-111230Y417339D01*
X-101015Y410229D02*
X-98356Y412090D01*
X-98265Y412157D01*
X-98175Y412226D01*
X-98088Y412299D01*
X-98004Y412375D01*
X-97923Y412454D01*
X-97844Y412535D01*
X-97768Y412619D01*
X-97695Y412706D01*
X-97626Y412795D01*
X-97559Y412887D01*
X-97496Y412981D01*
X-97436Y413077D01*
X-97379Y413175D01*
X-97326Y413275D01*
X-97276Y413377D01*
X-97230Y413481D01*
X-97188Y413586D01*
X-97149Y413692D01*
X-97114Y413800D01*
X-97083Y413909D01*
X-97055Y414019D01*
X-97032Y414130D01*
X-97012Y414241D01*
X-96996Y414353D01*
X-96984Y414466D01*
X-96976Y414579D01*
X-96972Y414692D01*
X-96972Y414806D01*
X-96976Y414919D01*
X-96984Y415032D01*
X-96996Y415145D01*
X-97012Y415257D01*
X-97032Y415368D01*
X-97055Y415479D01*
X-97083Y415589D01*
X-97114Y415698D01*
X-97149Y415806D01*
X-97188Y415912D01*
X-97230Y416017D01*
X-97276Y416121D01*
X-97326Y416223D01*
X-97379Y416323D01*
X-97436Y416421D01*
X-97496Y416517D01*
X-97559Y416611D01*
X-97626Y416702D01*
X-97695Y416792D01*
X-97768Y416879D01*
X-97844Y416963D01*
X-97923Y417044D01*
X-98004Y417123D01*
X-98088Y417199D01*
X-98175Y417272D01*
X-98265Y417341D01*
X-98356Y417408D01*
X-98450Y417471D01*
X-98546Y417531D01*
X-98644Y417588D01*
X-98744Y417641D01*
X-98846Y417691D01*
X-98950Y417737D01*
X-99055Y417779D01*
X-99161Y417818D01*
X-99269Y417853D01*
X-99378Y417884D01*
X-99488Y417912D01*
X-99599Y417935D01*
X-99710Y417955D01*
X-99822Y417971D01*
X-99935Y417983D01*
X-100048Y417991D01*
X-100161Y417995D01*
X-100275Y417995D01*
X-100388Y417991D01*
X-100501Y417983D01*
X-100614Y417971D01*
X-100726Y417955D01*
X-100837Y417935D01*
X-100948Y417912D01*
X-101058Y417884D01*
X-101167Y417853D01*
X-101275Y417818D01*
X-101381Y417779D01*
X-101486Y417737D01*
X-101590Y417691D01*
X-101692Y417641D01*
X-101792Y417588D01*
X-101890Y417531D01*
X-101986Y417471D01*
X-102080Y417408D01*
X-104526Y422034D02*
X-107716Y419800D01*
X-104526Y422034D02*
X-104442Y422090D01*
X-104357Y422143D01*
X-104269Y422192D01*
X-104180Y422238D01*
X-104088Y422281D01*
X-103995Y422320D01*
X-103901Y422355D01*
X-103806Y422387D01*
X-103709Y422415D01*
X-103611Y422439D01*
X-103513Y422459D01*
X-103413Y422476D01*
X-103313Y422488D01*
X-103213Y422497D01*
X-103113Y422502D01*
X-103012Y422503D01*
X-102911Y422500D01*
X-102811Y422493D01*
X-102711Y422482D01*
X-102611Y422468D01*
X-102512Y422449D01*
X-102414Y422427D01*
X-102317Y422401D01*
X-102220Y422371D01*
X-102126Y422338D01*
X-102032Y422301D01*
X-101940Y422260D01*
X-101849Y422215D01*
X-101761Y422168D01*
X-101674Y422116D01*
X-101590Y422062D01*
X-101507Y422004D01*
X-101427Y421943D01*
X-101349Y421879D01*
X-101274Y421812D01*
X-101201Y421743D01*
X-101132Y421670D01*
X-101065Y421595D01*
X-101001Y421517D01*
X-100940Y421437D01*
X-100882Y421354D01*
X-100828Y421270D01*
X-100776Y421183D01*
X-100729Y421095D01*
X-100684Y421004D01*
X-100643Y420912D01*
X-100606Y420818D01*
X-100573Y420724D01*
X-100543Y420627D01*
X-100517Y420530D01*
X-100495Y420432D01*
X-100476Y420333D01*
X-100462Y420233D01*
X-100451Y420133D01*
X-100444Y420033D01*
X-100441Y419932D01*
X-100442Y419831D01*
X-100447Y419731D01*
X-100456Y419631D01*
X-100468Y419531D01*
X-100485Y419431D01*
X-100505Y419333D01*
X-100529Y419235D01*
X-100557Y419138D01*
X-100589Y419043D01*
X-100624Y418949D01*
X-100663Y418856D01*
X-100706Y418764D01*
X-100752Y418675D01*
X-100801Y418587D01*
X-100854Y418502D01*
X-100910Y418418D01*
X-100970Y418337D01*
X-101032Y418258D01*
X-101098Y418181D01*
X-101166Y418107D01*
X-101237Y418036D01*
X-101311Y417968D01*
X-101388Y417902D01*
X-101467Y417840D01*
X-101548Y417780D01*
X-103674Y416291D01*
D11*
X126614Y351120D02*
X126614Y333340D01*
X126614Y351120D02*
X131553Y351120D01*
X131693Y351118D01*
X131832Y351112D01*
X131972Y351102D01*
X132111Y351088D01*
X132250Y351071D01*
X132388Y351049D01*
X132525Y351023D01*
X132662Y350994D01*
X132798Y350961D01*
X132932Y350924D01*
X133066Y350883D01*
X133198Y350838D01*
X133330Y350789D01*
X133459Y350737D01*
X133587Y350682D01*
X133714Y350622D01*
X133839Y350559D01*
X133962Y350493D01*
X134083Y350423D01*
X134202Y350350D01*
X134319Y350273D01*
X134433Y350193D01*
X134546Y350110D01*
X134656Y350024D01*
X134763Y349934D01*
X134868Y349842D01*
X134970Y349747D01*
X135070Y349649D01*
X135167Y349548D01*
X135261Y349444D01*
X135351Y349338D01*
X135439Y349229D01*
X135524Y349118D01*
X135605Y349004D01*
X135684Y348889D01*
X135759Y348771D01*
X135830Y348651D01*
X135898Y348528D01*
X135963Y348405D01*
X136024Y348279D01*
X136082Y348151D01*
X136136Y348023D01*
X136186Y347892D01*
X136233Y347760D01*
X136276Y347627D01*
X136315Y347493D01*
X136350Y347358D01*
X136381Y347222D01*
X136409Y347084D01*
X136432Y346947D01*
X136452Y346808D01*
X136468Y346669D01*
X136480Y346530D01*
X136488Y346391D01*
X136492Y346251D01*
X136492Y346111D01*
X136488Y345971D01*
X136480Y345832D01*
X136468Y345693D01*
X136452Y345554D01*
X136432Y345415D01*
X136409Y345278D01*
X136381Y345140D01*
X136350Y345004D01*
X136315Y344869D01*
X136276Y344735D01*
X136233Y344602D01*
X136186Y344470D01*
X136136Y344339D01*
X136082Y344211D01*
X136024Y344083D01*
X135963Y343957D01*
X135898Y343834D01*
X135830Y343712D01*
X135759Y343591D01*
X135684Y343473D01*
X135605Y343358D01*
X135524Y343244D01*
X135439Y343133D01*
X135351Y343024D01*
X135261Y342918D01*
X135167Y342814D01*
X135070Y342713D01*
X134970Y342615D01*
X134868Y342520D01*
X134763Y342428D01*
X134656Y342338D01*
X134546Y342252D01*
X134433Y342169D01*
X134319Y342089D01*
X134202Y342012D01*
X134083Y341939D01*
X133962Y341869D01*
X133839Y341803D01*
X133714Y341740D01*
X133587Y341680D01*
X133459Y341625D01*
X133330Y341573D01*
X133198Y341524D01*
X133066Y341479D01*
X132932Y341438D01*
X132798Y341401D01*
X132662Y341368D01*
X132525Y341339D01*
X132388Y341313D01*
X132250Y341291D01*
X132111Y341274D01*
X131972Y341260D01*
X131832Y341250D01*
X131693Y341244D01*
X131553Y341242D01*
X126614Y341242D01*
X142609Y347169D02*
X147548Y351120D01*
X147548Y333340D01*
X152486Y333340D02*
X142609Y333340D01*
X126614Y124940D02*
X126614Y107160D01*
X126614Y124940D02*
X131553Y124940D01*
X131693Y124938D01*
X131832Y124932D01*
X131972Y124922D01*
X132111Y124908D01*
X132250Y124891D01*
X132388Y124869D01*
X132525Y124843D01*
X132662Y124814D01*
X132798Y124781D01*
X132932Y124744D01*
X133066Y124703D01*
X133198Y124658D01*
X133330Y124609D01*
X133459Y124557D01*
X133587Y124502D01*
X133714Y124442D01*
X133839Y124379D01*
X133962Y124313D01*
X134083Y124243D01*
X134202Y124170D01*
X134319Y124093D01*
X134433Y124013D01*
X134546Y123930D01*
X134656Y123844D01*
X134763Y123754D01*
X134868Y123662D01*
X134970Y123567D01*
X135070Y123469D01*
X135167Y123368D01*
X135261Y123264D01*
X135351Y123158D01*
X135439Y123049D01*
X135524Y122938D01*
X135605Y122824D01*
X135684Y122709D01*
X135759Y122591D01*
X135830Y122471D01*
X135898Y122348D01*
X135963Y122225D01*
X136024Y122099D01*
X136082Y121971D01*
X136136Y121843D01*
X136186Y121712D01*
X136233Y121580D01*
X136276Y121447D01*
X136315Y121313D01*
X136350Y121178D01*
X136381Y121042D01*
X136409Y120904D01*
X136432Y120767D01*
X136452Y120628D01*
X136468Y120489D01*
X136480Y120350D01*
X136488Y120211D01*
X136492Y120071D01*
X136492Y119931D01*
X136488Y119791D01*
X136480Y119652D01*
X136468Y119513D01*
X136452Y119374D01*
X136432Y119235D01*
X136409Y119098D01*
X136381Y118960D01*
X136350Y118824D01*
X136315Y118689D01*
X136276Y118555D01*
X136233Y118422D01*
X136186Y118290D01*
X136136Y118159D01*
X136082Y118031D01*
X136024Y117903D01*
X135963Y117777D01*
X135898Y117654D01*
X135830Y117532D01*
X135759Y117411D01*
X135684Y117293D01*
X135605Y117178D01*
X135524Y117064D01*
X135439Y116953D01*
X135351Y116844D01*
X135261Y116738D01*
X135167Y116634D01*
X135070Y116533D01*
X134970Y116435D01*
X134868Y116340D01*
X134763Y116248D01*
X134656Y116158D01*
X134546Y116072D01*
X134433Y115989D01*
X134319Y115909D01*
X134202Y115832D01*
X134083Y115759D01*
X133962Y115689D01*
X133839Y115623D01*
X133714Y115560D01*
X133587Y115500D01*
X133459Y115445D01*
X133330Y115393D01*
X133198Y115344D01*
X133066Y115299D01*
X132932Y115258D01*
X132798Y115221D01*
X132662Y115188D01*
X132525Y115159D01*
X132388Y115133D01*
X132250Y115111D01*
X132111Y115094D01*
X131972Y115080D01*
X131832Y115070D01*
X131693Y115064D01*
X131553Y115062D01*
X126614Y115062D01*
X148041Y124940D02*
X148173Y124938D01*
X148304Y124932D01*
X148436Y124922D01*
X148567Y124909D01*
X148697Y124891D01*
X148827Y124870D01*
X148957Y124845D01*
X149085Y124816D01*
X149213Y124783D01*
X149339Y124746D01*
X149465Y124706D01*
X149589Y124662D01*
X149712Y124614D01*
X149833Y124563D01*
X149953Y124508D01*
X150071Y124450D01*
X150187Y124388D01*
X150301Y124322D01*
X150414Y124254D01*
X150524Y124182D01*
X150632Y124107D01*
X150738Y124028D01*
X150842Y123947D01*
X150943Y123862D01*
X151041Y123775D01*
X151137Y123684D01*
X151230Y123591D01*
X151321Y123495D01*
X151408Y123397D01*
X151493Y123296D01*
X151574Y123192D01*
X151653Y123086D01*
X151728Y122978D01*
X151800Y122868D01*
X151868Y122755D01*
X151934Y122641D01*
X151996Y122525D01*
X152054Y122407D01*
X152109Y122287D01*
X152160Y122166D01*
X152208Y122043D01*
X152252Y121919D01*
X152292Y121793D01*
X152329Y121667D01*
X152362Y121539D01*
X152391Y121411D01*
X152416Y121281D01*
X152437Y121151D01*
X152455Y121021D01*
X152468Y120890D01*
X152478Y120758D01*
X152484Y120627D01*
X152486Y120495D01*
X148041Y124940D02*
X147891Y124938D01*
X147742Y124932D01*
X147593Y124922D01*
X147444Y124909D01*
X147295Y124891D01*
X147147Y124870D01*
X146999Y124844D01*
X146853Y124815D01*
X146707Y124782D01*
X146562Y124745D01*
X146418Y124704D01*
X146275Y124660D01*
X146133Y124612D01*
X145993Y124560D01*
X145854Y124505D01*
X145716Y124446D01*
X145581Y124383D01*
X145446Y124317D01*
X145314Y124247D01*
X145184Y124174D01*
X145055Y124097D01*
X144928Y124017D01*
X144804Y123934D01*
X144682Y123848D01*
X144562Y123758D01*
X144445Y123665D01*
X144330Y123570D01*
X144217Y123471D01*
X144107Y123369D01*
X144000Y123265D01*
X143896Y123158D01*
X143794Y123048D01*
X143696Y122935D01*
X143600Y122820D01*
X143508Y122702D01*
X143418Y122582D01*
X143332Y122460D01*
X143249Y122336D01*
X143169Y122209D01*
X143093Y122081D01*
X143020Y121950D01*
X142950Y121817D01*
X142884Y121683D01*
X142822Y121547D01*
X142763Y121410D01*
X142707Y121271D01*
X142656Y121130D01*
X142608Y120989D01*
X151004Y117038D02*
X151100Y117131D01*
X151192Y117227D01*
X151282Y117326D01*
X151369Y117427D01*
X151454Y117530D01*
X151535Y117635D01*
X151613Y117743D01*
X151688Y117853D01*
X151761Y117965D01*
X151830Y118079D01*
X151896Y118195D01*
X151958Y118313D01*
X152017Y118432D01*
X152073Y118553D01*
X152126Y118676D01*
X152175Y118800D01*
X152220Y118925D01*
X152263Y119052D01*
X152301Y119179D01*
X152336Y119308D01*
X152367Y119437D01*
X152395Y119568D01*
X152419Y119699D01*
X152440Y119831D01*
X152456Y119963D01*
X152469Y120096D01*
X152479Y120229D01*
X152484Y120362D01*
X152486Y120495D01*
X151005Y117038D02*
X142609Y107160D01*
X152486Y107160D01*
X-152776Y107160D02*
X-152776Y124940D01*
X-147838Y124940D01*
X-147698Y124938D01*
X-147559Y124932D01*
X-147419Y124922D01*
X-147280Y124908D01*
X-147141Y124891D01*
X-147003Y124869D01*
X-146866Y124843D01*
X-146729Y124814D01*
X-146593Y124781D01*
X-146459Y124744D01*
X-146325Y124703D01*
X-146193Y124658D01*
X-146061Y124609D01*
X-145932Y124557D01*
X-145804Y124502D01*
X-145677Y124442D01*
X-145552Y124379D01*
X-145429Y124313D01*
X-145308Y124243D01*
X-145189Y124170D01*
X-145072Y124093D01*
X-144958Y124013D01*
X-144845Y123930D01*
X-144735Y123844D01*
X-144628Y123754D01*
X-144523Y123662D01*
X-144421Y123567D01*
X-144321Y123469D01*
X-144224Y123368D01*
X-144130Y123264D01*
X-144040Y123158D01*
X-143952Y123049D01*
X-143867Y122938D01*
X-143786Y122824D01*
X-143707Y122709D01*
X-143632Y122591D01*
X-143561Y122471D01*
X-143493Y122348D01*
X-143428Y122225D01*
X-143367Y122099D01*
X-143309Y121971D01*
X-143255Y121843D01*
X-143205Y121712D01*
X-143158Y121580D01*
X-143115Y121447D01*
X-143076Y121313D01*
X-143041Y121178D01*
X-143010Y121042D01*
X-142982Y120904D01*
X-142959Y120767D01*
X-142939Y120628D01*
X-142923Y120489D01*
X-142911Y120350D01*
X-142903Y120211D01*
X-142899Y120071D01*
X-142899Y119931D01*
X-142903Y119791D01*
X-142911Y119652D01*
X-142923Y119513D01*
X-142939Y119374D01*
X-142959Y119235D01*
X-142982Y119098D01*
X-143010Y118960D01*
X-143041Y118824D01*
X-143076Y118689D01*
X-143115Y118555D01*
X-143158Y118422D01*
X-143205Y118290D01*
X-143255Y118159D01*
X-143309Y118031D01*
X-143367Y117903D01*
X-143428Y117777D01*
X-143493Y117654D01*
X-143561Y117532D01*
X-143632Y117411D01*
X-143707Y117293D01*
X-143786Y117178D01*
X-143867Y117064D01*
X-143952Y116953D01*
X-144040Y116844D01*
X-144130Y116738D01*
X-144224Y116634D01*
X-144321Y116533D01*
X-144421Y116435D01*
X-144523Y116340D01*
X-144628Y116248D01*
X-144735Y116158D01*
X-144845Y116072D01*
X-144958Y115989D01*
X-145072Y115909D01*
X-145189Y115832D01*
X-145308Y115759D01*
X-145429Y115689D01*
X-145552Y115623D01*
X-145677Y115560D01*
X-145804Y115500D01*
X-145932Y115445D01*
X-146061Y115393D01*
X-146193Y115344D01*
X-146325Y115299D01*
X-146459Y115258D01*
X-146593Y115221D01*
X-146729Y115188D01*
X-146866Y115159D01*
X-147003Y115133D01*
X-147141Y115111D01*
X-147280Y115094D01*
X-147419Y115080D01*
X-147559Y115070D01*
X-147698Y115064D01*
X-147838Y115062D01*
X-152776Y115062D01*
X-136781Y111111D02*
X-132830Y124940D01*
X-136781Y111111D02*
X-126904Y111111D01*
X-129867Y115062D02*
X-129867Y107160D01*
X-154046Y333340D02*
X-154046Y351120D01*
X-149108Y351120D01*
X-148968Y351118D01*
X-148829Y351112D01*
X-148689Y351102D01*
X-148550Y351088D01*
X-148411Y351071D01*
X-148273Y351049D01*
X-148136Y351023D01*
X-147999Y350994D01*
X-147863Y350961D01*
X-147729Y350924D01*
X-147595Y350883D01*
X-147463Y350838D01*
X-147331Y350789D01*
X-147202Y350737D01*
X-147074Y350682D01*
X-146947Y350622D01*
X-146822Y350559D01*
X-146699Y350493D01*
X-146578Y350423D01*
X-146459Y350350D01*
X-146342Y350273D01*
X-146228Y350193D01*
X-146115Y350110D01*
X-146005Y350024D01*
X-145898Y349934D01*
X-145793Y349842D01*
X-145691Y349747D01*
X-145591Y349649D01*
X-145494Y349548D01*
X-145400Y349444D01*
X-145310Y349338D01*
X-145222Y349229D01*
X-145137Y349118D01*
X-145056Y349004D01*
X-144977Y348889D01*
X-144902Y348771D01*
X-144831Y348651D01*
X-144763Y348528D01*
X-144698Y348405D01*
X-144637Y348279D01*
X-144579Y348151D01*
X-144525Y348023D01*
X-144475Y347892D01*
X-144428Y347760D01*
X-144385Y347627D01*
X-144346Y347493D01*
X-144311Y347358D01*
X-144280Y347222D01*
X-144252Y347084D01*
X-144229Y346947D01*
X-144209Y346808D01*
X-144193Y346669D01*
X-144181Y346530D01*
X-144173Y346391D01*
X-144169Y346251D01*
X-144169Y346111D01*
X-144173Y345971D01*
X-144181Y345832D01*
X-144193Y345693D01*
X-144209Y345554D01*
X-144229Y345415D01*
X-144252Y345278D01*
X-144280Y345140D01*
X-144311Y345004D01*
X-144346Y344869D01*
X-144385Y344735D01*
X-144428Y344602D01*
X-144475Y344470D01*
X-144525Y344339D01*
X-144579Y344211D01*
X-144637Y344083D01*
X-144698Y343957D01*
X-144763Y343834D01*
X-144831Y343712D01*
X-144902Y343591D01*
X-144977Y343473D01*
X-145056Y343358D01*
X-145137Y343244D01*
X-145222Y343133D01*
X-145310Y343024D01*
X-145400Y342918D01*
X-145494Y342814D01*
X-145591Y342713D01*
X-145691Y342615D01*
X-145793Y342520D01*
X-145898Y342428D01*
X-146005Y342338D01*
X-146115Y342252D01*
X-146228Y342169D01*
X-146342Y342089D01*
X-146459Y342012D01*
X-146578Y341939D01*
X-146699Y341869D01*
X-146822Y341803D01*
X-146947Y341740D01*
X-147074Y341680D01*
X-147202Y341625D01*
X-147331Y341573D01*
X-147463Y341524D01*
X-147595Y341479D01*
X-147729Y341438D01*
X-147863Y341401D01*
X-147999Y341368D01*
X-148136Y341339D01*
X-148273Y341313D01*
X-148411Y341291D01*
X-148550Y341274D01*
X-148689Y341260D01*
X-148829Y341250D01*
X-148968Y341244D01*
X-149108Y341242D01*
X-154046Y341242D01*
X-138051Y333340D02*
X-132125Y333340D01*
X-132001Y333342D01*
X-131877Y333348D01*
X-131753Y333358D01*
X-131630Y333371D01*
X-131507Y333389D01*
X-131385Y333410D01*
X-131263Y333435D01*
X-131142Y333464D01*
X-131023Y333497D01*
X-130904Y333533D01*
X-130787Y333574D01*
X-130671Y333617D01*
X-130556Y333665D01*
X-130443Y333716D01*
X-130331Y333771D01*
X-130222Y333829D01*
X-130114Y333890D01*
X-130008Y333955D01*
X-129904Y334023D01*
X-129803Y334095D01*
X-129703Y334169D01*
X-129607Y334247D01*
X-129512Y334327D01*
X-129420Y334411D01*
X-129331Y334497D01*
X-129245Y334586D01*
X-129161Y334678D01*
X-129081Y334773D01*
X-129003Y334869D01*
X-128929Y334969D01*
X-128857Y335070D01*
X-128789Y335174D01*
X-128724Y335280D01*
X-128663Y335388D01*
X-128605Y335497D01*
X-128550Y335609D01*
X-128499Y335722D01*
X-128451Y335837D01*
X-128408Y335953D01*
X-128367Y336070D01*
X-128331Y336189D01*
X-128298Y336308D01*
X-128269Y336429D01*
X-128244Y336551D01*
X-128223Y336673D01*
X-128205Y336796D01*
X-128192Y336919D01*
X-128182Y337043D01*
X-128176Y337167D01*
X-128174Y337291D01*
X-128174Y339267D01*
X-128176Y339391D01*
X-128182Y339515D01*
X-128192Y339639D01*
X-128205Y339762D01*
X-128223Y339885D01*
X-128244Y340007D01*
X-128269Y340129D01*
X-128298Y340250D01*
X-128331Y340369D01*
X-128367Y340488D01*
X-128408Y340605D01*
X-128451Y340721D01*
X-128499Y340836D01*
X-128550Y340949D01*
X-128605Y341061D01*
X-128663Y341170D01*
X-128724Y341278D01*
X-128789Y341384D01*
X-128857Y341488D01*
X-128929Y341589D01*
X-129003Y341689D01*
X-129081Y341785D01*
X-129161Y341880D01*
X-129245Y341972D01*
X-129331Y342061D01*
X-129420Y342147D01*
X-129512Y342231D01*
X-129607Y342311D01*
X-129703Y342389D01*
X-129803Y342463D01*
X-129904Y342535D01*
X-130008Y342603D01*
X-130114Y342668D01*
X-130222Y342729D01*
X-130331Y342787D01*
X-130443Y342842D01*
X-130556Y342893D01*
X-130671Y342941D01*
X-130787Y342984D01*
X-130904Y343025D01*
X-131023Y343061D01*
X-131142Y343094D01*
X-131263Y343123D01*
X-131385Y343148D01*
X-131507Y343169D01*
X-131630Y343187D01*
X-131753Y343200D01*
X-131877Y343210D01*
X-132001Y343216D01*
X-132125Y343218D01*
X-138051Y343218D01*
X-138051Y351120D01*
X-128174Y351120D01*
X-13716Y408660D02*
X-13716Y426440D01*
X-8778Y426440D01*
X-8638Y426438D01*
X-8499Y426432D01*
X-8359Y426422D01*
X-8220Y426408D01*
X-8081Y426391D01*
X-7943Y426369D01*
X-7806Y426343D01*
X-7669Y426314D01*
X-7533Y426281D01*
X-7399Y426244D01*
X-7265Y426203D01*
X-7133Y426158D01*
X-7001Y426109D01*
X-6872Y426057D01*
X-6744Y426002D01*
X-6617Y425942D01*
X-6492Y425879D01*
X-6369Y425813D01*
X-6248Y425743D01*
X-6129Y425670D01*
X-6012Y425593D01*
X-5898Y425513D01*
X-5785Y425430D01*
X-5675Y425344D01*
X-5568Y425254D01*
X-5463Y425162D01*
X-5361Y425067D01*
X-5261Y424969D01*
X-5164Y424868D01*
X-5070Y424764D01*
X-4980Y424658D01*
X-4892Y424549D01*
X-4807Y424438D01*
X-4726Y424324D01*
X-4647Y424209D01*
X-4572Y424091D01*
X-4501Y423971D01*
X-4433Y423848D01*
X-4368Y423725D01*
X-4307Y423599D01*
X-4249Y423471D01*
X-4195Y423343D01*
X-4145Y423212D01*
X-4098Y423080D01*
X-4055Y422947D01*
X-4016Y422813D01*
X-3981Y422678D01*
X-3950Y422542D01*
X-3922Y422404D01*
X-3899Y422267D01*
X-3879Y422128D01*
X-3863Y421989D01*
X-3851Y421850D01*
X-3843Y421711D01*
X-3839Y421571D01*
X-3839Y421431D01*
X-3843Y421291D01*
X-3851Y421152D01*
X-3863Y421013D01*
X-3879Y420874D01*
X-3899Y420735D01*
X-3922Y420598D01*
X-3950Y420460D01*
X-3981Y420324D01*
X-4016Y420189D01*
X-4055Y420055D01*
X-4098Y419922D01*
X-4145Y419790D01*
X-4195Y419659D01*
X-4249Y419531D01*
X-4307Y419403D01*
X-4368Y419277D01*
X-4433Y419154D01*
X-4501Y419032D01*
X-4572Y418911D01*
X-4647Y418793D01*
X-4726Y418678D01*
X-4807Y418564D01*
X-4892Y418453D01*
X-4980Y418344D01*
X-5070Y418238D01*
X-5164Y418134D01*
X-5261Y418033D01*
X-5361Y417935D01*
X-5463Y417840D01*
X-5568Y417748D01*
X-5675Y417658D01*
X-5785Y417572D01*
X-5898Y417489D01*
X-6012Y417409D01*
X-6129Y417332D01*
X-6248Y417259D01*
X-6369Y417189D01*
X-6492Y417123D01*
X-6617Y417060D01*
X-6744Y417000D01*
X-6872Y416945D01*
X-7001Y416893D01*
X-7133Y416844D01*
X-7265Y416799D01*
X-7399Y416758D01*
X-7533Y416721D01*
X-7669Y416688D01*
X-7806Y416659D01*
X-7943Y416633D01*
X-8081Y416611D01*
X-8220Y416594D01*
X-8359Y416580D01*
X-8499Y416570D01*
X-8638Y416564D01*
X-8778Y416562D01*
X-13716Y416562D01*
X2279Y418538D02*
X8205Y418538D01*
X8329Y418536D01*
X8453Y418530D01*
X8577Y418520D01*
X8700Y418507D01*
X8823Y418489D01*
X8945Y418468D01*
X9067Y418443D01*
X9188Y418414D01*
X9307Y418381D01*
X9426Y418345D01*
X9543Y418304D01*
X9659Y418261D01*
X9774Y418213D01*
X9887Y418162D01*
X9999Y418107D01*
X10108Y418049D01*
X10216Y417988D01*
X10322Y417923D01*
X10426Y417855D01*
X10527Y417783D01*
X10627Y417709D01*
X10723Y417631D01*
X10818Y417551D01*
X10910Y417467D01*
X10999Y417381D01*
X11085Y417292D01*
X11169Y417200D01*
X11249Y417105D01*
X11327Y417009D01*
X11401Y416909D01*
X11473Y416808D01*
X11541Y416704D01*
X11606Y416598D01*
X11667Y416490D01*
X11725Y416381D01*
X11780Y416269D01*
X11831Y416156D01*
X11879Y416041D01*
X11922Y415925D01*
X11963Y415808D01*
X11999Y415689D01*
X12032Y415570D01*
X12061Y415449D01*
X12086Y415327D01*
X12107Y415205D01*
X12125Y415082D01*
X12138Y414959D01*
X12148Y414835D01*
X12154Y414711D01*
X12156Y414587D01*
X12156Y413599D01*
X12157Y413599D02*
X12155Y413459D01*
X12149Y413320D01*
X12139Y413180D01*
X12125Y413041D01*
X12108Y412902D01*
X12086Y412764D01*
X12060Y412627D01*
X12031Y412490D01*
X11998Y412354D01*
X11961Y412220D01*
X11920Y412086D01*
X11875Y411954D01*
X11826Y411822D01*
X11774Y411693D01*
X11719Y411565D01*
X11659Y411438D01*
X11596Y411313D01*
X11530Y411190D01*
X11460Y411069D01*
X11387Y410950D01*
X11310Y410833D01*
X11230Y410719D01*
X11147Y410606D01*
X11061Y410496D01*
X10971Y410389D01*
X10879Y410284D01*
X10784Y410182D01*
X10686Y410082D01*
X10585Y409985D01*
X10481Y409891D01*
X10375Y409801D01*
X10266Y409713D01*
X10155Y409628D01*
X10041Y409547D01*
X9926Y409468D01*
X9808Y409393D01*
X9688Y409322D01*
X9565Y409254D01*
X9442Y409189D01*
X9316Y409128D01*
X9188Y409070D01*
X9060Y409016D01*
X8929Y408966D01*
X8797Y408919D01*
X8664Y408876D01*
X8530Y408837D01*
X8395Y408802D01*
X8259Y408771D01*
X8121Y408743D01*
X7984Y408720D01*
X7845Y408700D01*
X7706Y408684D01*
X7567Y408672D01*
X7428Y408664D01*
X7288Y408660D01*
X7148Y408660D01*
X7008Y408664D01*
X6869Y408672D01*
X6730Y408684D01*
X6591Y408700D01*
X6452Y408720D01*
X6315Y408743D01*
X6177Y408771D01*
X6041Y408802D01*
X5906Y408837D01*
X5772Y408876D01*
X5639Y408919D01*
X5507Y408966D01*
X5376Y409016D01*
X5248Y409070D01*
X5120Y409128D01*
X4994Y409189D01*
X4871Y409254D01*
X4749Y409322D01*
X4628Y409393D01*
X4510Y409468D01*
X4395Y409547D01*
X4281Y409628D01*
X4170Y409713D01*
X4061Y409801D01*
X3955Y409891D01*
X3851Y409985D01*
X3750Y410082D01*
X3652Y410182D01*
X3557Y410284D01*
X3465Y410389D01*
X3375Y410496D01*
X3289Y410606D01*
X3206Y410719D01*
X3126Y410833D01*
X3049Y410950D01*
X2976Y411069D01*
X2906Y411190D01*
X2840Y411313D01*
X2777Y411438D01*
X2717Y411565D01*
X2662Y411693D01*
X2610Y411822D01*
X2561Y411954D01*
X2516Y412086D01*
X2475Y412220D01*
X2438Y412354D01*
X2405Y412490D01*
X2376Y412627D01*
X2350Y412764D01*
X2328Y412902D01*
X2311Y413041D01*
X2297Y413180D01*
X2287Y413320D01*
X2281Y413459D01*
X2279Y413599D01*
X2279Y418538D01*
X2281Y418732D01*
X2289Y418926D01*
X2300Y419119D01*
X2317Y419313D01*
X2338Y419505D01*
X2365Y419697D01*
X2395Y419889D01*
X2431Y420080D01*
X2471Y420269D01*
X2516Y420458D01*
X2565Y420646D01*
X2619Y420832D01*
X2678Y421017D01*
X2741Y421200D01*
X2808Y421382D01*
X2881Y421562D01*
X2957Y421740D01*
X3038Y421917D01*
X3123Y422091D01*
X3212Y422263D01*
X3306Y422433D01*
X3403Y422600D01*
X3505Y422766D01*
X3611Y422928D01*
X3720Y423088D01*
X3834Y423245D01*
X3951Y423400D01*
X4073Y423551D01*
X4198Y423699D01*
X4326Y423845D01*
X4458Y423987D01*
X4593Y424126D01*
X4732Y424261D01*
X4874Y424393D01*
X5020Y424521D01*
X5168Y424646D01*
X5319Y424768D01*
X5474Y424885D01*
X5631Y424999D01*
X5791Y425108D01*
X5953Y425214D01*
X6119Y425316D01*
X6286Y425413D01*
X6456Y425507D01*
X6628Y425596D01*
X6802Y425681D01*
X6979Y425762D01*
X7157Y425838D01*
X7337Y425911D01*
X7519Y425978D01*
X7702Y426041D01*
X7887Y426100D01*
X8073Y426154D01*
X8261Y426203D01*
X8450Y426248D01*
X8639Y426288D01*
X8830Y426324D01*
X9022Y426354D01*
X9214Y426381D01*
X9406Y426402D01*
X9600Y426419D01*
X9793Y426430D01*
X9987Y426438D01*
X10181Y426440D01*
D10*
X175646Y370819D02*
X177594Y370819D01*
X177594Y364328D01*
X173699Y364328D01*
X173600Y364330D01*
X173500Y364336D01*
X173401Y364345D01*
X173303Y364358D01*
X173205Y364375D01*
X173107Y364396D01*
X173011Y364421D01*
X172916Y364449D01*
X172822Y364481D01*
X172729Y364516D01*
X172637Y364555D01*
X172547Y364598D01*
X172459Y364643D01*
X172372Y364693D01*
X172288Y364745D01*
X172205Y364801D01*
X172125Y364859D01*
X172047Y364921D01*
X171972Y364986D01*
X171899Y365054D01*
X171829Y365124D01*
X171761Y365197D01*
X171696Y365272D01*
X171634Y365350D01*
X171576Y365430D01*
X171520Y365513D01*
X171468Y365597D01*
X171418Y365684D01*
X171373Y365772D01*
X171330Y365862D01*
X171291Y365954D01*
X171256Y366047D01*
X171224Y366141D01*
X171196Y366236D01*
X171171Y366332D01*
X171150Y366430D01*
X171133Y366528D01*
X171120Y366626D01*
X171111Y366725D01*
X171105Y366825D01*
X171103Y366924D01*
X171103Y373416D01*
X171105Y373515D01*
X171111Y373615D01*
X171120Y373714D01*
X171133Y373812D01*
X171150Y373910D01*
X171171Y374008D01*
X171196Y374104D01*
X171224Y374199D01*
X171256Y374293D01*
X171291Y374386D01*
X171330Y374478D01*
X171373Y374568D01*
X171418Y374656D01*
X171468Y374743D01*
X171520Y374827D01*
X171576Y374910D01*
X171634Y374990D01*
X171696Y375068D01*
X171761Y375143D01*
X171829Y375216D01*
X171899Y375286D01*
X171972Y375354D01*
X172047Y375419D01*
X172125Y375481D01*
X172205Y375539D01*
X172288Y375595D01*
X172372Y375647D01*
X172459Y375697D01*
X172547Y375742D01*
X172637Y375785D01*
X172729Y375824D01*
X172821Y375859D01*
X172916Y375891D01*
X173011Y375919D01*
X173107Y375944D01*
X173205Y375965D01*
X173303Y375982D01*
X173401Y375995D01*
X173500Y376004D01*
X173600Y376010D01*
X173699Y376012D01*
X177594Y376012D01*
X183294Y376012D02*
X183294Y364328D01*
X189786Y364328D02*
X183294Y376012D01*
X189786Y376012D02*
X189786Y364328D01*
X195486Y364328D02*
X195486Y376012D01*
X198732Y376012D01*
X198845Y376010D01*
X198958Y376004D01*
X199071Y375994D01*
X199184Y375980D01*
X199296Y375963D01*
X199407Y375941D01*
X199517Y375916D01*
X199627Y375886D01*
X199735Y375853D01*
X199842Y375816D01*
X199948Y375776D01*
X200052Y375731D01*
X200155Y375683D01*
X200256Y375632D01*
X200355Y375577D01*
X200452Y375519D01*
X200547Y375457D01*
X200640Y375392D01*
X200730Y375324D01*
X200818Y375253D01*
X200904Y375178D01*
X200987Y375101D01*
X201067Y375021D01*
X201144Y374938D01*
X201219Y374852D01*
X201290Y374764D01*
X201358Y374674D01*
X201423Y374581D01*
X201485Y374486D01*
X201543Y374389D01*
X201598Y374290D01*
X201649Y374189D01*
X201697Y374086D01*
X201742Y373982D01*
X201782Y373876D01*
X201819Y373769D01*
X201852Y373661D01*
X201882Y373551D01*
X201907Y373441D01*
X201929Y373330D01*
X201946Y373218D01*
X201960Y373105D01*
X201970Y372992D01*
X201976Y372879D01*
X201978Y372766D01*
X201978Y367574D01*
X201976Y367461D01*
X201970Y367348D01*
X201960Y367235D01*
X201946Y367122D01*
X201929Y367010D01*
X201907Y366899D01*
X201882Y366789D01*
X201852Y366679D01*
X201819Y366571D01*
X201782Y366464D01*
X201742Y366358D01*
X201697Y366254D01*
X201649Y366151D01*
X201598Y366050D01*
X201543Y365951D01*
X201485Y365854D01*
X201423Y365759D01*
X201358Y365666D01*
X201290Y365576D01*
X201219Y365488D01*
X201144Y365402D01*
X201067Y365319D01*
X200987Y365239D01*
X200904Y365162D01*
X200818Y365087D01*
X200730Y365016D01*
X200640Y364948D01*
X200547Y364883D01*
X200452Y364821D01*
X200355Y364763D01*
X200256Y364708D01*
X200155Y364657D01*
X200052Y364609D01*
X199948Y364564D01*
X199842Y364524D01*
X199735Y364487D01*
X199627Y364454D01*
X199517Y364424D01*
X199407Y364399D01*
X199296Y364377D01*
X199184Y364360D01*
X199071Y364346D01*
X198958Y364336D01*
X198845Y364330D01*
X198732Y364328D01*
X195486Y364328D01*
X188770Y338928D02*
X184875Y338928D01*
X188770Y338928D02*
X188869Y338930D01*
X188969Y338936D01*
X189068Y338945D01*
X189166Y338958D01*
X189264Y338975D01*
X189362Y338996D01*
X189458Y339021D01*
X189553Y339049D01*
X189647Y339081D01*
X189740Y339116D01*
X189832Y339155D01*
X189922Y339198D01*
X190010Y339243D01*
X190097Y339293D01*
X190181Y339345D01*
X190264Y339401D01*
X190344Y339459D01*
X190422Y339521D01*
X190497Y339586D01*
X190570Y339654D01*
X190640Y339724D01*
X190708Y339797D01*
X190773Y339872D01*
X190835Y339950D01*
X190893Y340030D01*
X190949Y340113D01*
X191001Y340197D01*
X191051Y340284D01*
X191096Y340372D01*
X191139Y340462D01*
X191178Y340554D01*
X191213Y340647D01*
X191245Y340741D01*
X191273Y340836D01*
X191298Y340932D01*
X191319Y341030D01*
X191336Y341128D01*
X191349Y341226D01*
X191358Y341325D01*
X191364Y341425D01*
X191366Y341524D01*
X191366Y342823D01*
X191364Y342922D01*
X191358Y343022D01*
X191349Y343121D01*
X191336Y343219D01*
X191319Y343317D01*
X191298Y343415D01*
X191273Y343511D01*
X191245Y343606D01*
X191213Y343700D01*
X191178Y343793D01*
X191139Y343885D01*
X191096Y343975D01*
X191051Y344063D01*
X191001Y344150D01*
X190949Y344234D01*
X190893Y344317D01*
X190835Y344397D01*
X190773Y344475D01*
X190708Y344550D01*
X190640Y344623D01*
X190570Y344693D01*
X190497Y344761D01*
X190422Y344826D01*
X190344Y344888D01*
X190264Y344946D01*
X190181Y345002D01*
X190097Y345054D01*
X190010Y345104D01*
X189922Y345149D01*
X189832Y345192D01*
X189740Y345231D01*
X189647Y345266D01*
X189553Y345298D01*
X189458Y345326D01*
X189362Y345351D01*
X189264Y345372D01*
X189166Y345389D01*
X189068Y345402D01*
X188969Y345411D01*
X188869Y345417D01*
X188770Y345419D01*
X184875Y345419D01*
X184875Y350612D01*
X191366Y350612D01*
X195656Y350612D02*
X199550Y338928D01*
X203445Y350612D01*
X170642Y323942D02*
X170642Y312258D01*
X170642Y323942D02*
X173888Y323942D01*
X174001Y323940D01*
X174114Y323934D01*
X174227Y323924D01*
X174340Y323910D01*
X174452Y323893D01*
X174563Y323871D01*
X174673Y323846D01*
X174783Y323816D01*
X174891Y323783D01*
X174998Y323746D01*
X175104Y323706D01*
X175208Y323661D01*
X175311Y323613D01*
X175412Y323562D01*
X175511Y323507D01*
X175608Y323449D01*
X175703Y323387D01*
X175796Y323322D01*
X175886Y323254D01*
X175974Y323183D01*
X176060Y323108D01*
X176143Y323031D01*
X176223Y322951D01*
X176300Y322868D01*
X176375Y322782D01*
X176446Y322694D01*
X176514Y322604D01*
X176579Y322511D01*
X176641Y322416D01*
X176699Y322319D01*
X176754Y322220D01*
X176805Y322119D01*
X176853Y322016D01*
X176898Y321912D01*
X176938Y321806D01*
X176975Y321699D01*
X177008Y321591D01*
X177038Y321481D01*
X177063Y321371D01*
X177085Y321260D01*
X177102Y321148D01*
X177116Y321035D01*
X177126Y320922D01*
X177132Y320809D01*
X177134Y320696D01*
X177132Y320583D01*
X177126Y320470D01*
X177116Y320357D01*
X177102Y320244D01*
X177085Y320132D01*
X177063Y320021D01*
X177038Y319911D01*
X177008Y319801D01*
X176975Y319693D01*
X176938Y319586D01*
X176898Y319480D01*
X176853Y319376D01*
X176805Y319273D01*
X176754Y319172D01*
X176699Y319073D01*
X176641Y318976D01*
X176579Y318881D01*
X176514Y318788D01*
X176446Y318698D01*
X176375Y318610D01*
X176300Y318524D01*
X176223Y318441D01*
X176143Y318361D01*
X176060Y318284D01*
X175974Y318209D01*
X175886Y318138D01*
X175796Y318070D01*
X175703Y318005D01*
X175608Y317943D01*
X175511Y317885D01*
X175412Y317830D01*
X175311Y317779D01*
X175208Y317731D01*
X175104Y317686D01*
X174998Y317646D01*
X174891Y317609D01*
X174783Y317576D01*
X174673Y317546D01*
X174563Y317521D01*
X174452Y317499D01*
X174340Y317482D01*
X174227Y317468D01*
X174114Y317458D01*
X174001Y317452D01*
X173888Y317450D01*
X173888Y317451D02*
X170642Y317451D01*
X181522Y321346D02*
X184768Y323942D01*
X184768Y312258D01*
X188013Y312258D02*
X181522Y312258D01*
X193407Y312258D02*
X193407Y323942D01*
X196652Y323942D01*
X196765Y323940D01*
X196878Y323934D01*
X196991Y323924D01*
X197104Y323910D01*
X197216Y323893D01*
X197327Y323871D01*
X197437Y323846D01*
X197547Y323816D01*
X197655Y323783D01*
X197762Y323746D01*
X197868Y323706D01*
X197972Y323661D01*
X198075Y323613D01*
X198176Y323562D01*
X198275Y323507D01*
X198372Y323449D01*
X198467Y323387D01*
X198560Y323322D01*
X198650Y323254D01*
X198738Y323183D01*
X198824Y323108D01*
X198907Y323031D01*
X198987Y322951D01*
X199064Y322868D01*
X199139Y322782D01*
X199210Y322694D01*
X199278Y322604D01*
X199343Y322511D01*
X199405Y322416D01*
X199463Y322319D01*
X199518Y322220D01*
X199569Y322119D01*
X199617Y322016D01*
X199662Y321912D01*
X199702Y321806D01*
X199739Y321699D01*
X199772Y321591D01*
X199802Y321481D01*
X199827Y321371D01*
X199849Y321260D01*
X199866Y321148D01*
X199880Y321035D01*
X199890Y320922D01*
X199896Y320809D01*
X199898Y320696D01*
X199896Y320583D01*
X199890Y320470D01*
X199880Y320357D01*
X199866Y320244D01*
X199849Y320132D01*
X199827Y320021D01*
X199802Y319911D01*
X199772Y319801D01*
X199739Y319693D01*
X199702Y319586D01*
X199662Y319480D01*
X199617Y319376D01*
X199569Y319273D01*
X199518Y319172D01*
X199463Y319073D01*
X199405Y318976D01*
X199343Y318881D01*
X199278Y318788D01*
X199210Y318698D01*
X199139Y318610D01*
X199064Y318524D01*
X198987Y318441D01*
X198907Y318361D01*
X198824Y318284D01*
X198738Y318209D01*
X198650Y318138D01*
X198560Y318070D01*
X198467Y318005D01*
X198372Y317943D01*
X198275Y317885D01*
X198176Y317830D01*
X198075Y317779D01*
X197972Y317731D01*
X197868Y317686D01*
X197762Y317646D01*
X197655Y317609D01*
X197547Y317576D01*
X197437Y317546D01*
X197327Y317521D01*
X197216Y317499D01*
X197104Y317482D01*
X196991Y317468D01*
X196878Y317458D01*
X196765Y317452D01*
X196652Y317450D01*
X196652Y317451D02*
X193407Y317451D01*
X197301Y317451D02*
X199898Y312258D01*
X171251Y298542D02*
X171251Y286858D01*
X171251Y298542D02*
X174496Y298542D01*
X174609Y298540D01*
X174722Y298534D01*
X174835Y298524D01*
X174948Y298510D01*
X175060Y298493D01*
X175171Y298471D01*
X175281Y298446D01*
X175391Y298416D01*
X175499Y298383D01*
X175606Y298346D01*
X175712Y298306D01*
X175816Y298261D01*
X175919Y298213D01*
X176020Y298162D01*
X176119Y298107D01*
X176216Y298049D01*
X176311Y297987D01*
X176404Y297922D01*
X176494Y297854D01*
X176582Y297783D01*
X176668Y297708D01*
X176751Y297631D01*
X176831Y297551D01*
X176908Y297468D01*
X176983Y297382D01*
X177054Y297294D01*
X177122Y297204D01*
X177187Y297111D01*
X177249Y297016D01*
X177307Y296919D01*
X177362Y296820D01*
X177413Y296719D01*
X177461Y296616D01*
X177506Y296512D01*
X177546Y296406D01*
X177583Y296299D01*
X177616Y296191D01*
X177646Y296081D01*
X177671Y295971D01*
X177693Y295860D01*
X177710Y295748D01*
X177724Y295635D01*
X177734Y295522D01*
X177740Y295409D01*
X177742Y295296D01*
X177740Y295183D01*
X177734Y295070D01*
X177724Y294957D01*
X177710Y294844D01*
X177693Y294732D01*
X177671Y294621D01*
X177646Y294511D01*
X177616Y294401D01*
X177583Y294293D01*
X177546Y294186D01*
X177506Y294080D01*
X177461Y293976D01*
X177413Y293873D01*
X177362Y293772D01*
X177307Y293673D01*
X177249Y293576D01*
X177187Y293481D01*
X177122Y293388D01*
X177054Y293298D01*
X176983Y293210D01*
X176908Y293124D01*
X176831Y293041D01*
X176751Y292961D01*
X176668Y292884D01*
X176582Y292809D01*
X176494Y292738D01*
X176404Y292670D01*
X176311Y292605D01*
X176216Y292543D01*
X176119Y292485D01*
X176020Y292430D01*
X175919Y292379D01*
X175816Y292331D01*
X175712Y292286D01*
X175606Y292246D01*
X175499Y292209D01*
X175391Y292176D01*
X175281Y292146D01*
X175171Y292121D01*
X175060Y292099D01*
X174948Y292082D01*
X174835Y292068D01*
X174722Y292058D01*
X174609Y292052D01*
X174496Y292050D01*
X174496Y292051D02*
X171251Y292051D01*
X182130Y295946D02*
X185376Y298542D01*
X185376Y286858D01*
X188621Y286858D02*
X182130Y286858D01*
X196044Y286858D02*
X196044Y298542D01*
X199289Y298542D02*
X192798Y298542D01*
X170642Y273142D02*
X170642Y261458D01*
X170642Y273142D02*
X173888Y273142D01*
X174001Y273140D01*
X174114Y273134D01*
X174227Y273124D01*
X174340Y273110D01*
X174452Y273093D01*
X174563Y273071D01*
X174673Y273046D01*
X174783Y273016D01*
X174891Y272983D01*
X174998Y272946D01*
X175104Y272906D01*
X175208Y272861D01*
X175311Y272813D01*
X175412Y272762D01*
X175511Y272707D01*
X175608Y272649D01*
X175703Y272587D01*
X175796Y272522D01*
X175886Y272454D01*
X175974Y272383D01*
X176060Y272308D01*
X176143Y272231D01*
X176223Y272151D01*
X176300Y272068D01*
X176375Y271982D01*
X176446Y271894D01*
X176514Y271804D01*
X176579Y271711D01*
X176641Y271616D01*
X176699Y271519D01*
X176754Y271420D01*
X176805Y271319D01*
X176853Y271216D01*
X176898Y271112D01*
X176938Y271006D01*
X176975Y270899D01*
X177008Y270791D01*
X177038Y270681D01*
X177063Y270571D01*
X177085Y270460D01*
X177102Y270348D01*
X177116Y270235D01*
X177126Y270122D01*
X177132Y270009D01*
X177134Y269896D01*
X177132Y269783D01*
X177126Y269670D01*
X177116Y269557D01*
X177102Y269444D01*
X177085Y269332D01*
X177063Y269221D01*
X177038Y269111D01*
X177008Y269001D01*
X176975Y268893D01*
X176938Y268786D01*
X176898Y268680D01*
X176853Y268576D01*
X176805Y268473D01*
X176754Y268372D01*
X176699Y268273D01*
X176641Y268176D01*
X176579Y268081D01*
X176514Y267988D01*
X176446Y267898D01*
X176375Y267810D01*
X176300Y267724D01*
X176223Y267641D01*
X176143Y267561D01*
X176060Y267484D01*
X175974Y267409D01*
X175886Y267338D01*
X175796Y267270D01*
X175703Y267205D01*
X175608Y267143D01*
X175511Y267085D01*
X175412Y267030D01*
X175311Y266979D01*
X175208Y266931D01*
X175104Y266886D01*
X174998Y266846D01*
X174891Y266809D01*
X174783Y266776D01*
X174673Y266746D01*
X174563Y266721D01*
X174452Y266699D01*
X174340Y266682D01*
X174227Y266668D01*
X174114Y266658D01*
X174001Y266652D01*
X173888Y266650D01*
X173888Y266651D02*
X170642Y266651D01*
X185092Y273142D02*
X185199Y273140D01*
X185305Y273134D01*
X185411Y273124D01*
X185517Y273111D01*
X185623Y273093D01*
X185727Y273072D01*
X185831Y273047D01*
X185934Y273018D01*
X186035Y272986D01*
X186135Y272949D01*
X186234Y272909D01*
X186332Y272866D01*
X186428Y272819D01*
X186522Y272768D01*
X186614Y272714D01*
X186704Y272657D01*
X186792Y272597D01*
X186877Y272533D01*
X186960Y272466D01*
X187041Y272396D01*
X187119Y272324D01*
X187195Y272248D01*
X187267Y272170D01*
X187337Y272089D01*
X187404Y272006D01*
X187468Y271921D01*
X187528Y271833D01*
X187585Y271743D01*
X187639Y271651D01*
X187690Y271557D01*
X187737Y271461D01*
X187780Y271363D01*
X187820Y271264D01*
X187857Y271164D01*
X187889Y271063D01*
X187918Y270960D01*
X187943Y270856D01*
X187964Y270752D01*
X187982Y270646D01*
X187995Y270540D01*
X188005Y270434D01*
X188011Y270328D01*
X188013Y270221D01*
X185092Y273142D02*
X184971Y273140D01*
X184850Y273134D01*
X184730Y273124D01*
X184609Y273111D01*
X184490Y273093D01*
X184370Y273072D01*
X184252Y273047D01*
X184135Y273018D01*
X184018Y272985D01*
X183903Y272949D01*
X183789Y272908D01*
X183676Y272865D01*
X183564Y272817D01*
X183455Y272766D01*
X183347Y272711D01*
X183240Y272653D01*
X183136Y272592D01*
X183034Y272527D01*
X182934Y272459D01*
X182836Y272388D01*
X182740Y272314D01*
X182647Y272237D01*
X182557Y272156D01*
X182469Y272073D01*
X182384Y271987D01*
X182301Y271898D01*
X182222Y271807D01*
X182145Y271713D01*
X182072Y271617D01*
X182002Y271519D01*
X181935Y271418D01*
X181871Y271315D01*
X181811Y271210D01*
X181754Y271103D01*
X181700Y270995D01*
X181650Y270885D01*
X181604Y270773D01*
X181561Y270660D01*
X181522Y270545D01*
X187040Y267949D02*
X187119Y268026D01*
X187195Y268107D01*
X187268Y268190D01*
X187338Y268275D01*
X187405Y268363D01*
X187469Y268453D01*
X187529Y268545D01*
X187586Y268640D01*
X187640Y268736D01*
X187691Y268834D01*
X187738Y268934D01*
X187782Y269036D01*
X187822Y269139D01*
X187858Y269243D01*
X187890Y269349D01*
X187919Y269455D01*
X187944Y269563D01*
X187966Y269671D01*
X187983Y269781D01*
X187997Y269890D01*
X188006Y270000D01*
X188012Y270111D01*
X188014Y270221D01*
X187039Y267949D02*
X181522Y261458D01*
X188013Y261458D01*
X193407Y261458D02*
X193407Y273142D01*
X196652Y273142D01*
X196765Y273140D01*
X196878Y273134D01*
X196991Y273124D01*
X197104Y273110D01*
X197216Y273093D01*
X197327Y273071D01*
X197437Y273046D01*
X197547Y273016D01*
X197655Y272983D01*
X197762Y272946D01*
X197868Y272906D01*
X197972Y272861D01*
X198075Y272813D01*
X198176Y272762D01*
X198275Y272707D01*
X198372Y272649D01*
X198467Y272587D01*
X198560Y272522D01*
X198650Y272454D01*
X198738Y272383D01*
X198824Y272308D01*
X198907Y272231D01*
X198987Y272151D01*
X199064Y272068D01*
X199139Y271982D01*
X199210Y271894D01*
X199278Y271804D01*
X199343Y271711D01*
X199405Y271616D01*
X199463Y271519D01*
X199518Y271420D01*
X199569Y271319D01*
X199617Y271216D01*
X199662Y271112D01*
X199702Y271006D01*
X199739Y270899D01*
X199772Y270791D01*
X199802Y270681D01*
X199827Y270571D01*
X199849Y270460D01*
X199866Y270348D01*
X199880Y270235D01*
X199890Y270122D01*
X199896Y270009D01*
X199898Y269896D01*
X199896Y269783D01*
X199890Y269670D01*
X199880Y269557D01*
X199866Y269444D01*
X199849Y269332D01*
X199827Y269221D01*
X199802Y269111D01*
X199772Y269001D01*
X199739Y268893D01*
X199702Y268786D01*
X199662Y268680D01*
X199617Y268576D01*
X199569Y268473D01*
X199518Y268372D01*
X199463Y268273D01*
X199405Y268176D01*
X199343Y268081D01*
X199278Y267988D01*
X199210Y267898D01*
X199139Y267810D01*
X199064Y267724D01*
X198987Y267641D01*
X198907Y267561D01*
X198824Y267484D01*
X198738Y267409D01*
X198650Y267338D01*
X198560Y267270D01*
X198467Y267205D01*
X198372Y267143D01*
X198275Y267085D01*
X198176Y267030D01*
X198075Y266979D01*
X197972Y266931D01*
X197868Y266886D01*
X197762Y266846D01*
X197655Y266809D01*
X197547Y266776D01*
X197437Y266746D01*
X197327Y266721D01*
X197216Y266699D01*
X197104Y266682D01*
X196991Y266668D01*
X196878Y266658D01*
X196765Y266652D01*
X196652Y266650D01*
X196652Y266651D02*
X193407Y266651D01*
X197301Y266651D02*
X199898Y261458D01*
X171251Y196942D02*
X171251Y185258D01*
X171251Y196942D02*
X174496Y196942D01*
X174609Y196940D01*
X174722Y196934D01*
X174835Y196924D01*
X174948Y196910D01*
X175060Y196893D01*
X175171Y196871D01*
X175281Y196846D01*
X175391Y196816D01*
X175499Y196783D01*
X175606Y196746D01*
X175712Y196706D01*
X175816Y196661D01*
X175919Y196613D01*
X176020Y196562D01*
X176119Y196507D01*
X176216Y196449D01*
X176311Y196387D01*
X176404Y196322D01*
X176494Y196254D01*
X176582Y196183D01*
X176668Y196108D01*
X176751Y196031D01*
X176831Y195951D01*
X176908Y195868D01*
X176983Y195782D01*
X177054Y195694D01*
X177122Y195604D01*
X177187Y195511D01*
X177249Y195416D01*
X177307Y195319D01*
X177362Y195220D01*
X177413Y195119D01*
X177461Y195016D01*
X177506Y194912D01*
X177546Y194806D01*
X177583Y194699D01*
X177616Y194591D01*
X177646Y194481D01*
X177671Y194371D01*
X177693Y194260D01*
X177710Y194148D01*
X177724Y194035D01*
X177734Y193922D01*
X177740Y193809D01*
X177742Y193696D01*
X177740Y193583D01*
X177734Y193470D01*
X177724Y193357D01*
X177710Y193244D01*
X177693Y193132D01*
X177671Y193021D01*
X177646Y192911D01*
X177616Y192801D01*
X177583Y192693D01*
X177546Y192586D01*
X177506Y192480D01*
X177461Y192376D01*
X177413Y192273D01*
X177362Y192172D01*
X177307Y192073D01*
X177249Y191976D01*
X177187Y191881D01*
X177122Y191788D01*
X177054Y191698D01*
X176983Y191610D01*
X176908Y191524D01*
X176831Y191441D01*
X176751Y191361D01*
X176668Y191284D01*
X176582Y191209D01*
X176494Y191138D01*
X176404Y191070D01*
X176311Y191005D01*
X176216Y190943D01*
X176119Y190885D01*
X176020Y190830D01*
X175919Y190779D01*
X175816Y190731D01*
X175712Y190686D01*
X175606Y190646D01*
X175499Y190609D01*
X175391Y190576D01*
X175281Y190546D01*
X175171Y190521D01*
X175060Y190499D01*
X174948Y190482D01*
X174835Y190468D01*
X174722Y190458D01*
X174609Y190452D01*
X174496Y190450D01*
X174496Y190451D02*
X171251Y190451D01*
X185700Y196942D02*
X185807Y196940D01*
X185913Y196934D01*
X186019Y196924D01*
X186125Y196911D01*
X186231Y196893D01*
X186335Y196872D01*
X186439Y196847D01*
X186542Y196818D01*
X186643Y196786D01*
X186743Y196749D01*
X186842Y196709D01*
X186940Y196666D01*
X187036Y196619D01*
X187130Y196568D01*
X187222Y196514D01*
X187312Y196457D01*
X187400Y196397D01*
X187485Y196333D01*
X187568Y196266D01*
X187649Y196196D01*
X187727Y196124D01*
X187803Y196048D01*
X187875Y195970D01*
X187945Y195889D01*
X188012Y195806D01*
X188076Y195721D01*
X188136Y195633D01*
X188193Y195543D01*
X188247Y195451D01*
X188298Y195357D01*
X188345Y195261D01*
X188388Y195163D01*
X188428Y195064D01*
X188465Y194964D01*
X188497Y194863D01*
X188526Y194760D01*
X188551Y194656D01*
X188572Y194552D01*
X188590Y194446D01*
X188603Y194340D01*
X188613Y194234D01*
X188619Y194128D01*
X188621Y194021D01*
X185700Y196942D02*
X185579Y196940D01*
X185458Y196934D01*
X185338Y196924D01*
X185217Y196911D01*
X185098Y196893D01*
X184978Y196872D01*
X184860Y196847D01*
X184743Y196818D01*
X184626Y196785D01*
X184511Y196749D01*
X184397Y196708D01*
X184284Y196665D01*
X184172Y196617D01*
X184063Y196566D01*
X183955Y196511D01*
X183848Y196453D01*
X183744Y196392D01*
X183642Y196327D01*
X183542Y196259D01*
X183444Y196188D01*
X183348Y196114D01*
X183255Y196037D01*
X183165Y195956D01*
X183077Y195873D01*
X182992Y195787D01*
X182909Y195698D01*
X182830Y195607D01*
X182753Y195513D01*
X182680Y195417D01*
X182610Y195319D01*
X182543Y195218D01*
X182479Y195115D01*
X182419Y195010D01*
X182362Y194903D01*
X182308Y194795D01*
X182258Y194685D01*
X182212Y194573D01*
X182169Y194460D01*
X182130Y194345D01*
X187648Y191749D02*
X187727Y191826D01*
X187803Y191907D01*
X187876Y191990D01*
X187946Y192075D01*
X188013Y192163D01*
X188077Y192253D01*
X188137Y192345D01*
X188194Y192440D01*
X188248Y192536D01*
X188299Y192634D01*
X188346Y192734D01*
X188390Y192836D01*
X188430Y192939D01*
X188466Y193043D01*
X188498Y193149D01*
X188527Y193255D01*
X188552Y193363D01*
X188574Y193471D01*
X188591Y193581D01*
X188605Y193690D01*
X188614Y193800D01*
X188620Y193911D01*
X188622Y194021D01*
X187648Y191749D02*
X182130Y185258D01*
X188621Y185258D01*
X196044Y185258D02*
X196044Y196942D01*
X199289Y196942D02*
X192798Y196942D01*
X173840Y110328D02*
X170594Y110328D01*
X173840Y110328D02*
X173953Y110330D01*
X174066Y110336D01*
X174179Y110346D01*
X174292Y110360D01*
X174404Y110377D01*
X174515Y110399D01*
X174625Y110424D01*
X174735Y110454D01*
X174843Y110487D01*
X174950Y110524D01*
X175056Y110564D01*
X175160Y110609D01*
X175263Y110657D01*
X175364Y110708D01*
X175463Y110763D01*
X175560Y110821D01*
X175655Y110883D01*
X175748Y110948D01*
X175838Y111016D01*
X175926Y111087D01*
X176012Y111162D01*
X176095Y111239D01*
X176175Y111319D01*
X176252Y111402D01*
X176327Y111488D01*
X176398Y111576D01*
X176466Y111666D01*
X176531Y111759D01*
X176593Y111854D01*
X176651Y111951D01*
X176706Y112050D01*
X176757Y112151D01*
X176805Y112254D01*
X176850Y112358D01*
X176890Y112464D01*
X176927Y112571D01*
X176960Y112679D01*
X176990Y112789D01*
X177015Y112899D01*
X177037Y113010D01*
X177054Y113122D01*
X177068Y113235D01*
X177078Y113348D01*
X177084Y113461D01*
X177086Y113574D01*
X177084Y113687D01*
X177078Y113800D01*
X177068Y113913D01*
X177054Y114026D01*
X177037Y114138D01*
X177015Y114249D01*
X176990Y114359D01*
X176960Y114469D01*
X176927Y114577D01*
X176890Y114684D01*
X176850Y114790D01*
X176805Y114894D01*
X176757Y114997D01*
X176706Y115098D01*
X176651Y115197D01*
X176593Y115294D01*
X176531Y115389D01*
X176466Y115482D01*
X176398Y115572D01*
X176327Y115660D01*
X176252Y115746D01*
X176175Y115829D01*
X176095Y115909D01*
X176012Y115986D01*
X175926Y116061D01*
X175838Y116132D01*
X175748Y116200D01*
X175655Y116265D01*
X175560Y116327D01*
X175463Y116385D01*
X175364Y116440D01*
X175263Y116491D01*
X175160Y116539D01*
X175056Y116584D01*
X174950Y116624D01*
X174843Y116661D01*
X174735Y116694D01*
X174625Y116724D01*
X174515Y116749D01*
X174404Y116771D01*
X174292Y116788D01*
X174179Y116802D01*
X174066Y116812D01*
X173953Y116818D01*
X173840Y116820D01*
X174489Y122012D02*
X170594Y122012D01*
X174489Y122012D02*
X174590Y122010D01*
X174690Y122004D01*
X174790Y121994D01*
X174890Y121981D01*
X174989Y121963D01*
X175088Y121942D01*
X175185Y121917D01*
X175282Y121888D01*
X175377Y121855D01*
X175471Y121819D01*
X175563Y121779D01*
X175654Y121736D01*
X175743Y121689D01*
X175830Y121639D01*
X175916Y121585D01*
X175999Y121528D01*
X176079Y121468D01*
X176158Y121405D01*
X176234Y121338D01*
X176307Y121269D01*
X176377Y121197D01*
X176445Y121123D01*
X176510Y121046D01*
X176571Y120966D01*
X176630Y120884D01*
X176685Y120800D01*
X176737Y120714D01*
X176786Y120626D01*
X176831Y120536D01*
X176873Y120444D01*
X176911Y120351D01*
X176945Y120256D01*
X176976Y120161D01*
X177003Y120064D01*
X177026Y119966D01*
X177046Y119867D01*
X177061Y119767D01*
X177073Y119667D01*
X177081Y119567D01*
X177085Y119466D01*
X177085Y119366D01*
X177081Y119265D01*
X177073Y119165D01*
X177061Y119065D01*
X177046Y118965D01*
X177026Y118866D01*
X177003Y118768D01*
X176976Y118671D01*
X176945Y118576D01*
X176911Y118481D01*
X176873Y118388D01*
X176831Y118296D01*
X176786Y118206D01*
X176737Y118118D01*
X176685Y118032D01*
X176630Y117948D01*
X176571Y117866D01*
X176510Y117786D01*
X176445Y117709D01*
X176377Y117635D01*
X176307Y117563D01*
X176234Y117494D01*
X176158Y117427D01*
X176079Y117364D01*
X175999Y117304D01*
X175916Y117247D01*
X175830Y117193D01*
X175743Y117143D01*
X175654Y117096D01*
X175563Y117053D01*
X175471Y117013D01*
X175377Y116977D01*
X175282Y116944D01*
X175185Y116915D01*
X175088Y116890D01*
X174989Y116869D01*
X174890Y116851D01*
X174790Y116838D01*
X174690Y116828D01*
X174590Y116822D01*
X174489Y116820D01*
X174489Y116819D02*
X171893Y116819D01*
X181375Y122012D02*
X185270Y110328D01*
X189165Y122012D01*
X193454Y110328D02*
X196700Y110328D01*
X196813Y110330D01*
X196926Y110336D01*
X197039Y110346D01*
X197152Y110360D01*
X197264Y110377D01*
X197375Y110399D01*
X197485Y110424D01*
X197595Y110454D01*
X197703Y110487D01*
X197810Y110524D01*
X197916Y110564D01*
X198020Y110609D01*
X198123Y110657D01*
X198224Y110708D01*
X198323Y110763D01*
X198420Y110821D01*
X198515Y110883D01*
X198608Y110948D01*
X198698Y111016D01*
X198786Y111087D01*
X198872Y111162D01*
X198955Y111239D01*
X199035Y111319D01*
X199112Y111402D01*
X199187Y111488D01*
X199258Y111576D01*
X199326Y111666D01*
X199391Y111759D01*
X199453Y111854D01*
X199511Y111951D01*
X199566Y112050D01*
X199617Y112151D01*
X199665Y112254D01*
X199710Y112358D01*
X199750Y112464D01*
X199787Y112571D01*
X199820Y112679D01*
X199850Y112789D01*
X199875Y112899D01*
X199897Y113010D01*
X199914Y113122D01*
X199928Y113235D01*
X199938Y113348D01*
X199944Y113461D01*
X199946Y113574D01*
X199944Y113687D01*
X199938Y113800D01*
X199928Y113913D01*
X199914Y114026D01*
X199897Y114138D01*
X199875Y114249D01*
X199850Y114359D01*
X199820Y114469D01*
X199787Y114577D01*
X199750Y114684D01*
X199710Y114790D01*
X199665Y114894D01*
X199617Y114997D01*
X199566Y115098D01*
X199511Y115197D01*
X199453Y115294D01*
X199391Y115389D01*
X199326Y115482D01*
X199258Y115572D01*
X199187Y115660D01*
X199112Y115746D01*
X199035Y115829D01*
X198955Y115909D01*
X198872Y115986D01*
X198786Y116061D01*
X198698Y116132D01*
X198608Y116200D01*
X198515Y116265D01*
X198420Y116327D01*
X198323Y116385D01*
X198224Y116440D01*
X198123Y116491D01*
X198020Y116539D01*
X197916Y116584D01*
X197810Y116624D01*
X197703Y116661D01*
X197595Y116694D01*
X197485Y116724D01*
X197375Y116749D01*
X197264Y116771D01*
X197152Y116788D01*
X197039Y116802D01*
X196926Y116812D01*
X196813Y116818D01*
X196700Y116820D01*
X197349Y122012D02*
X193454Y122012D01*
X197349Y122012D02*
X197450Y122010D01*
X197550Y122004D01*
X197650Y121994D01*
X197750Y121981D01*
X197849Y121963D01*
X197948Y121942D01*
X198045Y121917D01*
X198142Y121888D01*
X198237Y121855D01*
X198331Y121819D01*
X198423Y121779D01*
X198514Y121736D01*
X198603Y121689D01*
X198690Y121639D01*
X198776Y121585D01*
X198859Y121528D01*
X198939Y121468D01*
X199018Y121405D01*
X199094Y121338D01*
X199167Y121269D01*
X199237Y121197D01*
X199305Y121123D01*
X199370Y121046D01*
X199431Y120966D01*
X199490Y120884D01*
X199545Y120800D01*
X199597Y120714D01*
X199646Y120626D01*
X199691Y120536D01*
X199733Y120444D01*
X199771Y120351D01*
X199805Y120256D01*
X199836Y120161D01*
X199863Y120064D01*
X199886Y119966D01*
X199906Y119867D01*
X199921Y119767D01*
X199933Y119667D01*
X199941Y119567D01*
X199945Y119466D01*
X199945Y119366D01*
X199941Y119265D01*
X199933Y119165D01*
X199921Y119065D01*
X199906Y118965D01*
X199886Y118866D01*
X199863Y118768D01*
X199836Y118671D01*
X199805Y118576D01*
X199771Y118481D01*
X199733Y118388D01*
X199691Y118296D01*
X199646Y118206D01*
X199597Y118118D01*
X199545Y118032D01*
X199490Y117948D01*
X199431Y117866D01*
X199370Y117786D01*
X199305Y117709D01*
X199237Y117635D01*
X199167Y117563D01*
X199094Y117494D01*
X199018Y117427D01*
X198939Y117364D01*
X198859Y117304D01*
X198776Y117247D01*
X198690Y117193D01*
X198603Y117143D01*
X198514Y117096D01*
X198423Y117053D01*
X198331Y117013D01*
X198237Y116977D01*
X198142Y116944D01*
X198045Y116915D01*
X197948Y116890D01*
X197849Y116869D01*
X197750Y116851D01*
X197650Y116838D01*
X197550Y116828D01*
X197450Y116822D01*
X197349Y116820D01*
X197349Y116819D02*
X194753Y116819D01*
X176324Y92689D02*
X174376Y92689D01*
X176324Y92689D02*
X176324Y86198D01*
X172429Y86198D01*
X172330Y86200D01*
X172230Y86206D01*
X172131Y86215D01*
X172033Y86228D01*
X171935Y86245D01*
X171837Y86266D01*
X171741Y86291D01*
X171646Y86319D01*
X171552Y86351D01*
X171459Y86386D01*
X171367Y86425D01*
X171277Y86468D01*
X171189Y86513D01*
X171102Y86563D01*
X171018Y86615D01*
X170935Y86671D01*
X170855Y86729D01*
X170777Y86791D01*
X170702Y86856D01*
X170629Y86924D01*
X170559Y86994D01*
X170491Y87067D01*
X170426Y87142D01*
X170364Y87220D01*
X170306Y87300D01*
X170250Y87383D01*
X170198Y87467D01*
X170148Y87554D01*
X170103Y87642D01*
X170060Y87732D01*
X170021Y87824D01*
X169986Y87917D01*
X169954Y88011D01*
X169926Y88106D01*
X169901Y88202D01*
X169880Y88300D01*
X169863Y88398D01*
X169850Y88496D01*
X169841Y88595D01*
X169835Y88695D01*
X169833Y88794D01*
X169833Y95286D01*
X169835Y95385D01*
X169841Y95485D01*
X169850Y95584D01*
X169863Y95682D01*
X169880Y95780D01*
X169901Y95878D01*
X169926Y95974D01*
X169954Y96069D01*
X169986Y96163D01*
X170021Y96256D01*
X170060Y96348D01*
X170103Y96438D01*
X170148Y96526D01*
X170198Y96613D01*
X170250Y96697D01*
X170306Y96780D01*
X170364Y96860D01*
X170426Y96938D01*
X170491Y97013D01*
X170559Y97086D01*
X170629Y97156D01*
X170702Y97224D01*
X170777Y97289D01*
X170855Y97351D01*
X170935Y97409D01*
X171018Y97465D01*
X171102Y97517D01*
X171189Y97567D01*
X171277Y97612D01*
X171367Y97655D01*
X171459Y97694D01*
X171551Y97729D01*
X171646Y97761D01*
X171741Y97789D01*
X171837Y97814D01*
X171935Y97835D01*
X172033Y97852D01*
X172131Y97865D01*
X172230Y97874D01*
X172330Y97880D01*
X172429Y97882D01*
X176324Y97882D01*
X182024Y97882D02*
X182024Y86198D01*
X188516Y86198D02*
X182024Y97882D01*
X188516Y97882D02*
X188516Y86198D01*
X194216Y86198D02*
X194216Y97882D01*
X197462Y97882D01*
X197575Y97880D01*
X197688Y97874D01*
X197801Y97864D01*
X197914Y97850D01*
X198026Y97833D01*
X198137Y97811D01*
X198247Y97786D01*
X198357Y97756D01*
X198465Y97723D01*
X198572Y97686D01*
X198678Y97646D01*
X198782Y97601D01*
X198885Y97553D01*
X198986Y97502D01*
X199085Y97447D01*
X199182Y97389D01*
X199277Y97327D01*
X199370Y97262D01*
X199460Y97194D01*
X199548Y97123D01*
X199634Y97048D01*
X199717Y96971D01*
X199797Y96891D01*
X199874Y96808D01*
X199949Y96722D01*
X200020Y96634D01*
X200088Y96544D01*
X200153Y96451D01*
X200215Y96356D01*
X200273Y96259D01*
X200328Y96160D01*
X200379Y96059D01*
X200427Y95956D01*
X200472Y95852D01*
X200512Y95746D01*
X200549Y95639D01*
X200582Y95531D01*
X200612Y95421D01*
X200637Y95311D01*
X200659Y95200D01*
X200676Y95088D01*
X200690Y94975D01*
X200700Y94862D01*
X200706Y94749D01*
X200708Y94636D01*
X200708Y89444D01*
X200706Y89331D01*
X200700Y89218D01*
X200690Y89105D01*
X200676Y88992D01*
X200659Y88880D01*
X200637Y88769D01*
X200612Y88659D01*
X200582Y88549D01*
X200549Y88441D01*
X200512Y88334D01*
X200472Y88228D01*
X200427Y88124D01*
X200379Y88021D01*
X200328Y87920D01*
X200273Y87821D01*
X200215Y87724D01*
X200153Y87629D01*
X200088Y87536D01*
X200020Y87446D01*
X199949Y87358D01*
X199874Y87272D01*
X199797Y87189D01*
X199717Y87109D01*
X199634Y87032D01*
X199548Y86957D01*
X199460Y86886D01*
X199370Y86818D01*
X199277Y86753D01*
X199182Y86691D01*
X199085Y86633D01*
X198986Y86578D01*
X198885Y86527D01*
X198782Y86479D01*
X198678Y86434D01*
X198572Y86394D01*
X198465Y86357D01*
X198357Y86324D01*
X198247Y86294D01*
X198137Y86269D01*
X198026Y86247D01*
X197914Y86230D01*
X197801Y86216D01*
X197688Y86206D01*
X197575Y86200D01*
X197462Y86198D01*
X194216Y86198D01*
D11*
X213360Y327660D02*
X205740Y336550D01*
X213360Y354330D02*
X205740Y363220D01*
X205740Y311150D02*
X213360Y302260D01*
X205740Y285750D02*
X213360Y276860D01*
X204470Y259080D02*
X212090Y250190D01*
X212090Y208280D02*
X203200Y200660D01*
X212090Y132080D02*
X203200Y124460D01*
X212090Y106680D02*
X203200Y99060D01*
D10*
X-194516Y369549D02*
X-196464Y369549D01*
X-194516Y369549D02*
X-194516Y363058D01*
X-198411Y363058D01*
X-198510Y363060D01*
X-198610Y363066D01*
X-198709Y363075D01*
X-198807Y363088D01*
X-198905Y363105D01*
X-199003Y363126D01*
X-199099Y363151D01*
X-199194Y363179D01*
X-199288Y363211D01*
X-199381Y363246D01*
X-199473Y363285D01*
X-199563Y363328D01*
X-199651Y363373D01*
X-199738Y363423D01*
X-199822Y363475D01*
X-199905Y363531D01*
X-199985Y363589D01*
X-200063Y363651D01*
X-200138Y363716D01*
X-200211Y363784D01*
X-200281Y363854D01*
X-200349Y363927D01*
X-200414Y364002D01*
X-200476Y364080D01*
X-200534Y364160D01*
X-200590Y364243D01*
X-200642Y364327D01*
X-200692Y364414D01*
X-200737Y364502D01*
X-200780Y364592D01*
X-200819Y364684D01*
X-200854Y364777D01*
X-200886Y364871D01*
X-200914Y364966D01*
X-200939Y365062D01*
X-200960Y365160D01*
X-200977Y365258D01*
X-200990Y365356D01*
X-200999Y365455D01*
X-201005Y365555D01*
X-201007Y365654D01*
X-201008Y365654D02*
X-201008Y372146D01*
X-201007Y372146D02*
X-201005Y372245D01*
X-200999Y372345D01*
X-200990Y372444D01*
X-200977Y372542D01*
X-200960Y372640D01*
X-200939Y372738D01*
X-200914Y372834D01*
X-200886Y372929D01*
X-200854Y373023D01*
X-200819Y373116D01*
X-200780Y373208D01*
X-200737Y373298D01*
X-200692Y373386D01*
X-200642Y373473D01*
X-200590Y373557D01*
X-200534Y373640D01*
X-200476Y373720D01*
X-200414Y373798D01*
X-200349Y373873D01*
X-200281Y373946D01*
X-200211Y374016D01*
X-200138Y374084D01*
X-200063Y374149D01*
X-199985Y374211D01*
X-199905Y374269D01*
X-199822Y374325D01*
X-199738Y374377D01*
X-199651Y374427D01*
X-199563Y374472D01*
X-199473Y374515D01*
X-199381Y374554D01*
X-199288Y374589D01*
X-199194Y374621D01*
X-199099Y374649D01*
X-199003Y374674D01*
X-198905Y374695D01*
X-198807Y374712D01*
X-198709Y374725D01*
X-198610Y374734D01*
X-198510Y374740D01*
X-198411Y374742D01*
X-194516Y374742D01*
X-188816Y374742D02*
X-188816Y363058D01*
X-182324Y363058D02*
X-188816Y374742D01*
X-182324Y374742D02*
X-182324Y363058D01*
X-176624Y363058D02*
X-176624Y374742D01*
X-173378Y374742D01*
X-173265Y374740D01*
X-173152Y374734D01*
X-173039Y374724D01*
X-172926Y374710D01*
X-172814Y374693D01*
X-172703Y374671D01*
X-172593Y374646D01*
X-172483Y374616D01*
X-172375Y374583D01*
X-172268Y374546D01*
X-172162Y374506D01*
X-172058Y374461D01*
X-171955Y374413D01*
X-171854Y374362D01*
X-171755Y374307D01*
X-171658Y374249D01*
X-171563Y374187D01*
X-171470Y374122D01*
X-171380Y374054D01*
X-171292Y373983D01*
X-171206Y373908D01*
X-171123Y373831D01*
X-171043Y373751D01*
X-170966Y373668D01*
X-170891Y373582D01*
X-170820Y373494D01*
X-170752Y373404D01*
X-170687Y373311D01*
X-170625Y373216D01*
X-170567Y373119D01*
X-170512Y373020D01*
X-170461Y372919D01*
X-170413Y372816D01*
X-170368Y372712D01*
X-170328Y372606D01*
X-170291Y372499D01*
X-170258Y372391D01*
X-170228Y372281D01*
X-170203Y372171D01*
X-170181Y372060D01*
X-170164Y371948D01*
X-170150Y371835D01*
X-170140Y371722D01*
X-170134Y371609D01*
X-170132Y371496D01*
X-170132Y366304D01*
X-170134Y366191D01*
X-170140Y366078D01*
X-170150Y365965D01*
X-170164Y365852D01*
X-170181Y365740D01*
X-170203Y365629D01*
X-170228Y365519D01*
X-170258Y365409D01*
X-170291Y365301D01*
X-170328Y365194D01*
X-170368Y365088D01*
X-170413Y364984D01*
X-170461Y364881D01*
X-170512Y364780D01*
X-170567Y364681D01*
X-170625Y364584D01*
X-170687Y364489D01*
X-170752Y364396D01*
X-170820Y364306D01*
X-170891Y364218D01*
X-170966Y364132D01*
X-171043Y364049D01*
X-171123Y363969D01*
X-171206Y363892D01*
X-171292Y363817D01*
X-171380Y363746D01*
X-171470Y363678D01*
X-171563Y363613D01*
X-171658Y363551D01*
X-171755Y363493D01*
X-171854Y363438D01*
X-171955Y363387D01*
X-172058Y363339D01*
X-172162Y363294D01*
X-172268Y363254D01*
X-172375Y363217D01*
X-172483Y363184D01*
X-172593Y363154D01*
X-172703Y363129D01*
X-172814Y363107D01*
X-172926Y363090D01*
X-173039Y363076D01*
X-173152Y363066D01*
X-173265Y363060D01*
X-173378Y363058D01*
X-176624Y363058D01*
X-194770Y336388D02*
X-198665Y336388D01*
X-194770Y336388D02*
X-194671Y336390D01*
X-194571Y336396D01*
X-194472Y336405D01*
X-194374Y336418D01*
X-194276Y336435D01*
X-194178Y336456D01*
X-194082Y336481D01*
X-193987Y336509D01*
X-193893Y336541D01*
X-193800Y336576D01*
X-193708Y336615D01*
X-193618Y336658D01*
X-193530Y336703D01*
X-193443Y336753D01*
X-193359Y336805D01*
X-193276Y336861D01*
X-193196Y336919D01*
X-193118Y336981D01*
X-193043Y337046D01*
X-192970Y337114D01*
X-192900Y337184D01*
X-192832Y337257D01*
X-192767Y337332D01*
X-192705Y337410D01*
X-192647Y337490D01*
X-192591Y337573D01*
X-192539Y337657D01*
X-192489Y337744D01*
X-192444Y337832D01*
X-192401Y337922D01*
X-192362Y338014D01*
X-192327Y338107D01*
X-192295Y338201D01*
X-192267Y338296D01*
X-192242Y338392D01*
X-192221Y338490D01*
X-192204Y338588D01*
X-192191Y338686D01*
X-192182Y338785D01*
X-192176Y338885D01*
X-192174Y338984D01*
X-192174Y340283D01*
X-192176Y340382D01*
X-192182Y340482D01*
X-192191Y340581D01*
X-192204Y340679D01*
X-192221Y340777D01*
X-192242Y340875D01*
X-192267Y340971D01*
X-192295Y341066D01*
X-192327Y341160D01*
X-192362Y341253D01*
X-192401Y341345D01*
X-192444Y341435D01*
X-192489Y341523D01*
X-192539Y341610D01*
X-192591Y341694D01*
X-192647Y341777D01*
X-192705Y341857D01*
X-192767Y341935D01*
X-192832Y342010D01*
X-192900Y342083D01*
X-192970Y342153D01*
X-193043Y342221D01*
X-193118Y342286D01*
X-193196Y342348D01*
X-193276Y342406D01*
X-193359Y342462D01*
X-193443Y342514D01*
X-193530Y342564D01*
X-193618Y342609D01*
X-193708Y342652D01*
X-193800Y342691D01*
X-193893Y342726D01*
X-193987Y342758D01*
X-194082Y342786D01*
X-194178Y342811D01*
X-194276Y342832D01*
X-194374Y342849D01*
X-194472Y342862D01*
X-194571Y342871D01*
X-194671Y342877D01*
X-194770Y342879D01*
X-198665Y342879D01*
X-198665Y348072D01*
X-192174Y348072D01*
X-187884Y348072D02*
X-183990Y336388D01*
X-180095Y348072D01*
X-201468Y322672D02*
X-201468Y310988D01*
X-201468Y322672D02*
X-198222Y322672D01*
X-198109Y322670D01*
X-197996Y322664D01*
X-197883Y322654D01*
X-197770Y322640D01*
X-197658Y322623D01*
X-197547Y322601D01*
X-197437Y322576D01*
X-197327Y322546D01*
X-197219Y322513D01*
X-197112Y322476D01*
X-197006Y322436D01*
X-196902Y322391D01*
X-196799Y322343D01*
X-196698Y322292D01*
X-196599Y322237D01*
X-196502Y322179D01*
X-196407Y322117D01*
X-196314Y322052D01*
X-196224Y321984D01*
X-196136Y321913D01*
X-196050Y321838D01*
X-195967Y321761D01*
X-195887Y321681D01*
X-195810Y321598D01*
X-195735Y321512D01*
X-195664Y321424D01*
X-195596Y321334D01*
X-195531Y321241D01*
X-195469Y321146D01*
X-195411Y321049D01*
X-195356Y320950D01*
X-195305Y320849D01*
X-195257Y320746D01*
X-195212Y320642D01*
X-195172Y320536D01*
X-195135Y320429D01*
X-195102Y320321D01*
X-195072Y320211D01*
X-195047Y320101D01*
X-195025Y319990D01*
X-195008Y319878D01*
X-194994Y319765D01*
X-194984Y319652D01*
X-194978Y319539D01*
X-194976Y319426D01*
X-194978Y319313D01*
X-194984Y319200D01*
X-194994Y319087D01*
X-195008Y318974D01*
X-195025Y318862D01*
X-195047Y318751D01*
X-195072Y318641D01*
X-195102Y318531D01*
X-195135Y318423D01*
X-195172Y318316D01*
X-195212Y318210D01*
X-195257Y318106D01*
X-195305Y318003D01*
X-195356Y317902D01*
X-195411Y317803D01*
X-195469Y317706D01*
X-195531Y317611D01*
X-195596Y317518D01*
X-195664Y317428D01*
X-195735Y317340D01*
X-195810Y317254D01*
X-195887Y317171D01*
X-195967Y317091D01*
X-196050Y317014D01*
X-196136Y316939D01*
X-196224Y316868D01*
X-196314Y316800D01*
X-196407Y316735D01*
X-196502Y316673D01*
X-196599Y316615D01*
X-196698Y316560D01*
X-196799Y316509D01*
X-196902Y316461D01*
X-197006Y316416D01*
X-197112Y316376D01*
X-197219Y316339D01*
X-197327Y316306D01*
X-197437Y316276D01*
X-197547Y316251D01*
X-197658Y316229D01*
X-197770Y316212D01*
X-197883Y316198D01*
X-197996Y316188D01*
X-198109Y316182D01*
X-198222Y316180D01*
X-198222Y316181D02*
X-201468Y316181D01*
X-190588Y317479D02*
X-186693Y317479D01*
X-186594Y317477D01*
X-186494Y317471D01*
X-186395Y317462D01*
X-186297Y317449D01*
X-186199Y317432D01*
X-186101Y317411D01*
X-186005Y317386D01*
X-185910Y317358D01*
X-185816Y317326D01*
X-185723Y317291D01*
X-185631Y317252D01*
X-185541Y317209D01*
X-185453Y317164D01*
X-185366Y317114D01*
X-185282Y317062D01*
X-185199Y317006D01*
X-185119Y316948D01*
X-185041Y316886D01*
X-184966Y316821D01*
X-184893Y316753D01*
X-184823Y316683D01*
X-184755Y316610D01*
X-184690Y316535D01*
X-184628Y316457D01*
X-184570Y316377D01*
X-184514Y316294D01*
X-184462Y316210D01*
X-184412Y316123D01*
X-184367Y316035D01*
X-184324Y315945D01*
X-184285Y315853D01*
X-184250Y315760D01*
X-184218Y315666D01*
X-184190Y315571D01*
X-184165Y315475D01*
X-184144Y315377D01*
X-184127Y315279D01*
X-184114Y315181D01*
X-184105Y315082D01*
X-184099Y314982D01*
X-184097Y314883D01*
X-184097Y314234D01*
X-184096Y314234D02*
X-184098Y314121D01*
X-184104Y314008D01*
X-184114Y313895D01*
X-184128Y313782D01*
X-184145Y313670D01*
X-184167Y313559D01*
X-184192Y313449D01*
X-184222Y313339D01*
X-184255Y313231D01*
X-184292Y313124D01*
X-184332Y313018D01*
X-184377Y312914D01*
X-184425Y312811D01*
X-184476Y312710D01*
X-184531Y312611D01*
X-184589Y312514D01*
X-184651Y312419D01*
X-184716Y312326D01*
X-184784Y312236D01*
X-184855Y312148D01*
X-184930Y312062D01*
X-185007Y311979D01*
X-185087Y311899D01*
X-185170Y311822D01*
X-185256Y311747D01*
X-185344Y311676D01*
X-185434Y311608D01*
X-185527Y311543D01*
X-185622Y311481D01*
X-185719Y311423D01*
X-185818Y311368D01*
X-185919Y311317D01*
X-186022Y311269D01*
X-186126Y311224D01*
X-186232Y311184D01*
X-186339Y311147D01*
X-186447Y311114D01*
X-186557Y311084D01*
X-186667Y311059D01*
X-186778Y311037D01*
X-186890Y311020D01*
X-187003Y311006D01*
X-187116Y310996D01*
X-187229Y310990D01*
X-187342Y310988D01*
X-187455Y310990D01*
X-187568Y310996D01*
X-187681Y311006D01*
X-187794Y311020D01*
X-187906Y311037D01*
X-188017Y311059D01*
X-188127Y311084D01*
X-188237Y311114D01*
X-188345Y311147D01*
X-188452Y311184D01*
X-188558Y311224D01*
X-188662Y311269D01*
X-188765Y311317D01*
X-188866Y311368D01*
X-188965Y311423D01*
X-189062Y311481D01*
X-189157Y311543D01*
X-189250Y311608D01*
X-189340Y311676D01*
X-189428Y311747D01*
X-189514Y311822D01*
X-189597Y311899D01*
X-189677Y311979D01*
X-189754Y312062D01*
X-189829Y312148D01*
X-189900Y312236D01*
X-189968Y312326D01*
X-190033Y312419D01*
X-190095Y312514D01*
X-190153Y312611D01*
X-190208Y312710D01*
X-190259Y312811D01*
X-190307Y312914D01*
X-190352Y313018D01*
X-190392Y313124D01*
X-190429Y313231D01*
X-190462Y313339D01*
X-190492Y313449D01*
X-190517Y313559D01*
X-190539Y313670D01*
X-190556Y313782D01*
X-190570Y313895D01*
X-190580Y314008D01*
X-190586Y314121D01*
X-190588Y314234D01*
X-190588Y317479D01*
X-190586Y317622D01*
X-190580Y317765D01*
X-190570Y317908D01*
X-190556Y318050D01*
X-190539Y318192D01*
X-190517Y318334D01*
X-190492Y318475D01*
X-190462Y318615D01*
X-190429Y318754D01*
X-190392Y318892D01*
X-190351Y319029D01*
X-190307Y319165D01*
X-190258Y319300D01*
X-190206Y319433D01*
X-190151Y319565D01*
X-190091Y319695D01*
X-190028Y319824D01*
X-189962Y319951D01*
X-189892Y320076D01*
X-189819Y320198D01*
X-189742Y320319D01*
X-189662Y320438D01*
X-189579Y320554D01*
X-189493Y320669D01*
X-189404Y320780D01*
X-189311Y320890D01*
X-189216Y320996D01*
X-189117Y321100D01*
X-189016Y321201D01*
X-188912Y321300D01*
X-188806Y321395D01*
X-188696Y321488D01*
X-188585Y321577D01*
X-188470Y321663D01*
X-188354Y321746D01*
X-188235Y321826D01*
X-188114Y321903D01*
X-187992Y321976D01*
X-187867Y322046D01*
X-187740Y322112D01*
X-187611Y322175D01*
X-187481Y322235D01*
X-187349Y322290D01*
X-187216Y322342D01*
X-187081Y322391D01*
X-186945Y322435D01*
X-186808Y322476D01*
X-186670Y322513D01*
X-186531Y322546D01*
X-186391Y322576D01*
X-186250Y322601D01*
X-186108Y322623D01*
X-185966Y322640D01*
X-185824Y322654D01*
X-185681Y322664D01*
X-185538Y322670D01*
X-185395Y322672D01*
X-178703Y322672D02*
X-178703Y310988D01*
X-178703Y322672D02*
X-175458Y322672D01*
X-175345Y322670D01*
X-175232Y322664D01*
X-175119Y322654D01*
X-175006Y322640D01*
X-174894Y322623D01*
X-174783Y322601D01*
X-174673Y322576D01*
X-174563Y322546D01*
X-174455Y322513D01*
X-174348Y322476D01*
X-174242Y322436D01*
X-174138Y322391D01*
X-174035Y322343D01*
X-173934Y322292D01*
X-173835Y322237D01*
X-173738Y322179D01*
X-173643Y322117D01*
X-173550Y322052D01*
X-173460Y321984D01*
X-173372Y321913D01*
X-173286Y321838D01*
X-173203Y321761D01*
X-173123Y321681D01*
X-173046Y321598D01*
X-172971Y321512D01*
X-172900Y321424D01*
X-172832Y321334D01*
X-172767Y321241D01*
X-172705Y321146D01*
X-172647Y321049D01*
X-172592Y320950D01*
X-172541Y320849D01*
X-172493Y320746D01*
X-172448Y320642D01*
X-172408Y320536D01*
X-172371Y320429D01*
X-172338Y320321D01*
X-172308Y320211D01*
X-172283Y320101D01*
X-172261Y319990D01*
X-172244Y319878D01*
X-172230Y319765D01*
X-172220Y319652D01*
X-172214Y319539D01*
X-172212Y319426D01*
X-172214Y319313D01*
X-172220Y319200D01*
X-172230Y319087D01*
X-172244Y318974D01*
X-172261Y318862D01*
X-172283Y318751D01*
X-172308Y318641D01*
X-172338Y318531D01*
X-172371Y318423D01*
X-172408Y318316D01*
X-172448Y318210D01*
X-172493Y318106D01*
X-172541Y318003D01*
X-172592Y317902D01*
X-172647Y317803D01*
X-172705Y317706D01*
X-172767Y317611D01*
X-172832Y317518D01*
X-172900Y317428D01*
X-172971Y317340D01*
X-173046Y317254D01*
X-173123Y317171D01*
X-173203Y317091D01*
X-173286Y317014D01*
X-173372Y316939D01*
X-173460Y316868D01*
X-173550Y316800D01*
X-173643Y316735D01*
X-173738Y316673D01*
X-173835Y316615D01*
X-173934Y316560D01*
X-174035Y316509D01*
X-174138Y316461D01*
X-174242Y316416D01*
X-174348Y316376D01*
X-174455Y316339D01*
X-174563Y316306D01*
X-174673Y316276D01*
X-174783Y316251D01*
X-174894Y316229D01*
X-175006Y316212D01*
X-175119Y316198D01*
X-175232Y316188D01*
X-175345Y316182D01*
X-175458Y316180D01*
X-175458Y316181D02*
X-178703Y316181D01*
X-174809Y316181D02*
X-172212Y310988D01*
X-200859Y297272D02*
X-200859Y285588D01*
X-200859Y297272D02*
X-197614Y297272D01*
X-197501Y297270D01*
X-197388Y297264D01*
X-197275Y297254D01*
X-197162Y297240D01*
X-197050Y297223D01*
X-196939Y297201D01*
X-196829Y297176D01*
X-196719Y297146D01*
X-196611Y297113D01*
X-196504Y297076D01*
X-196398Y297036D01*
X-196294Y296991D01*
X-196191Y296943D01*
X-196090Y296892D01*
X-195991Y296837D01*
X-195894Y296779D01*
X-195799Y296717D01*
X-195706Y296652D01*
X-195616Y296584D01*
X-195528Y296513D01*
X-195442Y296438D01*
X-195359Y296361D01*
X-195279Y296281D01*
X-195202Y296198D01*
X-195127Y296112D01*
X-195056Y296024D01*
X-194988Y295934D01*
X-194923Y295841D01*
X-194861Y295746D01*
X-194803Y295649D01*
X-194748Y295550D01*
X-194697Y295449D01*
X-194649Y295346D01*
X-194604Y295242D01*
X-194564Y295136D01*
X-194527Y295029D01*
X-194494Y294921D01*
X-194464Y294811D01*
X-194439Y294701D01*
X-194417Y294590D01*
X-194400Y294478D01*
X-194386Y294365D01*
X-194376Y294252D01*
X-194370Y294139D01*
X-194368Y294026D01*
X-194370Y293913D01*
X-194376Y293800D01*
X-194386Y293687D01*
X-194400Y293574D01*
X-194417Y293462D01*
X-194439Y293351D01*
X-194464Y293241D01*
X-194494Y293131D01*
X-194527Y293023D01*
X-194564Y292916D01*
X-194604Y292810D01*
X-194649Y292706D01*
X-194697Y292603D01*
X-194748Y292502D01*
X-194803Y292403D01*
X-194861Y292306D01*
X-194923Y292211D01*
X-194988Y292118D01*
X-195056Y292028D01*
X-195127Y291940D01*
X-195202Y291854D01*
X-195279Y291771D01*
X-195359Y291691D01*
X-195442Y291614D01*
X-195528Y291539D01*
X-195616Y291468D01*
X-195706Y291400D01*
X-195799Y291335D01*
X-195894Y291273D01*
X-195991Y291215D01*
X-196090Y291160D01*
X-196191Y291109D01*
X-196294Y291061D01*
X-196398Y291016D01*
X-196504Y290976D01*
X-196611Y290939D01*
X-196719Y290906D01*
X-196829Y290876D01*
X-196939Y290851D01*
X-197050Y290829D01*
X-197162Y290812D01*
X-197275Y290798D01*
X-197388Y290788D01*
X-197501Y290782D01*
X-197614Y290780D01*
X-197614Y290781D02*
X-200859Y290781D01*
X-189980Y292079D02*
X-186085Y292079D01*
X-185986Y292077D01*
X-185886Y292071D01*
X-185787Y292062D01*
X-185689Y292049D01*
X-185591Y292032D01*
X-185493Y292011D01*
X-185397Y291986D01*
X-185302Y291958D01*
X-185208Y291926D01*
X-185115Y291891D01*
X-185023Y291852D01*
X-184933Y291809D01*
X-184845Y291764D01*
X-184758Y291714D01*
X-184674Y291662D01*
X-184591Y291606D01*
X-184511Y291548D01*
X-184433Y291486D01*
X-184358Y291421D01*
X-184285Y291353D01*
X-184215Y291283D01*
X-184147Y291210D01*
X-184082Y291135D01*
X-184020Y291057D01*
X-183962Y290977D01*
X-183906Y290894D01*
X-183854Y290810D01*
X-183804Y290723D01*
X-183759Y290635D01*
X-183716Y290545D01*
X-183677Y290453D01*
X-183642Y290360D01*
X-183610Y290266D01*
X-183582Y290171D01*
X-183557Y290075D01*
X-183536Y289977D01*
X-183519Y289879D01*
X-183506Y289781D01*
X-183497Y289682D01*
X-183491Y289582D01*
X-183489Y289483D01*
X-183489Y288834D01*
X-183488Y288834D02*
X-183490Y288721D01*
X-183496Y288608D01*
X-183506Y288495D01*
X-183520Y288382D01*
X-183537Y288270D01*
X-183559Y288159D01*
X-183584Y288049D01*
X-183614Y287939D01*
X-183647Y287831D01*
X-183684Y287724D01*
X-183724Y287618D01*
X-183769Y287514D01*
X-183817Y287411D01*
X-183868Y287310D01*
X-183923Y287211D01*
X-183981Y287114D01*
X-184043Y287019D01*
X-184108Y286926D01*
X-184176Y286836D01*
X-184247Y286748D01*
X-184322Y286662D01*
X-184399Y286579D01*
X-184479Y286499D01*
X-184562Y286422D01*
X-184648Y286347D01*
X-184736Y286276D01*
X-184826Y286208D01*
X-184919Y286143D01*
X-185014Y286081D01*
X-185111Y286023D01*
X-185210Y285968D01*
X-185311Y285917D01*
X-185414Y285869D01*
X-185518Y285824D01*
X-185624Y285784D01*
X-185731Y285747D01*
X-185839Y285714D01*
X-185949Y285684D01*
X-186059Y285659D01*
X-186170Y285637D01*
X-186282Y285620D01*
X-186395Y285606D01*
X-186508Y285596D01*
X-186621Y285590D01*
X-186734Y285588D01*
X-186847Y285590D01*
X-186960Y285596D01*
X-187073Y285606D01*
X-187186Y285620D01*
X-187298Y285637D01*
X-187409Y285659D01*
X-187519Y285684D01*
X-187629Y285714D01*
X-187737Y285747D01*
X-187844Y285784D01*
X-187950Y285824D01*
X-188054Y285869D01*
X-188157Y285917D01*
X-188258Y285968D01*
X-188357Y286023D01*
X-188454Y286081D01*
X-188549Y286143D01*
X-188642Y286208D01*
X-188732Y286276D01*
X-188820Y286347D01*
X-188906Y286422D01*
X-188989Y286499D01*
X-189069Y286579D01*
X-189146Y286662D01*
X-189221Y286748D01*
X-189292Y286836D01*
X-189360Y286926D01*
X-189425Y287019D01*
X-189487Y287114D01*
X-189545Y287211D01*
X-189600Y287310D01*
X-189651Y287411D01*
X-189699Y287514D01*
X-189744Y287618D01*
X-189784Y287724D01*
X-189821Y287831D01*
X-189854Y287939D01*
X-189884Y288049D01*
X-189909Y288159D01*
X-189931Y288270D01*
X-189948Y288382D01*
X-189962Y288495D01*
X-189972Y288608D01*
X-189978Y288721D01*
X-189980Y288834D01*
X-189980Y292079D01*
X-189978Y292222D01*
X-189972Y292365D01*
X-189962Y292508D01*
X-189948Y292650D01*
X-189931Y292792D01*
X-189909Y292934D01*
X-189884Y293075D01*
X-189854Y293215D01*
X-189821Y293354D01*
X-189784Y293492D01*
X-189743Y293629D01*
X-189699Y293765D01*
X-189650Y293900D01*
X-189598Y294033D01*
X-189543Y294165D01*
X-189483Y294295D01*
X-189420Y294424D01*
X-189354Y294551D01*
X-189284Y294676D01*
X-189211Y294798D01*
X-189134Y294919D01*
X-189054Y295038D01*
X-188971Y295154D01*
X-188885Y295269D01*
X-188796Y295380D01*
X-188703Y295490D01*
X-188608Y295596D01*
X-188509Y295700D01*
X-188408Y295801D01*
X-188304Y295900D01*
X-188198Y295995D01*
X-188088Y296088D01*
X-187977Y296177D01*
X-187862Y296263D01*
X-187746Y296346D01*
X-187627Y296426D01*
X-187506Y296503D01*
X-187384Y296576D01*
X-187259Y296646D01*
X-187132Y296712D01*
X-187003Y296775D01*
X-186873Y296835D01*
X-186741Y296890D01*
X-186608Y296942D01*
X-186473Y296991D01*
X-186337Y297035D01*
X-186200Y297076D01*
X-186062Y297113D01*
X-185923Y297146D01*
X-185783Y297176D01*
X-185642Y297201D01*
X-185500Y297223D01*
X-185358Y297240D01*
X-185216Y297254D01*
X-185073Y297264D01*
X-184930Y297270D01*
X-184787Y297272D01*
X-176066Y297272D02*
X-176066Y285588D01*
X-179312Y297272D02*
X-172821Y297272D01*
X-201468Y271872D02*
X-201468Y260188D01*
X-201468Y271872D02*
X-198222Y271872D01*
X-198109Y271870D01*
X-197996Y271864D01*
X-197883Y271854D01*
X-197770Y271840D01*
X-197658Y271823D01*
X-197547Y271801D01*
X-197437Y271776D01*
X-197327Y271746D01*
X-197219Y271713D01*
X-197112Y271676D01*
X-197006Y271636D01*
X-196902Y271591D01*
X-196799Y271543D01*
X-196698Y271492D01*
X-196599Y271437D01*
X-196502Y271379D01*
X-196407Y271317D01*
X-196314Y271252D01*
X-196224Y271184D01*
X-196136Y271113D01*
X-196050Y271038D01*
X-195967Y270961D01*
X-195887Y270881D01*
X-195810Y270798D01*
X-195735Y270712D01*
X-195664Y270624D01*
X-195596Y270534D01*
X-195531Y270441D01*
X-195469Y270346D01*
X-195411Y270249D01*
X-195356Y270150D01*
X-195305Y270049D01*
X-195257Y269946D01*
X-195212Y269842D01*
X-195172Y269736D01*
X-195135Y269629D01*
X-195102Y269521D01*
X-195072Y269411D01*
X-195047Y269301D01*
X-195025Y269190D01*
X-195008Y269078D01*
X-194994Y268965D01*
X-194984Y268852D01*
X-194978Y268739D01*
X-194976Y268626D01*
X-194978Y268513D01*
X-194984Y268400D01*
X-194994Y268287D01*
X-195008Y268174D01*
X-195025Y268062D01*
X-195047Y267951D01*
X-195072Y267841D01*
X-195102Y267731D01*
X-195135Y267623D01*
X-195172Y267516D01*
X-195212Y267410D01*
X-195257Y267306D01*
X-195305Y267203D01*
X-195356Y267102D01*
X-195411Y267003D01*
X-195469Y266906D01*
X-195531Y266811D01*
X-195596Y266718D01*
X-195664Y266628D01*
X-195735Y266540D01*
X-195810Y266454D01*
X-195887Y266371D01*
X-195967Y266291D01*
X-196050Y266214D01*
X-196136Y266139D01*
X-196224Y266068D01*
X-196314Y266000D01*
X-196407Y265935D01*
X-196502Y265873D01*
X-196599Y265815D01*
X-196698Y265760D01*
X-196799Y265709D01*
X-196902Y265661D01*
X-197006Y265616D01*
X-197112Y265576D01*
X-197219Y265539D01*
X-197327Y265506D01*
X-197437Y265476D01*
X-197547Y265451D01*
X-197658Y265429D01*
X-197770Y265412D01*
X-197883Y265398D01*
X-197996Y265388D01*
X-198109Y265382D01*
X-198222Y265380D01*
X-198222Y265381D02*
X-201468Y265381D01*
X-190588Y260188D02*
X-186693Y260188D01*
X-186594Y260190D01*
X-186494Y260196D01*
X-186395Y260205D01*
X-186297Y260218D01*
X-186199Y260235D01*
X-186101Y260256D01*
X-186005Y260281D01*
X-185910Y260309D01*
X-185816Y260341D01*
X-185723Y260376D01*
X-185631Y260415D01*
X-185541Y260458D01*
X-185453Y260503D01*
X-185366Y260553D01*
X-185282Y260605D01*
X-185199Y260661D01*
X-185119Y260719D01*
X-185041Y260781D01*
X-184966Y260846D01*
X-184893Y260914D01*
X-184823Y260984D01*
X-184755Y261057D01*
X-184690Y261132D01*
X-184628Y261210D01*
X-184570Y261290D01*
X-184514Y261373D01*
X-184462Y261457D01*
X-184412Y261544D01*
X-184367Y261632D01*
X-184324Y261722D01*
X-184285Y261814D01*
X-184250Y261907D01*
X-184218Y262001D01*
X-184190Y262096D01*
X-184165Y262192D01*
X-184144Y262290D01*
X-184127Y262388D01*
X-184114Y262486D01*
X-184105Y262585D01*
X-184099Y262685D01*
X-184097Y262784D01*
X-184097Y264083D01*
X-184099Y264182D01*
X-184105Y264282D01*
X-184114Y264381D01*
X-184127Y264479D01*
X-184144Y264577D01*
X-184165Y264675D01*
X-184190Y264771D01*
X-184218Y264866D01*
X-184250Y264960D01*
X-184285Y265053D01*
X-184324Y265145D01*
X-184367Y265235D01*
X-184412Y265323D01*
X-184462Y265410D01*
X-184514Y265494D01*
X-184570Y265577D01*
X-184628Y265657D01*
X-184690Y265735D01*
X-184755Y265810D01*
X-184823Y265883D01*
X-184893Y265953D01*
X-184966Y266021D01*
X-185041Y266086D01*
X-185119Y266148D01*
X-185199Y266206D01*
X-185282Y266262D01*
X-185366Y266314D01*
X-185453Y266364D01*
X-185541Y266409D01*
X-185631Y266452D01*
X-185723Y266491D01*
X-185816Y266526D01*
X-185910Y266558D01*
X-186005Y266586D01*
X-186101Y266611D01*
X-186199Y266632D01*
X-186297Y266649D01*
X-186395Y266662D01*
X-186494Y266671D01*
X-186594Y266677D01*
X-186693Y266679D01*
X-190588Y266679D01*
X-190588Y271872D01*
X-184097Y271872D01*
X-178703Y271872D02*
X-178703Y260188D01*
X-178703Y271872D02*
X-175458Y271872D01*
X-175345Y271870D01*
X-175232Y271864D01*
X-175119Y271854D01*
X-175006Y271840D01*
X-174894Y271823D01*
X-174783Y271801D01*
X-174673Y271776D01*
X-174563Y271746D01*
X-174455Y271713D01*
X-174348Y271676D01*
X-174242Y271636D01*
X-174138Y271591D01*
X-174035Y271543D01*
X-173934Y271492D01*
X-173835Y271437D01*
X-173738Y271379D01*
X-173643Y271317D01*
X-173550Y271252D01*
X-173460Y271184D01*
X-173372Y271113D01*
X-173286Y271038D01*
X-173203Y270961D01*
X-173123Y270881D01*
X-173046Y270798D01*
X-172971Y270712D01*
X-172900Y270624D01*
X-172832Y270534D01*
X-172767Y270441D01*
X-172705Y270346D01*
X-172647Y270249D01*
X-172592Y270150D01*
X-172541Y270049D01*
X-172493Y269946D01*
X-172448Y269842D01*
X-172408Y269736D01*
X-172371Y269629D01*
X-172338Y269521D01*
X-172308Y269411D01*
X-172283Y269301D01*
X-172261Y269190D01*
X-172244Y269078D01*
X-172230Y268965D01*
X-172220Y268852D01*
X-172214Y268739D01*
X-172212Y268626D01*
X-172214Y268513D01*
X-172220Y268400D01*
X-172230Y268287D01*
X-172244Y268174D01*
X-172261Y268062D01*
X-172283Y267951D01*
X-172308Y267841D01*
X-172338Y267731D01*
X-172371Y267623D01*
X-172408Y267516D01*
X-172448Y267410D01*
X-172493Y267306D01*
X-172541Y267203D01*
X-172592Y267102D01*
X-172647Y267003D01*
X-172705Y266906D01*
X-172767Y266811D01*
X-172832Y266718D01*
X-172900Y266628D01*
X-172971Y266540D01*
X-173046Y266454D01*
X-173123Y266371D01*
X-173203Y266291D01*
X-173286Y266214D01*
X-173372Y266139D01*
X-173460Y266068D01*
X-173550Y266000D01*
X-173643Y265935D01*
X-173738Y265873D01*
X-173835Y265815D01*
X-173934Y265760D01*
X-174035Y265709D01*
X-174138Y265661D01*
X-174242Y265616D01*
X-174348Y265576D01*
X-174455Y265539D01*
X-174563Y265506D01*
X-174673Y265476D01*
X-174783Y265451D01*
X-174894Y265429D01*
X-175006Y265412D01*
X-175119Y265398D01*
X-175232Y265388D01*
X-175345Y265382D01*
X-175458Y265380D01*
X-175458Y265381D02*
X-178703Y265381D01*
X-174809Y265381D02*
X-172212Y260188D01*
X-200859Y195672D02*
X-200859Y183988D01*
X-200859Y195672D02*
X-197614Y195672D01*
X-197501Y195670D01*
X-197388Y195664D01*
X-197275Y195654D01*
X-197162Y195640D01*
X-197050Y195623D01*
X-196939Y195601D01*
X-196829Y195576D01*
X-196719Y195546D01*
X-196611Y195513D01*
X-196504Y195476D01*
X-196398Y195436D01*
X-196294Y195391D01*
X-196191Y195343D01*
X-196090Y195292D01*
X-195991Y195237D01*
X-195894Y195179D01*
X-195799Y195117D01*
X-195706Y195052D01*
X-195616Y194984D01*
X-195528Y194913D01*
X-195442Y194838D01*
X-195359Y194761D01*
X-195279Y194681D01*
X-195202Y194598D01*
X-195127Y194512D01*
X-195056Y194424D01*
X-194988Y194334D01*
X-194923Y194241D01*
X-194861Y194146D01*
X-194803Y194049D01*
X-194748Y193950D01*
X-194697Y193849D01*
X-194649Y193746D01*
X-194604Y193642D01*
X-194564Y193536D01*
X-194527Y193429D01*
X-194494Y193321D01*
X-194464Y193211D01*
X-194439Y193101D01*
X-194417Y192990D01*
X-194400Y192878D01*
X-194386Y192765D01*
X-194376Y192652D01*
X-194370Y192539D01*
X-194368Y192426D01*
X-194370Y192313D01*
X-194376Y192200D01*
X-194386Y192087D01*
X-194400Y191974D01*
X-194417Y191862D01*
X-194439Y191751D01*
X-194464Y191641D01*
X-194494Y191531D01*
X-194527Y191423D01*
X-194564Y191316D01*
X-194604Y191210D01*
X-194649Y191106D01*
X-194697Y191003D01*
X-194748Y190902D01*
X-194803Y190803D01*
X-194861Y190706D01*
X-194923Y190611D01*
X-194988Y190518D01*
X-195056Y190428D01*
X-195127Y190340D01*
X-195202Y190254D01*
X-195279Y190171D01*
X-195359Y190091D01*
X-195442Y190014D01*
X-195528Y189939D01*
X-195616Y189868D01*
X-195706Y189800D01*
X-195799Y189735D01*
X-195894Y189673D01*
X-195991Y189615D01*
X-196090Y189560D01*
X-196191Y189509D01*
X-196294Y189461D01*
X-196398Y189416D01*
X-196504Y189376D01*
X-196611Y189339D01*
X-196719Y189306D01*
X-196829Y189276D01*
X-196939Y189251D01*
X-197050Y189229D01*
X-197162Y189212D01*
X-197275Y189198D01*
X-197388Y189188D01*
X-197501Y189182D01*
X-197614Y189180D01*
X-197614Y189181D02*
X-200859Y189181D01*
X-189980Y183988D02*
X-186085Y183988D01*
X-185986Y183990D01*
X-185886Y183996D01*
X-185787Y184005D01*
X-185689Y184018D01*
X-185591Y184035D01*
X-185493Y184056D01*
X-185397Y184081D01*
X-185302Y184109D01*
X-185208Y184141D01*
X-185115Y184176D01*
X-185023Y184215D01*
X-184933Y184258D01*
X-184845Y184303D01*
X-184758Y184353D01*
X-184674Y184405D01*
X-184591Y184461D01*
X-184511Y184519D01*
X-184433Y184581D01*
X-184358Y184646D01*
X-184285Y184714D01*
X-184215Y184784D01*
X-184147Y184857D01*
X-184082Y184932D01*
X-184020Y185010D01*
X-183962Y185090D01*
X-183906Y185173D01*
X-183854Y185257D01*
X-183804Y185344D01*
X-183759Y185432D01*
X-183716Y185522D01*
X-183677Y185614D01*
X-183642Y185707D01*
X-183610Y185801D01*
X-183582Y185896D01*
X-183557Y185992D01*
X-183536Y186090D01*
X-183519Y186188D01*
X-183506Y186286D01*
X-183497Y186385D01*
X-183491Y186485D01*
X-183489Y186584D01*
X-183489Y187883D01*
X-183491Y187982D01*
X-183497Y188082D01*
X-183506Y188181D01*
X-183519Y188279D01*
X-183536Y188377D01*
X-183557Y188475D01*
X-183582Y188571D01*
X-183610Y188666D01*
X-183642Y188760D01*
X-183677Y188853D01*
X-183716Y188945D01*
X-183759Y189035D01*
X-183804Y189123D01*
X-183854Y189210D01*
X-183906Y189294D01*
X-183962Y189377D01*
X-184020Y189457D01*
X-184082Y189535D01*
X-184147Y189610D01*
X-184215Y189683D01*
X-184285Y189753D01*
X-184358Y189821D01*
X-184433Y189886D01*
X-184511Y189948D01*
X-184591Y190006D01*
X-184674Y190062D01*
X-184758Y190114D01*
X-184845Y190164D01*
X-184933Y190209D01*
X-185023Y190252D01*
X-185115Y190291D01*
X-185208Y190326D01*
X-185302Y190358D01*
X-185397Y190386D01*
X-185493Y190411D01*
X-185591Y190432D01*
X-185689Y190449D01*
X-185787Y190462D01*
X-185886Y190471D01*
X-185986Y190477D01*
X-186085Y190479D01*
X-189980Y190479D01*
X-189980Y195672D01*
X-183489Y195672D01*
X-176066Y195672D02*
X-176066Y183988D01*
X-179312Y195672D02*
X-172821Y195672D01*
X-201468Y170272D02*
X-201468Y158588D01*
X-201468Y170272D02*
X-198222Y170272D01*
X-198109Y170270D01*
X-197996Y170264D01*
X-197883Y170254D01*
X-197770Y170240D01*
X-197658Y170223D01*
X-197547Y170201D01*
X-197437Y170176D01*
X-197327Y170146D01*
X-197219Y170113D01*
X-197112Y170076D01*
X-197006Y170036D01*
X-196902Y169991D01*
X-196799Y169943D01*
X-196698Y169892D01*
X-196599Y169837D01*
X-196502Y169779D01*
X-196407Y169717D01*
X-196314Y169652D01*
X-196224Y169584D01*
X-196136Y169513D01*
X-196050Y169438D01*
X-195967Y169361D01*
X-195887Y169281D01*
X-195810Y169198D01*
X-195735Y169112D01*
X-195664Y169024D01*
X-195596Y168934D01*
X-195531Y168841D01*
X-195469Y168746D01*
X-195411Y168649D01*
X-195356Y168550D01*
X-195305Y168449D01*
X-195257Y168346D01*
X-195212Y168242D01*
X-195172Y168136D01*
X-195135Y168029D01*
X-195102Y167921D01*
X-195072Y167811D01*
X-195047Y167701D01*
X-195025Y167590D01*
X-195008Y167478D01*
X-194994Y167365D01*
X-194984Y167252D01*
X-194978Y167139D01*
X-194976Y167026D01*
X-194978Y166913D01*
X-194984Y166800D01*
X-194994Y166687D01*
X-195008Y166574D01*
X-195025Y166462D01*
X-195047Y166351D01*
X-195072Y166241D01*
X-195102Y166131D01*
X-195135Y166023D01*
X-195172Y165916D01*
X-195212Y165810D01*
X-195257Y165706D01*
X-195305Y165603D01*
X-195356Y165502D01*
X-195411Y165403D01*
X-195469Y165306D01*
X-195531Y165211D01*
X-195596Y165118D01*
X-195664Y165028D01*
X-195735Y164940D01*
X-195810Y164854D01*
X-195887Y164771D01*
X-195967Y164691D01*
X-196050Y164614D01*
X-196136Y164539D01*
X-196224Y164468D01*
X-196314Y164400D01*
X-196407Y164335D01*
X-196502Y164273D01*
X-196599Y164215D01*
X-196698Y164160D01*
X-196799Y164109D01*
X-196902Y164061D01*
X-197006Y164016D01*
X-197112Y163976D01*
X-197219Y163939D01*
X-197327Y163906D01*
X-197437Y163876D01*
X-197547Y163851D01*
X-197658Y163829D01*
X-197770Y163812D01*
X-197883Y163798D01*
X-197996Y163788D01*
X-198109Y163782D01*
X-198222Y163780D01*
X-198222Y163781D02*
X-201468Y163781D01*
X-190588Y161184D02*
X-187992Y170272D01*
X-190588Y161184D02*
X-184097Y161184D01*
X-186044Y163781D02*
X-186044Y158588D01*
X-178703Y158588D02*
X-178703Y170272D01*
X-175458Y170272D01*
X-175345Y170270D01*
X-175232Y170264D01*
X-175119Y170254D01*
X-175006Y170240D01*
X-174894Y170223D01*
X-174783Y170201D01*
X-174673Y170176D01*
X-174563Y170146D01*
X-174455Y170113D01*
X-174348Y170076D01*
X-174242Y170036D01*
X-174138Y169991D01*
X-174035Y169943D01*
X-173934Y169892D01*
X-173835Y169837D01*
X-173738Y169779D01*
X-173643Y169717D01*
X-173550Y169652D01*
X-173460Y169584D01*
X-173372Y169513D01*
X-173286Y169438D01*
X-173203Y169361D01*
X-173123Y169281D01*
X-173046Y169198D01*
X-172971Y169112D01*
X-172900Y169024D01*
X-172832Y168934D01*
X-172767Y168841D01*
X-172705Y168746D01*
X-172647Y168649D01*
X-172592Y168550D01*
X-172541Y168449D01*
X-172493Y168346D01*
X-172448Y168242D01*
X-172408Y168136D01*
X-172371Y168029D01*
X-172338Y167921D01*
X-172308Y167811D01*
X-172283Y167701D01*
X-172261Y167590D01*
X-172244Y167478D01*
X-172230Y167365D01*
X-172220Y167252D01*
X-172214Y167139D01*
X-172212Y167026D01*
X-172214Y166913D01*
X-172220Y166800D01*
X-172230Y166687D01*
X-172244Y166574D01*
X-172261Y166462D01*
X-172283Y166351D01*
X-172308Y166241D01*
X-172338Y166131D01*
X-172371Y166023D01*
X-172408Y165916D01*
X-172448Y165810D01*
X-172493Y165706D01*
X-172541Y165603D01*
X-172592Y165502D01*
X-172647Y165403D01*
X-172705Y165306D01*
X-172767Y165211D01*
X-172832Y165118D01*
X-172900Y165028D01*
X-172971Y164940D01*
X-173046Y164854D01*
X-173123Y164771D01*
X-173203Y164691D01*
X-173286Y164614D01*
X-173372Y164539D01*
X-173460Y164468D01*
X-173550Y164400D01*
X-173643Y164335D01*
X-173738Y164273D01*
X-173835Y164215D01*
X-173934Y164160D01*
X-174035Y164109D01*
X-174138Y164061D01*
X-174242Y164016D01*
X-174348Y163976D01*
X-174455Y163939D01*
X-174563Y163906D01*
X-174673Y163876D01*
X-174783Y163851D01*
X-174894Y163829D01*
X-175006Y163812D01*
X-175119Y163798D01*
X-175232Y163788D01*
X-175345Y163782D01*
X-175458Y163780D01*
X-175458Y163781D02*
X-178703Y163781D01*
X-174809Y163781D02*
X-172212Y158588D01*
X-200859Y144872D02*
X-200859Y133188D01*
X-200859Y144872D02*
X-197614Y144872D01*
X-197501Y144870D01*
X-197388Y144864D01*
X-197275Y144854D01*
X-197162Y144840D01*
X-197050Y144823D01*
X-196939Y144801D01*
X-196829Y144776D01*
X-196719Y144746D01*
X-196611Y144713D01*
X-196504Y144676D01*
X-196398Y144636D01*
X-196294Y144591D01*
X-196191Y144543D01*
X-196090Y144492D01*
X-195991Y144437D01*
X-195894Y144379D01*
X-195799Y144317D01*
X-195706Y144252D01*
X-195616Y144184D01*
X-195528Y144113D01*
X-195442Y144038D01*
X-195359Y143961D01*
X-195279Y143881D01*
X-195202Y143798D01*
X-195127Y143712D01*
X-195056Y143624D01*
X-194988Y143534D01*
X-194923Y143441D01*
X-194861Y143346D01*
X-194803Y143249D01*
X-194748Y143150D01*
X-194697Y143049D01*
X-194649Y142946D01*
X-194604Y142842D01*
X-194564Y142736D01*
X-194527Y142629D01*
X-194494Y142521D01*
X-194464Y142411D01*
X-194439Y142301D01*
X-194417Y142190D01*
X-194400Y142078D01*
X-194386Y141965D01*
X-194376Y141852D01*
X-194370Y141739D01*
X-194368Y141626D01*
X-194370Y141513D01*
X-194376Y141400D01*
X-194386Y141287D01*
X-194400Y141174D01*
X-194417Y141062D01*
X-194439Y140951D01*
X-194464Y140841D01*
X-194494Y140731D01*
X-194527Y140623D01*
X-194564Y140516D01*
X-194604Y140410D01*
X-194649Y140306D01*
X-194697Y140203D01*
X-194748Y140102D01*
X-194803Y140003D01*
X-194861Y139906D01*
X-194923Y139811D01*
X-194988Y139718D01*
X-195056Y139628D01*
X-195127Y139540D01*
X-195202Y139454D01*
X-195279Y139371D01*
X-195359Y139291D01*
X-195442Y139214D01*
X-195528Y139139D01*
X-195616Y139068D01*
X-195706Y139000D01*
X-195799Y138935D01*
X-195894Y138873D01*
X-195991Y138815D01*
X-196090Y138760D01*
X-196191Y138709D01*
X-196294Y138661D01*
X-196398Y138616D01*
X-196504Y138576D01*
X-196611Y138539D01*
X-196719Y138506D01*
X-196829Y138476D01*
X-196939Y138451D01*
X-197050Y138429D01*
X-197162Y138412D01*
X-197275Y138398D01*
X-197388Y138388D01*
X-197501Y138382D01*
X-197614Y138380D01*
X-197614Y138381D02*
X-200859Y138381D01*
X-189980Y135784D02*
X-187383Y144872D01*
X-189980Y135784D02*
X-183489Y135784D01*
X-185436Y138381D02*
X-185436Y133188D01*
X-176066Y133188D02*
X-176066Y144872D01*
X-172821Y144872D02*
X-179312Y144872D01*
X-198270Y109058D02*
X-201516Y109058D01*
X-198270Y109058D02*
X-198157Y109060D01*
X-198044Y109066D01*
X-197931Y109076D01*
X-197818Y109090D01*
X-197706Y109107D01*
X-197595Y109129D01*
X-197485Y109154D01*
X-197375Y109184D01*
X-197267Y109217D01*
X-197160Y109254D01*
X-197054Y109294D01*
X-196950Y109339D01*
X-196847Y109387D01*
X-196746Y109438D01*
X-196647Y109493D01*
X-196550Y109551D01*
X-196455Y109613D01*
X-196362Y109678D01*
X-196272Y109746D01*
X-196184Y109817D01*
X-196098Y109892D01*
X-196015Y109969D01*
X-195935Y110049D01*
X-195858Y110132D01*
X-195783Y110218D01*
X-195712Y110306D01*
X-195644Y110396D01*
X-195579Y110489D01*
X-195517Y110584D01*
X-195459Y110681D01*
X-195404Y110780D01*
X-195353Y110881D01*
X-195305Y110984D01*
X-195260Y111088D01*
X-195220Y111194D01*
X-195183Y111301D01*
X-195150Y111409D01*
X-195120Y111519D01*
X-195095Y111629D01*
X-195073Y111740D01*
X-195056Y111852D01*
X-195042Y111965D01*
X-195032Y112078D01*
X-195026Y112191D01*
X-195024Y112304D01*
X-195026Y112417D01*
X-195032Y112530D01*
X-195042Y112643D01*
X-195056Y112756D01*
X-195073Y112868D01*
X-195095Y112979D01*
X-195120Y113089D01*
X-195150Y113199D01*
X-195183Y113307D01*
X-195220Y113414D01*
X-195260Y113520D01*
X-195305Y113624D01*
X-195353Y113727D01*
X-195404Y113828D01*
X-195459Y113927D01*
X-195517Y114024D01*
X-195579Y114119D01*
X-195644Y114212D01*
X-195712Y114302D01*
X-195783Y114390D01*
X-195858Y114476D01*
X-195935Y114559D01*
X-196015Y114639D01*
X-196098Y114716D01*
X-196184Y114791D01*
X-196272Y114862D01*
X-196362Y114930D01*
X-196455Y114995D01*
X-196550Y115057D01*
X-196647Y115115D01*
X-196746Y115170D01*
X-196847Y115221D01*
X-196950Y115269D01*
X-197054Y115314D01*
X-197160Y115354D01*
X-197267Y115391D01*
X-197375Y115424D01*
X-197485Y115454D01*
X-197595Y115479D01*
X-197706Y115501D01*
X-197818Y115518D01*
X-197931Y115532D01*
X-198044Y115542D01*
X-198157Y115548D01*
X-198270Y115550D01*
X-197621Y120742D02*
X-201516Y120742D01*
X-197621Y120742D02*
X-197520Y120740D01*
X-197420Y120734D01*
X-197320Y120724D01*
X-197220Y120711D01*
X-197121Y120693D01*
X-197022Y120672D01*
X-196925Y120647D01*
X-196828Y120618D01*
X-196733Y120585D01*
X-196639Y120549D01*
X-196547Y120509D01*
X-196456Y120466D01*
X-196367Y120419D01*
X-196280Y120369D01*
X-196194Y120315D01*
X-196111Y120258D01*
X-196031Y120198D01*
X-195952Y120135D01*
X-195876Y120068D01*
X-195803Y119999D01*
X-195733Y119927D01*
X-195665Y119853D01*
X-195600Y119776D01*
X-195539Y119696D01*
X-195480Y119614D01*
X-195425Y119530D01*
X-195373Y119444D01*
X-195324Y119356D01*
X-195279Y119266D01*
X-195237Y119174D01*
X-195199Y119081D01*
X-195165Y118986D01*
X-195134Y118891D01*
X-195107Y118794D01*
X-195084Y118696D01*
X-195064Y118597D01*
X-195049Y118497D01*
X-195037Y118397D01*
X-195029Y118297D01*
X-195025Y118196D01*
X-195025Y118096D01*
X-195029Y117995D01*
X-195037Y117895D01*
X-195049Y117795D01*
X-195064Y117695D01*
X-195084Y117596D01*
X-195107Y117498D01*
X-195134Y117401D01*
X-195165Y117306D01*
X-195199Y117211D01*
X-195237Y117118D01*
X-195279Y117026D01*
X-195324Y116936D01*
X-195373Y116848D01*
X-195425Y116762D01*
X-195480Y116678D01*
X-195539Y116596D01*
X-195600Y116516D01*
X-195665Y116439D01*
X-195733Y116365D01*
X-195803Y116293D01*
X-195876Y116224D01*
X-195952Y116157D01*
X-196031Y116094D01*
X-196111Y116034D01*
X-196194Y115977D01*
X-196280Y115923D01*
X-196367Y115873D01*
X-196456Y115826D01*
X-196547Y115783D01*
X-196639Y115743D01*
X-196733Y115707D01*
X-196828Y115674D01*
X-196925Y115645D01*
X-197022Y115620D01*
X-197121Y115599D01*
X-197220Y115581D01*
X-197320Y115568D01*
X-197420Y115558D01*
X-197520Y115552D01*
X-197621Y115550D01*
X-197621Y115549D02*
X-200217Y115549D01*
X-190735Y120742D02*
X-186840Y109058D01*
X-182945Y120742D01*
X-178656Y109058D02*
X-175410Y109058D01*
X-175297Y109060D01*
X-175184Y109066D01*
X-175071Y109076D01*
X-174958Y109090D01*
X-174846Y109107D01*
X-174735Y109129D01*
X-174625Y109154D01*
X-174515Y109184D01*
X-174407Y109217D01*
X-174300Y109254D01*
X-174194Y109294D01*
X-174090Y109339D01*
X-173987Y109387D01*
X-173886Y109438D01*
X-173787Y109493D01*
X-173690Y109551D01*
X-173595Y109613D01*
X-173502Y109678D01*
X-173412Y109746D01*
X-173324Y109817D01*
X-173238Y109892D01*
X-173155Y109969D01*
X-173075Y110049D01*
X-172998Y110132D01*
X-172923Y110218D01*
X-172852Y110306D01*
X-172784Y110396D01*
X-172719Y110489D01*
X-172657Y110584D01*
X-172599Y110681D01*
X-172544Y110780D01*
X-172493Y110881D01*
X-172445Y110984D01*
X-172400Y111088D01*
X-172360Y111194D01*
X-172323Y111301D01*
X-172290Y111409D01*
X-172260Y111519D01*
X-172235Y111629D01*
X-172213Y111740D01*
X-172196Y111852D01*
X-172182Y111965D01*
X-172172Y112078D01*
X-172166Y112191D01*
X-172164Y112304D01*
X-172166Y112417D01*
X-172172Y112530D01*
X-172182Y112643D01*
X-172196Y112756D01*
X-172213Y112868D01*
X-172235Y112979D01*
X-172260Y113089D01*
X-172290Y113199D01*
X-172323Y113307D01*
X-172360Y113414D01*
X-172400Y113520D01*
X-172445Y113624D01*
X-172493Y113727D01*
X-172544Y113828D01*
X-172599Y113927D01*
X-172657Y114024D01*
X-172719Y114119D01*
X-172784Y114212D01*
X-172852Y114302D01*
X-172923Y114390D01*
X-172998Y114476D01*
X-173075Y114559D01*
X-173155Y114639D01*
X-173238Y114716D01*
X-173324Y114791D01*
X-173412Y114862D01*
X-173502Y114930D01*
X-173595Y114995D01*
X-173690Y115057D01*
X-173787Y115115D01*
X-173886Y115170D01*
X-173987Y115221D01*
X-174090Y115269D01*
X-174194Y115314D01*
X-174300Y115354D01*
X-174407Y115391D01*
X-174515Y115424D01*
X-174625Y115454D01*
X-174735Y115479D01*
X-174846Y115501D01*
X-174958Y115518D01*
X-175071Y115532D01*
X-175184Y115542D01*
X-175297Y115548D01*
X-175410Y115550D01*
X-174761Y120742D02*
X-178656Y120742D01*
X-174761Y120742D02*
X-174660Y120740D01*
X-174560Y120734D01*
X-174460Y120724D01*
X-174360Y120711D01*
X-174261Y120693D01*
X-174162Y120672D01*
X-174065Y120647D01*
X-173968Y120618D01*
X-173873Y120585D01*
X-173779Y120549D01*
X-173687Y120509D01*
X-173596Y120466D01*
X-173507Y120419D01*
X-173420Y120369D01*
X-173334Y120315D01*
X-173251Y120258D01*
X-173171Y120198D01*
X-173092Y120135D01*
X-173016Y120068D01*
X-172943Y119999D01*
X-172873Y119927D01*
X-172805Y119853D01*
X-172740Y119776D01*
X-172679Y119696D01*
X-172620Y119614D01*
X-172565Y119530D01*
X-172513Y119444D01*
X-172464Y119356D01*
X-172419Y119266D01*
X-172377Y119174D01*
X-172339Y119081D01*
X-172305Y118986D01*
X-172274Y118891D01*
X-172247Y118794D01*
X-172224Y118696D01*
X-172204Y118597D01*
X-172189Y118497D01*
X-172177Y118397D01*
X-172169Y118297D01*
X-172165Y118196D01*
X-172165Y118096D01*
X-172169Y117995D01*
X-172177Y117895D01*
X-172189Y117795D01*
X-172204Y117695D01*
X-172224Y117596D01*
X-172247Y117498D01*
X-172274Y117401D01*
X-172305Y117306D01*
X-172339Y117211D01*
X-172377Y117118D01*
X-172419Y117026D01*
X-172464Y116936D01*
X-172513Y116848D01*
X-172565Y116762D01*
X-172620Y116678D01*
X-172679Y116596D01*
X-172740Y116516D01*
X-172805Y116439D01*
X-172873Y116365D01*
X-172943Y116293D01*
X-173016Y116224D01*
X-173092Y116157D01*
X-173171Y116094D01*
X-173251Y116034D01*
X-173334Y115977D01*
X-173420Y115923D01*
X-173507Y115873D01*
X-173596Y115826D01*
X-173687Y115783D01*
X-173779Y115743D01*
X-173873Y115707D01*
X-173968Y115674D01*
X-174065Y115645D01*
X-174162Y115620D01*
X-174261Y115599D01*
X-174360Y115581D01*
X-174460Y115568D01*
X-174560Y115558D01*
X-174660Y115552D01*
X-174761Y115550D01*
X-174761Y115549D02*
X-177357Y115549D01*
X-195786Y91419D02*
X-197734Y91419D01*
X-195786Y91419D02*
X-195786Y84928D01*
X-199681Y84928D01*
X-199780Y84930D01*
X-199880Y84936D01*
X-199979Y84945D01*
X-200077Y84958D01*
X-200175Y84975D01*
X-200273Y84996D01*
X-200369Y85021D01*
X-200464Y85049D01*
X-200558Y85081D01*
X-200651Y85116D01*
X-200743Y85155D01*
X-200833Y85198D01*
X-200921Y85243D01*
X-201008Y85293D01*
X-201092Y85345D01*
X-201175Y85401D01*
X-201255Y85459D01*
X-201333Y85521D01*
X-201408Y85586D01*
X-201481Y85654D01*
X-201551Y85724D01*
X-201619Y85797D01*
X-201684Y85872D01*
X-201746Y85950D01*
X-201804Y86030D01*
X-201860Y86113D01*
X-201912Y86197D01*
X-201962Y86284D01*
X-202007Y86372D01*
X-202050Y86462D01*
X-202089Y86554D01*
X-202124Y86647D01*
X-202156Y86741D01*
X-202184Y86836D01*
X-202209Y86932D01*
X-202230Y87030D01*
X-202247Y87128D01*
X-202260Y87226D01*
X-202269Y87325D01*
X-202275Y87425D01*
X-202277Y87524D01*
X-202278Y87524D02*
X-202278Y94016D01*
X-202277Y94016D02*
X-202275Y94115D01*
X-202269Y94215D01*
X-202260Y94314D01*
X-202247Y94412D01*
X-202230Y94510D01*
X-202209Y94608D01*
X-202184Y94704D01*
X-202156Y94799D01*
X-202124Y94893D01*
X-202089Y94986D01*
X-202050Y95078D01*
X-202007Y95168D01*
X-201962Y95256D01*
X-201912Y95343D01*
X-201860Y95427D01*
X-201804Y95510D01*
X-201746Y95590D01*
X-201684Y95668D01*
X-201619Y95743D01*
X-201551Y95816D01*
X-201481Y95886D01*
X-201408Y95954D01*
X-201333Y96019D01*
X-201255Y96081D01*
X-201175Y96139D01*
X-201092Y96195D01*
X-201008Y96247D01*
X-200921Y96297D01*
X-200833Y96342D01*
X-200743Y96385D01*
X-200651Y96424D01*
X-200558Y96459D01*
X-200464Y96491D01*
X-200369Y96519D01*
X-200273Y96544D01*
X-200175Y96565D01*
X-200077Y96582D01*
X-199979Y96595D01*
X-199880Y96604D01*
X-199780Y96610D01*
X-199681Y96612D01*
X-195786Y96612D01*
X-190086Y96612D02*
X-190086Y84928D01*
X-183594Y84928D02*
X-190086Y96612D01*
X-183594Y96612D02*
X-183594Y84928D01*
X-177894Y84928D02*
X-177894Y96612D01*
X-174648Y96612D01*
X-174535Y96610D01*
X-174422Y96604D01*
X-174309Y96594D01*
X-174196Y96580D01*
X-174084Y96563D01*
X-173973Y96541D01*
X-173863Y96516D01*
X-173753Y96486D01*
X-173645Y96453D01*
X-173538Y96416D01*
X-173432Y96376D01*
X-173328Y96331D01*
X-173225Y96283D01*
X-173124Y96232D01*
X-173025Y96177D01*
X-172928Y96119D01*
X-172833Y96057D01*
X-172740Y95992D01*
X-172650Y95924D01*
X-172562Y95853D01*
X-172476Y95778D01*
X-172393Y95701D01*
X-172313Y95621D01*
X-172236Y95538D01*
X-172161Y95452D01*
X-172090Y95364D01*
X-172022Y95274D01*
X-171957Y95181D01*
X-171895Y95086D01*
X-171837Y94989D01*
X-171782Y94890D01*
X-171731Y94789D01*
X-171683Y94686D01*
X-171638Y94582D01*
X-171598Y94476D01*
X-171561Y94369D01*
X-171528Y94261D01*
X-171498Y94151D01*
X-171473Y94041D01*
X-171451Y93930D01*
X-171434Y93818D01*
X-171420Y93705D01*
X-171410Y93592D01*
X-171404Y93479D01*
X-171402Y93366D01*
X-171402Y88174D01*
X-171404Y88061D01*
X-171410Y87948D01*
X-171420Y87835D01*
X-171434Y87722D01*
X-171451Y87610D01*
X-171473Y87499D01*
X-171498Y87389D01*
X-171528Y87279D01*
X-171561Y87171D01*
X-171598Y87064D01*
X-171638Y86958D01*
X-171683Y86854D01*
X-171731Y86751D01*
X-171782Y86650D01*
X-171837Y86551D01*
X-171895Y86454D01*
X-171957Y86359D01*
X-172022Y86266D01*
X-172090Y86176D01*
X-172161Y86088D01*
X-172236Y86002D01*
X-172313Y85919D01*
X-172393Y85839D01*
X-172476Y85762D01*
X-172562Y85687D01*
X-172650Y85616D01*
X-172740Y85548D01*
X-172833Y85483D01*
X-172928Y85421D01*
X-173025Y85363D01*
X-173124Y85308D01*
X-173225Y85257D01*
X-173328Y85209D01*
X-173432Y85164D01*
X-173538Y85124D01*
X-173645Y85087D01*
X-173753Y85054D01*
X-173863Y85024D01*
X-173973Y84999D01*
X-174084Y84977D01*
X-174196Y84960D01*
X-174309Y84946D01*
X-174422Y84936D01*
X-174535Y84930D01*
X-174648Y84928D01*
X-177894Y84928D01*
D11*
X-214630Y354330D02*
X-205740Y361950D01*
X-205740Y336550D02*
X-214630Y328930D01*
X-205740Y311150D02*
X-214630Y303530D01*
X-205740Y285750D02*
X-214630Y278130D01*
X-205740Y260350D02*
X-214630Y252730D01*
X-212090Y208280D02*
X-204470Y199390D01*
X-212090Y182880D02*
X-204470Y173990D01*
X-212090Y157480D02*
X-204470Y148590D01*
X-212090Y132080D02*
X-204470Y123190D01*
X-212090Y106680D02*
X-204470Y97790D01*
X215900Y108458D02*
X215900Y121158D01*
X222250Y127508D01*
X234950Y127508D02*
X241300Y121158D01*
X222250Y127508D02*
X215900Y133858D01*
X215900Y146558D01*
X222250Y152908D01*
X234950Y152908D02*
X241300Y146558D01*
X241300Y133858D01*
X234950Y127508D01*
X234950Y102108D02*
X222250Y102108D01*
X215900Y108458D01*
X234950Y102108D02*
X241300Y108458D01*
X241300Y121158D01*
X222250Y152908D02*
X215900Y159258D01*
X215900Y171958D01*
X222250Y178308D01*
X234950Y178308D02*
X241300Y171958D01*
X241300Y159258D01*
X234950Y152908D01*
X215900Y184658D02*
X215900Y197358D01*
X222250Y203708D01*
X234950Y203708D02*
X241300Y197358D01*
X222250Y178308D02*
X215900Y184658D01*
X234950Y178308D02*
X241300Y184658D01*
X241300Y197358D01*
X215900Y210058D02*
X215900Y222758D01*
X222250Y229108D01*
X234950Y229108D02*
X241300Y222758D01*
X222250Y229108D02*
X215900Y235458D01*
X215900Y248158D01*
X222250Y254508D01*
X234950Y254508D02*
X241300Y248158D01*
X241300Y235458D01*
X234950Y229108D01*
X215900Y210058D02*
X222250Y203708D01*
X234950Y203708D02*
X241300Y210058D01*
X241300Y222758D01*
X222250Y254508D02*
X215900Y260858D01*
X215900Y273558D01*
X222250Y279908D01*
X234950Y279908D02*
X241300Y273558D01*
X241300Y260858D01*
X234950Y254508D01*
X215900Y286258D02*
X215900Y298958D01*
X222250Y305308D01*
X234950Y305308D02*
X241300Y298958D01*
X222250Y279908D02*
X215900Y286258D01*
X234950Y279908D02*
X241300Y286258D01*
X241300Y298958D01*
X215900Y311658D02*
X215900Y324358D01*
X222250Y330708D01*
X234950Y330708D02*
X241300Y324358D01*
X222250Y330708D02*
X215900Y337058D01*
X215900Y349758D01*
X222250Y356108D01*
X234950Y356108D02*
X241300Y349758D01*
X241300Y337058D01*
X234950Y330708D01*
X215900Y311658D02*
X222250Y305308D01*
X234950Y305308D02*
X241300Y311658D01*
X241300Y324358D01*
X234950Y356108D02*
X222250Y356108D01*
X-241300Y121158D02*
X-241300Y108458D01*
X-241300Y121158D02*
X-234950Y127508D01*
X-222250Y127508D02*
X-215900Y121158D01*
X-234950Y127508D02*
X-241300Y133858D01*
X-241300Y146558D01*
X-234950Y152908D01*
X-222250Y152908D02*
X-215900Y146558D01*
X-215900Y133858D01*
X-222250Y127508D01*
X-222250Y102108D02*
X-234950Y102108D01*
X-241300Y108458D01*
X-222250Y102108D02*
X-215900Y108458D01*
X-215900Y121158D01*
X-234950Y152908D02*
X-241300Y159258D01*
X-241300Y171958D01*
X-234950Y178308D01*
X-222250Y178308D02*
X-215900Y171958D01*
X-215900Y159258D01*
X-222250Y152908D01*
X-241300Y184658D02*
X-241300Y197358D01*
X-234950Y203708D01*
X-222250Y203708D02*
X-215900Y197358D01*
X-234950Y178308D02*
X-241300Y184658D01*
X-222250Y178308D02*
X-215900Y184658D01*
X-215900Y197358D01*
X-241300Y210058D02*
X-241300Y222758D01*
X-234950Y229108D01*
X-222250Y229108D02*
X-215900Y222758D01*
X-234950Y229108D02*
X-241300Y235458D01*
X-241300Y248158D01*
X-234950Y254508D01*
X-222250Y254508D02*
X-215900Y248158D01*
X-215900Y235458D01*
X-222250Y229108D01*
X-241300Y210058D02*
X-234950Y203708D01*
X-222250Y203708D02*
X-215900Y210058D01*
X-215900Y222758D01*
X-234950Y254508D02*
X-241300Y260858D01*
X-241300Y273558D01*
X-234950Y279908D01*
X-222250Y279908D02*
X-215900Y273558D01*
X-215900Y260858D01*
X-222250Y254508D01*
X-241300Y286258D02*
X-241300Y298958D01*
X-234950Y305308D01*
X-222250Y305308D02*
X-215900Y298958D01*
X-234950Y279908D02*
X-241300Y286258D01*
X-222250Y279908D02*
X-215900Y286258D01*
X-215900Y298958D01*
X-241300Y311658D02*
X-241300Y324358D01*
X-234950Y330708D01*
X-222250Y330708D02*
X-215900Y324358D01*
X-234950Y330708D02*
X-241300Y337058D01*
X-241300Y349758D01*
X-234950Y356108D01*
X-222250Y356108D02*
X-215900Y349758D01*
X-215900Y337058D01*
X-222250Y330708D01*
X-241300Y311658D02*
X-234950Y305308D01*
X-222250Y305308D02*
X-215900Y311658D01*
X-215900Y324358D01*
X-222250Y356108D02*
X-234950Y356108D01*
D12*
X170028Y20498D03*
D13*
X183274Y20498D03*
D14*
X167894Y20676D03*
D15*
X171628Y20676D03*
X191364Y20676D03*
D16*
X169761Y20676D03*
D17*
X183363Y20676D03*
D18*
X167538Y20853D03*
D19*
X171628Y20853D03*
D20*
X169583Y20853D03*
D21*
X183629Y20853D03*
D15*
X171628Y21031D03*
X192075Y21031D03*
D22*
X169405Y21031D03*
D23*
X183718Y21031D03*
D19*
X171628Y21209D03*
D24*
X169316Y21209D03*
D25*
X183896Y21209D03*
D15*
X166827Y21387D03*
X171628Y21387D03*
D26*
X169227Y21387D03*
D27*
X183985Y21387D03*
D15*
X171628Y21565D03*
D28*
X169139Y21565D03*
D29*
X184074Y21565D03*
D19*
X171628Y21742D03*
D18*
X192786Y21742D03*
D30*
X169050Y21742D03*
D31*
X184074Y21742D03*
D15*
X166472Y21920D03*
X171628Y21920D03*
D32*
X169050Y21920D03*
D33*
X184163Y21920D03*
D19*
X171628Y22098D03*
D34*
X168961Y22098D03*
D35*
X184252Y22098D03*
D15*
X171628Y22276D03*
X193142Y22276D03*
D36*
X168872Y22276D03*
D37*
X184252Y22276D03*
D14*
X166116Y22454D03*
D15*
X171628Y22454D03*
D36*
X168872Y22454D03*
D38*
X184341Y22454D03*
D19*
X171628Y22631D03*
D18*
X193319Y22631D03*
D39*
X168783Y22631D03*
D40*
X184341Y22631D03*
D15*
X165938Y22809D03*
X171628Y22809D03*
D41*
X168783Y22809D03*
D42*
X184429Y22809D03*
D19*
X171628Y22987D03*
D43*
X168694Y22987D03*
D44*
X184518Y22987D03*
D15*
X171628Y23165D03*
D14*
X193675Y23165D03*
D45*
X168605Y23165D03*
D46*
X184518Y23165D03*
D15*
X171628Y23343D03*
D45*
X168605Y23343D03*
D47*
X184607Y23343D03*
D19*
X171628Y23520D03*
X193853Y23520D03*
D48*
X168516Y23520D03*
D49*
X184607Y23520D03*
D15*
X165405Y23698D03*
X171628Y23698D03*
D50*
X168516Y23698D03*
D51*
X184696Y23698D03*
D19*
X171628Y23876D03*
X194031Y23876D03*
D52*
X168427Y23876D03*
D53*
X184696Y23876D03*
D14*
X165227Y24054D03*
D15*
X171628Y24054D03*
D54*
X168427Y24054D03*
D55*
X184785Y24054D03*
D15*
X171628Y24232D03*
D56*
X168338Y24232D03*
D57*
X184874Y24232D03*
D19*
X171628Y24409D03*
X194386Y24409D03*
D58*
X168250Y24409D03*
D59*
X184874Y24409D03*
D14*
X164871Y24587D03*
D15*
X171628Y24587D03*
D60*
X168250Y24587D03*
D61*
X184963Y24587D03*
D19*
X171628Y24765D03*
D18*
X194564Y24765D03*
D62*
X168161Y24765D03*
D63*
X184963Y24765D03*
D15*
X164694Y24943D03*
X171628Y24943D03*
D64*
X168161Y24943D03*
D65*
X185052Y24943D03*
D15*
X171628Y25121D03*
D66*
X168072Y25121D03*
D67*
X185141Y25121D03*
D19*
X164516Y25298D03*
X171628Y25298D03*
D68*
X168072Y25298D03*
D69*
X185141Y25298D03*
D15*
X171628Y25476D03*
D70*
X167983Y25476D03*
D71*
X185230Y25476D03*
D19*
X171628Y25654D03*
D18*
X195097Y25654D03*
D72*
X167894Y25654D03*
D73*
X185230Y25654D03*
D15*
X164160Y25832D03*
X171628Y25832D03*
D74*
X167894Y25832D03*
D75*
X185318Y25832D03*
D15*
X171628Y26010D03*
X195275Y26010D03*
D76*
X167805Y26010D03*
D75*
X185318Y26010D03*
D18*
X163982Y26187D03*
D19*
X171628Y26187D03*
D77*
X167805Y26187D03*
D78*
X185407Y26187D03*
D15*
X171628Y26365D03*
D79*
X167716Y26365D03*
D80*
X185496Y26365D03*
D19*
X163805Y26543D03*
X171628Y26543D03*
D81*
X167716Y26543D03*
D82*
X185496Y26543D03*
D15*
X171628Y26721D03*
D83*
X167627Y26721D03*
D84*
X185585Y26721D03*
D15*
X171628Y26899D03*
X195809Y26899D03*
D85*
X167538Y26899D03*
D84*
X185585Y26899D03*
D18*
X163449Y27076D03*
D19*
X171628Y27076D03*
D86*
X167538Y27076D03*
D87*
X185674Y27076D03*
D15*
X171628Y27254D03*
D14*
X175539Y27254D03*
X195986Y27254D03*
D88*
X167449Y27254D03*
D84*
X185763Y27254D03*
D19*
X163271Y27432D03*
X171628Y27432D03*
D18*
X175539Y27432D03*
D89*
X167449Y27432D03*
D87*
X185852Y27432D03*
D15*
X171628Y27610D03*
D14*
X175539Y27610D03*
D15*
X196164Y27610D03*
D90*
X167361Y27610D03*
D91*
X185852Y27610D03*
D15*
X171628Y27788D03*
D14*
X175539Y27788D03*
D92*
X167272Y27788D03*
D93*
X185941Y27788D03*
D19*
X171628Y27965D03*
D18*
X175539Y27965D03*
D94*
X167272Y27965D03*
D95*
X186030Y27965D03*
D15*
X171628Y28143D03*
D14*
X175539Y28143D03*
D15*
X196520Y28143D03*
D96*
X167183Y28143D03*
D97*
X186030Y28143D03*
D19*
X162738Y28321D03*
X171628Y28321D03*
D18*
X175539Y28321D03*
D98*
X167183Y28321D03*
D99*
X186118Y28321D03*
D15*
X171628Y28499D03*
D14*
X175539Y28499D03*
D100*
X185229Y28499D03*
D15*
X186385Y28499D03*
X196698Y28499D03*
D101*
X167094Y28499D03*
D102*
X180340Y28499D03*
D103*
X191541Y28499D03*
D14*
X162560Y28677D03*
D15*
X171628Y28677D03*
D14*
X175539Y28677D03*
X184785Y28677D03*
D15*
X186741Y28677D03*
D101*
X167094Y28677D03*
D104*
X180162Y28677D03*
D105*
X191808Y28677D03*
D19*
X171628Y28854D03*
D18*
X175539Y28854D03*
D19*
X184607Y28854D03*
D18*
X196875Y28854D03*
D106*
X167005Y28854D03*
D107*
X180073Y28854D03*
D108*
X191897Y28854D03*
D15*
X171628Y29032D03*
D14*
X175539Y29032D03*
D15*
X187274Y29032D03*
X197053Y29032D03*
D109*
X166916Y29032D03*
D96*
X179984Y29032D03*
D110*
X192164Y29032D03*
D18*
X162204Y29210D03*
D19*
X171628Y29210D03*
D18*
X175539Y29210D03*
D19*
X184252Y29210D03*
D111*
X166916Y29210D03*
D94*
X179895Y29210D03*
D108*
X192253Y29210D03*
D15*
X171628Y29388D03*
D14*
X175539Y29388D03*
X197231Y29388D03*
D102*
X166827Y29388D03*
D92*
X179895Y29388D03*
D110*
X192341Y29388D03*
D15*
X162027Y29566D03*
X171628Y29566D03*
D14*
X175539Y29566D03*
D102*
X166827Y29566D03*
D90*
X179807Y29566D03*
D112*
X192430Y29566D03*
D19*
X171628Y29743D03*
D18*
X175539Y29743D03*
D19*
X187630Y29743D03*
X197409Y29743D03*
D113*
X166738Y29743D03*
D114*
X179807Y29743D03*
D113*
X192519Y29743D03*
D15*
X161849Y29921D03*
X171628Y29921D03*
D14*
X175539Y29921D03*
X183896Y29921D03*
D110*
X166738Y29921D03*
D115*
X179718Y29921D03*
D112*
X192608Y29921D03*
D19*
X171628Y30099D03*
D18*
X175539Y30099D03*
X183896Y30099D03*
D19*
X197587Y30099D03*
D108*
X166649Y30099D03*
D116*
X179718Y30099D03*
D108*
X192608Y30099D03*
D15*
X171628Y30277D03*
D14*
X175539Y30277D03*
X183896Y30277D03*
D117*
X166560Y30277D03*
D115*
X179718Y30277D03*
D105*
X192697Y30277D03*
D15*
X161493Y30455D03*
X171628Y30455D03*
D14*
X175539Y30455D03*
X183896Y30455D03*
X197764Y30455D03*
D117*
X166560Y30455D03*
D115*
X179718Y30455D03*
D105*
X192697Y30455D03*
D19*
X171628Y30632D03*
D18*
X175539Y30632D03*
X183896Y30632D03*
D118*
X166472Y30632D03*
D116*
X179718Y30632D03*
D118*
X192786Y30632D03*
D14*
X161315Y30810D03*
D15*
X171628Y30810D03*
D14*
X175539Y30810D03*
X183896Y30810D03*
D103*
X166472Y30810D03*
D115*
X179718Y30810D03*
D119*
X192875Y30810D03*
D19*
X171628Y30988D03*
D18*
X175539Y30988D03*
X183896Y30988D03*
X198120Y30988D03*
D120*
X166383Y30988D03*
D116*
X179718Y30988D03*
D120*
X192875Y30988D03*
D15*
X161138Y31166D03*
X171628Y31166D03*
D14*
X175539Y31166D03*
X183896Y31166D03*
D119*
X166383Y31166D03*
D115*
X179718Y31166D03*
D121*
X192964Y31166D03*
D15*
X171628Y31344D03*
D14*
X175539Y31344D03*
X183896Y31344D03*
D15*
X198298Y31344D03*
D121*
X166294Y31344D03*
D115*
X179718Y31344D03*
D121*
X192964Y31344D03*
D19*
X171628Y31521D03*
D18*
X175539Y31521D03*
X183896Y31521D03*
D122*
X166205Y31521D03*
D116*
X179718Y31521D03*
D122*
X193053Y31521D03*
D14*
X160782Y31699D03*
D15*
X171628Y31699D03*
D14*
X175539Y31699D03*
X183896Y31699D03*
D15*
X187808Y31699D03*
X198476Y31699D03*
D123*
X166205Y31699D03*
D115*
X179718Y31699D03*
D121*
X193142Y31699D03*
D19*
X171628Y31877D03*
D18*
X175539Y31877D03*
X183896Y31877D03*
D19*
X187808Y31877D03*
D124*
X166116Y31877D03*
D116*
X179718Y31877D03*
D122*
X193231Y31877D03*
D15*
X160604Y32055D03*
X171628Y32055D03*
D14*
X175539Y32055D03*
X183896Y32055D03*
D15*
X187808Y32055D03*
D125*
X166116Y32055D03*
D115*
X179718Y32055D03*
D125*
X193319Y32055D03*
D15*
X171628Y32233D03*
D14*
X175539Y32233D03*
X183896Y32233D03*
D15*
X187808Y32233D03*
X198831Y32233D03*
D126*
X166027Y32233D03*
D115*
X179718Y32233D03*
D125*
X193319Y32233D03*
D18*
X160426Y32410D03*
D19*
X171628Y32410D03*
D18*
X175539Y32410D03*
X183896Y32410D03*
D19*
X187808Y32410D03*
D127*
X166027Y32410D03*
D116*
X179718Y32410D03*
D127*
X193408Y32410D03*
D15*
X171628Y32588D03*
D14*
X175539Y32588D03*
X183896Y32588D03*
D15*
X187808Y32588D03*
D14*
X199009Y32588D03*
D128*
X165938Y32588D03*
D115*
X179718Y32588D03*
D126*
X193408Y32588D03*
D19*
X171628Y32766D03*
D18*
X175539Y32766D03*
X183896Y32766D03*
D19*
X187808Y32766D03*
D129*
X165849Y32766D03*
D116*
X179718Y32766D03*
D130*
X193497Y32766D03*
D15*
X160071Y32944D03*
X171628Y32944D03*
D14*
X175539Y32944D03*
D15*
X187808Y32944D03*
D131*
X165849Y32944D03*
D115*
X179718Y32944D03*
D131*
X193586Y32944D03*
D15*
X171628Y33122D03*
D14*
X175539Y33122D03*
D15*
X187808Y33122D03*
X199365Y33122D03*
D132*
X165760Y33122D03*
D115*
X179718Y33122D03*
D131*
X193586Y33122D03*
D18*
X159893Y33299D03*
D19*
X171628Y33299D03*
D18*
X175539Y33299D03*
D19*
X187808Y33299D03*
D133*
X165760Y33299D03*
D116*
X179718Y33299D03*
D133*
X193675Y33299D03*
D15*
X171628Y33477D03*
D14*
X175539Y33477D03*
D15*
X187808Y33477D03*
D14*
X199542Y33477D03*
D134*
X165671Y33477D03*
D115*
X179718Y33477D03*
D132*
X193675Y33477D03*
D19*
X159715Y33655D03*
X171628Y33655D03*
D18*
X175539Y33655D03*
D19*
X187808Y33655D03*
D135*
X165671Y33655D03*
D116*
X179718Y33655D03*
D135*
X193764Y33655D03*
D15*
X171628Y33833D03*
D14*
X175539Y33833D03*
D15*
X187808Y33833D03*
X199720Y33833D03*
D136*
X165583Y33833D03*
D115*
X179718Y33833D03*
D134*
X193764Y33833D03*
D15*
X171628Y34011D03*
D14*
X175539Y34011D03*
D15*
X187808Y34011D03*
D137*
X165494Y34011D03*
D115*
X179718Y34011D03*
D136*
X193853Y34011D03*
D19*
X159360Y34188D03*
X171628Y34188D03*
D18*
X175539Y34188D03*
D19*
X187808Y34188D03*
D138*
X165494Y34188D03*
D116*
X179718Y34188D03*
D138*
X193942Y34188D03*
D15*
X171628Y34366D03*
D14*
X175539Y34366D03*
D15*
X187808Y34366D03*
X200076Y34366D03*
D139*
X165405Y34366D03*
D115*
X179718Y34366D03*
D137*
X193942Y34366D03*
D19*
X159182Y34544D03*
X171628Y34544D03*
D18*
X175539Y34544D03*
D19*
X187808Y34544D03*
D140*
X165405Y34544D03*
D116*
X179718Y34544D03*
D140*
X194031Y34544D03*
D15*
X171628Y34722D03*
D14*
X175539Y34722D03*
D15*
X187808Y34722D03*
X200254Y34722D03*
D141*
X165316Y34722D03*
D115*
X179718Y34722D03*
D139*
X194031Y34722D03*
D14*
X159004Y34900D03*
D15*
X171628Y34900D03*
D14*
X175539Y34900D03*
D15*
X187808Y34900D03*
D141*
X165316Y34900D03*
D115*
X179718Y34900D03*
D141*
X194120Y34900D03*
D19*
X171628Y35077D03*
D18*
X175539Y35077D03*
D19*
X187808Y35077D03*
D18*
X200431Y35077D03*
D142*
X165227Y35077D03*
D116*
X179718Y35077D03*
D143*
X194120Y35077D03*
D15*
X171628Y35255D03*
D14*
X175539Y35255D03*
D15*
X187808Y35255D03*
D144*
X165138Y35255D03*
D115*
X179718Y35255D03*
D145*
X194208Y35255D03*
D18*
X158648Y35433D03*
D19*
X171628Y35433D03*
D18*
X175539Y35433D03*
D19*
X187808Y35433D03*
D146*
X165138Y35433D03*
D116*
X179718Y35433D03*
D146*
X194297Y35433D03*
D15*
X171628Y35611D03*
D14*
X175539Y35611D03*
D15*
X187808Y35611D03*
D14*
X200787Y35611D03*
D147*
X165049Y35611D03*
D115*
X179718Y35611D03*
D144*
X194297Y35611D03*
D15*
X158471Y35789D03*
X171628Y35789D03*
D14*
X175539Y35789D03*
D15*
X187808Y35789D03*
D147*
X165049Y35789D03*
D115*
X179718Y35789D03*
D147*
X194386Y35789D03*
D19*
X171628Y35966D03*
D18*
X175539Y35966D03*
D19*
X187808Y35966D03*
X200965Y35966D03*
D148*
X164960Y35966D03*
D116*
X179718Y35966D03*
D149*
X194386Y35966D03*
D15*
X171628Y36144D03*
D14*
X175539Y36144D03*
D15*
X187808Y36144D03*
D150*
X164871Y36144D03*
D115*
X179718Y36144D03*
D151*
X194475Y36144D03*
D18*
X158115Y36322D03*
D19*
X171628Y36322D03*
D18*
X175539Y36322D03*
D19*
X187808Y36322D03*
X201143Y36322D03*
D152*
X164871Y36322D03*
D116*
X179718Y36322D03*
D148*
X194475Y36322D03*
D15*
X171628Y36500D03*
D14*
X175539Y36500D03*
D15*
X187808Y36500D03*
D14*
X201320Y36500D03*
D153*
X164782Y36500D03*
D115*
X179718Y36500D03*
D150*
X194564Y36500D03*
D15*
X157937Y36678D03*
X171628Y36678D03*
D14*
X175539Y36678D03*
D15*
X187808Y36678D03*
D153*
X164782Y36678D03*
D115*
X179718Y36678D03*
D153*
X194653Y36678D03*
D19*
X171628Y36855D03*
D18*
X175539Y36855D03*
D19*
X187808Y36855D03*
X201498Y36855D03*
D154*
X164694Y36855D03*
D116*
X179718Y36855D03*
D155*
X194653Y36855D03*
D14*
X157759Y37033D03*
D15*
X171628Y37033D03*
D14*
X175539Y37033D03*
D15*
X187808Y37033D03*
D156*
X164694Y37033D03*
D115*
X179718Y37033D03*
D156*
X194742Y37033D03*
D19*
X171628Y37211D03*
D18*
X175539Y37211D03*
D19*
X187808Y37211D03*
D18*
X201676Y37211D03*
D157*
X164605Y37211D03*
D116*
X179718Y37211D03*
D154*
X194742Y37211D03*
D15*
X171628Y37389D03*
D14*
X175539Y37389D03*
D15*
X187808Y37389D03*
D158*
X164516Y37389D03*
D115*
X179718Y37389D03*
D159*
X194831Y37389D03*
D15*
X157404Y37567D03*
X171628Y37567D03*
D14*
X175539Y37567D03*
D15*
X187808Y37567D03*
D158*
X164516Y37567D03*
D115*
X179718Y37567D03*
D158*
X194920Y37567D03*
D19*
X171628Y37744D03*
D18*
X175539Y37744D03*
D19*
X187808Y37744D03*
X202032Y37744D03*
D160*
X164427Y37744D03*
D116*
X179718Y37744D03*
D161*
X194920Y37744D03*
D14*
X157226Y37922D03*
D15*
X171628Y37922D03*
D14*
X175539Y37922D03*
D15*
X187808Y37922D03*
D162*
X164427Y37922D03*
D115*
X179718Y37922D03*
D162*
X195009Y37922D03*
D19*
X171628Y38100D03*
D18*
X175539Y38100D03*
D19*
X187808Y38100D03*
D18*
X202209Y38100D03*
D163*
X164338Y38100D03*
D116*
X179718Y38100D03*
D160*
X195009Y38100D03*
D15*
X157048Y38278D03*
X171628Y38278D03*
D14*
X175539Y38278D03*
D15*
X187808Y38278D03*
D164*
X164338Y38278D03*
D115*
X179718Y38278D03*
D164*
X195097Y38278D03*
D15*
X171628Y38456D03*
D14*
X175539Y38456D03*
D15*
X187808Y38456D03*
X202387Y38456D03*
D165*
X164249Y38456D03*
D115*
X179718Y38456D03*
D164*
X195097Y38456D03*
D19*
X171628Y38633D03*
D18*
X175539Y38633D03*
D19*
X187808Y38633D03*
D166*
X164160Y38633D03*
D116*
X179718Y38633D03*
D167*
X195186Y38633D03*
D15*
X156693Y38811D03*
X171628Y38811D03*
D14*
X175539Y38811D03*
D15*
X187808Y38811D03*
D168*
X164160Y38811D03*
D115*
X179718Y38811D03*
D168*
X195275Y38811D03*
D18*
X175539Y38989D03*
D19*
X187808Y38989D03*
X202743Y38989D03*
D169*
X164071Y38989D03*
D116*
X179718Y38989D03*
D166*
X195275Y38989D03*
D15*
X156515Y39167D03*
D14*
X175539Y39167D03*
D15*
X187808Y39167D03*
D170*
X164071Y39167D03*
D115*
X179718Y39167D03*
D170*
X195364Y39167D03*
D14*
X175539Y39345D03*
D15*
X187808Y39345D03*
X202921Y39345D03*
D171*
X163982Y39345D03*
D115*
X179718Y39345D03*
D170*
X195364Y39345D03*
D18*
X156337Y39522D03*
X175539Y39522D03*
D19*
X187808Y39522D03*
D172*
X163982Y39522D03*
D116*
X179718Y39522D03*
D172*
X195453Y39522D03*
D14*
X175539Y39700D03*
D15*
X187808Y39700D03*
D14*
X203098Y39700D03*
D173*
X163893Y39700D03*
D115*
X179718Y39700D03*
D171*
X195453Y39700D03*
D19*
X175717Y39878D03*
X183718Y39878D03*
X187808Y39878D03*
X203276Y39878D03*
D174*
X163805Y39878D03*
D175*
X179718Y39878D03*
D176*
X195542Y39878D03*
D14*
X155981Y40056D03*
D15*
X187808Y40056D03*
D177*
X163805Y40056D03*
X195631Y40056D03*
D15*
X187808Y40234D03*
D14*
X203454Y40234D03*
D178*
X163716Y40234D03*
D177*
X195631Y40234D03*
D19*
X155804Y40411D03*
X187808Y40411D03*
D179*
X163716Y40411D03*
X195720Y40411D03*
D15*
X187808Y40589D03*
X203632Y40589D03*
D17*
X163627Y40589D03*
D178*
X195720Y40589D03*
D19*
X155626Y40767D03*
X187808Y40767D03*
D180*
X163627Y40767D03*
X195809Y40767D03*
D15*
X187808Y40945D03*
X203810Y40945D03*
D181*
X163538Y40945D03*
D17*
X195809Y40945D03*
D14*
X155448Y41123D03*
D15*
X187808Y41123D03*
D181*
X163538Y41123D03*
X195898Y41123D03*
D18*
X155448Y41300D03*
D19*
X187808Y41300D03*
D182*
X163538Y41300D03*
X195898Y41300D03*
D15*
X187808Y41478D03*
D183*
X163449Y41478D03*
D181*
X195898Y41478D03*
D19*
X187808Y41656D03*
D18*
X203987Y41656D03*
D184*
X163449Y41656D03*
D182*
X195898Y41656D03*
D15*
X187808Y41834D03*
D14*
X203987Y41834D03*
D183*
X163449Y41834D03*
D181*
X195898Y41834D03*
D15*
X187808Y42012D03*
D14*
X203987Y42012D03*
D183*
X163449Y42012D03*
D181*
X195898Y42012D03*
D19*
X187808Y42189D03*
D18*
X203987Y42189D03*
D184*
X163449Y42189D03*
D182*
X195898Y42189D03*
D15*
X187808Y42367D03*
D14*
X203987Y42367D03*
D183*
X163449Y42367D03*
D181*
X195898Y42367D03*
D19*
X187808Y42545D03*
D184*
X163449Y42545D03*
D182*
X195898Y42545D03*
D14*
X155448Y42723D03*
D15*
X187808Y42723D03*
D181*
X163538Y42723D03*
X195898Y42723D03*
D15*
X187808Y42901D03*
X203810Y42901D03*
D181*
X163538Y42901D03*
D17*
X195809Y42901D03*
D19*
X187808Y43078D03*
X203810Y43078D03*
D182*
X163538Y43078D03*
D180*
X195809Y43078D03*
D15*
X155626Y43256D03*
X187808Y43256D03*
D17*
X163627Y43256D03*
X195809Y43256D03*
D19*
X187808Y43434D03*
X203632Y43434D03*
D180*
X163627Y43434D03*
D179*
X195720Y43434D03*
D15*
X155804Y43612D03*
X187808Y43612D03*
D178*
X163716Y43612D03*
X195720Y43612D03*
D15*
X187808Y43790D03*
D178*
X163716Y43790D03*
D177*
X195631Y43790D03*
D19*
X187808Y43967D03*
X203276Y43967D03*
D174*
X163805Y43967D03*
D176*
X195542Y43967D03*
D15*
X156159Y44145D03*
X187808Y44145D03*
D173*
X163893Y44145D03*
D115*
X179718Y44145D03*
D173*
X195542Y44145D03*
D18*
X175539Y44323D03*
D19*
X187808Y44323D03*
D18*
X203098Y44323D03*
D176*
X163893Y44323D03*
D116*
X179718Y44323D03*
D172*
X195453Y44323D03*
D14*
X156337Y44501D03*
X175539Y44501D03*
D15*
X187808Y44501D03*
D171*
X163982Y44501D03*
D115*
X179718Y44501D03*
D171*
X195453Y44501D03*
D14*
X175539Y44679D03*
D15*
X187808Y44679D03*
X202921Y44679D03*
D171*
X163982Y44679D03*
D115*
X179718Y44679D03*
D170*
X195364Y44679D03*
D19*
X156515Y44856D03*
D18*
X175539Y44856D03*
D19*
X187808Y44856D03*
X202743Y44856D03*
D169*
X164071Y44856D03*
D116*
X179718Y44856D03*
D166*
X195275Y44856D03*
D15*
X156693Y45034D03*
D14*
X175539Y45034D03*
D15*
X187808Y45034D03*
D168*
X164160Y45034D03*
D115*
X179718Y45034D03*
D168*
X195275Y45034D03*
D18*
X175539Y45212D03*
D19*
X187808Y45212D03*
D18*
X202565Y45212D03*
D166*
X164160Y45212D03*
D116*
X179718Y45212D03*
D167*
X195186Y45212D03*
D14*
X156870Y45390D03*
X175539Y45390D03*
D15*
X187808Y45390D03*
D165*
X164249Y45390D03*
D115*
X179718Y45390D03*
D165*
X195186Y45390D03*
D14*
X175539Y45568D03*
D15*
X187808Y45568D03*
X202387Y45568D03*
D165*
X164249Y45568D03*
D115*
X179718Y45568D03*
D164*
X195097Y45568D03*
D19*
X157048Y45745D03*
D18*
X175539Y45745D03*
D19*
X187808Y45745D03*
D163*
X164338Y45745D03*
D116*
X179718Y45745D03*
D163*
X195097Y45745D03*
D14*
X175539Y45923D03*
D15*
X187808Y45923D03*
D14*
X202209Y45923D03*
D164*
X164338Y45923D03*
D115*
X179718Y45923D03*
D162*
X195009Y45923D03*
D18*
X175539Y46101D03*
D19*
X187808Y46101D03*
X202032Y46101D03*
D160*
X164427Y46101D03*
D116*
X179718Y46101D03*
D161*
X194920Y46101D03*
D15*
X157404Y46279D03*
D14*
X175539Y46279D03*
D15*
X187808Y46279D03*
D158*
X164516Y46279D03*
D115*
X179718Y46279D03*
D158*
X194920Y46279D03*
D14*
X175539Y46457D03*
D15*
X187808Y46457D03*
X201854Y46457D03*
D158*
X164516Y46457D03*
D115*
X179718Y46457D03*
D159*
X194831Y46457D03*
D19*
X157582Y46634D03*
D18*
X175539Y46634D03*
D19*
X187808Y46634D03*
D157*
X164605Y46634D03*
D116*
X179718Y46634D03*
D157*
X194831Y46634D03*
D14*
X175539Y46812D03*
D15*
X187808Y46812D03*
D14*
X201676Y46812D03*
D159*
X164605Y46812D03*
D115*
X179718Y46812D03*
D156*
X194742Y46812D03*
D18*
X157759Y46990D03*
X175539Y46990D03*
D19*
X187808Y46990D03*
D154*
X164694Y46990D03*
D116*
X179718Y46990D03*
D154*
X194742Y46990D03*
D14*
X175539Y47168D03*
D15*
X187808Y47168D03*
D156*
X164694Y47168D03*
D115*
X179718Y47168D03*
D153*
X194653Y47168D03*
D14*
X175539Y47346D03*
D15*
X187808Y47346D03*
D14*
X201320Y47346D03*
D153*
X164782Y47346D03*
D115*
X179718Y47346D03*
D150*
X194564Y47346D03*
D18*
X158115Y47523D03*
X175539Y47523D03*
D19*
X187808Y47523D03*
D152*
X164871Y47523D03*
D116*
X179718Y47523D03*
D152*
X194564Y47523D03*
D14*
X175539Y47701D03*
D15*
X187808Y47701D03*
X201143Y47701D03*
D150*
X164871Y47701D03*
D115*
X179718Y47701D03*
D151*
X194475Y47701D03*
D19*
X158293Y47879D03*
D18*
X175539Y47879D03*
D19*
X187808Y47879D03*
D148*
X164960Y47879D03*
D116*
X179718Y47879D03*
D148*
X194475Y47879D03*
D14*
X175539Y48057D03*
D15*
X187808Y48057D03*
X200965Y48057D03*
D151*
X164960Y48057D03*
D115*
X179718Y48057D03*
D147*
X194386Y48057D03*
D15*
X158471Y48235D03*
D14*
X175539Y48235D03*
D15*
X187808Y48235D03*
D147*
X165049Y48235D03*
D115*
X179718Y48235D03*
D147*
X194386Y48235D03*
D18*
X175539Y48412D03*
D19*
X187808Y48412D03*
D149*
X165049Y48412D03*
D116*
X179718Y48412D03*
D146*
X194297Y48412D03*
D14*
X175539Y48590D03*
D15*
X187808Y48590D03*
X200609Y48590D03*
D144*
X165138Y48590D03*
D115*
X179718Y48590D03*
D145*
X194208Y48590D03*
D19*
X158826Y48768D03*
D18*
X175539Y48768D03*
D19*
X187808Y48768D03*
D142*
X165227Y48768D03*
D116*
X179718Y48768D03*
D142*
X194208Y48768D03*
D14*
X175539Y48946D03*
D15*
X187808Y48946D03*
D14*
X200431Y48946D03*
D145*
X165227Y48946D03*
D115*
X179718Y48946D03*
D141*
X194120Y48946D03*
D14*
X175539Y49124D03*
D15*
X187808Y49124D03*
D141*
X165316Y49124D03*
D115*
X179718Y49124D03*
D141*
X194120Y49124D03*
D19*
X159182Y49301D03*
D18*
X175539Y49301D03*
D19*
X187808Y49301D03*
X200254Y49301D03*
D140*
X165405Y49301D03*
D116*
X179718Y49301D03*
D140*
X194031Y49301D03*
D14*
X175539Y49479D03*
D15*
X187808Y49479D03*
X200076Y49479D03*
D139*
X165405Y49479D03*
D115*
X179718Y49479D03*
D137*
X193942Y49479D03*
D19*
X159360Y49657D03*
D18*
X175539Y49657D03*
D19*
X187808Y49657D03*
D138*
X165494Y49657D03*
D116*
X179718Y49657D03*
D138*
X193942Y49657D03*
D14*
X175539Y49835D03*
D15*
X187808Y49835D03*
D14*
X199898Y49835D03*
D137*
X165494Y49835D03*
D115*
X179718Y49835D03*
D136*
X193853Y49835D03*
D14*
X159537Y50013D03*
D15*
X171628Y50013D03*
D14*
X175539Y50013D03*
D15*
X187808Y50013D03*
D136*
X165583Y50013D03*
D115*
X179718Y50013D03*
D136*
X193853Y50013D03*
D19*
X159715Y50190D03*
X171628Y50190D03*
D18*
X175539Y50190D03*
D19*
X187808Y50190D03*
X199720Y50190D03*
D135*
X165671Y50190D03*
D116*
X179718Y50190D03*
D135*
X193764Y50190D03*
D15*
X171628Y50368D03*
D14*
X175539Y50368D03*
D15*
X187808Y50368D03*
D134*
X165671Y50368D03*
D115*
X179718Y50368D03*
D134*
X193764Y50368D03*
D18*
X159893Y50546D03*
D19*
X171628Y50546D03*
D18*
X175539Y50546D03*
D19*
X187808Y50546D03*
D18*
X199542Y50546D03*
D133*
X165760Y50546D03*
D116*
X179718Y50546D03*
D133*
X193675Y50546D03*
D15*
X171628Y50724D03*
D14*
X175539Y50724D03*
D15*
X187808Y50724D03*
X199365Y50724D03*
D132*
X165760Y50724D03*
D115*
X179718Y50724D03*
D131*
X193586Y50724D03*
D15*
X160071Y50902D03*
X171628Y50902D03*
D14*
X175539Y50902D03*
D15*
X187808Y50902D03*
D131*
X165849Y50902D03*
D115*
X179718Y50902D03*
D131*
X193586Y50902D03*
D19*
X171628Y51079D03*
D18*
X175539Y51079D03*
D19*
X187808Y51079D03*
X199187Y51079D03*
D129*
X165849Y51079D03*
D116*
X179718Y51079D03*
D130*
X193497Y51079D03*
D15*
X160249Y51257D03*
X171628Y51257D03*
D14*
X175539Y51257D03*
D15*
X187808Y51257D03*
D128*
X165938Y51257D03*
D115*
X179718Y51257D03*
D128*
X193497Y51257D03*
D18*
X160426Y51435D03*
D19*
X171628Y51435D03*
D18*
X175539Y51435D03*
D19*
X187808Y51435D03*
D18*
X199009Y51435D03*
D127*
X166027Y51435D03*
D116*
X179718Y51435D03*
D127*
X193408Y51435D03*
D15*
X171628Y51613D03*
D14*
X175539Y51613D03*
D15*
X187808Y51613D03*
D126*
X166027Y51613D03*
D115*
X179718Y51613D03*
D126*
X193408Y51613D03*
D15*
X160604Y51791D03*
X171628Y51791D03*
D14*
X175539Y51791D03*
D15*
X187808Y51791D03*
D125*
X166116Y51791D03*
D115*
X179718Y51791D03*
D125*
X193319Y51791D03*
D19*
X171628Y51968D03*
D18*
X175539Y51968D03*
D19*
X187808Y51968D03*
D18*
X198653Y51968D03*
D124*
X166116Y51968D03*
D116*
X179718Y51968D03*
D122*
X193231Y51968D03*
D14*
X160782Y52146D03*
D15*
X171628Y52146D03*
D14*
X175539Y52146D03*
D15*
X187808Y52146D03*
D123*
X166205Y52146D03*
D115*
X179718Y52146D03*
D123*
X193231Y52146D03*
D19*
X171628Y52324D03*
D18*
X175539Y52324D03*
D19*
X187808Y52324D03*
X198476Y52324D03*
D122*
X166205Y52324D03*
D116*
X179718Y52324D03*
D185*
X193142Y52324D03*
D15*
X160960Y52502D03*
X171628Y52502D03*
D14*
X175539Y52502D03*
D15*
X187808Y52502D03*
D121*
X166294Y52502D03*
D115*
X179718Y52502D03*
D121*
X193142Y52502D03*
D15*
X161138Y52680D03*
X171628Y52680D03*
D14*
X175539Y52680D03*
D15*
X187808Y52680D03*
X198298Y52680D03*
D119*
X166383Y52680D03*
D115*
X179718Y52680D03*
D119*
X193053Y52680D03*
D19*
X171628Y52857D03*
D18*
X175539Y52857D03*
D19*
X187808Y52857D03*
D18*
X198120Y52857D03*
D120*
X166383Y52857D03*
D116*
X179718Y52857D03*
D118*
X192964Y52857D03*
D14*
X161315Y53035D03*
D15*
X171628Y53035D03*
D14*
X175539Y53035D03*
D15*
X187808Y53035D03*
D103*
X166472Y53035D03*
D115*
X179718Y53035D03*
D103*
X192964Y53035D03*
D19*
X171628Y53213D03*
D18*
X175539Y53213D03*
D19*
X187808Y53213D03*
X197942Y53213D03*
D118*
X166472Y53213D03*
D116*
X179718Y53213D03*
D186*
X192875Y53213D03*
D15*
X161493Y53391D03*
X171628Y53391D03*
D14*
X175539Y53391D03*
D15*
X187808Y53391D03*
D117*
X166560Y53391D03*
D115*
X179718Y53391D03*
D117*
X192875Y53391D03*
D15*
X171628Y53569D03*
D14*
X175539Y53569D03*
D15*
X187808Y53569D03*
D14*
X197764Y53569D03*
D117*
X166560Y53569D03*
D115*
X179718Y53569D03*
D112*
X192786Y53569D03*
D19*
X171628Y53746D03*
D18*
X175539Y53746D03*
D19*
X187808Y53746D03*
D108*
X166649Y53746D03*
D116*
X179718Y53746D03*
D108*
X192786Y53746D03*
D15*
X161849Y53924D03*
X171628Y53924D03*
D14*
X175539Y53924D03*
D15*
X187808Y53924D03*
X197587Y53924D03*
D110*
X166738Y53924D03*
D115*
X179718Y53924D03*
D110*
X192697Y53924D03*
D19*
X171628Y54102D03*
X187808Y54102D03*
X197409Y54102D03*
D113*
X166738Y54102D03*
D114*
X179629Y54102D03*
D187*
X192608Y54102D03*
D15*
X162027Y54280D03*
X187808Y54280D03*
D110*
X166916Y54280D03*
D90*
X179629Y54280D03*
D102*
X192608Y54280D03*
D15*
X171806Y54458D03*
X175362Y54458D03*
X187808Y54458D03*
D14*
X197231Y54458D03*
D110*
X166916Y54458D03*
D90*
X179629Y54458D03*
D109*
X192519Y54458D03*
D18*
X162204Y54635D03*
D19*
X187808Y54635D03*
D113*
X167094Y54635D03*
D94*
X179540Y54635D03*
D111*
X192519Y54635D03*
D15*
X162382Y54813D03*
D14*
X171983Y54813D03*
D15*
X187808Y54813D03*
X197053Y54813D03*
D102*
X167183Y54813D03*
D96*
X179451Y54813D03*
D188*
X192430Y54813D03*
D19*
X172161Y54991D03*
D18*
X175006Y54991D03*
D19*
X187808Y54991D03*
D113*
X167272Y54991D03*
D98*
X179451Y54991D03*
D106*
X192430Y54991D03*
D14*
X162560Y55169D03*
X172339Y55169D03*
D15*
X174828Y55169D03*
X187808Y55169D03*
D14*
X196875Y55169D03*
D110*
X167449Y55169D03*
D101*
X179362Y55169D03*
X192342Y55169D03*
D15*
X172695Y55347D03*
X174473Y55347D03*
X187808Y55347D03*
X196698Y55347D03*
D105*
X167627Y55347D03*
D109*
X179184Y55347D03*
D96*
X192253Y55347D03*
D19*
X162738Y55524D03*
D189*
X173228Y55524D03*
X173939Y55524D03*
D19*
X187808Y55524D03*
D118*
X167894Y55524D03*
D113*
X179006Y55524D03*
D98*
X192253Y55524D03*
D15*
X187808Y55702D03*
X196520Y55702D03*
D190*
X173317Y55702D03*
D92*
X192164Y55702D03*
D19*
X162916Y55880D03*
X187808Y55880D03*
D95*
X173406Y55880D03*
D94*
X192164Y55880D03*
D14*
X163093Y56058D03*
D15*
X187808Y56058D03*
D14*
X196342Y56058D03*
D93*
X173495Y56058D03*
D90*
X192075Y56058D03*
D15*
X187808Y56236D03*
D93*
X173495Y56236D03*
D90*
X192075Y56236D03*
D19*
X163271Y56413D03*
X187808Y56413D03*
D87*
X173584Y56413D03*
D89*
X191986Y56413D03*
D15*
X187808Y56591D03*
D14*
X195986Y56591D03*
D91*
X173584Y56591D03*
D85*
X191897Y56591D03*
D18*
X163449Y56769D03*
D19*
X187808Y56769D03*
D191*
X173672Y56769D03*
D86*
X191897Y56769D03*
D15*
X187808Y56947D03*
X195809Y56947D03*
D84*
X173672Y56947D03*
D83*
X191808Y56947D03*
D15*
X163627Y57125D03*
X187808Y57125D03*
D80*
X173761Y57125D03*
D83*
X191808Y57125D03*
D19*
X163805Y57302D03*
X187808Y57302D03*
X195631Y57302D03*
D78*
X173850Y57302D03*
D81*
X191719Y57302D03*
D15*
X187808Y57480D03*
D14*
X195453Y57480D03*
D192*
X173850Y57480D03*
D76*
X191630Y57480D03*
D18*
X163982Y57658D03*
D19*
X187808Y57658D03*
D193*
X173939Y57658D03*
D77*
X191630Y57658D03*
D15*
X187808Y57836D03*
X195275Y57836D03*
D194*
X173939Y57836D03*
D74*
X191541Y57836D03*
D15*
X164160Y58014D03*
X187808Y58014D03*
D71*
X174028Y58014D03*
D74*
X191541Y58014D03*
D18*
X164338Y58191D03*
D19*
X187808Y58191D03*
D18*
X195097Y58191D03*
D69*
X174117Y58191D03*
D195*
X191453Y58191D03*
D15*
X187808Y58369D03*
D67*
X174117Y58369D03*
D70*
X191453Y58369D03*
D19*
X164516Y58547D03*
X187808Y58547D03*
X194920Y58547D03*
D196*
X174206Y58547D03*
D68*
X191364Y58547D03*
D15*
X187808Y58725D03*
X194742Y58725D03*
D65*
X174206Y58725D03*
D64*
X191275Y58725D03*
D15*
X164694Y58903D03*
X187808Y58903D03*
D61*
X174295Y58903D03*
D64*
X191275Y58903D03*
D19*
X187808Y59080D03*
D18*
X194564Y59080D03*
D63*
X174295Y59080D03*
D58*
X191186Y59080D03*
D14*
X164871Y59258D03*
D15*
X187808Y59258D03*
D197*
X174384Y59258D03*
D60*
X191186Y59258D03*
D19*
X165049Y59436D03*
X187808Y59436D03*
X194386Y59436D03*
D198*
X174473Y59436D03*
D199*
X191097Y59436D03*
D15*
X187808Y59614D03*
D55*
X174473Y59614D03*
D56*
X191097Y59614D03*
D14*
X165227Y59792D03*
D15*
X187808Y59792D03*
D14*
X194208Y59792D03*
D51*
X174561Y59792D03*
D54*
X191008Y59792D03*
D19*
X187808Y59969D03*
X194031Y59969D03*
D53*
X174561Y59969D03*
D48*
X190919Y59969D03*
D15*
X165405Y60147D03*
X187808Y60147D03*
D47*
X174650Y60147D03*
D50*
X190919Y60147D03*
D19*
X187808Y60325D03*
X193853Y60325D03*
D49*
X174650Y60325D03*
D200*
X190830Y60325D03*
D15*
X165583Y60503D03*
X187808Y60503D03*
D46*
X174739Y60503D03*
D45*
X190830Y60503D03*
D14*
X165760Y60681D03*
D15*
X187808Y60681D03*
D14*
X193675Y60681D03*
D201*
X174828Y60681D03*
D202*
X190741Y60681D03*
D19*
X187808Y60858D03*
X193497Y60858D03*
D203*
X174828Y60858D03*
D39*
X190652Y60858D03*
D15*
X165938Y61036D03*
X187808Y61036D03*
D38*
X174917Y61036D03*
D41*
X190652Y61036D03*
D19*
X187808Y61214D03*
D18*
X193319Y61214D03*
D40*
X174917Y61214D03*
D204*
X190564Y61214D03*
D205*
X166383Y61392D03*
D14*
X166116Y61392D03*
D15*
X187808Y61392D03*
D29*
X175184Y61392D03*
D36*
X190564Y61392D03*
D206*
X166738Y61570D03*
D15*
X187808Y61570D03*
X193142Y61570D03*
X166294Y61570D03*
D207*
X175450Y61570D03*
D208*
X190475Y61570D03*
D209*
X167005Y61747D03*
D19*
X166294Y61747D03*
X187808Y61747D03*
D210*
X175717Y61747D03*
D34*
X190475Y61747D03*
D211*
X167272Y61925D03*
D15*
X166472Y61925D03*
X187808Y61925D03*
X192964Y61925D03*
D17*
X175895Y61925D03*
D32*
X190386Y61925D03*
D212*
X167627Y62103D03*
D19*
X187808Y62103D03*
D18*
X192786Y62103D03*
X166649Y62103D03*
D213*
X176162Y62103D03*
D214*
X190297Y62103D03*
D215*
X167805Y62281D03*
D100*
X188074Y62281D03*
D14*
X166649Y62281D03*
D15*
X187808Y62281D03*
D170*
X176339Y62281D03*
D216*
X190475Y62281D03*
D217*
X168161Y62459D03*
D218*
X188341Y62459D03*
D15*
X166827Y62459D03*
X187808Y62459D03*
D219*
X176606Y62459D03*
D220*
X190652Y62459D03*
D221*
X168516Y62636D03*
D209*
X188519Y62636D03*
D18*
X167005Y62636D03*
D19*
X187808Y62636D03*
D157*
X176873Y62636D03*
D222*
X190741Y62636D03*
D12*
X168783Y62814D03*
D223*
X188786Y62814D03*
D15*
X167183Y62814D03*
X187808Y62814D03*
X192075Y62814D03*
D224*
X177051Y62814D03*
D225*
X190830Y62814D03*
D222*
X169227Y62992D03*
D226*
X188963Y62992D03*
D18*
X167538Y62992D03*
D19*
X187808Y62992D03*
D18*
X191897Y62992D03*
D149*
X177317Y62992D03*
D212*
X190919Y62992D03*
D227*
X169583Y63170D03*
D228*
X189230Y63170D03*
D14*
X167894Y63170D03*
D15*
X187808Y63170D03*
D14*
X191541Y63170D03*
D229*
X177495Y63170D03*
D218*
X191008Y63170D03*
D230*
X170294Y63348D03*
D228*
X189230Y63348D03*
D231*
X168427Y63348D03*
D15*
X187808Y63348D03*
D100*
X190919Y63348D03*
D14*
X168783Y63348D03*
D137*
X177762Y63348D03*
D14*
X190652Y63348D03*
M02*
