G04 EAGLE Gerber RS-274X export*
G75*
%MOMM*%
%FSLAX34Y34*%
%LPD*%
%INSilkscreen Bottom*%
%IPPOS*%
%AMOC8*
5,1,8,0,0,1.08239X$1,22.5*%
G01*
%ADD10C,0.101600*%
%ADD11C,0.152400*%
%ADD12C,0.076200*%


D10*
X116266Y404603D02*
X114671Y405720D01*
X110948Y400403D01*
X114138Y398169D01*
X114221Y398114D01*
X114305Y398062D01*
X114392Y398013D01*
X114480Y397967D01*
X114570Y397925D01*
X114662Y397886D01*
X114755Y397851D01*
X114849Y397819D01*
X114944Y397791D01*
X115041Y397767D01*
X115138Y397746D01*
X115236Y397730D01*
X115335Y397716D01*
X115434Y397707D01*
X115533Y397702D01*
X115633Y397700D01*
X115732Y397702D01*
X115831Y397708D01*
X115930Y397718D01*
X116029Y397731D01*
X116127Y397749D01*
X116224Y397770D01*
X116320Y397794D01*
X116416Y397823D01*
X116510Y397855D01*
X116603Y397890D01*
X116694Y397929D01*
X116784Y397972D01*
X116872Y398018D01*
X116958Y398067D01*
X117043Y398120D01*
X117125Y398176D01*
X117205Y398235D01*
X117283Y398297D01*
X117358Y398362D01*
X117431Y398429D01*
X117501Y398500D01*
X117569Y398573D01*
X117633Y398649D01*
X117695Y398727D01*
X117754Y398807D01*
X121477Y404124D01*
X121532Y404207D01*
X121584Y404291D01*
X121633Y404378D01*
X121679Y404466D01*
X121721Y404556D01*
X121760Y404648D01*
X121795Y404741D01*
X121827Y404835D01*
X121855Y404930D01*
X121879Y405027D01*
X121900Y405124D01*
X121916Y405222D01*
X121930Y405321D01*
X121939Y405420D01*
X121944Y405519D01*
X121946Y405619D01*
X121944Y405718D01*
X121938Y405817D01*
X121928Y405916D01*
X121915Y406015D01*
X121897Y406113D01*
X121876Y406210D01*
X121852Y406306D01*
X121823Y406402D01*
X121791Y406496D01*
X121756Y406589D01*
X121717Y406680D01*
X121674Y406770D01*
X121628Y406858D01*
X121579Y406944D01*
X121526Y407029D01*
X121470Y407111D01*
X121411Y407191D01*
X121349Y407269D01*
X121284Y407344D01*
X121217Y407417D01*
X121146Y407487D01*
X121073Y407555D01*
X120997Y407619D01*
X120919Y407681D01*
X120839Y407740D01*
X120840Y407740D02*
X117649Y409974D01*
X112980Y413244D02*
X106278Y403673D01*
X100961Y407396D02*
X112980Y413244D01*
X107662Y416967D02*
X100961Y407396D01*
X96291Y410666D02*
X102992Y420237D01*
X100334Y422098D01*
X100334Y422099D02*
X100240Y422162D01*
X100144Y422222D01*
X100046Y422279D01*
X99946Y422332D01*
X99844Y422382D01*
X99740Y422428D01*
X99635Y422470D01*
X99529Y422509D01*
X99421Y422544D01*
X99312Y422575D01*
X99202Y422603D01*
X99091Y422626D01*
X98980Y422646D01*
X98868Y422662D01*
X98755Y422674D01*
X98642Y422682D01*
X98529Y422686D01*
X98415Y422686D01*
X98302Y422682D01*
X98189Y422674D01*
X98076Y422662D01*
X97964Y422646D01*
X97853Y422626D01*
X97742Y422603D01*
X97632Y422575D01*
X97523Y422544D01*
X97415Y422509D01*
X97309Y422470D01*
X97204Y422428D01*
X97100Y422382D01*
X96998Y422332D01*
X96898Y422279D01*
X96800Y422222D01*
X96704Y422162D01*
X96610Y422099D01*
X96519Y422032D01*
X96429Y421963D01*
X96342Y421890D01*
X96258Y421814D01*
X96177Y421735D01*
X96098Y421654D01*
X96022Y421570D01*
X95949Y421483D01*
X95880Y421394D01*
X95813Y421302D01*
X95814Y421301D02*
X92835Y417048D01*
X92772Y416954D01*
X92712Y416858D01*
X92655Y416760D01*
X92602Y416660D01*
X92552Y416558D01*
X92506Y416454D01*
X92464Y416349D01*
X92425Y416243D01*
X92390Y416135D01*
X92359Y416026D01*
X92331Y415916D01*
X92308Y415805D01*
X92288Y415694D01*
X92272Y415582D01*
X92260Y415469D01*
X92252Y415356D01*
X92248Y415243D01*
X92248Y415129D01*
X92252Y415016D01*
X92260Y414903D01*
X92272Y414790D01*
X92288Y414678D01*
X92308Y414567D01*
X92331Y414456D01*
X92359Y414346D01*
X92390Y414237D01*
X92425Y414129D01*
X92464Y414023D01*
X92506Y413918D01*
X92552Y413814D01*
X92602Y413712D01*
X92655Y413612D01*
X92712Y413514D01*
X92772Y413418D01*
X92835Y413324D01*
X92902Y413232D01*
X92971Y413143D01*
X93044Y413056D01*
X93120Y412972D01*
X93199Y412891D01*
X93280Y412812D01*
X93364Y412736D01*
X93451Y412663D01*
X93541Y412594D01*
X93632Y412527D01*
X96291Y410666D01*
X191916Y260219D02*
X193864Y260219D01*
X191916Y260219D02*
X191916Y253728D01*
X195811Y253728D01*
X195910Y253730D01*
X196010Y253736D01*
X196109Y253745D01*
X196207Y253758D01*
X196305Y253775D01*
X196403Y253796D01*
X196499Y253821D01*
X196594Y253849D01*
X196688Y253881D01*
X196781Y253916D01*
X196873Y253955D01*
X196963Y253998D01*
X197051Y254043D01*
X197138Y254093D01*
X197222Y254145D01*
X197305Y254201D01*
X197385Y254259D01*
X197463Y254321D01*
X197538Y254386D01*
X197611Y254454D01*
X197681Y254524D01*
X197749Y254597D01*
X197814Y254672D01*
X197876Y254750D01*
X197934Y254830D01*
X197990Y254913D01*
X198042Y254997D01*
X198092Y255084D01*
X198137Y255172D01*
X198180Y255262D01*
X198219Y255354D01*
X198254Y255447D01*
X198286Y255541D01*
X198314Y255636D01*
X198339Y255732D01*
X198360Y255830D01*
X198377Y255928D01*
X198390Y256026D01*
X198399Y256125D01*
X198405Y256225D01*
X198407Y256324D01*
X198408Y256324D02*
X198408Y262816D01*
X198407Y262816D02*
X198405Y262915D01*
X198399Y263015D01*
X198390Y263114D01*
X198377Y263212D01*
X198360Y263310D01*
X198339Y263408D01*
X198314Y263504D01*
X198286Y263599D01*
X198254Y263693D01*
X198219Y263786D01*
X198180Y263878D01*
X198137Y263968D01*
X198092Y264056D01*
X198042Y264143D01*
X197990Y264227D01*
X197934Y264310D01*
X197876Y264390D01*
X197814Y264468D01*
X197749Y264543D01*
X197681Y264616D01*
X197611Y264686D01*
X197538Y264754D01*
X197463Y264819D01*
X197385Y264881D01*
X197305Y264939D01*
X197222Y264995D01*
X197138Y265047D01*
X197051Y265097D01*
X196963Y265142D01*
X196873Y265185D01*
X196781Y265224D01*
X196688Y265259D01*
X196594Y265291D01*
X196499Y265319D01*
X196403Y265344D01*
X196305Y265365D01*
X196207Y265382D01*
X196109Y265395D01*
X196010Y265404D01*
X195910Y265410D01*
X195811Y265412D01*
X191916Y265412D01*
X186216Y265412D02*
X186216Y253728D01*
X179724Y253728D02*
X186216Y265412D01*
X179724Y265412D02*
X179724Y253728D01*
X174024Y253728D02*
X174024Y265412D01*
X170778Y265412D01*
X170665Y265410D01*
X170552Y265404D01*
X170439Y265394D01*
X170326Y265380D01*
X170214Y265363D01*
X170103Y265341D01*
X169993Y265316D01*
X169883Y265286D01*
X169775Y265253D01*
X169668Y265216D01*
X169562Y265176D01*
X169458Y265131D01*
X169355Y265083D01*
X169254Y265032D01*
X169155Y264977D01*
X169058Y264919D01*
X168963Y264857D01*
X168870Y264792D01*
X168780Y264724D01*
X168692Y264653D01*
X168606Y264578D01*
X168523Y264501D01*
X168443Y264421D01*
X168366Y264338D01*
X168291Y264252D01*
X168220Y264164D01*
X168152Y264074D01*
X168087Y263981D01*
X168025Y263886D01*
X167967Y263789D01*
X167912Y263690D01*
X167861Y263589D01*
X167813Y263486D01*
X167768Y263382D01*
X167728Y263276D01*
X167691Y263169D01*
X167658Y263061D01*
X167628Y262951D01*
X167603Y262841D01*
X167581Y262730D01*
X167564Y262618D01*
X167550Y262505D01*
X167540Y262392D01*
X167534Y262279D01*
X167532Y262166D01*
X167532Y256974D01*
X167534Y256861D01*
X167540Y256748D01*
X167550Y256635D01*
X167564Y256522D01*
X167581Y256410D01*
X167603Y256299D01*
X167628Y256189D01*
X167658Y256079D01*
X167691Y255971D01*
X167728Y255864D01*
X167768Y255758D01*
X167813Y255654D01*
X167861Y255551D01*
X167912Y255450D01*
X167967Y255351D01*
X168025Y255254D01*
X168087Y255159D01*
X168152Y255066D01*
X168220Y254976D01*
X168291Y254888D01*
X168366Y254802D01*
X168443Y254719D01*
X168523Y254639D01*
X168606Y254562D01*
X168692Y254487D01*
X168780Y254416D01*
X168870Y254348D01*
X168963Y254283D01*
X169058Y254221D01*
X169155Y254163D01*
X169254Y254108D01*
X169355Y254057D01*
X169458Y254009D01*
X169562Y253964D01*
X169668Y253924D01*
X169775Y253887D01*
X169883Y253854D01*
X169993Y253824D01*
X170103Y253799D01*
X170214Y253777D01*
X170326Y253760D01*
X170439Y253746D01*
X170552Y253736D01*
X170665Y253730D01*
X170778Y253728D01*
X174024Y253728D01*
X116791Y53470D02*
X115196Y52353D01*
X118919Y47036D01*
X122110Y49270D01*
X122109Y49270D02*
X122189Y49329D01*
X122267Y49391D01*
X122343Y49455D01*
X122416Y49523D01*
X122487Y49593D01*
X122554Y49666D01*
X122619Y49741D01*
X122681Y49819D01*
X122740Y49899D01*
X122796Y49981D01*
X122849Y50066D01*
X122898Y50152D01*
X122944Y50240D01*
X122987Y50330D01*
X123026Y50421D01*
X123061Y50514D01*
X123093Y50608D01*
X123122Y50704D01*
X123146Y50800D01*
X123167Y50897D01*
X123185Y50995D01*
X123198Y51094D01*
X123208Y51193D01*
X123214Y51292D01*
X123216Y51391D01*
X123214Y51491D01*
X123209Y51590D01*
X123199Y51689D01*
X123186Y51788D01*
X123170Y51886D01*
X123149Y51983D01*
X123125Y52080D01*
X123097Y52175D01*
X123065Y52269D01*
X123030Y52362D01*
X122991Y52454D01*
X122949Y52544D01*
X122903Y52632D01*
X122854Y52719D01*
X122802Y52803D01*
X122747Y52886D01*
X119024Y58203D01*
X118965Y58283D01*
X118903Y58361D01*
X118839Y58437D01*
X118771Y58510D01*
X118701Y58581D01*
X118628Y58648D01*
X118553Y58713D01*
X118475Y58775D01*
X118395Y58834D01*
X118313Y58890D01*
X118228Y58943D01*
X118142Y58992D01*
X118054Y59038D01*
X117964Y59081D01*
X117873Y59120D01*
X117780Y59155D01*
X117686Y59187D01*
X117590Y59216D01*
X117494Y59240D01*
X117397Y59261D01*
X117299Y59279D01*
X117200Y59292D01*
X117101Y59302D01*
X117002Y59308D01*
X116903Y59310D01*
X116803Y59308D01*
X116704Y59303D01*
X116605Y59294D01*
X116506Y59280D01*
X116408Y59264D01*
X116311Y59243D01*
X116214Y59219D01*
X116119Y59191D01*
X116025Y59159D01*
X115932Y59124D01*
X115840Y59085D01*
X115750Y59043D01*
X115662Y58997D01*
X115575Y58948D01*
X115491Y58896D01*
X115408Y58841D01*
X112218Y56607D01*
X107548Y53337D02*
X114249Y43766D01*
X108932Y40043D02*
X107548Y53337D01*
X102231Y49614D02*
X108932Y40043D01*
X104262Y36773D02*
X97561Y46344D01*
X94902Y44482D01*
X94902Y44483D02*
X94811Y44416D01*
X94721Y44347D01*
X94634Y44274D01*
X94550Y44198D01*
X94469Y44119D01*
X94390Y44038D01*
X94314Y43954D01*
X94241Y43867D01*
X94172Y43778D01*
X94105Y43686D01*
X94042Y43592D01*
X93982Y43496D01*
X93925Y43398D01*
X93872Y43298D01*
X93822Y43196D01*
X93776Y43092D01*
X93734Y42987D01*
X93695Y42881D01*
X93660Y42773D01*
X93629Y42664D01*
X93601Y42554D01*
X93578Y42443D01*
X93558Y42332D01*
X93542Y42220D01*
X93530Y42107D01*
X93522Y41994D01*
X93518Y41881D01*
X93518Y41767D01*
X93522Y41654D01*
X93530Y41541D01*
X93542Y41428D01*
X93558Y41316D01*
X93578Y41205D01*
X93601Y41094D01*
X93629Y40984D01*
X93660Y40875D01*
X93695Y40767D01*
X93734Y40661D01*
X93776Y40556D01*
X93822Y40452D01*
X93872Y40350D01*
X93925Y40250D01*
X93982Y40152D01*
X94042Y40056D01*
X94105Y39962D01*
X97084Y35708D01*
X97083Y35708D02*
X97150Y35617D01*
X97219Y35527D01*
X97292Y35440D01*
X97368Y35356D01*
X97447Y35275D01*
X97528Y35196D01*
X97612Y35120D01*
X97699Y35047D01*
X97789Y34978D01*
X97880Y34911D01*
X97974Y34848D01*
X98070Y34788D01*
X98168Y34731D01*
X98268Y34678D01*
X98370Y34628D01*
X98474Y34582D01*
X98579Y34540D01*
X98685Y34501D01*
X98793Y34466D01*
X98902Y34435D01*
X99012Y34407D01*
X99123Y34384D01*
X99234Y34364D01*
X99346Y34348D01*
X99459Y34336D01*
X99572Y34328D01*
X99685Y34324D01*
X99799Y34324D01*
X99912Y34328D01*
X100025Y34336D01*
X100138Y34348D01*
X100250Y34364D01*
X100361Y34384D01*
X100472Y34407D01*
X100582Y34435D01*
X100691Y34466D01*
X100799Y34501D01*
X100905Y34540D01*
X101010Y34582D01*
X101114Y34628D01*
X101216Y34678D01*
X101316Y34731D01*
X101414Y34788D01*
X101510Y34848D01*
X101604Y34911D01*
X104262Y36773D01*
X-99234Y39703D02*
X-100829Y40820D01*
X-104552Y35503D01*
X-101362Y33269D01*
X-101279Y33214D01*
X-101195Y33162D01*
X-101108Y33113D01*
X-101020Y33067D01*
X-100930Y33025D01*
X-100838Y32986D01*
X-100745Y32951D01*
X-100651Y32919D01*
X-100556Y32891D01*
X-100459Y32867D01*
X-100362Y32846D01*
X-100264Y32830D01*
X-100165Y32817D01*
X-100066Y32807D01*
X-99967Y32802D01*
X-99867Y32800D01*
X-99768Y32802D01*
X-99669Y32808D01*
X-99570Y32818D01*
X-99471Y32831D01*
X-99373Y32849D01*
X-99276Y32870D01*
X-99180Y32894D01*
X-99084Y32923D01*
X-98990Y32955D01*
X-98897Y32990D01*
X-98806Y33029D01*
X-98716Y33072D01*
X-98628Y33118D01*
X-98542Y33167D01*
X-98457Y33220D01*
X-98375Y33276D01*
X-98295Y33335D01*
X-98217Y33397D01*
X-98142Y33462D01*
X-98069Y33529D01*
X-97999Y33600D01*
X-97931Y33673D01*
X-97867Y33749D01*
X-97805Y33827D01*
X-97746Y33907D01*
X-94023Y39224D01*
X-93968Y39307D01*
X-93916Y39391D01*
X-93867Y39478D01*
X-93821Y39566D01*
X-93779Y39656D01*
X-93740Y39748D01*
X-93705Y39841D01*
X-93673Y39935D01*
X-93645Y40030D01*
X-93621Y40127D01*
X-93600Y40224D01*
X-93584Y40322D01*
X-93571Y40421D01*
X-93561Y40520D01*
X-93556Y40619D01*
X-93554Y40719D01*
X-93556Y40818D01*
X-93562Y40917D01*
X-93572Y41016D01*
X-93585Y41115D01*
X-93603Y41213D01*
X-93624Y41310D01*
X-93648Y41406D01*
X-93677Y41502D01*
X-93709Y41596D01*
X-93744Y41689D01*
X-93783Y41780D01*
X-93826Y41870D01*
X-93872Y41958D01*
X-93921Y42044D01*
X-93974Y42129D01*
X-94030Y42211D01*
X-94089Y42291D01*
X-94151Y42369D01*
X-94216Y42444D01*
X-94283Y42517D01*
X-94354Y42587D01*
X-94427Y42655D01*
X-94503Y42719D01*
X-94581Y42781D01*
X-94661Y42840D01*
X-94660Y42840D02*
X-97851Y45074D01*
X-102521Y48344D02*
X-109222Y38773D01*
X-114540Y42496D02*
X-102521Y48344D01*
X-107838Y52067D02*
X-114540Y42496D01*
X-119209Y45766D02*
X-112508Y55337D01*
X-115166Y57198D01*
X-115166Y57199D02*
X-115260Y57262D01*
X-115356Y57322D01*
X-115454Y57379D01*
X-115554Y57432D01*
X-115656Y57482D01*
X-115760Y57528D01*
X-115865Y57570D01*
X-115971Y57609D01*
X-116079Y57644D01*
X-116188Y57675D01*
X-116298Y57703D01*
X-116409Y57726D01*
X-116520Y57746D01*
X-116632Y57762D01*
X-116745Y57774D01*
X-116858Y57782D01*
X-116971Y57786D01*
X-117085Y57786D01*
X-117198Y57782D01*
X-117311Y57774D01*
X-117424Y57762D01*
X-117536Y57746D01*
X-117647Y57726D01*
X-117758Y57703D01*
X-117868Y57675D01*
X-117977Y57644D01*
X-118085Y57609D01*
X-118191Y57570D01*
X-118296Y57528D01*
X-118400Y57482D01*
X-118502Y57432D01*
X-118602Y57379D01*
X-118700Y57322D01*
X-118796Y57262D01*
X-118890Y57199D01*
X-118981Y57132D01*
X-119071Y57063D01*
X-119158Y56990D01*
X-119242Y56914D01*
X-119323Y56835D01*
X-119402Y56754D01*
X-119478Y56670D01*
X-119551Y56583D01*
X-119620Y56494D01*
X-119687Y56402D01*
X-119687Y56401D02*
X-122665Y52148D01*
X-122666Y52148D02*
X-122729Y52054D01*
X-122789Y51958D01*
X-122846Y51860D01*
X-122899Y51760D01*
X-122949Y51658D01*
X-122995Y51554D01*
X-123037Y51449D01*
X-123076Y51343D01*
X-123111Y51235D01*
X-123142Y51126D01*
X-123170Y51016D01*
X-123193Y50905D01*
X-123213Y50794D01*
X-123229Y50682D01*
X-123241Y50569D01*
X-123249Y50456D01*
X-123253Y50343D01*
X-123253Y50229D01*
X-123249Y50116D01*
X-123241Y50003D01*
X-123229Y49890D01*
X-123213Y49778D01*
X-123193Y49667D01*
X-123170Y49556D01*
X-123142Y49446D01*
X-123111Y49337D01*
X-123076Y49229D01*
X-123037Y49123D01*
X-122995Y49018D01*
X-122949Y48914D01*
X-122899Y48812D01*
X-122846Y48712D01*
X-122789Y48614D01*
X-122729Y48518D01*
X-122666Y48424D01*
X-122599Y48332D01*
X-122530Y48243D01*
X-122457Y48156D01*
X-122381Y48072D01*
X-122302Y47991D01*
X-122221Y47912D01*
X-122137Y47836D01*
X-122050Y47763D01*
X-121960Y47694D01*
X-121869Y47627D01*
X-121868Y47627D02*
X-119209Y45766D01*
X-174906Y261489D02*
X-176854Y261489D01*
X-176854Y254998D01*
X-172959Y254998D01*
X-172860Y255000D01*
X-172760Y255006D01*
X-172661Y255015D01*
X-172563Y255028D01*
X-172465Y255045D01*
X-172367Y255066D01*
X-172271Y255091D01*
X-172176Y255119D01*
X-172082Y255151D01*
X-171989Y255186D01*
X-171897Y255225D01*
X-171807Y255268D01*
X-171719Y255313D01*
X-171632Y255363D01*
X-171548Y255415D01*
X-171465Y255471D01*
X-171385Y255529D01*
X-171307Y255591D01*
X-171232Y255656D01*
X-171159Y255724D01*
X-171089Y255794D01*
X-171021Y255867D01*
X-170956Y255942D01*
X-170894Y256020D01*
X-170836Y256100D01*
X-170780Y256183D01*
X-170728Y256267D01*
X-170678Y256354D01*
X-170633Y256442D01*
X-170590Y256532D01*
X-170551Y256624D01*
X-170516Y256717D01*
X-170484Y256811D01*
X-170456Y256906D01*
X-170431Y257002D01*
X-170410Y257100D01*
X-170393Y257198D01*
X-170380Y257296D01*
X-170371Y257395D01*
X-170365Y257495D01*
X-170363Y257594D01*
X-170363Y264086D01*
X-170365Y264185D01*
X-170371Y264285D01*
X-170380Y264384D01*
X-170393Y264482D01*
X-170410Y264580D01*
X-170431Y264678D01*
X-170456Y264774D01*
X-170484Y264869D01*
X-170516Y264963D01*
X-170551Y265056D01*
X-170590Y265148D01*
X-170633Y265238D01*
X-170678Y265326D01*
X-170728Y265413D01*
X-170780Y265497D01*
X-170836Y265580D01*
X-170894Y265660D01*
X-170956Y265738D01*
X-171021Y265813D01*
X-171089Y265886D01*
X-171159Y265956D01*
X-171232Y266024D01*
X-171307Y266089D01*
X-171385Y266151D01*
X-171465Y266209D01*
X-171548Y266265D01*
X-171632Y266317D01*
X-171719Y266367D01*
X-171807Y266412D01*
X-171897Y266455D01*
X-171989Y266494D01*
X-172081Y266529D01*
X-172176Y266561D01*
X-172271Y266589D01*
X-172367Y266614D01*
X-172465Y266635D01*
X-172563Y266652D01*
X-172661Y266665D01*
X-172760Y266674D01*
X-172860Y266680D01*
X-172959Y266682D01*
X-176854Y266682D01*
X-182554Y266682D02*
X-182554Y254998D01*
X-189046Y254998D02*
X-182554Y266682D01*
X-189046Y266682D02*
X-189046Y254998D01*
X-194746Y254998D02*
X-194746Y266682D01*
X-197992Y266682D01*
X-198105Y266680D01*
X-198218Y266674D01*
X-198331Y266664D01*
X-198444Y266650D01*
X-198556Y266633D01*
X-198667Y266611D01*
X-198777Y266586D01*
X-198887Y266556D01*
X-198995Y266523D01*
X-199102Y266486D01*
X-199208Y266446D01*
X-199312Y266401D01*
X-199415Y266353D01*
X-199516Y266302D01*
X-199615Y266247D01*
X-199712Y266189D01*
X-199807Y266127D01*
X-199900Y266062D01*
X-199990Y265994D01*
X-200078Y265923D01*
X-200164Y265848D01*
X-200247Y265771D01*
X-200327Y265691D01*
X-200404Y265608D01*
X-200479Y265522D01*
X-200550Y265434D01*
X-200618Y265344D01*
X-200683Y265251D01*
X-200745Y265156D01*
X-200803Y265059D01*
X-200858Y264960D01*
X-200909Y264859D01*
X-200957Y264756D01*
X-201002Y264652D01*
X-201042Y264546D01*
X-201079Y264439D01*
X-201112Y264331D01*
X-201142Y264221D01*
X-201167Y264111D01*
X-201189Y264000D01*
X-201206Y263888D01*
X-201220Y263775D01*
X-201230Y263662D01*
X-201236Y263549D01*
X-201238Y263436D01*
X-201238Y258244D01*
X-201236Y258131D01*
X-201230Y258018D01*
X-201220Y257905D01*
X-201206Y257792D01*
X-201189Y257680D01*
X-201167Y257569D01*
X-201142Y257459D01*
X-201112Y257349D01*
X-201079Y257241D01*
X-201042Y257134D01*
X-201002Y257028D01*
X-200957Y256924D01*
X-200909Y256821D01*
X-200858Y256720D01*
X-200803Y256621D01*
X-200745Y256524D01*
X-200683Y256429D01*
X-200618Y256336D01*
X-200550Y256246D01*
X-200479Y256158D01*
X-200404Y256072D01*
X-200327Y255989D01*
X-200247Y255909D01*
X-200164Y255832D01*
X-200078Y255757D01*
X-199990Y255686D01*
X-199900Y255618D01*
X-199807Y255553D01*
X-199712Y255491D01*
X-199615Y255433D01*
X-199516Y255378D01*
X-199415Y255327D01*
X-199312Y255279D01*
X-199208Y255234D01*
X-199102Y255194D01*
X-198995Y255157D01*
X-198887Y255124D01*
X-198777Y255094D01*
X-198667Y255069D01*
X-198556Y255047D01*
X-198444Y255030D01*
X-198331Y255016D01*
X-198218Y255006D01*
X-198105Y255000D01*
X-197992Y254998D01*
X-194746Y254998D01*
X-104114Y415983D02*
X-102519Y417100D01*
X-104114Y415983D02*
X-100391Y410666D01*
X-97201Y412900D01*
X-97121Y412959D01*
X-97043Y413021D01*
X-96967Y413085D01*
X-96894Y413153D01*
X-96823Y413223D01*
X-96756Y413296D01*
X-96691Y413371D01*
X-96629Y413449D01*
X-96570Y413529D01*
X-96514Y413611D01*
X-96461Y413696D01*
X-96412Y413782D01*
X-96366Y413870D01*
X-96323Y413960D01*
X-96284Y414051D01*
X-96249Y414144D01*
X-96217Y414238D01*
X-96188Y414334D01*
X-96164Y414430D01*
X-96143Y414527D01*
X-96125Y414625D01*
X-96112Y414724D01*
X-96102Y414823D01*
X-96096Y414922D01*
X-96094Y415021D01*
X-96096Y415121D01*
X-96101Y415220D01*
X-96111Y415319D01*
X-96124Y415418D01*
X-96140Y415516D01*
X-96161Y415613D01*
X-96185Y415710D01*
X-96213Y415805D01*
X-96245Y415899D01*
X-96280Y415992D01*
X-96319Y416084D01*
X-96361Y416174D01*
X-96407Y416262D01*
X-96456Y416349D01*
X-96508Y416433D01*
X-96563Y416516D01*
X-100286Y421833D01*
X-100345Y421913D01*
X-100407Y421991D01*
X-100471Y422067D01*
X-100539Y422140D01*
X-100609Y422211D01*
X-100682Y422278D01*
X-100757Y422343D01*
X-100835Y422405D01*
X-100915Y422464D01*
X-100997Y422520D01*
X-101082Y422573D01*
X-101168Y422622D01*
X-101256Y422668D01*
X-101346Y422711D01*
X-101437Y422750D01*
X-101530Y422785D01*
X-101624Y422817D01*
X-101720Y422846D01*
X-101816Y422870D01*
X-101913Y422891D01*
X-102011Y422909D01*
X-102110Y422922D01*
X-102209Y422932D01*
X-102308Y422938D01*
X-102407Y422940D01*
X-102507Y422938D01*
X-102606Y422933D01*
X-102705Y422923D01*
X-102804Y422910D01*
X-102902Y422894D01*
X-102999Y422873D01*
X-103096Y422849D01*
X-103191Y422821D01*
X-103285Y422789D01*
X-103378Y422754D01*
X-103470Y422715D01*
X-103560Y422673D01*
X-103648Y422627D01*
X-103735Y422578D01*
X-103819Y422526D01*
X-103902Y422471D01*
X-107092Y420237D01*
X-111762Y416967D02*
X-105061Y407396D01*
X-110378Y403673D02*
X-111762Y416967D01*
X-117080Y413244D02*
X-110378Y403673D01*
X-115048Y400403D02*
X-121750Y409974D01*
X-124408Y408112D01*
X-124409Y408113D02*
X-124500Y408046D01*
X-124590Y407977D01*
X-124677Y407904D01*
X-124761Y407828D01*
X-124842Y407749D01*
X-124921Y407668D01*
X-124997Y407584D01*
X-125070Y407497D01*
X-125139Y407407D01*
X-125206Y407316D01*
X-125269Y407222D01*
X-125329Y407126D01*
X-125386Y407028D01*
X-125439Y406928D01*
X-125489Y406826D01*
X-125535Y406722D01*
X-125577Y406617D01*
X-125616Y406511D01*
X-125651Y406403D01*
X-125682Y406294D01*
X-125710Y406184D01*
X-125733Y406073D01*
X-125753Y405962D01*
X-125769Y405850D01*
X-125781Y405737D01*
X-125789Y405624D01*
X-125793Y405511D01*
X-125793Y405397D01*
X-125789Y405284D01*
X-125781Y405171D01*
X-125769Y405058D01*
X-125753Y404946D01*
X-125733Y404835D01*
X-125710Y404724D01*
X-125682Y404614D01*
X-125651Y404505D01*
X-125616Y404397D01*
X-125577Y404291D01*
X-125535Y404186D01*
X-125489Y404082D01*
X-125439Y403980D01*
X-125386Y403880D01*
X-125329Y403782D01*
X-125269Y403686D01*
X-125206Y403592D01*
X-125205Y403592D02*
X-122227Y399338D01*
X-122160Y399247D01*
X-122091Y399157D01*
X-122018Y399070D01*
X-121942Y398986D01*
X-121863Y398905D01*
X-121782Y398826D01*
X-121698Y398750D01*
X-121611Y398677D01*
X-121521Y398608D01*
X-121430Y398541D01*
X-121336Y398478D01*
X-121240Y398418D01*
X-121142Y398361D01*
X-121042Y398308D01*
X-120940Y398258D01*
X-120836Y398212D01*
X-120731Y398170D01*
X-120625Y398131D01*
X-120517Y398096D01*
X-120408Y398065D01*
X-120298Y398037D01*
X-120187Y398014D01*
X-120076Y397994D01*
X-119964Y397978D01*
X-119851Y397966D01*
X-119738Y397958D01*
X-119625Y397954D01*
X-119511Y397954D01*
X-119398Y397958D01*
X-119285Y397966D01*
X-119172Y397978D01*
X-119060Y397994D01*
X-118949Y398014D01*
X-118838Y398037D01*
X-118728Y398065D01*
X-118619Y398096D01*
X-118511Y398131D01*
X-118405Y398170D01*
X-118300Y398212D01*
X-118196Y398258D01*
X-118094Y398308D01*
X-117994Y398361D01*
X-117896Y398418D01*
X-117800Y398478D01*
X-117706Y398541D01*
X-115048Y400403D01*
D11*
X177886Y339690D02*
X177886Y321910D01*
X177886Y339690D02*
X172948Y339690D01*
X172808Y339688D01*
X172669Y339682D01*
X172529Y339672D01*
X172390Y339658D01*
X172251Y339641D01*
X172113Y339619D01*
X171976Y339593D01*
X171839Y339564D01*
X171703Y339531D01*
X171569Y339494D01*
X171435Y339453D01*
X171303Y339408D01*
X171171Y339359D01*
X171042Y339307D01*
X170914Y339252D01*
X170787Y339192D01*
X170662Y339129D01*
X170539Y339063D01*
X170418Y338993D01*
X170299Y338920D01*
X170182Y338843D01*
X170068Y338763D01*
X169955Y338680D01*
X169845Y338594D01*
X169738Y338504D01*
X169633Y338412D01*
X169531Y338317D01*
X169431Y338219D01*
X169334Y338118D01*
X169240Y338014D01*
X169150Y337908D01*
X169062Y337799D01*
X168977Y337688D01*
X168896Y337574D01*
X168817Y337459D01*
X168742Y337341D01*
X168671Y337221D01*
X168603Y337098D01*
X168538Y336975D01*
X168477Y336849D01*
X168419Y336721D01*
X168365Y336593D01*
X168315Y336462D01*
X168268Y336330D01*
X168225Y336197D01*
X168186Y336063D01*
X168151Y335928D01*
X168120Y335792D01*
X168092Y335654D01*
X168069Y335517D01*
X168049Y335378D01*
X168033Y335239D01*
X168021Y335100D01*
X168013Y334961D01*
X168009Y334821D01*
X168009Y334681D01*
X168013Y334541D01*
X168021Y334402D01*
X168033Y334263D01*
X168049Y334124D01*
X168069Y333985D01*
X168092Y333848D01*
X168120Y333710D01*
X168151Y333574D01*
X168186Y333439D01*
X168225Y333305D01*
X168268Y333172D01*
X168315Y333040D01*
X168365Y332909D01*
X168419Y332781D01*
X168477Y332653D01*
X168538Y332527D01*
X168603Y332404D01*
X168671Y332282D01*
X168742Y332161D01*
X168817Y332043D01*
X168896Y331928D01*
X168977Y331814D01*
X169062Y331703D01*
X169150Y331594D01*
X169240Y331488D01*
X169334Y331384D01*
X169431Y331283D01*
X169531Y331185D01*
X169633Y331090D01*
X169738Y330998D01*
X169845Y330908D01*
X169955Y330822D01*
X170068Y330739D01*
X170182Y330659D01*
X170299Y330582D01*
X170418Y330509D01*
X170539Y330439D01*
X170662Y330373D01*
X170787Y330310D01*
X170914Y330250D01*
X171042Y330195D01*
X171171Y330143D01*
X171303Y330094D01*
X171435Y330049D01*
X171569Y330008D01*
X171703Y329971D01*
X171839Y329938D01*
X171976Y329909D01*
X172113Y329883D01*
X172251Y329861D01*
X172390Y329844D01*
X172529Y329830D01*
X172669Y329820D01*
X172808Y329814D01*
X172948Y329812D01*
X177886Y329812D01*
X161891Y335739D02*
X156952Y339690D01*
X156952Y321910D01*
X152014Y321910D02*
X161891Y321910D01*
X180426Y135100D02*
X180426Y117320D01*
X180426Y135100D02*
X175488Y135100D01*
X175348Y135098D01*
X175209Y135092D01*
X175069Y135082D01*
X174930Y135068D01*
X174791Y135051D01*
X174653Y135029D01*
X174516Y135003D01*
X174379Y134974D01*
X174243Y134941D01*
X174109Y134904D01*
X173975Y134863D01*
X173843Y134818D01*
X173711Y134769D01*
X173582Y134717D01*
X173454Y134662D01*
X173327Y134602D01*
X173202Y134539D01*
X173079Y134473D01*
X172958Y134403D01*
X172839Y134330D01*
X172722Y134253D01*
X172608Y134173D01*
X172495Y134090D01*
X172385Y134004D01*
X172278Y133914D01*
X172173Y133822D01*
X172071Y133727D01*
X171971Y133629D01*
X171874Y133528D01*
X171780Y133424D01*
X171690Y133318D01*
X171602Y133209D01*
X171517Y133098D01*
X171436Y132984D01*
X171357Y132869D01*
X171282Y132751D01*
X171211Y132631D01*
X171143Y132508D01*
X171078Y132385D01*
X171017Y132259D01*
X170959Y132131D01*
X170905Y132003D01*
X170855Y131872D01*
X170808Y131740D01*
X170765Y131607D01*
X170726Y131473D01*
X170691Y131338D01*
X170660Y131202D01*
X170632Y131064D01*
X170609Y130927D01*
X170589Y130788D01*
X170573Y130649D01*
X170561Y130510D01*
X170553Y130371D01*
X170549Y130231D01*
X170549Y130091D01*
X170553Y129951D01*
X170561Y129812D01*
X170573Y129673D01*
X170589Y129534D01*
X170609Y129395D01*
X170632Y129258D01*
X170660Y129120D01*
X170691Y128984D01*
X170726Y128849D01*
X170765Y128715D01*
X170808Y128582D01*
X170855Y128450D01*
X170905Y128319D01*
X170959Y128191D01*
X171017Y128063D01*
X171078Y127937D01*
X171143Y127814D01*
X171211Y127691D01*
X171282Y127571D01*
X171357Y127453D01*
X171436Y127338D01*
X171517Y127224D01*
X171602Y127113D01*
X171690Y127004D01*
X171780Y126898D01*
X171874Y126794D01*
X171971Y126693D01*
X172071Y126595D01*
X172173Y126500D01*
X172278Y126408D01*
X172385Y126318D01*
X172495Y126232D01*
X172608Y126149D01*
X172722Y126069D01*
X172839Y125992D01*
X172958Y125919D01*
X173079Y125849D01*
X173202Y125783D01*
X173327Y125720D01*
X173454Y125660D01*
X173582Y125605D01*
X173711Y125553D01*
X173843Y125504D01*
X173975Y125459D01*
X174109Y125418D01*
X174243Y125381D01*
X174379Y125348D01*
X174516Y125319D01*
X174653Y125293D01*
X174791Y125271D01*
X174930Y125254D01*
X175069Y125240D01*
X175209Y125230D01*
X175348Y125224D01*
X175488Y125222D01*
X180426Y125222D01*
X158999Y135100D02*
X158867Y135098D01*
X158736Y135092D01*
X158604Y135082D01*
X158473Y135069D01*
X158343Y135051D01*
X158213Y135030D01*
X158083Y135005D01*
X157955Y134976D01*
X157827Y134943D01*
X157701Y134906D01*
X157575Y134866D01*
X157451Y134822D01*
X157328Y134774D01*
X157207Y134723D01*
X157087Y134668D01*
X156969Y134610D01*
X156853Y134548D01*
X156739Y134482D01*
X156626Y134414D01*
X156516Y134342D01*
X156408Y134267D01*
X156302Y134188D01*
X156198Y134107D01*
X156097Y134022D01*
X155999Y133935D01*
X155903Y133844D01*
X155810Y133751D01*
X155719Y133655D01*
X155632Y133557D01*
X155547Y133456D01*
X155466Y133352D01*
X155387Y133246D01*
X155312Y133138D01*
X155240Y133028D01*
X155172Y132915D01*
X155106Y132801D01*
X155044Y132685D01*
X154986Y132567D01*
X154931Y132447D01*
X154880Y132326D01*
X154832Y132203D01*
X154788Y132079D01*
X154748Y131953D01*
X154711Y131827D01*
X154678Y131699D01*
X154649Y131571D01*
X154624Y131441D01*
X154603Y131311D01*
X154585Y131181D01*
X154572Y131050D01*
X154562Y130918D01*
X154556Y130787D01*
X154554Y130655D01*
X158999Y135100D02*
X159149Y135098D01*
X159298Y135092D01*
X159447Y135082D01*
X159596Y135069D01*
X159745Y135051D01*
X159893Y135030D01*
X160041Y135004D01*
X160187Y134975D01*
X160333Y134942D01*
X160478Y134905D01*
X160622Y134864D01*
X160765Y134820D01*
X160907Y134772D01*
X161047Y134720D01*
X161186Y134665D01*
X161324Y134606D01*
X161459Y134543D01*
X161594Y134477D01*
X161726Y134407D01*
X161856Y134334D01*
X161985Y134257D01*
X162112Y134177D01*
X162236Y134094D01*
X162358Y134008D01*
X162478Y133918D01*
X162595Y133825D01*
X162710Y133730D01*
X162823Y133631D01*
X162933Y133529D01*
X163040Y133425D01*
X163144Y133318D01*
X163246Y133208D01*
X163344Y133095D01*
X163440Y132980D01*
X163532Y132862D01*
X163622Y132742D01*
X163708Y132620D01*
X163791Y132496D01*
X163871Y132369D01*
X163947Y132241D01*
X164020Y132110D01*
X164090Y131977D01*
X164156Y131843D01*
X164218Y131707D01*
X164277Y131570D01*
X164333Y131431D01*
X164384Y131290D01*
X164432Y131149D01*
X156036Y127198D02*
X155940Y127291D01*
X155848Y127387D01*
X155758Y127486D01*
X155671Y127587D01*
X155587Y127690D01*
X155505Y127795D01*
X155427Y127903D01*
X155352Y128013D01*
X155279Y128125D01*
X155210Y128239D01*
X155144Y128355D01*
X155082Y128473D01*
X155023Y128592D01*
X154967Y128713D01*
X154914Y128836D01*
X154865Y128960D01*
X154820Y129085D01*
X154777Y129212D01*
X154739Y129339D01*
X154704Y129468D01*
X154673Y129597D01*
X154645Y129728D01*
X154621Y129859D01*
X154600Y129991D01*
X154584Y130123D01*
X154571Y130256D01*
X154561Y130389D01*
X154556Y130522D01*
X154554Y130655D01*
X156035Y127198D02*
X164431Y117320D01*
X154554Y117320D01*
X-157384Y124940D02*
X-157384Y142720D01*
X-162323Y142720D01*
X-162463Y142718D01*
X-162602Y142712D01*
X-162742Y142702D01*
X-162881Y142688D01*
X-163020Y142671D01*
X-163158Y142649D01*
X-163295Y142623D01*
X-163432Y142594D01*
X-163568Y142561D01*
X-163702Y142524D01*
X-163836Y142483D01*
X-163968Y142438D01*
X-164100Y142389D01*
X-164229Y142337D01*
X-164357Y142282D01*
X-164484Y142222D01*
X-164609Y142159D01*
X-164732Y142093D01*
X-164853Y142023D01*
X-164972Y141950D01*
X-165089Y141873D01*
X-165203Y141793D01*
X-165316Y141710D01*
X-165426Y141624D01*
X-165533Y141534D01*
X-165638Y141442D01*
X-165740Y141347D01*
X-165840Y141249D01*
X-165937Y141148D01*
X-166031Y141044D01*
X-166121Y140938D01*
X-166209Y140829D01*
X-166294Y140718D01*
X-166375Y140604D01*
X-166454Y140489D01*
X-166529Y140371D01*
X-166600Y140251D01*
X-166668Y140128D01*
X-166733Y140005D01*
X-166794Y139879D01*
X-166852Y139751D01*
X-166906Y139623D01*
X-166956Y139492D01*
X-167003Y139360D01*
X-167046Y139227D01*
X-167085Y139093D01*
X-167120Y138958D01*
X-167151Y138822D01*
X-167179Y138684D01*
X-167202Y138547D01*
X-167222Y138408D01*
X-167238Y138269D01*
X-167250Y138130D01*
X-167258Y137991D01*
X-167262Y137851D01*
X-167262Y137711D01*
X-167258Y137571D01*
X-167250Y137432D01*
X-167238Y137293D01*
X-167222Y137154D01*
X-167202Y137015D01*
X-167179Y136878D01*
X-167151Y136740D01*
X-167120Y136604D01*
X-167085Y136469D01*
X-167046Y136335D01*
X-167003Y136202D01*
X-166956Y136070D01*
X-166906Y135939D01*
X-166852Y135811D01*
X-166794Y135683D01*
X-166733Y135557D01*
X-166668Y135434D01*
X-166600Y135311D01*
X-166529Y135191D01*
X-166454Y135073D01*
X-166375Y134958D01*
X-166294Y134844D01*
X-166209Y134733D01*
X-166121Y134624D01*
X-166031Y134518D01*
X-165937Y134414D01*
X-165840Y134313D01*
X-165740Y134215D01*
X-165638Y134120D01*
X-165533Y134028D01*
X-165426Y133938D01*
X-165316Y133852D01*
X-165203Y133769D01*
X-165089Y133689D01*
X-164972Y133612D01*
X-164853Y133539D01*
X-164732Y133469D01*
X-164609Y133403D01*
X-164484Y133340D01*
X-164357Y133280D01*
X-164229Y133225D01*
X-164100Y133173D01*
X-163968Y133124D01*
X-163836Y133079D01*
X-163702Y133038D01*
X-163568Y133001D01*
X-163432Y132968D01*
X-163295Y132939D01*
X-163158Y132913D01*
X-163020Y132891D01*
X-162881Y132874D01*
X-162742Y132860D01*
X-162602Y132850D01*
X-162463Y132844D01*
X-162323Y132842D01*
X-157384Y132842D01*
X-173379Y128891D02*
X-177330Y142720D01*
X-173379Y128891D02*
X-183256Y128891D01*
X-180293Y132842D02*
X-180293Y124940D01*
X-152304Y321910D02*
X-152304Y339690D01*
X-157243Y339690D01*
X-157383Y339688D01*
X-157522Y339682D01*
X-157662Y339672D01*
X-157801Y339658D01*
X-157940Y339641D01*
X-158078Y339619D01*
X-158215Y339593D01*
X-158352Y339564D01*
X-158488Y339531D01*
X-158622Y339494D01*
X-158756Y339453D01*
X-158888Y339408D01*
X-159020Y339359D01*
X-159149Y339307D01*
X-159277Y339252D01*
X-159404Y339192D01*
X-159529Y339129D01*
X-159652Y339063D01*
X-159773Y338993D01*
X-159892Y338920D01*
X-160009Y338843D01*
X-160123Y338763D01*
X-160236Y338680D01*
X-160346Y338594D01*
X-160453Y338504D01*
X-160558Y338412D01*
X-160660Y338317D01*
X-160760Y338219D01*
X-160857Y338118D01*
X-160951Y338014D01*
X-161041Y337908D01*
X-161129Y337799D01*
X-161214Y337688D01*
X-161295Y337574D01*
X-161374Y337459D01*
X-161449Y337341D01*
X-161520Y337221D01*
X-161588Y337098D01*
X-161653Y336975D01*
X-161714Y336849D01*
X-161772Y336721D01*
X-161826Y336593D01*
X-161876Y336462D01*
X-161923Y336330D01*
X-161966Y336197D01*
X-162005Y336063D01*
X-162040Y335928D01*
X-162071Y335792D01*
X-162099Y335654D01*
X-162122Y335517D01*
X-162142Y335378D01*
X-162158Y335239D01*
X-162170Y335100D01*
X-162178Y334961D01*
X-162182Y334821D01*
X-162182Y334681D01*
X-162178Y334541D01*
X-162170Y334402D01*
X-162158Y334263D01*
X-162142Y334124D01*
X-162122Y333985D01*
X-162099Y333848D01*
X-162071Y333710D01*
X-162040Y333574D01*
X-162005Y333439D01*
X-161966Y333305D01*
X-161923Y333172D01*
X-161876Y333040D01*
X-161826Y332909D01*
X-161772Y332781D01*
X-161714Y332653D01*
X-161653Y332527D01*
X-161588Y332404D01*
X-161520Y332282D01*
X-161449Y332161D01*
X-161374Y332043D01*
X-161295Y331928D01*
X-161214Y331814D01*
X-161129Y331703D01*
X-161041Y331594D01*
X-160951Y331488D01*
X-160857Y331384D01*
X-160760Y331283D01*
X-160660Y331185D01*
X-160558Y331090D01*
X-160453Y330998D01*
X-160346Y330908D01*
X-160236Y330822D01*
X-160123Y330739D01*
X-160009Y330659D01*
X-159892Y330582D01*
X-159773Y330509D01*
X-159652Y330439D01*
X-159529Y330373D01*
X-159404Y330310D01*
X-159277Y330250D01*
X-159149Y330195D01*
X-159020Y330143D01*
X-158888Y330094D01*
X-158756Y330049D01*
X-158622Y330008D01*
X-158488Y329971D01*
X-158352Y329938D01*
X-158215Y329909D01*
X-158078Y329883D01*
X-157940Y329861D01*
X-157801Y329844D01*
X-157662Y329830D01*
X-157522Y329820D01*
X-157383Y329814D01*
X-157243Y329812D01*
X-152304Y329812D01*
X-168299Y321910D02*
X-174225Y321910D01*
X-174349Y321912D01*
X-174473Y321918D01*
X-174597Y321928D01*
X-174720Y321941D01*
X-174843Y321959D01*
X-174965Y321980D01*
X-175087Y322005D01*
X-175208Y322034D01*
X-175327Y322067D01*
X-175446Y322103D01*
X-175563Y322144D01*
X-175679Y322187D01*
X-175794Y322235D01*
X-175907Y322286D01*
X-176019Y322341D01*
X-176128Y322399D01*
X-176236Y322460D01*
X-176342Y322525D01*
X-176446Y322593D01*
X-176547Y322665D01*
X-176647Y322739D01*
X-176743Y322817D01*
X-176838Y322897D01*
X-176930Y322981D01*
X-177019Y323067D01*
X-177105Y323156D01*
X-177189Y323248D01*
X-177269Y323343D01*
X-177347Y323439D01*
X-177421Y323539D01*
X-177493Y323640D01*
X-177561Y323744D01*
X-177626Y323850D01*
X-177687Y323958D01*
X-177745Y324067D01*
X-177800Y324179D01*
X-177851Y324292D01*
X-177899Y324407D01*
X-177942Y324523D01*
X-177983Y324640D01*
X-178019Y324759D01*
X-178052Y324878D01*
X-178081Y324999D01*
X-178106Y325121D01*
X-178127Y325243D01*
X-178145Y325366D01*
X-178158Y325489D01*
X-178168Y325613D01*
X-178174Y325737D01*
X-178176Y325861D01*
X-178176Y327837D01*
X-178174Y327961D01*
X-178168Y328085D01*
X-178158Y328209D01*
X-178145Y328332D01*
X-178127Y328455D01*
X-178106Y328577D01*
X-178081Y328699D01*
X-178052Y328820D01*
X-178019Y328939D01*
X-177983Y329058D01*
X-177942Y329175D01*
X-177899Y329291D01*
X-177851Y329406D01*
X-177800Y329519D01*
X-177745Y329631D01*
X-177687Y329740D01*
X-177626Y329848D01*
X-177561Y329954D01*
X-177493Y330058D01*
X-177421Y330159D01*
X-177347Y330259D01*
X-177269Y330355D01*
X-177189Y330450D01*
X-177105Y330542D01*
X-177019Y330631D01*
X-176930Y330717D01*
X-176838Y330801D01*
X-176743Y330881D01*
X-176647Y330959D01*
X-176547Y331033D01*
X-176446Y331105D01*
X-176342Y331173D01*
X-176236Y331238D01*
X-176128Y331299D01*
X-176019Y331357D01*
X-175907Y331412D01*
X-175794Y331463D01*
X-175679Y331511D01*
X-175563Y331554D01*
X-175446Y331595D01*
X-175327Y331631D01*
X-175208Y331664D01*
X-175087Y331693D01*
X-174965Y331718D01*
X-174843Y331739D01*
X-174720Y331757D01*
X-174597Y331770D01*
X-174473Y331780D01*
X-174349Y331786D01*
X-174225Y331788D01*
X-168299Y331788D01*
X-168299Y339690D01*
X-178176Y339690D01*
X12156Y408660D02*
X12156Y426440D01*
X7218Y426440D01*
X7078Y426438D01*
X6939Y426432D01*
X6799Y426422D01*
X6660Y426408D01*
X6521Y426391D01*
X6383Y426369D01*
X6246Y426343D01*
X6109Y426314D01*
X5973Y426281D01*
X5839Y426244D01*
X5705Y426203D01*
X5573Y426158D01*
X5441Y426109D01*
X5312Y426057D01*
X5184Y426002D01*
X5057Y425942D01*
X4932Y425879D01*
X4809Y425813D01*
X4688Y425743D01*
X4569Y425670D01*
X4452Y425593D01*
X4338Y425513D01*
X4225Y425430D01*
X4115Y425344D01*
X4008Y425254D01*
X3903Y425162D01*
X3801Y425067D01*
X3701Y424969D01*
X3604Y424868D01*
X3510Y424764D01*
X3420Y424658D01*
X3332Y424549D01*
X3247Y424438D01*
X3166Y424324D01*
X3087Y424209D01*
X3012Y424091D01*
X2941Y423971D01*
X2873Y423848D01*
X2808Y423725D01*
X2747Y423599D01*
X2689Y423471D01*
X2635Y423343D01*
X2585Y423212D01*
X2538Y423080D01*
X2495Y422947D01*
X2456Y422813D01*
X2421Y422678D01*
X2390Y422542D01*
X2362Y422404D01*
X2339Y422267D01*
X2319Y422128D01*
X2303Y421989D01*
X2291Y421850D01*
X2283Y421711D01*
X2279Y421571D01*
X2279Y421431D01*
X2283Y421291D01*
X2291Y421152D01*
X2303Y421013D01*
X2319Y420874D01*
X2339Y420735D01*
X2362Y420598D01*
X2390Y420460D01*
X2421Y420324D01*
X2456Y420189D01*
X2495Y420055D01*
X2538Y419922D01*
X2585Y419790D01*
X2635Y419659D01*
X2689Y419531D01*
X2747Y419403D01*
X2808Y419277D01*
X2873Y419154D01*
X2941Y419032D01*
X3012Y418911D01*
X3087Y418793D01*
X3166Y418678D01*
X3247Y418564D01*
X3332Y418453D01*
X3420Y418344D01*
X3510Y418238D01*
X3604Y418134D01*
X3701Y418033D01*
X3801Y417935D01*
X3903Y417840D01*
X4008Y417748D01*
X4115Y417658D01*
X4225Y417572D01*
X4338Y417489D01*
X4452Y417409D01*
X4569Y417332D01*
X4688Y417259D01*
X4809Y417189D01*
X4932Y417123D01*
X5057Y417060D01*
X5184Y417000D01*
X5312Y416945D01*
X5441Y416893D01*
X5573Y416844D01*
X5705Y416799D01*
X5839Y416758D01*
X5973Y416721D01*
X6109Y416688D01*
X6246Y416659D01*
X6383Y416633D01*
X6521Y416611D01*
X6660Y416594D01*
X6799Y416580D01*
X6939Y416570D01*
X7078Y416564D01*
X7218Y416562D01*
X12156Y416562D01*
X-3839Y418538D02*
X-9765Y418538D01*
X-9889Y418536D01*
X-10013Y418530D01*
X-10137Y418520D01*
X-10260Y418507D01*
X-10383Y418489D01*
X-10505Y418468D01*
X-10627Y418443D01*
X-10748Y418414D01*
X-10867Y418381D01*
X-10986Y418345D01*
X-11103Y418304D01*
X-11219Y418261D01*
X-11334Y418213D01*
X-11447Y418162D01*
X-11559Y418107D01*
X-11668Y418049D01*
X-11776Y417988D01*
X-11882Y417923D01*
X-11986Y417855D01*
X-12087Y417783D01*
X-12187Y417709D01*
X-12283Y417631D01*
X-12378Y417551D01*
X-12470Y417467D01*
X-12559Y417381D01*
X-12645Y417292D01*
X-12729Y417200D01*
X-12809Y417105D01*
X-12887Y417009D01*
X-12961Y416909D01*
X-13033Y416808D01*
X-13101Y416704D01*
X-13166Y416598D01*
X-13227Y416490D01*
X-13285Y416381D01*
X-13340Y416269D01*
X-13391Y416156D01*
X-13439Y416041D01*
X-13482Y415925D01*
X-13523Y415808D01*
X-13559Y415689D01*
X-13592Y415570D01*
X-13621Y415449D01*
X-13646Y415327D01*
X-13667Y415205D01*
X-13685Y415082D01*
X-13698Y414959D01*
X-13708Y414835D01*
X-13714Y414711D01*
X-13716Y414587D01*
X-13716Y413599D01*
X-13717Y413599D02*
X-13715Y413459D01*
X-13709Y413320D01*
X-13699Y413180D01*
X-13685Y413041D01*
X-13668Y412902D01*
X-13646Y412764D01*
X-13620Y412627D01*
X-13591Y412490D01*
X-13558Y412354D01*
X-13521Y412220D01*
X-13480Y412086D01*
X-13435Y411954D01*
X-13386Y411822D01*
X-13334Y411693D01*
X-13279Y411565D01*
X-13219Y411438D01*
X-13156Y411313D01*
X-13090Y411190D01*
X-13020Y411069D01*
X-12947Y410950D01*
X-12870Y410833D01*
X-12790Y410719D01*
X-12707Y410606D01*
X-12621Y410496D01*
X-12531Y410389D01*
X-12439Y410284D01*
X-12344Y410182D01*
X-12246Y410082D01*
X-12145Y409985D01*
X-12041Y409891D01*
X-11935Y409801D01*
X-11826Y409713D01*
X-11715Y409628D01*
X-11601Y409547D01*
X-11486Y409468D01*
X-11368Y409393D01*
X-11247Y409322D01*
X-11125Y409254D01*
X-11002Y409189D01*
X-10876Y409128D01*
X-10748Y409070D01*
X-10620Y409016D01*
X-10489Y408966D01*
X-10357Y408919D01*
X-10224Y408876D01*
X-10090Y408837D01*
X-9955Y408802D01*
X-9819Y408771D01*
X-9681Y408743D01*
X-9544Y408720D01*
X-9405Y408700D01*
X-9266Y408684D01*
X-9127Y408672D01*
X-8988Y408664D01*
X-8848Y408660D01*
X-8708Y408660D01*
X-8568Y408664D01*
X-8429Y408672D01*
X-8290Y408684D01*
X-8151Y408700D01*
X-8012Y408720D01*
X-7875Y408743D01*
X-7737Y408771D01*
X-7601Y408802D01*
X-7466Y408837D01*
X-7332Y408876D01*
X-7199Y408919D01*
X-7067Y408966D01*
X-6936Y409016D01*
X-6808Y409070D01*
X-6680Y409128D01*
X-6554Y409189D01*
X-6431Y409254D01*
X-6308Y409322D01*
X-6188Y409393D01*
X-6070Y409468D01*
X-5955Y409547D01*
X-5841Y409628D01*
X-5730Y409713D01*
X-5621Y409801D01*
X-5515Y409891D01*
X-5411Y409985D01*
X-5310Y410082D01*
X-5212Y410182D01*
X-5117Y410284D01*
X-5025Y410389D01*
X-4935Y410496D01*
X-4849Y410606D01*
X-4766Y410719D01*
X-4686Y410833D01*
X-4609Y410950D01*
X-4536Y411069D01*
X-4466Y411190D01*
X-4400Y411313D01*
X-4337Y411438D01*
X-4277Y411565D01*
X-4222Y411693D01*
X-4170Y411822D01*
X-4121Y411954D01*
X-4076Y412086D01*
X-4035Y412220D01*
X-3998Y412354D01*
X-3965Y412490D01*
X-3936Y412627D01*
X-3910Y412764D01*
X-3888Y412902D01*
X-3871Y413041D01*
X-3857Y413180D01*
X-3847Y413320D01*
X-3841Y413459D01*
X-3839Y413599D01*
X-3839Y418538D01*
X-3841Y418732D01*
X-3849Y418926D01*
X-3860Y419119D01*
X-3877Y419313D01*
X-3898Y419505D01*
X-3925Y419697D01*
X-3955Y419889D01*
X-3991Y420080D01*
X-4031Y420269D01*
X-4076Y420458D01*
X-4125Y420646D01*
X-4179Y420832D01*
X-4238Y421017D01*
X-4301Y421200D01*
X-4368Y421382D01*
X-4441Y421562D01*
X-4517Y421740D01*
X-4598Y421917D01*
X-4683Y422091D01*
X-4772Y422263D01*
X-4866Y422433D01*
X-4963Y422600D01*
X-5065Y422766D01*
X-5171Y422928D01*
X-5280Y423088D01*
X-5394Y423245D01*
X-5511Y423400D01*
X-5633Y423551D01*
X-5758Y423699D01*
X-5886Y423845D01*
X-6018Y423987D01*
X-6153Y424126D01*
X-6292Y424261D01*
X-6434Y424393D01*
X-6580Y424521D01*
X-6728Y424646D01*
X-6879Y424768D01*
X-7034Y424885D01*
X-7191Y424999D01*
X-7351Y425108D01*
X-7513Y425214D01*
X-7679Y425316D01*
X-7846Y425413D01*
X-8016Y425507D01*
X-8188Y425596D01*
X-8362Y425681D01*
X-8539Y425762D01*
X-8717Y425838D01*
X-8897Y425911D01*
X-9079Y425978D01*
X-9262Y426041D01*
X-9447Y426100D01*
X-9633Y426154D01*
X-9821Y426203D01*
X-10010Y426248D01*
X-10199Y426288D01*
X-10390Y426324D01*
X-10582Y426354D01*
X-10774Y426381D01*
X-10966Y426402D01*
X-11160Y426419D01*
X-11353Y426430D01*
X-11547Y426438D01*
X-11741Y426440D01*
X229491Y85768D02*
X229491Y67988D01*
X229491Y77866D02*
X219614Y77866D01*
X219614Y85768D02*
X219614Y67988D01*
X212183Y67988D02*
X207244Y67988D01*
X207104Y67990D01*
X206965Y67996D01*
X206825Y68006D01*
X206686Y68020D01*
X206547Y68037D01*
X206409Y68059D01*
X206272Y68085D01*
X206135Y68114D01*
X205999Y68147D01*
X205865Y68184D01*
X205731Y68225D01*
X205599Y68270D01*
X205467Y68319D01*
X205338Y68371D01*
X205210Y68426D01*
X205083Y68486D01*
X204958Y68549D01*
X204835Y68615D01*
X204714Y68685D01*
X204595Y68758D01*
X204478Y68835D01*
X204364Y68915D01*
X204251Y68998D01*
X204141Y69084D01*
X204034Y69174D01*
X203929Y69266D01*
X203827Y69361D01*
X203727Y69459D01*
X203630Y69560D01*
X203536Y69664D01*
X203446Y69770D01*
X203358Y69879D01*
X203273Y69990D01*
X203192Y70104D01*
X203113Y70219D01*
X203038Y70337D01*
X202967Y70457D01*
X202899Y70580D01*
X202834Y70703D01*
X202773Y70829D01*
X202715Y70957D01*
X202661Y71085D01*
X202611Y71216D01*
X202564Y71348D01*
X202521Y71481D01*
X202482Y71615D01*
X202447Y71750D01*
X202416Y71886D01*
X202388Y72024D01*
X202365Y72161D01*
X202345Y72300D01*
X202329Y72439D01*
X202317Y72578D01*
X202309Y72717D01*
X202305Y72857D01*
X202305Y72997D01*
X202309Y73137D01*
X202317Y73276D01*
X202329Y73415D01*
X202345Y73554D01*
X202365Y73693D01*
X202388Y73830D01*
X202416Y73968D01*
X202447Y74104D01*
X202482Y74239D01*
X202521Y74373D01*
X202564Y74506D01*
X202611Y74638D01*
X202661Y74769D01*
X202715Y74897D01*
X202773Y75025D01*
X202834Y75151D01*
X202899Y75274D01*
X202967Y75396D01*
X203038Y75517D01*
X203113Y75635D01*
X203192Y75750D01*
X203273Y75864D01*
X203358Y75975D01*
X203446Y76084D01*
X203536Y76190D01*
X203630Y76294D01*
X203727Y76395D01*
X203827Y76493D01*
X203929Y76588D01*
X204034Y76680D01*
X204141Y76770D01*
X204251Y76856D01*
X204364Y76939D01*
X204478Y77019D01*
X204595Y77096D01*
X204714Y77169D01*
X204835Y77239D01*
X204958Y77305D01*
X205083Y77368D01*
X205210Y77428D01*
X205338Y77483D01*
X205467Y77535D01*
X205599Y77584D01*
X205731Y77629D01*
X205865Y77670D01*
X205999Y77707D01*
X206135Y77740D01*
X206272Y77769D01*
X206409Y77795D01*
X206547Y77817D01*
X206686Y77834D01*
X206825Y77848D01*
X206965Y77858D01*
X207104Y77864D01*
X207244Y77866D01*
X206256Y85768D02*
X212183Y85768D01*
X206256Y85768D02*
X206132Y85766D01*
X206008Y85760D01*
X205884Y85750D01*
X205761Y85737D01*
X205638Y85719D01*
X205516Y85698D01*
X205394Y85673D01*
X205273Y85644D01*
X205154Y85611D01*
X205035Y85575D01*
X204918Y85534D01*
X204802Y85491D01*
X204687Y85443D01*
X204574Y85392D01*
X204462Y85337D01*
X204353Y85279D01*
X204245Y85218D01*
X204139Y85153D01*
X204035Y85085D01*
X203934Y85013D01*
X203834Y84939D01*
X203738Y84861D01*
X203643Y84781D01*
X203551Y84697D01*
X203462Y84611D01*
X203376Y84522D01*
X203292Y84430D01*
X203212Y84335D01*
X203134Y84239D01*
X203060Y84139D01*
X202988Y84038D01*
X202920Y83934D01*
X202855Y83828D01*
X202794Y83720D01*
X202736Y83611D01*
X202681Y83499D01*
X202630Y83386D01*
X202582Y83271D01*
X202539Y83155D01*
X202498Y83038D01*
X202462Y82919D01*
X202429Y82800D01*
X202400Y82679D01*
X202375Y82557D01*
X202354Y82435D01*
X202336Y82312D01*
X202323Y82189D01*
X202313Y82065D01*
X202307Y81941D01*
X202305Y81817D01*
X202307Y81693D01*
X202313Y81569D01*
X202323Y81445D01*
X202336Y81322D01*
X202354Y81199D01*
X202375Y81077D01*
X202400Y80955D01*
X202429Y80834D01*
X202462Y80715D01*
X202498Y80596D01*
X202539Y80479D01*
X202582Y80363D01*
X202630Y80248D01*
X202681Y80135D01*
X202736Y80023D01*
X202794Y79914D01*
X202855Y79806D01*
X202920Y79700D01*
X202988Y79596D01*
X203060Y79495D01*
X203134Y79395D01*
X203212Y79299D01*
X203292Y79204D01*
X203376Y79112D01*
X203462Y79023D01*
X203551Y78937D01*
X203643Y78853D01*
X203738Y78773D01*
X203834Y78695D01*
X203934Y78621D01*
X204035Y78549D01*
X204139Y78481D01*
X204245Y78416D01*
X204353Y78355D01*
X204462Y78297D01*
X204574Y78242D01*
X204687Y78191D01*
X204802Y78143D01*
X204918Y78100D01*
X205035Y78059D01*
X205154Y78023D01*
X205273Y77990D01*
X205394Y77961D01*
X205516Y77936D01*
X205638Y77915D01*
X205761Y77897D01*
X205884Y77884D01*
X206008Y77874D01*
X206132Y77868D01*
X206256Y77866D01*
X210207Y77866D01*
X196420Y67988D02*
X190493Y85768D01*
X184567Y67988D01*
X186048Y72433D02*
X194938Y72433D01*
X178038Y67988D02*
X178038Y85768D01*
X173099Y85768D01*
X172959Y85766D01*
X172820Y85760D01*
X172680Y85750D01*
X172541Y85736D01*
X172402Y85719D01*
X172264Y85697D01*
X172127Y85671D01*
X171990Y85642D01*
X171854Y85609D01*
X171720Y85572D01*
X171586Y85531D01*
X171454Y85486D01*
X171322Y85437D01*
X171193Y85385D01*
X171065Y85330D01*
X170938Y85270D01*
X170813Y85207D01*
X170690Y85141D01*
X170569Y85071D01*
X170450Y84998D01*
X170333Y84921D01*
X170219Y84841D01*
X170106Y84758D01*
X169996Y84672D01*
X169889Y84582D01*
X169784Y84490D01*
X169682Y84395D01*
X169582Y84297D01*
X169485Y84196D01*
X169391Y84092D01*
X169301Y83986D01*
X169213Y83877D01*
X169128Y83766D01*
X169047Y83652D01*
X168968Y83537D01*
X168893Y83419D01*
X168822Y83298D01*
X168754Y83176D01*
X168689Y83053D01*
X168628Y82927D01*
X168570Y82799D01*
X168516Y82671D01*
X168466Y82540D01*
X168419Y82408D01*
X168376Y82275D01*
X168337Y82141D01*
X168302Y82006D01*
X168271Y81870D01*
X168243Y81732D01*
X168220Y81595D01*
X168200Y81456D01*
X168184Y81317D01*
X168172Y81178D01*
X168164Y81039D01*
X168160Y80899D01*
X168160Y80759D01*
X168164Y80619D01*
X168172Y80480D01*
X168184Y80341D01*
X168200Y80202D01*
X168220Y80063D01*
X168243Y79926D01*
X168271Y79788D01*
X168302Y79652D01*
X168337Y79517D01*
X168376Y79383D01*
X168419Y79250D01*
X168466Y79118D01*
X168516Y78987D01*
X168570Y78859D01*
X168628Y78731D01*
X168689Y78605D01*
X168754Y78482D01*
X168822Y78359D01*
X168893Y78239D01*
X168968Y78121D01*
X169047Y78006D01*
X169128Y77892D01*
X169213Y77781D01*
X169301Y77672D01*
X169391Y77566D01*
X169485Y77462D01*
X169582Y77361D01*
X169682Y77263D01*
X169784Y77168D01*
X169889Y77076D01*
X169996Y76986D01*
X170106Y76900D01*
X170219Y76817D01*
X170333Y76737D01*
X170450Y76660D01*
X170569Y76587D01*
X170690Y76517D01*
X170813Y76451D01*
X170938Y76388D01*
X171065Y76328D01*
X171193Y76273D01*
X171322Y76221D01*
X171454Y76172D01*
X171586Y76127D01*
X171720Y76086D01*
X171854Y76049D01*
X171990Y76016D01*
X172127Y75987D01*
X172264Y75961D01*
X172402Y75939D01*
X172541Y75922D01*
X172680Y75908D01*
X172820Y75898D01*
X172959Y75892D01*
X173099Y75890D01*
X178038Y75890D01*
X172111Y75890D02*
X168160Y67988D01*
X161373Y81817D02*
X156434Y85768D01*
X156434Y67988D01*
X161373Y67988D02*
X151495Y67988D01*
X144622Y76878D02*
X144618Y77228D01*
X144605Y77577D01*
X144584Y77926D01*
X144555Y78275D01*
X144518Y78623D01*
X144472Y78970D01*
X144418Y79315D01*
X144356Y79659D01*
X144285Y80002D01*
X144206Y80343D01*
X144120Y80682D01*
X144025Y81018D01*
X143922Y81353D01*
X143811Y81684D01*
X143693Y82014D01*
X143566Y82340D01*
X143432Y82663D01*
X143290Y82982D01*
X143140Y83299D01*
X143141Y83298D02*
X143101Y83411D01*
X143057Y83521D01*
X143009Y83631D01*
X142958Y83738D01*
X142903Y83844D01*
X142845Y83949D01*
X142783Y84051D01*
X142718Y84151D01*
X142650Y84249D01*
X142579Y84345D01*
X142504Y84438D01*
X142427Y84529D01*
X142347Y84617D01*
X142264Y84702D01*
X142178Y84785D01*
X142089Y84865D01*
X141998Y84942D01*
X141904Y85016D01*
X141808Y85087D01*
X141710Y85155D01*
X141610Y85219D01*
X141507Y85281D01*
X141403Y85338D01*
X141297Y85393D01*
X141189Y85444D01*
X141079Y85491D01*
X140968Y85535D01*
X140856Y85575D01*
X140742Y85611D01*
X140628Y85644D01*
X140512Y85673D01*
X140395Y85698D01*
X140278Y85719D01*
X140160Y85737D01*
X140041Y85750D01*
X139922Y85760D01*
X139803Y85766D01*
X139684Y85768D01*
X139565Y85766D01*
X139446Y85760D01*
X139327Y85750D01*
X139208Y85737D01*
X139090Y85719D01*
X138973Y85698D01*
X138856Y85673D01*
X138740Y85644D01*
X138626Y85611D01*
X138512Y85575D01*
X138400Y85535D01*
X138289Y85491D01*
X138179Y85444D01*
X138071Y85393D01*
X137965Y85338D01*
X137861Y85281D01*
X137758Y85219D01*
X137658Y85155D01*
X137560Y85087D01*
X137464Y85016D01*
X137370Y84942D01*
X137279Y84865D01*
X137190Y84785D01*
X137105Y84702D01*
X137021Y84617D01*
X136941Y84529D01*
X136864Y84438D01*
X136789Y84345D01*
X136718Y84249D01*
X136650Y84151D01*
X136585Y84051D01*
X136523Y83949D01*
X136465Y83844D01*
X136410Y83739D01*
X136359Y83631D01*
X136311Y83521D01*
X136267Y83411D01*
X136227Y83298D01*
X136227Y83299D02*
X136077Y82982D01*
X135935Y82663D01*
X135801Y82340D01*
X135674Y82014D01*
X135556Y81684D01*
X135445Y81353D01*
X135342Y81018D01*
X135247Y80682D01*
X135161Y80343D01*
X135082Y80002D01*
X135011Y79659D01*
X134949Y79315D01*
X134895Y78970D01*
X134849Y78623D01*
X134812Y78275D01*
X134783Y77926D01*
X134762Y77577D01*
X134749Y77228D01*
X134745Y76878D01*
X144622Y76878D02*
X144618Y76528D01*
X144605Y76179D01*
X144584Y75830D01*
X144555Y75481D01*
X144518Y75133D01*
X144472Y74786D01*
X144418Y74441D01*
X144356Y74097D01*
X144285Y73754D01*
X144206Y73413D01*
X144120Y73074D01*
X144025Y72738D01*
X143922Y72403D01*
X143811Y72072D01*
X143693Y71743D01*
X143566Y71416D01*
X143432Y71093D01*
X143290Y70774D01*
X143140Y70458D01*
X143141Y70458D02*
X143101Y70345D01*
X143057Y70235D01*
X143009Y70125D01*
X142958Y70018D01*
X142903Y69912D01*
X142845Y69807D01*
X142783Y69705D01*
X142718Y69605D01*
X142650Y69507D01*
X142579Y69411D01*
X142504Y69318D01*
X142427Y69227D01*
X142347Y69139D01*
X142264Y69054D01*
X142178Y68971D01*
X142089Y68891D01*
X141998Y68814D01*
X141904Y68740D01*
X141808Y68669D01*
X141710Y68601D01*
X141610Y68537D01*
X141507Y68475D01*
X141403Y68418D01*
X141297Y68363D01*
X141189Y68312D01*
X141079Y68265D01*
X140968Y68221D01*
X140856Y68181D01*
X140742Y68145D01*
X140628Y68112D01*
X140512Y68083D01*
X140395Y68058D01*
X140278Y68037D01*
X140160Y68019D01*
X140041Y68006D01*
X139922Y67996D01*
X139803Y67990D01*
X139684Y67988D01*
X136227Y70458D02*
X136077Y70774D01*
X135935Y71093D01*
X135801Y71416D01*
X135674Y71743D01*
X135556Y72072D01*
X135445Y72403D01*
X135342Y72738D01*
X135247Y73074D01*
X135161Y73413D01*
X135082Y73754D01*
X135011Y74097D01*
X134949Y74441D01*
X134895Y74786D01*
X134849Y75133D01*
X134812Y75481D01*
X134783Y75830D01*
X134762Y76179D01*
X134749Y76528D01*
X134745Y76878D01*
X136227Y70458D02*
X136267Y70345D01*
X136311Y70235D01*
X136359Y70125D01*
X136410Y70017D01*
X136465Y69911D01*
X136523Y69807D01*
X136585Y69705D01*
X136650Y69605D01*
X136718Y69507D01*
X136789Y69411D01*
X136864Y69318D01*
X136941Y69227D01*
X137021Y69139D01*
X137105Y69054D01*
X137190Y68971D01*
X137279Y68891D01*
X137370Y68814D01*
X137464Y68740D01*
X137560Y68669D01*
X137658Y68601D01*
X137758Y68537D01*
X137861Y68475D01*
X137965Y68417D01*
X138071Y68363D01*
X138179Y68312D01*
X138289Y68265D01*
X138400Y68221D01*
X138512Y68181D01*
X138626Y68145D01*
X138740Y68112D01*
X138856Y68083D01*
X138973Y68058D01*
X139090Y68037D01*
X139208Y68019D01*
X139327Y68006D01*
X139446Y67996D01*
X139565Y67990D01*
X139684Y67988D01*
X143635Y71939D02*
X135732Y81817D01*
X-171220Y413000D02*
X-186920Y413000D01*
X-186920Y384560D02*
X-171220Y384560D01*
X-171220Y393560D02*
X-171220Y404000D01*
X-186920Y394500D02*
X-186920Y393560D01*
X-186920Y403060D02*
X-186920Y404000D01*
X-186920Y385500D02*
X-186920Y384560D01*
X-186920Y412060D02*
X-186920Y413000D01*
X-171220Y413000D02*
X-171220Y412060D01*
X-171220Y385500D02*
X-171220Y384560D01*
D12*
X-177989Y420822D02*
X-177989Y427609D01*
X-177989Y420822D02*
X-177991Y420721D01*
X-177997Y420620D01*
X-178007Y420519D01*
X-178020Y420419D01*
X-178038Y420319D01*
X-178059Y420220D01*
X-178085Y420122D01*
X-178114Y420025D01*
X-178146Y419929D01*
X-178183Y419835D01*
X-178223Y419742D01*
X-178267Y419650D01*
X-178314Y419561D01*
X-178365Y419473D01*
X-178419Y419387D01*
X-178476Y419304D01*
X-178536Y419222D01*
X-178600Y419144D01*
X-178666Y419067D01*
X-178736Y418994D01*
X-178808Y418923D01*
X-178883Y418855D01*
X-178961Y418790D01*
X-179041Y418728D01*
X-179123Y418669D01*
X-179208Y418613D01*
X-179295Y418561D01*
X-179383Y418512D01*
X-179474Y418466D01*
X-179566Y418425D01*
X-179660Y418386D01*
X-179755Y418352D01*
X-179851Y418321D01*
X-179949Y418294D01*
X-180047Y418270D01*
X-180147Y418251D01*
X-180247Y418235D01*
X-180347Y418223D01*
X-180448Y418215D01*
X-180549Y418211D01*
X-180651Y418211D01*
X-180752Y418215D01*
X-180853Y418223D01*
X-180953Y418235D01*
X-181053Y418251D01*
X-181153Y418270D01*
X-181251Y418294D01*
X-181349Y418321D01*
X-181445Y418352D01*
X-181540Y418386D01*
X-181634Y418425D01*
X-181726Y418466D01*
X-181817Y418512D01*
X-181906Y418561D01*
X-181992Y418613D01*
X-182077Y418669D01*
X-182159Y418728D01*
X-182239Y418790D01*
X-182317Y418855D01*
X-182392Y418923D01*
X-182464Y418994D01*
X-182534Y419067D01*
X-182600Y419144D01*
X-182664Y419222D01*
X-182724Y419304D01*
X-182781Y419387D01*
X-182835Y419473D01*
X-182886Y419561D01*
X-182933Y419650D01*
X-182977Y419742D01*
X-183017Y419835D01*
X-183054Y419929D01*
X-183086Y420025D01*
X-183115Y420122D01*
X-183141Y420220D01*
X-183162Y420319D01*
X-183180Y420419D01*
X-183193Y420519D01*
X-183203Y420620D01*
X-183209Y420721D01*
X-183211Y420822D01*
X-183210Y420822D02*
X-183210Y427609D01*
X-187438Y425521D02*
X-190048Y427609D01*
X-190048Y418211D01*
X-187438Y418211D02*
X-192659Y418211D01*
X-140589Y417649D02*
X-140589Y415561D01*
X-140587Y415472D01*
X-140581Y415384D01*
X-140572Y415296D01*
X-140559Y415208D01*
X-140542Y415121D01*
X-140522Y415035D01*
X-140497Y414950D01*
X-140470Y414865D01*
X-140438Y414782D01*
X-140404Y414701D01*
X-140365Y414621D01*
X-140324Y414543D01*
X-140279Y414466D01*
X-140231Y414392D01*
X-140180Y414319D01*
X-140126Y414249D01*
X-140068Y414182D01*
X-140008Y414116D01*
X-139946Y414054D01*
X-139880Y413994D01*
X-139813Y413936D01*
X-139743Y413882D01*
X-139670Y413831D01*
X-139596Y413783D01*
X-139519Y413738D01*
X-139441Y413697D01*
X-139361Y413658D01*
X-139280Y413624D01*
X-139197Y413592D01*
X-139112Y413565D01*
X-139027Y413540D01*
X-138941Y413520D01*
X-138854Y413503D01*
X-138766Y413490D01*
X-138678Y413481D01*
X-138590Y413475D01*
X-138501Y413473D01*
X-138501Y413472D02*
X-133279Y413472D01*
X-133188Y413474D01*
X-133097Y413480D01*
X-133006Y413490D01*
X-132916Y413504D01*
X-132827Y413522D01*
X-132738Y413543D01*
X-132651Y413569D01*
X-132565Y413598D01*
X-132480Y413631D01*
X-132396Y413668D01*
X-132314Y413708D01*
X-132235Y413752D01*
X-132157Y413799D01*
X-132081Y413850D01*
X-132007Y413904D01*
X-131936Y413961D01*
X-131868Y414021D01*
X-131802Y414084D01*
X-131739Y414150D01*
X-131679Y414218D01*
X-131622Y414289D01*
X-131568Y414363D01*
X-131517Y414439D01*
X-131470Y414516D01*
X-131426Y414596D01*
X-131386Y414678D01*
X-131349Y414762D01*
X-131316Y414846D01*
X-131287Y414933D01*
X-131261Y415020D01*
X-131240Y415109D01*
X-131222Y415198D01*
X-131208Y415288D01*
X-131198Y415379D01*
X-131192Y415470D01*
X-131190Y415561D01*
X-131191Y415561D02*
X-131191Y417649D01*
X-131191Y423990D02*
X-131193Y424085D01*
X-131199Y424179D01*
X-131208Y424273D01*
X-131221Y424367D01*
X-131238Y424460D01*
X-131259Y424552D01*
X-131284Y424644D01*
X-131312Y424734D01*
X-131344Y424823D01*
X-131379Y424911D01*
X-131418Y424997D01*
X-131460Y425082D01*
X-131506Y425165D01*
X-131555Y425246D01*
X-131607Y425325D01*
X-131662Y425402D01*
X-131721Y425476D01*
X-131782Y425548D01*
X-131846Y425618D01*
X-131913Y425685D01*
X-131983Y425749D01*
X-132055Y425810D01*
X-132129Y425869D01*
X-132206Y425924D01*
X-132285Y425976D01*
X-132366Y426025D01*
X-132449Y426071D01*
X-132534Y426113D01*
X-132620Y426152D01*
X-132708Y426187D01*
X-132797Y426219D01*
X-132887Y426247D01*
X-132979Y426272D01*
X-133071Y426293D01*
X-133164Y426310D01*
X-133258Y426323D01*
X-133352Y426332D01*
X-133446Y426338D01*
X-133541Y426340D01*
X-131191Y423990D02*
X-131193Y423882D01*
X-131199Y423773D01*
X-131209Y423665D01*
X-131222Y423558D01*
X-131240Y423451D01*
X-131261Y423344D01*
X-131286Y423239D01*
X-131315Y423134D01*
X-131347Y423031D01*
X-131384Y422929D01*
X-131424Y422828D01*
X-131467Y422729D01*
X-131514Y422631D01*
X-131565Y422535D01*
X-131619Y422441D01*
X-131676Y422349D01*
X-131737Y422259D01*
X-131801Y422171D01*
X-131867Y422086D01*
X-131937Y422003D01*
X-132010Y421923D01*
X-132086Y421845D01*
X-132164Y421770D01*
X-132245Y421698D01*
X-132329Y421629D01*
X-132415Y421563D01*
X-132503Y421500D01*
X-132594Y421441D01*
X-132686Y421384D01*
X-132781Y421331D01*
X-132878Y421282D01*
X-132976Y421236D01*
X-133075Y421193D01*
X-133177Y421154D01*
X-133279Y421119D01*
X-135369Y425556D02*
X-135300Y425625D01*
X-135229Y425691D01*
X-135156Y425755D01*
X-135080Y425816D01*
X-135001Y425874D01*
X-134921Y425928D01*
X-134838Y425980D01*
X-134754Y426028D01*
X-134668Y426074D01*
X-134580Y426115D01*
X-134490Y426154D01*
X-134399Y426189D01*
X-134307Y426220D01*
X-134214Y426248D01*
X-134120Y426272D01*
X-134025Y426292D01*
X-133929Y426309D01*
X-133832Y426322D01*
X-133735Y426331D01*
X-133638Y426337D01*
X-133541Y426339D01*
X-135368Y425556D02*
X-140589Y421118D01*
X-140589Y426339D01*
D11*
X-143510Y381000D02*
X-143510Y355600D01*
D12*
X-127748Y366141D02*
X-125659Y366141D01*
X-125570Y366143D01*
X-125482Y366149D01*
X-125394Y366158D01*
X-125306Y366171D01*
X-125219Y366188D01*
X-125133Y366208D01*
X-125048Y366233D01*
X-124963Y366260D01*
X-124880Y366292D01*
X-124799Y366326D01*
X-124719Y366365D01*
X-124641Y366406D01*
X-124564Y366451D01*
X-124490Y366499D01*
X-124417Y366550D01*
X-124347Y366604D01*
X-124280Y366662D01*
X-124214Y366722D01*
X-124152Y366784D01*
X-124092Y366850D01*
X-124034Y366917D01*
X-123980Y366987D01*
X-123929Y367060D01*
X-123881Y367134D01*
X-123836Y367211D01*
X-123795Y367289D01*
X-123756Y367369D01*
X-123722Y367450D01*
X-123690Y367533D01*
X-123663Y367618D01*
X-123638Y367703D01*
X-123618Y367789D01*
X-123601Y367876D01*
X-123588Y367964D01*
X-123579Y368052D01*
X-123573Y368140D01*
X-123571Y368229D01*
X-123571Y373451D01*
X-123573Y373542D01*
X-123579Y373633D01*
X-123589Y373724D01*
X-123603Y373814D01*
X-123620Y373903D01*
X-123642Y373991D01*
X-123668Y374079D01*
X-123697Y374165D01*
X-123730Y374250D01*
X-123767Y374333D01*
X-123807Y374415D01*
X-123851Y374495D01*
X-123898Y374573D01*
X-123949Y374649D01*
X-124002Y374722D01*
X-124059Y374793D01*
X-124120Y374862D01*
X-124183Y374927D01*
X-124248Y374990D01*
X-124317Y375050D01*
X-124388Y375108D01*
X-124461Y375161D01*
X-124537Y375212D01*
X-124615Y375259D01*
X-124695Y375303D01*
X-124777Y375343D01*
X-124860Y375380D01*
X-124945Y375413D01*
X-125031Y375442D01*
X-125119Y375468D01*
X-125207Y375490D01*
X-125296Y375507D01*
X-125386Y375521D01*
X-125477Y375531D01*
X-125568Y375537D01*
X-125659Y375539D01*
X-127748Y375539D01*
X-131217Y366141D02*
X-133827Y366141D01*
X-133928Y366143D01*
X-134029Y366149D01*
X-134130Y366159D01*
X-134230Y366172D01*
X-134330Y366190D01*
X-134429Y366211D01*
X-134527Y366237D01*
X-134624Y366266D01*
X-134720Y366298D01*
X-134814Y366335D01*
X-134907Y366375D01*
X-134999Y366419D01*
X-135088Y366466D01*
X-135176Y366517D01*
X-135262Y366571D01*
X-135345Y366628D01*
X-135427Y366688D01*
X-135505Y366752D01*
X-135582Y366818D01*
X-135655Y366888D01*
X-135726Y366960D01*
X-135794Y367035D01*
X-135859Y367113D01*
X-135921Y367193D01*
X-135980Y367275D01*
X-136036Y367360D01*
X-136088Y367447D01*
X-136137Y367535D01*
X-136183Y367626D01*
X-136224Y367718D01*
X-136263Y367812D01*
X-136297Y367907D01*
X-136328Y368003D01*
X-136355Y368101D01*
X-136379Y368199D01*
X-136398Y368299D01*
X-136414Y368399D01*
X-136426Y368499D01*
X-136434Y368600D01*
X-136438Y368701D01*
X-136438Y368803D01*
X-136434Y368904D01*
X-136426Y369005D01*
X-136414Y369105D01*
X-136398Y369205D01*
X-136379Y369305D01*
X-136355Y369403D01*
X-136328Y369501D01*
X-136297Y369597D01*
X-136263Y369692D01*
X-136224Y369786D01*
X-136183Y369878D01*
X-136137Y369969D01*
X-136088Y370058D01*
X-136036Y370144D01*
X-135980Y370229D01*
X-135921Y370311D01*
X-135859Y370391D01*
X-135794Y370469D01*
X-135726Y370544D01*
X-135655Y370616D01*
X-135582Y370686D01*
X-135505Y370752D01*
X-135427Y370816D01*
X-135345Y370876D01*
X-135262Y370933D01*
X-135176Y370987D01*
X-135088Y371038D01*
X-134999Y371085D01*
X-134907Y371129D01*
X-134814Y371169D01*
X-134720Y371206D01*
X-134624Y371238D01*
X-134527Y371267D01*
X-134429Y371293D01*
X-134330Y371314D01*
X-134230Y371332D01*
X-134130Y371345D01*
X-134029Y371355D01*
X-133928Y371361D01*
X-133827Y371363D01*
X-134349Y375539D02*
X-131217Y375539D01*
X-134349Y375539D02*
X-134439Y375537D01*
X-134528Y375531D01*
X-134618Y375522D01*
X-134707Y375508D01*
X-134795Y375491D01*
X-134882Y375470D01*
X-134969Y375445D01*
X-135054Y375416D01*
X-135138Y375384D01*
X-135220Y375349D01*
X-135301Y375309D01*
X-135380Y375267D01*
X-135457Y375221D01*
X-135532Y375171D01*
X-135605Y375119D01*
X-135676Y375063D01*
X-135744Y375005D01*
X-135809Y374943D01*
X-135872Y374879D01*
X-135932Y374812D01*
X-135989Y374743D01*
X-136043Y374671D01*
X-136094Y374597D01*
X-136142Y374521D01*
X-136186Y374443D01*
X-136227Y374363D01*
X-136265Y374281D01*
X-136299Y374198D01*
X-136329Y374113D01*
X-136356Y374027D01*
X-136379Y373941D01*
X-136398Y373853D01*
X-136413Y373764D01*
X-136425Y373675D01*
X-136433Y373586D01*
X-136437Y373496D01*
X-136437Y373406D01*
X-136433Y373316D01*
X-136425Y373227D01*
X-136413Y373138D01*
X-136398Y373049D01*
X-136379Y372961D01*
X-136356Y372875D01*
X-136329Y372789D01*
X-136299Y372704D01*
X-136265Y372621D01*
X-136227Y372539D01*
X-136186Y372459D01*
X-136142Y372381D01*
X-136094Y372305D01*
X-136043Y372231D01*
X-135989Y372159D01*
X-135932Y372090D01*
X-135872Y372023D01*
X-135809Y371959D01*
X-135744Y371897D01*
X-135676Y371839D01*
X-135605Y371783D01*
X-135532Y371731D01*
X-135457Y371681D01*
X-135380Y371635D01*
X-135301Y371593D01*
X-135220Y371553D01*
X-135138Y371518D01*
X-135054Y371486D01*
X-134969Y371457D01*
X-134882Y371432D01*
X-134795Y371411D01*
X-134707Y371394D01*
X-134618Y371380D01*
X-134528Y371371D01*
X-134439Y371365D01*
X-134349Y371363D01*
X-134349Y371362D02*
X-132261Y371362D01*
D11*
X-204470Y370810D02*
X-229870Y370810D01*
D12*
X-247269Y392329D02*
X-247269Y394418D01*
X-247269Y392329D02*
X-247267Y392240D01*
X-247261Y392152D01*
X-247252Y392064D01*
X-247239Y391976D01*
X-247222Y391889D01*
X-247202Y391803D01*
X-247177Y391718D01*
X-247150Y391633D01*
X-247118Y391550D01*
X-247084Y391469D01*
X-247045Y391389D01*
X-247004Y391311D01*
X-246959Y391234D01*
X-246911Y391160D01*
X-246860Y391087D01*
X-246806Y391017D01*
X-246748Y390950D01*
X-246688Y390884D01*
X-246626Y390822D01*
X-246560Y390762D01*
X-246493Y390704D01*
X-246423Y390650D01*
X-246350Y390599D01*
X-246276Y390551D01*
X-246199Y390506D01*
X-246121Y390465D01*
X-246041Y390426D01*
X-245960Y390392D01*
X-245877Y390360D01*
X-245792Y390333D01*
X-245707Y390308D01*
X-245621Y390288D01*
X-245534Y390271D01*
X-245446Y390258D01*
X-245358Y390249D01*
X-245270Y390243D01*
X-245181Y390241D01*
X-239959Y390241D01*
X-239868Y390243D01*
X-239777Y390249D01*
X-239686Y390259D01*
X-239596Y390273D01*
X-239507Y390291D01*
X-239418Y390312D01*
X-239331Y390338D01*
X-239245Y390367D01*
X-239160Y390400D01*
X-239076Y390437D01*
X-238994Y390477D01*
X-238915Y390521D01*
X-238837Y390568D01*
X-238761Y390619D01*
X-238687Y390673D01*
X-238616Y390730D01*
X-238548Y390790D01*
X-238482Y390853D01*
X-238419Y390919D01*
X-238359Y390987D01*
X-238302Y391058D01*
X-238248Y391132D01*
X-238197Y391208D01*
X-238150Y391285D01*
X-238106Y391365D01*
X-238066Y391447D01*
X-238029Y391531D01*
X-237996Y391615D01*
X-237967Y391702D01*
X-237941Y391789D01*
X-237920Y391878D01*
X-237902Y391967D01*
X-237888Y392057D01*
X-237878Y392148D01*
X-237872Y392239D01*
X-237870Y392330D01*
X-237871Y392329D02*
X-237871Y394418D01*
X-239959Y397887D02*
X-237871Y400497D01*
X-247269Y400497D01*
X-247269Y397887D02*
X-247269Y403108D01*
X-134098Y344551D02*
X-132009Y344551D01*
X-131920Y344553D01*
X-131832Y344559D01*
X-131744Y344568D01*
X-131656Y344581D01*
X-131569Y344598D01*
X-131483Y344618D01*
X-131398Y344643D01*
X-131313Y344670D01*
X-131230Y344702D01*
X-131149Y344736D01*
X-131069Y344775D01*
X-130991Y344816D01*
X-130914Y344861D01*
X-130840Y344909D01*
X-130767Y344960D01*
X-130697Y345014D01*
X-130630Y345072D01*
X-130564Y345132D01*
X-130502Y345194D01*
X-130442Y345260D01*
X-130384Y345327D01*
X-130330Y345397D01*
X-130279Y345470D01*
X-130231Y345544D01*
X-130186Y345621D01*
X-130145Y345699D01*
X-130106Y345779D01*
X-130072Y345860D01*
X-130040Y345943D01*
X-130013Y346028D01*
X-129988Y346113D01*
X-129968Y346199D01*
X-129951Y346286D01*
X-129938Y346374D01*
X-129929Y346462D01*
X-129923Y346550D01*
X-129921Y346639D01*
X-129921Y351861D01*
X-129923Y351952D01*
X-129929Y352043D01*
X-129939Y352134D01*
X-129953Y352224D01*
X-129970Y352313D01*
X-129992Y352401D01*
X-130018Y352489D01*
X-130047Y352575D01*
X-130080Y352660D01*
X-130117Y352743D01*
X-130157Y352825D01*
X-130201Y352905D01*
X-130248Y352983D01*
X-130299Y353059D01*
X-130352Y353132D01*
X-130409Y353203D01*
X-130470Y353272D01*
X-130533Y353337D01*
X-130598Y353400D01*
X-130667Y353460D01*
X-130738Y353518D01*
X-130811Y353571D01*
X-130887Y353622D01*
X-130965Y353669D01*
X-131045Y353713D01*
X-131127Y353753D01*
X-131210Y353790D01*
X-131295Y353823D01*
X-131381Y353852D01*
X-131469Y353878D01*
X-131557Y353900D01*
X-131646Y353917D01*
X-131736Y353931D01*
X-131827Y353941D01*
X-131918Y353947D01*
X-132009Y353949D01*
X-134098Y353949D01*
X-139655Y353949D02*
X-137567Y346639D01*
X-142788Y346639D01*
X-141221Y344551D02*
X-141221Y348728D01*
M02*
