G04 EAGLE Gerber RS-274X export*
G75*
%MOMM*%
%FSLAX34Y34*%
%LPD*%
%INSoldermask Bottom*%
%IPPOS*%
%AMOC8*
5,1,8,0,0,1.08239X$1,22.5*%
G01*
%ADD10C,1.101600*%
%ADD11C,1.625600*%
%ADD12R,1.301600X0.651600*%
%ADD13R,1.101600X1.201600*%
%ADD14R,1.701600X2.801600*%
%ADD15R,2.801600X1.701600*%
%ADD16R,1.201600X1.101600*%

G36*
X178079Y209762D02*
X178079Y209762D01*
X178113Y209771D01*
X178162Y209774D01*
X181266Y210502D01*
X181298Y210517D01*
X181345Y210528D01*
X184285Y211763D01*
X184314Y211783D01*
X184359Y211802D01*
X187051Y213511D01*
X187076Y213535D01*
X187118Y213561D01*
X189487Y215695D01*
X189492Y215701D01*
X189495Y215704D01*
X189505Y215718D01*
X189508Y215723D01*
X189544Y215756D01*
X191525Y218254D01*
X191541Y218286D01*
X191571Y218324D01*
X193107Y221118D01*
X193118Y221152D01*
X193141Y221194D01*
X194190Y224206D01*
X194194Y224240D01*
X194211Y224287D01*
X194742Y227430D01*
X194741Y227466D01*
X194749Y227514D01*
X194749Y230702D01*
X194742Y230737D01*
X194742Y230786D01*
X194211Y233929D01*
X194198Y233962D01*
X194190Y234010D01*
X193141Y237022D01*
X193123Y237052D01*
X193107Y237098D01*
X191571Y239892D01*
X191548Y239919D01*
X191525Y239962D01*
X189544Y242460D01*
X189517Y242483D01*
X189487Y242521D01*
X187118Y244655D01*
X187087Y244673D01*
X187051Y244705D01*
X184359Y246414D01*
X184326Y246426D01*
X184285Y246453D01*
X181345Y247688D01*
X181311Y247695D01*
X181266Y247714D01*
X178162Y248442D01*
X178126Y248443D01*
X178079Y248454D01*
X174897Y248655D01*
X174862Y248650D01*
X174813Y248653D01*
X171642Y248320D01*
X171609Y248309D01*
X171560Y248304D01*
X168489Y247446D01*
X168458Y247431D01*
X168411Y247417D01*
X165525Y246060D01*
X165502Y246042D01*
X165475Y246032D01*
X165423Y245983D01*
X165366Y245941D01*
X165351Y245916D01*
X165330Y245896D01*
X165301Y245831D01*
X165266Y245769D01*
X165262Y245740D01*
X165250Y245714D01*
X165249Y245643D01*
X165240Y245572D01*
X165248Y245544D01*
X165248Y245515D01*
X165282Y245422D01*
X165294Y245381D01*
X165301Y245372D01*
X165305Y245359D01*
X174662Y229108D01*
X165305Y212857D01*
X165296Y212830D01*
X165279Y212806D01*
X165265Y212736D01*
X165242Y212668D01*
X165245Y212639D01*
X165239Y212611D01*
X165253Y212541D01*
X165258Y212470D01*
X165272Y212444D01*
X165277Y212416D01*
X165317Y212357D01*
X165350Y212294D01*
X165372Y212275D01*
X165389Y212251D01*
X165471Y212194D01*
X165503Y212167D01*
X165514Y212164D01*
X165525Y212156D01*
X168411Y210799D01*
X168445Y210790D01*
X168489Y210770D01*
X171560Y209912D01*
X171595Y209910D01*
X171642Y209896D01*
X174813Y209563D01*
X174848Y209566D01*
X174897Y209561D01*
X178079Y209762D01*
G37*
G36*
X-176386Y209566D02*
X-176386Y209566D01*
X-176337Y209563D01*
X-173166Y209896D01*
X-173133Y209907D01*
X-173084Y209912D01*
X-170013Y210770D01*
X-169982Y210785D01*
X-169935Y210799D01*
X-167049Y212156D01*
X-167026Y212174D01*
X-166999Y212184D01*
X-166947Y212233D01*
X-166890Y212275D01*
X-166875Y212300D01*
X-166854Y212320D01*
X-166825Y212385D01*
X-166790Y212447D01*
X-166786Y212476D01*
X-166774Y212502D01*
X-166773Y212573D01*
X-166764Y212644D01*
X-166772Y212672D01*
X-166772Y212701D01*
X-166806Y212794D01*
X-166818Y212835D01*
X-166825Y212844D01*
X-166829Y212857D01*
X-176186Y229108D01*
X-166829Y245359D01*
X-166820Y245387D01*
X-166803Y245411D01*
X-166789Y245480D01*
X-166766Y245548D01*
X-166769Y245577D01*
X-166763Y245605D01*
X-166777Y245675D01*
X-166782Y245746D01*
X-166796Y245772D01*
X-166801Y245800D01*
X-166841Y245859D01*
X-166874Y245922D01*
X-166896Y245941D01*
X-166913Y245965D01*
X-166995Y246022D01*
X-167027Y246049D01*
X-167038Y246052D01*
X-167049Y246060D01*
X-169935Y247417D01*
X-169969Y247426D01*
X-170013Y247446D01*
X-173084Y248304D01*
X-173119Y248306D01*
X-173166Y248320D01*
X-176337Y248653D01*
X-176372Y248650D01*
X-176421Y248655D01*
X-179603Y248454D01*
X-179637Y248445D01*
X-179686Y248442D01*
X-182790Y247714D01*
X-182822Y247700D01*
X-182869Y247688D01*
X-183403Y247464D01*
X-183404Y247464D01*
X-184591Y246965D01*
X-185779Y246465D01*
X-185809Y246453D01*
X-185838Y246433D01*
X-185883Y246414D01*
X-188575Y244705D01*
X-188600Y244681D01*
X-188642Y244655D01*
X-191011Y242521D01*
X-191032Y242493D01*
X-191068Y242460D01*
X-193049Y239962D01*
X-193065Y239930D01*
X-193095Y239892D01*
X-194631Y237098D01*
X-194642Y237064D01*
X-194665Y237022D01*
X-195714Y234010D01*
X-195718Y233976D01*
X-195735Y233929D01*
X-196266Y230786D01*
X-196265Y230751D01*
X-196273Y230702D01*
X-196273Y227514D01*
X-196266Y227479D01*
X-196266Y227430D01*
X-195735Y224287D01*
X-195722Y224254D01*
X-195714Y224206D01*
X-194665Y221194D01*
X-194647Y221164D01*
X-194631Y221118D01*
X-193095Y218324D01*
X-193072Y218297D01*
X-193049Y218254D01*
X-191068Y215756D01*
X-191041Y215733D01*
X-191011Y215695D01*
X-188642Y213561D01*
X-188611Y213543D01*
X-188575Y213511D01*
X-185883Y211802D01*
X-185850Y211790D01*
X-185809Y211763D01*
X-182869Y210528D01*
X-182835Y210521D01*
X-182790Y210502D01*
X-179686Y209774D01*
X-179650Y209773D01*
X-179603Y209762D01*
X-176421Y209561D01*
X-176386Y209566D01*
G37*
G36*
X-98236Y364554D02*
X-98236Y364554D01*
X-98165Y364553D01*
X-98138Y364565D01*
X-98108Y364568D01*
X-98047Y364603D01*
X-97981Y364630D01*
X-97961Y364651D01*
X-97935Y364666D01*
X-97873Y364741D01*
X-97843Y364772D01*
X-97838Y364783D01*
X-97829Y364794D01*
X-88473Y381044D01*
X-69762Y381044D01*
X-69733Y381050D01*
X-69703Y381047D01*
X-69636Y381069D01*
X-69567Y381083D01*
X-69543Y381100D01*
X-69514Y381110D01*
X-69461Y381156D01*
X-69403Y381196D01*
X-69387Y381221D01*
X-69365Y381241D01*
X-69334Y381304D01*
X-69296Y381363D01*
X-69291Y381393D01*
X-69278Y381420D01*
X-69270Y381517D01*
X-69263Y381560D01*
X-69266Y381571D01*
X-69265Y381585D01*
X-69535Y384756D01*
X-69545Y384790D01*
X-69549Y384838D01*
X-70344Y387919D01*
X-70359Y387951D01*
X-70371Y387998D01*
X-71669Y390903D01*
X-71689Y390932D01*
X-71709Y390977D01*
X-73473Y393625D01*
X-73498Y393650D01*
X-73525Y393690D01*
X-75706Y396007D01*
X-75735Y396027D01*
X-75768Y396063D01*
X-78305Y397984D01*
X-78337Y397999D01*
X-78376Y398028D01*
X-81197Y399499D01*
X-81231Y399509D01*
X-81275Y399532D01*
X-84302Y400511D01*
X-84337Y400515D01*
X-84383Y400530D01*
X-87532Y400991D01*
X-87567Y400989D01*
X-87615Y400996D01*
X-90796Y400926D01*
X-90831Y400918D01*
X-90879Y400917D01*
X-94004Y400317D01*
X-94037Y400304D01*
X-94085Y400295D01*
X-97066Y399182D01*
X-97095Y399163D01*
X-97141Y399146D01*
X-99895Y397552D01*
X-99921Y397529D01*
X-99964Y397504D01*
X-102413Y395473D01*
X-102435Y395446D01*
X-102473Y395414D01*
X-104549Y393003D01*
X-104566Y392973D01*
X-104598Y392936D01*
X-106243Y390212D01*
X-106255Y390179D01*
X-106280Y390137D01*
X-107448Y387177D01*
X-107454Y387143D01*
X-107472Y387097D01*
X-108130Y383984D01*
X-108130Y383949D01*
X-108140Y383901D01*
X-108270Y380722D01*
X-108264Y380687D01*
X-108266Y380638D01*
X-107863Y377482D01*
X-107852Y377449D01*
X-107846Y377400D01*
X-106923Y374355D01*
X-106909Y374330D01*
X-106906Y374319D01*
X-106903Y374314D01*
X-106892Y374277D01*
X-105473Y371429D01*
X-105452Y371401D01*
X-105430Y371358D01*
X-103557Y368786D01*
X-103531Y368762D01*
X-103502Y368722D01*
X-101226Y366499D01*
X-101196Y366480D01*
X-101161Y366446D01*
X-98546Y364633D01*
X-98519Y364621D01*
X-98497Y364602D01*
X-98429Y364582D01*
X-98364Y364554D01*
X-98334Y364554D01*
X-98306Y364546D01*
X-98236Y364554D01*
G37*
G36*
X96744Y364553D02*
X96744Y364553D01*
X96815Y364550D01*
X96843Y364560D01*
X96872Y364562D01*
X96961Y364604D01*
X97001Y364619D01*
X97010Y364627D01*
X97022Y364633D01*
X99637Y366446D01*
X99662Y366471D01*
X99702Y366499D01*
X101978Y368722D01*
X101998Y368751D01*
X102033Y368786D01*
X103906Y371358D01*
X103921Y371389D01*
X103949Y371429D01*
X105368Y374277D01*
X105377Y374311D01*
X105399Y374355D01*
X106322Y377400D01*
X106325Y377435D01*
X106339Y377482D01*
X106742Y380638D01*
X106739Y380673D01*
X106746Y380722D01*
X106616Y383901D01*
X106608Y383935D01*
X106606Y383984D01*
X105948Y387097D01*
X105934Y387129D01*
X105924Y387177D01*
X104756Y390137D01*
X104737Y390166D01*
X104719Y390212D01*
X103074Y392936D01*
X103050Y392961D01*
X103025Y393003D01*
X100949Y395414D01*
X100921Y395436D01*
X100889Y395473D01*
X98440Y397504D01*
X98409Y397521D01*
X98371Y397552D01*
X95617Y399146D01*
X95584Y399157D01*
X95542Y399182D01*
X92561Y400295D01*
X92526Y400300D01*
X92480Y400317D01*
X89355Y400917D01*
X89320Y400917D01*
X89272Y400926D01*
X86091Y400996D01*
X86057Y400990D01*
X86008Y400991D01*
X82859Y400530D01*
X82826Y400518D01*
X82778Y400511D01*
X79751Y399532D01*
X79720Y399514D01*
X79673Y399499D01*
X76852Y398028D01*
X76825Y398006D01*
X76781Y397984D01*
X74244Y396063D01*
X74221Y396037D01*
X74182Y396007D01*
X72001Y393690D01*
X71983Y393660D01*
X71949Y393625D01*
X70185Y390977D01*
X70172Y390944D01*
X70145Y390903D01*
X68847Y387998D01*
X68840Y387964D01*
X68820Y387919D01*
X68025Y384838D01*
X68023Y384803D01*
X68011Y384756D01*
X67741Y381585D01*
X67744Y381556D01*
X67739Y381526D01*
X67755Y381458D01*
X67763Y381388D01*
X67778Y381362D01*
X67785Y381333D01*
X67827Y381276D01*
X67862Y381215D01*
X67885Y381197D01*
X67903Y381173D01*
X67963Y381137D01*
X68020Y381094D01*
X68048Y381087D01*
X68074Y381071D01*
X68170Y381055D01*
X68212Y381044D01*
X68224Y381046D01*
X68238Y381044D01*
X86949Y381044D01*
X96305Y364794D01*
X96325Y364772D01*
X96337Y364745D01*
X96390Y364698D01*
X96437Y364645D01*
X96463Y364632D01*
X96485Y364612D01*
X96552Y364589D01*
X96616Y364559D01*
X96646Y364558D01*
X96673Y364548D01*
X96744Y364553D01*
G37*
G36*
X-88633Y56791D02*
X-88633Y56791D01*
X-88570Y56794D01*
X-88548Y56806D01*
X-88523Y56810D01*
X-88473Y56847D01*
X-88418Y56877D01*
X-88404Y56898D01*
X-88383Y56913D01*
X-88355Y56968D01*
X-88319Y57019D01*
X-88313Y57047D01*
X-88303Y57066D01*
X-88302Y57103D01*
X-88291Y57161D01*
X-88314Y76505D01*
X-88320Y76529D01*
X-88318Y76553D01*
X-88346Y76639D01*
X-88354Y76674D01*
X-88360Y76680D01*
X-88363Y76690D01*
X-98049Y93975D01*
X-98051Y93977D01*
X-98051Y93979D01*
X-98178Y94199D01*
X-98213Y94237D01*
X-98241Y94280D01*
X-98272Y94299D01*
X-98297Y94326D01*
X-98345Y94344D01*
X-98388Y94370D01*
X-98425Y94373D01*
X-98459Y94386D01*
X-98510Y94381D01*
X-98561Y94386D01*
X-98601Y94372D01*
X-98632Y94369D01*
X-98658Y94352D01*
X-98698Y94338D01*
X-99138Y94084D01*
X-99148Y94075D01*
X-99164Y94068D01*
X-101823Y92225D01*
X-101841Y92205D01*
X-101871Y92185D01*
X-104191Y89930D01*
X-104206Y89907D01*
X-104232Y89883D01*
X-106150Y87277D01*
X-106160Y87252D01*
X-106182Y87224D01*
X-107645Y84338D01*
X-107652Y84312D01*
X-107669Y84280D01*
X-108638Y81194D01*
X-108640Y81167D01*
X-108652Y81133D01*
X-109100Y77929D01*
X-109098Y77902D01*
X-109104Y77866D01*
X-109019Y74632D01*
X-109012Y74606D01*
X-109012Y74570D01*
X-108398Y71394D01*
X-108387Y71369D01*
X-108381Y71334D01*
X-107252Y68302D01*
X-107237Y68279D01*
X-107226Y68245D01*
X-105614Y65440D01*
X-105596Y65420D01*
X-105579Y65388D01*
X-103528Y62886D01*
X-103507Y62870D01*
X-103484Y62841D01*
X-101050Y60710D01*
X-101027Y60698D01*
X-101000Y60673D01*
X-98249Y58971D01*
X-98223Y58963D01*
X-98193Y58943D01*
X-95200Y57716D01*
X-95173Y57712D01*
X-95140Y57697D01*
X-91985Y56979D01*
X-91958Y56979D01*
X-91923Y56970D01*
X-88694Y56781D01*
X-88633Y56791D01*
G37*
G36*
X87644Y56265D02*
X87644Y56265D01*
X87661Y56263D01*
X90885Y56530D01*
X90911Y56538D01*
X90947Y56540D01*
X94083Y57333D01*
X94107Y57346D01*
X94143Y57354D01*
X97106Y58651D01*
X97128Y58667D01*
X97161Y58681D01*
X99871Y60448D01*
X99889Y60468D01*
X99920Y60487D01*
X102303Y62675D01*
X102318Y62698D01*
X102345Y62721D01*
X104335Y65272D01*
X104347Y65296D01*
X104370Y65324D01*
X105914Y68167D01*
X105921Y68193D01*
X105939Y68225D01*
X106995Y71282D01*
X106997Y71309D01*
X107010Y71343D01*
X107549Y74533D01*
X107547Y74560D01*
X107554Y74596D01*
X107561Y77830D01*
X107555Y77857D01*
X107556Y77893D01*
X107031Y81085D01*
X107021Y81110D01*
X107016Y81146D01*
X105973Y84208D01*
X105959Y84231D01*
X105948Y84266D01*
X104417Y87115D01*
X104399Y87136D01*
X104383Y87168D01*
X102404Y89727D01*
X102383Y89744D01*
X102361Y89773D01*
X99988Y91972D01*
X99965Y91985D01*
X99939Y92011D01*
X97237Y93790D01*
X97179Y93811D01*
X97124Y93840D01*
X97098Y93841D01*
X97074Y93849D01*
X97013Y93843D01*
X96951Y93844D01*
X96927Y93834D01*
X96902Y93831D01*
X96850Y93798D01*
X96793Y93771D01*
X96775Y93750D01*
X96756Y93738D01*
X96737Y93706D01*
X96698Y93662D01*
X87046Y76898D01*
X87039Y76874D01*
X87025Y76855D01*
X87007Y76766D01*
X86997Y76732D01*
X86998Y76723D01*
X86996Y76713D01*
X86742Y56901D01*
X86742Y56899D01*
X86742Y56896D01*
X86742Y56642D01*
X86753Y56592D01*
X86755Y56541D01*
X86773Y56509D01*
X86781Y56473D01*
X86814Y56434D01*
X86838Y56389D01*
X86868Y56368D01*
X86891Y56340D01*
X86938Y56319D01*
X86980Y56289D01*
X87022Y56281D01*
X87050Y56269D01*
X87080Y56270D01*
X87122Y56262D01*
X87630Y56262D01*
X87644Y56265D01*
G37*
G36*
X133618Y135631D02*
X133618Y135631D01*
X133651Y135640D01*
X133700Y135643D01*
X136443Y136260D01*
X136474Y136274D01*
X136521Y136285D01*
X139125Y137345D01*
X139154Y137364D01*
X139199Y137382D01*
X141593Y138856D01*
X141618Y138880D01*
X141659Y138905D01*
X143778Y140753D01*
X143799Y140781D01*
X143836Y140813D01*
X145621Y142984D01*
X145638Y143015D01*
X145668Y143052D01*
X147072Y145488D01*
X147083Y145521D01*
X147107Y145563D01*
X148091Y148197D01*
X148096Y148231D01*
X148113Y148276D01*
X148650Y151036D01*
X148650Y151071D01*
X148659Y151118D01*
X148734Y153929D01*
X148731Y153947D01*
X148734Y153962D01*
X148729Y153983D01*
X148730Y154011D01*
X148341Y156796D01*
X148330Y156828D01*
X148323Y156876D01*
X147482Y159559D01*
X147465Y159589D01*
X147451Y159635D01*
X146179Y162143D01*
X146157Y162170D01*
X146136Y162213D01*
X144469Y164477D01*
X144443Y164501D01*
X144415Y164539D01*
X142398Y166498D01*
X142369Y166517D01*
X142334Y166551D01*
X140022Y168151D01*
X139995Y168163D01*
X139973Y168181D01*
X139905Y168201D01*
X139839Y168229D01*
X139810Y168229D01*
X139782Y168238D01*
X139712Y168230D01*
X139641Y168230D01*
X139614Y168219D01*
X139585Y168216D01*
X139523Y168181D01*
X139457Y168153D01*
X139437Y168132D01*
X139411Y168118D01*
X139348Y168041D01*
X139318Y168011D01*
X139314Y168000D01*
X139305Y167990D01*
X122305Y138490D01*
X122296Y138462D01*
X122280Y138438D01*
X122265Y138369D01*
X122242Y138301D01*
X122245Y138272D01*
X122239Y138244D01*
X122252Y138174D01*
X122258Y138103D01*
X122272Y138077D01*
X122277Y138048D01*
X122317Y137990D01*
X122350Y137927D01*
X122372Y137908D01*
X122389Y137884D01*
X122471Y137827D01*
X122503Y137800D01*
X122514Y137797D01*
X122525Y137789D01*
X125069Y136591D01*
X125103Y136583D01*
X125146Y136562D01*
X127852Y135799D01*
X127887Y135797D01*
X127933Y135784D01*
X130728Y135476D01*
X130763Y135480D01*
X130811Y135474D01*
X133618Y135631D01*
G37*
G36*
X-132300Y135279D02*
X-132300Y135279D01*
X-132252Y135276D01*
X-129457Y135584D01*
X-129424Y135594D01*
X-129376Y135599D01*
X-126670Y136362D01*
X-126639Y136378D01*
X-126593Y136391D01*
X-124049Y137589D01*
X-124026Y137606D01*
X-123999Y137616D01*
X-123947Y137665D01*
X-123890Y137708D01*
X-123875Y137733D01*
X-123854Y137753D01*
X-123825Y137818D01*
X-123790Y137879D01*
X-123786Y137908D01*
X-123774Y137935D01*
X-123773Y138006D01*
X-123764Y138077D01*
X-123772Y138105D01*
X-123772Y138134D01*
X-123806Y138227D01*
X-123818Y138268D01*
X-123825Y138277D01*
X-123829Y138290D01*
X-140829Y167790D01*
X-140849Y167812D01*
X-140861Y167838D01*
X-140914Y167886D01*
X-140961Y167939D01*
X-140987Y167951D01*
X-141009Y167971D01*
X-141076Y167994D01*
X-141140Y168025D01*
X-141170Y168026D01*
X-141197Y168036D01*
X-141268Y168031D01*
X-141339Y168034D01*
X-141366Y168024D01*
X-141396Y168022D01*
X-141485Y167979D01*
X-141525Y167965D01*
X-141534Y167957D01*
X-141546Y167951D01*
X-143858Y166351D01*
X-143882Y166326D01*
X-143922Y166298D01*
X-145939Y164339D01*
X-145958Y164311D01*
X-145993Y164277D01*
X-147660Y162013D01*
X-147674Y161982D01*
X-147703Y161943D01*
X-148975Y159435D01*
X-148979Y159421D01*
X-148981Y159417D01*
X-148983Y159404D01*
X-148984Y159402D01*
X-149006Y159359D01*
X-149847Y156676D01*
X-149851Y156642D01*
X-149865Y156596D01*
X-150254Y153811D01*
X-150252Y153776D01*
X-150258Y153729D01*
X-150183Y150918D01*
X-150175Y150884D01*
X-150174Y150836D01*
X-149637Y148076D01*
X-149624Y148044D01*
X-149615Y147997D01*
X-148631Y145363D01*
X-148613Y145334D01*
X-148596Y145288D01*
X-147192Y142852D01*
X-147169Y142826D01*
X-147145Y142784D01*
X-145360Y140613D01*
X-145333Y140591D01*
X-145302Y140553D01*
X-143183Y138705D01*
X-143153Y138688D01*
X-143117Y138656D01*
X-140723Y137182D01*
X-140690Y137170D01*
X-140649Y137145D01*
X-138045Y136085D01*
X-138011Y136078D01*
X-137967Y136060D01*
X-135224Y135443D01*
X-135189Y135442D01*
X-135142Y135431D01*
X-132335Y135274D01*
X-132300Y135279D01*
G37*
G36*
X139744Y289985D02*
X139744Y289985D01*
X139815Y289982D01*
X139842Y289992D01*
X139872Y289994D01*
X139961Y290037D01*
X140001Y290051D01*
X140010Y290059D01*
X140022Y290065D01*
X142334Y291665D01*
X142358Y291690D01*
X142398Y291718D01*
X144415Y293677D01*
X144434Y293705D01*
X144469Y293739D01*
X146136Y296003D01*
X146150Y296034D01*
X146179Y296073D01*
X147451Y298581D01*
X147460Y298614D01*
X147482Y298657D01*
X148323Y301340D01*
X148327Y301374D01*
X148341Y301420D01*
X148730Y304205D01*
X148728Y304240D01*
X148734Y304287D01*
X148659Y307098D01*
X148651Y307132D01*
X148650Y307180D01*
X148113Y309940D01*
X148100Y309972D01*
X148091Y310019D01*
X147107Y312653D01*
X147089Y312683D01*
X147072Y312728D01*
X145668Y315164D01*
X145645Y315190D01*
X145621Y315232D01*
X143836Y317403D01*
X143809Y317425D01*
X143778Y317463D01*
X141659Y319311D01*
X141629Y319328D01*
X141593Y319360D01*
X139199Y320834D01*
X139166Y320846D01*
X139125Y320871D01*
X136521Y321931D01*
X136487Y321938D01*
X136443Y321956D01*
X133700Y322573D01*
X133665Y322574D01*
X133618Y322585D01*
X130811Y322742D01*
X130776Y322737D01*
X130728Y322740D01*
X127933Y322433D01*
X127900Y322422D01*
X127852Y322417D01*
X125146Y321654D01*
X125115Y321638D01*
X125069Y321625D01*
X122525Y320427D01*
X122502Y320410D01*
X122475Y320400D01*
X122423Y320351D01*
X122366Y320308D01*
X122351Y320283D01*
X122330Y320263D01*
X122301Y320198D01*
X122266Y320137D01*
X122262Y320108D01*
X122250Y320081D01*
X122249Y320010D01*
X122240Y319939D01*
X122248Y319911D01*
X122248Y319882D01*
X122282Y319789D01*
X122294Y319748D01*
X122301Y319739D01*
X122305Y319726D01*
X139305Y290226D01*
X139325Y290204D01*
X139337Y290178D01*
X139390Y290131D01*
X139437Y290077D01*
X139463Y290065D01*
X139485Y290045D01*
X139552Y290022D01*
X139616Y289991D01*
X139646Y289990D01*
X139673Y289980D01*
X139744Y289985D01*
G37*
G36*
X-141237Y289986D02*
X-141237Y289986D01*
X-141167Y289985D01*
X-141139Y289997D01*
X-141109Y290000D01*
X-141048Y290035D01*
X-140983Y290061D01*
X-140962Y290083D01*
X-140935Y290098D01*
X-140874Y290172D01*
X-140844Y290203D01*
X-140839Y290215D01*
X-140829Y290226D01*
X-123829Y319726D01*
X-123820Y319755D01*
X-123803Y319780D01*
X-123789Y319849D01*
X-123766Y319915D01*
X-123769Y319945D01*
X-123763Y319975D01*
X-123777Y320043D01*
X-123782Y320113D01*
X-123796Y320140D01*
X-123802Y320170D01*
X-123842Y320227D01*
X-123874Y320289D01*
X-123897Y320309D01*
X-123914Y320334D01*
X-123994Y320389D01*
X-124027Y320416D01*
X-124039Y320420D01*
X-124051Y320428D01*
X-126742Y321680D01*
X-126777Y321689D01*
X-126824Y321710D01*
X-129691Y322475D01*
X-129727Y322478D01*
X-129776Y322491D01*
X-132733Y322747D01*
X-132769Y322743D01*
X-132820Y322747D01*
X-135776Y322486D01*
X-135810Y322475D01*
X-135861Y322470D01*
X-138727Y321700D01*
X-138759Y321684D01*
X-138809Y321670D01*
X-141497Y320414D01*
X-141526Y320392D01*
X-141573Y320370D01*
X-144002Y318666D01*
X-144027Y318640D01*
X-144069Y318610D01*
X-146165Y316510D01*
X-146185Y316480D01*
X-146221Y316444D01*
X-147921Y314012D01*
X-147936Y313978D01*
X-147965Y313936D01*
X-149217Y311246D01*
X-149225Y311210D01*
X-149246Y311164D01*
X-150012Y308297D01*
X-150014Y308261D01*
X-150027Y308211D01*
X-150283Y305255D01*
X-150279Y305219D01*
X-150283Y305168D01*
X-150022Y302212D01*
X-150012Y302177D01*
X-150007Y302126D01*
X-149237Y299260D01*
X-149220Y299228D01*
X-149207Y299179D01*
X-147951Y296490D01*
X-147929Y296461D01*
X-147907Y296415D01*
X-146203Y293986D01*
X-146177Y293961D01*
X-146147Y293919D01*
X-144047Y291822D01*
X-144017Y291802D01*
X-143980Y291766D01*
X-141548Y290066D01*
X-141520Y290054D01*
X-141497Y290035D01*
X-141430Y290015D01*
X-141366Y289987D01*
X-141335Y289987D01*
X-141306Y289978D01*
X-141237Y289986D01*
G37*
G36*
X16267Y381050D02*
X16267Y381050D01*
X16296Y381047D01*
X16363Y381069D01*
X16433Y381083D01*
X16457Y381100D01*
X16485Y381109D01*
X16538Y381156D01*
X16597Y381196D01*
X16613Y381220D01*
X16635Y381240D01*
X16666Y381304D01*
X16704Y381363D01*
X16709Y381392D01*
X16721Y381418D01*
X16730Y381518D01*
X16737Y381560D01*
X16734Y381570D01*
X16736Y381584D01*
X16504Y384382D01*
X16494Y384416D01*
X16490Y384464D01*
X15801Y387185D01*
X15786Y387217D01*
X15774Y387263D01*
X14646Y389835D01*
X14626Y389863D01*
X14607Y389907D01*
X13071Y392258D01*
X13047Y392282D01*
X13021Y392323D01*
X11119Y394388D01*
X11091Y394409D01*
X11058Y394444D01*
X8843Y396169D01*
X8812Y396184D01*
X8774Y396214D01*
X6304Y397550D01*
X6271Y397560D01*
X6229Y397583D01*
X3589Y398490D01*
X3573Y398495D01*
X3539Y398500D01*
X3493Y398515D01*
X724Y398977D01*
X689Y398976D01*
X642Y398984D01*
X-2166Y398984D01*
X-2200Y398977D01*
X-2248Y398977D01*
X-5017Y398515D01*
X-5050Y398503D01*
X-5097Y398495D01*
X-7753Y397583D01*
X-7783Y397566D01*
X-7828Y397550D01*
X-10298Y396214D01*
X-10324Y396192D01*
X-10367Y396169D01*
X-12582Y394444D01*
X-12605Y394418D01*
X-12643Y394388D01*
X-14545Y392323D01*
X-14563Y392293D01*
X-14595Y392258D01*
X-16131Y389907D01*
X-16144Y389875D01*
X-16170Y389835D01*
X-17298Y387263D01*
X-17305Y387230D01*
X-17308Y387223D01*
X-17314Y387214D01*
X-17315Y387208D01*
X-17325Y387185D01*
X-18014Y384464D01*
X-18016Y384429D01*
X-18028Y384382D01*
X-18260Y381584D01*
X-18256Y381555D01*
X-18261Y381526D01*
X-18245Y381457D01*
X-18236Y381387D01*
X-18222Y381361D01*
X-18215Y381333D01*
X-18173Y381276D01*
X-18138Y381214D01*
X-18114Y381196D01*
X-18097Y381173D01*
X-18036Y381137D01*
X-17979Y381094D01*
X-17951Y381086D01*
X-17926Y381071D01*
X-17828Y381055D01*
X-17787Y381044D01*
X-17776Y381046D01*
X-17762Y381044D01*
X16238Y381044D01*
X16267Y381050D01*
G37*
D10*
X91186Y388366D03*
X183134Y229108D03*
X97028Y74422D03*
X-97790Y73914D03*
X-184658Y229108D03*
X-92710Y388366D03*
X137160Y308610D03*
X137160Y149606D03*
X-138684Y149352D03*
X-138684Y308610D03*
X-762Y388366D03*
D11*
X220980Y114808D02*
X236220Y114808D01*
X236220Y140208D02*
X220980Y140208D01*
X220980Y165608D02*
X236220Y165608D01*
X236220Y191008D02*
X220980Y191008D01*
X220980Y216408D02*
X236220Y216408D01*
X236220Y241808D02*
X220980Y241808D01*
X220980Y267208D02*
X236220Y267208D01*
X236220Y292608D02*
X220980Y292608D01*
X220980Y318008D02*
X236220Y318008D01*
X236220Y343408D02*
X220980Y343408D01*
X-220980Y114808D02*
X-236220Y114808D01*
X-236220Y140208D02*
X-220980Y140208D01*
X-220980Y165608D02*
X-236220Y165608D01*
X-236220Y191008D02*
X-220980Y191008D01*
X-220980Y216408D02*
X-236220Y216408D01*
X-236220Y241808D02*
X-220980Y241808D01*
X-220980Y267208D02*
X-236220Y267208D01*
X-236220Y292608D02*
X-220980Y292608D01*
X-220980Y318008D02*
X-236220Y318008D01*
X-236220Y343408D02*
X-220980Y343408D01*
D12*
X-192070Y389280D03*
X-192070Y398780D03*
X-192070Y408280D03*
X-166070Y408280D03*
X-166070Y389280D03*
D13*
X-152400Y410600D03*
X-152400Y427600D03*
D14*
X-154910Y368300D03*
X-182910Y368300D03*
D15*
X-217170Y382210D03*
X-217170Y410210D03*
D16*
X-160410Y349250D03*
X-177410Y349250D03*
M02*
